*
G04 Mass Parameters ***
*
G04 Image ***
*
%IND:\DATE\GPR\HARDWARE\SECTIUNEA_LF\GPR_LF.BOT*%
%ICAS*%
%MOIN*%
%IPPOS*%
%ASAXBY*%
G74*%FSLAN2X34Y34*%
*
G04 Aperture Definitions ***
*
%ADD10C,0.0520*%
%ADD11R,0.0520X0.0520*%
%ADD12C,0.0550*%
%ADD13C,0.0620*%
%ADD14R,0.0620X0.0620*%
%ADD15C,0.0580*%
%ADD16R,0.0580X0.0580*%
%ADD17R,0.0550X0.0550*%
%ADD18C,0.1470*%
%ADD19C,0.0750*%
%ADD20R,0.0750X0.0750*%
%ADD21C,0.0500*%
%ADD22C,0.0010*%
%ADD23C,0.0500*%
%ADD24C,0.0300*%
%ADD25C,0.0200*%
%ADD26O,0.0250X0.0860*%
%ADD27R,0.0250X0.0860*%
%ADD28O,0.0860X0.0250*%
%ADD29R,0.0860X0.0250*%
%ADD30C,0.0100*%
%ADD31C,0.0500*%
%ADD32C,0.0080*%
%ADD33C,0.0250*%
%ADD34C,0.0180*%
%ADD35C,0.0720*%
%ADD36R,0.0720X0.0720*%
%ADD37C,0.0800*%
%ADD38C,0.0820*%
%ADD39R,0.0820X0.0820*%
%ADD40C,0.0780*%
%ADD41R,0.0780X0.0780*%
%ADD42C,0.1750*%
%ADD43C,0.0950*%
%ADD44R,0.0950X0.0950*%
%ADD45C,0.0750*%
%ADD46C,0.0670*%
%ADD47C,0.0550*%
%ADD48O,0.0750X0.0250*%
%ADD49R,0.0750X0.0250*%
%ADD50O,0.0250X0.0750*%
%ADD51R,0.0250X0.0750*%
%ADD52C,0.0400*%
%ADD53C,0.1100*%
%ADD54C,0.1000*%
%ADD55C,0.1400*%
%ADD56C,0.1050*%
*
G04 Plot Data ***
*
G54D24*
G01X0018405Y0009630D02*
X0017215D01*
X0016715Y0009130D01*
X0019795Y0006880D02*
X0016875Y0003960D01*
X0014545D01*
X0037845Y0017720D02*
X0037835Y0017730D01*
X0036585D01*
X0036575Y0017740D01*
X0035945D01*
X0035935Y0017730D01*
X0035005Y0018660D01*
Y0018690D01*
Y0020690D02*
X0036405Y0022090D01*
X0039565D01*
X0040845Y0020810D01*
Y0017720D01*
X0031275Y0006660D02*
X0032335D01*
X0032905Y0007230D01*
Y0009250D01*
X0031345D01*
X0039605D01*
Y0016400D02*
X0040845Y0017640D01*
Y0017720D01*
X0032785Y0022980D02*
Y0022160D01*
X0027395Y0020250D02*
Y0021530D01*
X0020115D01*
X0020095Y0021550D01*
X0021155D01*
X0021165Y0021560D01*
Y0023020D01*
X0021175Y0023030D01*
X0027395Y0020250D02*
Y0021530D01*
X0020115D01*
X0020085Y0021560D01*
Y0021550D01*
Y0024740D02*
X0007955D01*
X0007935Y0024760D01*
X0007925Y0020680D02*
X0007915D01*
X0007135Y0021460D01*
X0005725D01*
X0005715Y0021470D01*
Y0019630D01*
X0007215Y0009130D02*
Y0009880D01*
X0007965Y0010630D01*
Y0011630D01*
X0006965D01*
X0027235Y0006910D02*
X0027185Y0006860D01*
X0026025D01*
X0024965Y0007920D01*
Y0008630D01*
Y0007880D01*
X0024715Y0007630D01*
X0023245D01*
X0022370Y0008505D01*
X0039585Y0019840D02*
X0039595Y0019830D01*
Y0018120D01*
X0037505Y0016030D01*
X0032525D01*
X0027395Y0019000D02*
X0028105Y0018290D01*
Y0016850D01*
X0028925Y0016030D01*
X0032525D01*
X0028295Y0023010D02*
X0028285D01*
Y0024160D01*
X0029165Y0025040D01*
X0034675D01*
X0034725Y0024990D01*
Y0024490D01*
X0032295D01*
X0031785Y0023980D01*
Y0022980D01*
X0006965Y0019630D02*
X0009185D01*
Y0020940D01*
X0009145Y0020980D01*
X0008885D01*
X0008905Y0021000D01*
X0009145D01*
X0022215Y0018130D02*
X0022625D01*
X0023325Y0018830D01*
X0023835D01*
X0026635Y0016030D01*
X0032525D01*
X0031785Y0022980D02*
Y0023980D01*
X0032295Y0024490D01*
X0034725D01*
Y0024990D01*
X0034785Y0025050D01*
X0040995D01*
X0043595Y0022450D01*
Y0012630D01*
X0042455D01*
X0042435Y0012650D01*
X0031785Y0022980D02*
Y0023980D01*
X0032295Y0024490D01*
X0039525D01*
X0042515Y0021500D01*
Y0017630D01*
X0040425Y0015540D01*
X0037935D01*
X0037505Y0015970D01*
Y0016030D01*
X0032525D01*
X0018115Y0007400D02*
X0016235Y0005520D01*
X0012855D01*
X0011865Y0004530D01*
Y0003950D01*
X0011845Y0003930D01*
X0007215Y0009130D02*
Y0008130D01*
X0006465Y0007380D01*
X0005215D01*
X0004965Y0007130D01*
Y0005380D01*
X0005465Y0004880D01*
X0008215D01*
X0009965Y0006630D01*
Y0010750D01*
X0010625Y0011410D01*
X0011865D01*
X0010625D01*
X0009965Y0010750D01*
Y0009130D01*
Y0003880D02*
Y0003050D01*
X0010885Y0002130D01*
X0041825D01*
X0043595Y0003900D01*
Y0012630D01*
X0042455D01*
X0042435Y0012650D01*
X0023605Y0017690D02*
X0023595D01*
X0023135Y0017230D01*
X0021875D01*
X0020965Y0018140D01*
X0020225D01*
X0020215Y0018130D01*
Y0019880D01*
X0018195Y0021900D01*
X0008775D01*
X0007055Y0023620D01*
X0004785D01*
X0004215Y0023050D01*
Y0014610D01*
X0004675Y0014150D01*
X0005715D01*
X0005725Y0014140D01*
X0040885Y0014640D02*
X0040875Y0014630D01*
X0025945D01*
Y0014620D01*
X0024215Y0012890D01*
Y0011630D01*
X0023215Y0010630D01*
X0025215D02*
X0025475D01*
X0027475Y0012630D01*
X0040875D01*
X0040885Y0012640D01*
X0006965Y0011630D02*
X0007965D01*
Y0019630D01*
X0006965D01*
X0006715Y0022630D02*
X0007135D01*
X0008775Y0020990D01*
X0008895D01*
X0008905Y0021000D01*
X0009145D01*
X0005715Y0009130D02*
X0004215Y0007630D01*
Y0004880D01*
X0005215Y0003880D01*
X0008215D01*
X0011965Y0007630D01*
X0013715D01*
X0023715Y0008630D02*
X0023215Y0009130D01*
X0040885Y0014640D02*
X0040895Y0014630D01*
X0042415D01*
X0042435Y0014650D01*
X0017545Y0013170D02*
X0016505Y0012130D01*
X0009965D01*
X0008975Y0011140D01*
Y0006890D01*
X0008215Y0006130D01*
X0007215D01*
X0036585Y0020720D02*
X0038705D01*
X0039585Y0019840D01*
X0032205Y0021520D02*
X0029555D01*
Y0019500D01*
X0029545Y0019490D02*
X0029535Y0019480D01*
X0020655Y0015940D02*
X0020215Y0016380D01*
X0018715D01*
X0016965Y0018130D01*
X0015715D01*
X0005725Y0014140D02*
Y0011640D01*
X0005715Y0011630D01*
X0040885Y0012640D02*
X0040895Y0012630D01*
X0042415D01*
X0042435Y0012650D01*
X0023215Y0010630D02*
X0015215D01*
X0013715Y0009130D01*
X0024965Y0008630D02*
Y0009630D01*
X0025215Y0009880D01*
Y0010630D01*
X0027395Y0020250D02*
Y0021530D01*
X0032205D01*
X0015715Y0018130D02*
X0015035D01*
Y0019090D01*
X0015015Y0019070D01*
X0014985Y0019100D01*
X0014245D01*
X0014215Y0019130D01*
X0015715Y0019660D02*
Y0019630D01*
X0015595D01*
X0015035Y0019070D01*
Y0018130D01*
X0015715D01*
X0016715Y0014630D02*
X0015715Y0013630D01*
Y0013130D01*
X0005715Y0006130D02*
X0007215D01*
X0005715Y0022630D02*
Y0019630D01*
X0033285Y0018970D02*
X0035005Y0020690D01*
X0029225Y0008250D02*
X0029275Y0008200D01*
Y0006660D01*
X0016995Y0017080D02*
X0016165D01*
X0013715Y0014630D01*
X0023667Y0013840D02*
X0024208Y0014380D01*
X0024215D02*
X0025065Y0015230D01*
Y0016030D01*
X0025085D01*
X0024625Y0016490D01*
X0021415D01*
X0020775Y0017130D01*
X0019715D01*
X0018715Y0018130D01*
X0027775Y0009250D02*
X0027315Y0009710D01*
X0027295Y0009960D02*
X0027275Y0009940D01*
X0027265D01*
X0027235Y0009910D01*
X0023215Y0010630D02*
Y0009130D01*
X0023715Y0008630D01*
X0040845Y0019830D02*
Y0017720D01*
X0009145Y0023000D02*
X0009155Y0022990D01*
X0010315D01*
X0005715Y0019630D02*
X0005725Y0019620D01*
Y0017140D01*
X0016715Y0016130D02*
Y0014630D01*
X0017715Y0019660D02*
Y0019630D01*
X0019215D01*
X0033195Y0017420D02*
X0033735D01*
X0035005Y0018690D01*
X0013715Y0009130D02*
Y0007630D01*
X0013745Y0022990D02*
X0019785D01*
X0021115Y0024320D01*
X0022885D01*
X0024175Y0023030D01*
X0016715Y0007630D02*
X0015215D01*
X0014215Y0006630D01*
X0012715D01*
X0010965Y0004880D01*
Y0003380D01*
X0011465Y0002880D01*
X0013115D01*
X0013545Y0003310D01*
Y0003960D01*
X0015715Y0018130D02*
X0015035D01*
Y0019100D01*
X0014245D01*
X0014215Y0019130D01*
X0013715Y0014630D02*
X0010305Y0018040D01*
Y0019990D01*
X0010315D01*
X0031395Y0011380D02*
X0031375Y0011360D01*
X0030815D01*
X0030255Y0010800D01*
X0014215Y0019130D02*
X0014225Y0019120D01*
X0014965D01*
X0014985Y0019100D01*
X0015035D01*
Y0018130D01*
X0015715D01*
X0005715Y0011630D02*
Y0009130D01*
X0042435Y0013650D02*
X0042425Y0013640D01*
X0026865D01*
X0026845Y0013660D01*
Y0017020D02*
X0026795D01*
X0025435Y0018380D01*
Y0019580D01*
X0012965Y0019130D02*
Y0016880D01*
X0013715Y0016130D01*
X0031395Y0011380D02*
X0031415Y0011360D01*
X0041415D01*
X0041705Y0011650D01*
X0042435D01*
X0029515Y0019500D02*
X0029535Y0019480D01*
X0022215Y0019630D02*
X0023445D01*
X0010315Y0022990D02*
X0011745D01*
X0017585Y0008505D02*
X0016715Y0007630D01*
X0021340Y0008130D02*
X0021865D01*
X0024545Y0005450D01*
X0029435D01*
X0030265Y0006280D01*
X0019215Y0019630D02*
Y0018630D01*
X0018715Y0018130D01*
X0027235Y0009910D02*
X0027265Y0009940D01*
X0027275D01*
X0027295Y0009960D01*
Y0009990D02*
X0027175Y0010110D01*
X0027155D01*
Y0010490D01*
X0028025Y0011360D01*
X0013715Y0014630D02*
Y0013130D01*
X0024175Y0023030D02*
X0024195Y0023010D01*
X0025295D01*
X0027425Y0018980D02*
X0027405Y0019000D01*
X0027395D01*
G54D25*
G01X0032785Y0022160D02*
X0032215Y0021590D01*
Y0021490D01*
X0032205Y0021520D01*
Y0019715D01*
X0029225Y0008250D02*
X0028635D01*
X0027295Y0006910D01*
X0027285Y0006925D01*
X0027250D01*
X0027235Y0006910D01*
X0032525Y0016030D02*
X0032580Y0016085D01*
Y0018215D01*
X0032525Y0016030D02*
X0032580Y0016085D01*
Y0018215D01*
X0032525Y0016030D02*
X0032580Y0016085D01*
Y0018215D01*
X0032525Y0016030D02*
X0032580Y0016085D01*
Y0018215D01*
X0032205Y0019715D02*
Y0021520D01*
X0029555Y0019500D02*
X0029545Y0019490D01*
X0032205Y0019715D02*
Y0021100D01*
X0032215Y0021110D01*
X0032705D01*
X0032955Y0020860D01*
Y0019715D01*
X0032205Y0021530D02*
Y0019715D01*
X0032580D02*
Y0019115D01*
X0032725Y0018970D01*
X0033285D01*
X0029225Y0009250D02*
X0027775D01*
X0030255Y0010800D02*
Y0009230D01*
X0030735Y0008750D01*
X0031345D01*
X0030535Y0017480D02*
X0032005D01*
X0032205Y0017680D01*
Y0018215D01*
X0030265Y0006280D02*
Y0008300D01*
X0029815Y0008750D01*
X0029225D01*
G54D30*
G01X0030583Y0001038D02*
X0030666Y0001122D01*
X0030708Y0001205D01*
Y0001372D01*
X0030666Y0001455D01*
X0030583Y0001538D01*
X0030499D01*
X0030416Y0001455D01*
X0030374Y0001372D01*
Y0001205D01*
X0030416Y0001122D01*
X0030499Y0001038D01*
X0030583D01*
X0030949D02*
X0031283D01*
X0030949Y0001372D01*
Y0001455D01*
X0030991Y0001538D01*
X0031241D01*
X0031283Y0001455D01*
X0031733Y0001038D02*
X0031816Y0001122D01*
X0031858Y0001205D01*
Y0001372D01*
X0031816Y0001455D01*
X0031733Y0001538D01*
X0031649D01*
X0031566Y0001455D01*
X0031524Y0001372D01*
Y0001205D01*
X0031566Y0001122D01*
X0031649Y0001038D01*
X0031733D01*
X0032099D02*
X0032433D01*
X0032099Y0001372D01*
Y0001455D01*
X0032141Y0001538D01*
X0032391D01*
X0032433Y0001455D01*
X0033437Y0001038D02*
Y0001288D01*
X0033478Y0001372D01*
X0033728D01*
Y0001038D01*
X0034012Y0001372D02*
Y0001038D01*
X0033970D02*
X0034262D01*
X0034303Y0001122D01*
Y0001372D01*
X0034795D02*
X0034628D01*
X0034587Y0001288D01*
Y0001122D01*
X0034545Y0001038D01*
X0034837D01*
X0034878Y0001122D01*
X0034837Y0001205D01*
X0034587D01*
X0035453Y0001288D02*
X0035203D01*
X0035120Y0001372D01*
Y0001455D01*
X0035203Y0001538D01*
X0035453D01*
Y0001038D01*
X0036458D02*
X0036624D01*
X0036541D02*
Y0001538D01*
X0036624D01*
X0036949Y0001038D02*
X0037199D01*
X0037241Y0001122D01*
Y0001288D01*
X0037199Y0001372D01*
X0036949D01*
X0036908Y0001288D01*
Y0001205D01*
X0037241D01*
X0037483Y0001372D02*
X0037649D01*
X0037691Y0001288D01*
X0037774D01*
Y0001372D02*
Y0001038D01*
X0038100Y0001538D02*
Y0001539D01*
X0038099D01*
Y0001538D01*
X0038100D01*
X0038016Y0001038D02*
X0038183D01*
X0038099D02*
Y0001372D01*
X0038183D01*
X0038466Y0001038D02*
Y0001538D01*
X0038549Y0001455D01*
X0038633Y0001288D01*
X0038716Y0001455D01*
X0038799Y0001538D01*
Y0001038D01*
X0040053Y0001538D02*
X0039803Y0001288D01*
X0040053Y0001038D01*
X0040378Y0001122D02*
X0040420Y0001038D01*
X0040670D01*
X0040712Y0001122D01*
Y0001455D01*
X0040670Y0001538D01*
X0040420D01*
X0040378Y0001455D01*
X0040953Y0001538D02*
X0041203Y0001288D01*
X0040953Y0001038D01*
X0007761Y0018834D02*
X0006965Y0019630D01*
X0018670Y0011920D02*
X0017545D01*
X0043560Y0012650D02*
X0042435D01*
X0010270Y0021000D02*
X0009145D01*
Y0019875D02*
Y0021000D01*
X0039760Y0012640D02*
X0040885D01*
X0012671Y0009955D02*
X0011875Y0009160D01*
X0011080Y0008364D02*
X0011875Y0009160D01*
X0011080Y0009955D02*
X0011875Y0009160D01*
X0010761Y0009925D02*
X0009965Y0009130D01*
X0010761Y0008334D02*
X0009965Y0009130D01*
X0009170Y0003084D02*
X0009965Y0003880D01*
X0029091Y0023805D02*
X0028295Y0023010D01*
X0027500Y0023805D02*
X0028295Y0023010D01*
X0026440Y0007705D02*
X0027235Y0006910D01*
X0028031Y0007705D02*
X0027235Y0006910D01*
X0037381Y0019924D02*
X0036585Y0020720D01*
X0035790Y0019924D02*
X0036585Y0020720D01*
X0008011Y0008334D02*
X0007215Y0009130D01*
X0008011Y0009925D02*
X0007215Y0009130D01*
X0006420Y0008334D02*
X0007215Y0009130D01*
X0030990Y0023775D02*
X0031785Y0022980D01*
X0028480Y0007455D02*
X0029275Y0006660D01*
X0038790Y0019044D02*
X0039585Y0019840D01*
X0038790Y0020635D02*
X0039585Y0019840D01*
X0028191Y0018204D02*
X0027395Y0019000D01*
X0021420Y0018925D02*
X0022215Y0018130D01*
X0026011Y0011425D02*
X0025215Y0010630D01*
X0024420Y0009834D02*
X0025215Y0010630D01*
X0026011Y0009834D02*
X0025215Y0010630D01*
X0025761Y0009425D02*
X0024965Y0008630D01*
X0025761Y0007834D02*
X0024965Y0008630D01*
X0007761Y0012425D02*
X0006965Y0011630D01*
X0007761Y0010834D02*
X0006965Y0011630D01*
X0008975Y0013550D02*
X0009255D01*
X0008975Y0013460D02*
X0009255D01*
X0008975Y0013370D02*
X0009255D01*
X0008975Y0013280D02*
X0009255D01*
X0008975Y0013190D02*
X0009255D01*
X0008975Y0013100D02*
X0009255D01*
X0008975Y0013010D02*
X0009255D01*
X0008975Y0012920D02*
X0009255D01*
X0008975Y0012830D02*
X0009255D01*
X0008975Y0012740D02*
X0009255D01*
X0008975Y0012650D02*
X0009255D01*
X0008975Y0014540D02*
X0009255D01*
X0008975Y0014450D02*
X0009255D01*
X0008975Y0014360D02*
X0009255D01*
X0008975Y0014270D02*
X0009255D01*
X0008975Y0014180D02*
X0009255D01*
X0008975Y0014090D02*
X0009255D01*
X0008975Y0014000D02*
X0009255D01*
X0008975Y0013910D02*
X0009255D01*
X0008975Y0013820D02*
X0009255D01*
X0008975Y0013730D02*
X0009255D01*
X0008975Y0013640D02*
X0009255D01*
X0008975Y0015530D02*
X0009255D01*
X0008975Y0015440D02*
X0009255D01*
X0008975Y0015350D02*
X0009255D01*
X0008975Y0015260D02*
X0009255D01*
X0008975Y0015170D02*
X0009255D01*
X0008975Y0015080D02*
X0009255D01*
X0008975Y0014990D02*
X0009255D01*
X0008975Y0014900D02*
X0009255D01*
X0008975Y0014810D02*
X0009255D01*
X0008975Y0014720D02*
X0009255D01*
X0008975Y0014630D02*
X0009255D01*
X0008975Y0012560D02*
X0009255D01*
X0008975Y0012520D02*
X0009255D01*
X0008975Y0015660D02*
Y0012520D01*
Y0015660D02*
X0009255D01*
Y0012520D01*
X0009035Y0015660D02*
Y0012520D01*
X0009125Y0015660D02*
Y0012520D01*
X0009215Y0015660D02*
Y0012520D01*
X0008975Y0015620D02*
X0009255D01*
G54D31*
G01X0034990Y0017685D02*
X0034234Y0016929D01*
X0010435Y0021200D02*
Y0020907D01*
X0013585Y0021200D02*
Y0020055D01*
X0034083Y0020757D02*
X0033605Y0020280D01*
X0014035Y0011430D02*
Y0010440D01*
X0012754Y0009450D02*
X0012847D01*
X0023935Y0018845D02*
Y0018554D01*
X0038754Y0017550D02*
X0039765D01*
X0036985Y0016886D02*
Y0015330D01*
X0043213Y0012150D02*
X0046435D01*
X0028435Y0020830D02*
Y0015330D01*
X0027535Y0018085D02*
Y0017636D01*
X0016285Y0018931D02*
Y0018858D01*
X0032935Y0016770D02*
Y0015330D01*
X0017464Y0018621D02*
X0017803Y0018282D01*
X0016285Y0011430D02*
Y0011330D01*
X0009085Y0003595D02*
Y0000000D01*
X0004915Y0005170D02*
X0005505Y0004580D01*
X0032240Y0009950D02*
X0032905D01*
X0028146Y0006750D02*
X0028355D01*
X0006385Y0016492D02*
Y0014788D01*
X0004915Y0015300D02*
X0012055D01*
X0024385Y0004768D02*
Y0000000D01*
X0004790Y0012555D02*
Y0010705D01*
X0006425Y0018705D02*
Y0017745D01*
X0003235Y0000452D02*
Y0000000D01*
X0006425Y0018705D02*
X0006640D01*
X0029774Y0000438D02*
X0041803D01*
X0029774Y0002139D02*
Y0000438D01*
Y0002139D02*
X0041803D01*
Y0000438D01*
X0021685Y0026950D02*
Y0025020D01*
X0002935Y0026950D02*
Y0000000D01*
Y0026950D02*
X0046435D01*
X0041803Y0000450D02*
X0044567D01*
X0004585Y0024856D02*
Y0024291D01*
X0030760Y0005785D02*
X0029934Y0004959D01*
X0002935Y0000900D02*
X0003065D01*
X0002935Y0000450D02*
X0003237D01*
X0027273Y0016200D02*
X0038687D01*
X0006640Y0012555D02*
Y0012496D01*
X0009535Y0006470D02*
Y0006190D01*
X0012235Y0011430D02*
Y0010012D01*
X0013585Y0002361D02*
Y0000000D01*
X0005675Y0008100D02*
X0008275D01*
X0041035Y0026950D02*
Y0021610D01*
X0025815Y0013500D02*
X0025934D01*
X0015150Y0003260D02*
X0016875D01*
X0015385D02*
Y0000000D01*
X0026135Y0019014D02*
Y0018670D01*
X0009535Y0026950D02*
Y0025440D01*
X0014035Y0002810D02*
Y0000000D01*
X0014935Y0003121D02*
Y0000000D01*
X0012235Y0002180D02*
Y0000000D01*
X0033385Y0012940D02*
Y0012060D01*
X0025455Y0016650D02*
X0025997D01*
X0041760Y0019800D02*
X0046435D01*
X0017000Y0006750D02*
X0018675D01*
X0025735Y0017090D02*
Y0016290D01*
X0021685Y0007320D02*
Y0000000D01*
X0022135Y0006870D02*
Y0000000D01*
X0023280Y0007705D02*
X0024640D01*
X0024835Y0009786D02*
Y0009546D01*
X0017901Y0007830D02*
X0018985D01*
X0019305Y0005400D02*
X0023605D01*
X0041545Y0018450D02*
X0046435D01*
X0023785Y0007200D02*
X0026357D01*
X0025285Y0004750D02*
Y0000000D01*
X0027085Y0004750D02*
Y0000000D01*
X0030375Y0005400D02*
X0046435D01*
X0030685Y0005710D02*
Y0002139D01*
Y0000438D02*
Y0000000D01*
X0014992Y0003150D02*
X0031838D01*
X0046160Y0001800D02*
X0046435D01*
X0032935Y0003035D02*
Y0002139D01*
X0033385Y0003035D02*
Y0002139D01*
X0033835Y0008550D02*
Y0004885D01*
X0034285Y0008550D02*
Y0002139D01*
X0034735Y0008550D02*
Y0002139D01*
X0032485Y0010660D02*
Y0009950D01*
X0035635Y0008550D02*
Y0002139D01*
X0036085Y0008550D02*
Y0002139D01*
X0036535Y0008550D02*
Y0002139D01*
X0036985Y0008550D02*
Y0002139D01*
X0037435Y0008550D02*
Y0002139D01*
X0037885Y0008550D02*
Y0002139D01*
X0038335Y0008550D02*
Y0002139D01*
X0039685Y0010660D02*
Y0010171D01*
X0039235Y0008402D02*
Y0002139D01*
X0039685Y0008328D02*
Y0002139D01*
X0039235Y0010660D02*
Y0010098D01*
X0043359Y0012600D02*
X0046435D01*
X0043285Y0011285D02*
Y0000000D01*
X0043735Y0026950D02*
Y0000000D01*
X0033835Y0003035D02*
Y0002139D01*
X0046435Y0025470D02*
Y0001360D01*
X0044635Y0025110D02*
Y0001720D01*
X0045085Y0024800D02*
Y0002030D01*
X0040585Y0000438D02*
Y0000000D01*
X0005935Y0026950D02*
Y0024320D01*
X0045535Y0026950D02*
Y0026835D01*
X0045985Y0026950D02*
Y0026684D01*
X0020251Y0025650D02*
X0044395D01*
X0040845Y0016650D02*
X0046435D01*
X0014485Y0026950D02*
Y0025440D01*
X0024132Y0018450D02*
X0024735D01*
X0027985Y0006368D02*
Y0006150D01*
X0005485Y0007910D02*
Y0007026D01*
X0030685Y0016567D02*
Y0015330D01*
X0035906Y0018900D02*
X0040145D01*
X0041545Y0018915D02*
Y0018325D01*
X0033605Y0008550D02*
X0039000D01*
X0041004Y0016809D02*
X0040530Y0016335D01*
X0042835Y0026950D02*
Y0016575D01*
X0043326Y0014400D02*
X0046435D01*
X0010885Y0026950D02*
Y0025440D01*
X0006640Y0010764D02*
Y0010705D01*
X0005035Y0000552D02*
Y0000000D01*
X0004135Y0026950D02*
Y0026839D01*
X0023915Y0010025D02*
Y0009555D01*
X0024835Y0007714D02*
Y0006150D01*
X0033415Y0006750D02*
X0046435D01*
X0028975Y0007575D02*
X0029140D01*
X0002935Y0025650D02*
X0003065D01*
X0031135Y0000438D02*
Y0000000D01*
X0028885Y0007581D02*
Y0007499D01*
X0030235Y0005260D02*
Y0002139D01*
X0017185Y0003332D02*
Y0000000D01*
X0011785Y0026950D02*
Y0025440D01*
X0012235Y0005160D02*
Y0004769D01*
X0013585Y0005930D02*
Y0004885D01*
X0041835Y0010800D02*
X0042070D01*
X0045985Y0024895D02*
Y0001934D01*
X0041803Y0001800D02*
X0044711D01*
X0013420Y0002250D02*
X0046435D01*
X0046160Y0026550D02*
X0046435D01*
X0008185Y0019792D02*
Y0007090D01*
X0014036Y0002811D02*
X0013614Y0002389D01*
X0017901Y0007830D02*
X0017638Y0007565D01*
X0002935Y0015300D02*
X0003515D01*
X0007735Y0003180D02*
Y0000000D01*
X0040135Y0026950D02*
Y0022510D01*
X0032485Y0012940D02*
Y0012060D01*
X0032905Y0009950D02*
X0039000D01*
X0009466Y0012621D02*
X0008484Y0011639D01*
X0034735Y0010660D02*
Y0009950D01*
X0023485Y0007705D02*
Y0007500D01*
X0002935Y0006300D02*
X0003515D01*
X0023935Y0007705D02*
Y0007050D01*
X0031193Y0016830D02*
X0032005D01*
X0023935Y0020830D02*
Y0020414D01*
X0027535Y0022483D02*
Y0022230D01*
X0027085Y0026950D02*
Y0022230D01*
X0022585Y0020830D02*
Y0020478D01*
X0025735Y0020830D02*
Y0020508D01*
X0023035Y0020830D02*
Y0020459D01*
X0018085Y0021020D02*
Y0020508D01*
X0029605Y0010540D02*
Y0010425D01*
X0031135Y0012940D02*
Y0012268D01*
X0032035Y0010660D02*
Y0010262D01*
X0026470Y0019325D02*
X0026529D01*
X0009675Y0007650D02*
X0010995D01*
X0023280Y0007705D02*
X0024835Y0006150D01*
X0035906Y0022581D02*
X0034938Y0021612D01*
X0043360Y0016200D02*
X0046435D01*
X0036535Y0000438D02*
Y0000000D01*
X0036985Y0019886D02*
Y0018554D01*
X0016285Y0006811D02*
Y0004660D01*
X0034210Y0003600D02*
X0046435D01*
X0040341Y0015750D02*
X0041510D01*
X0040496Y0009000D02*
X0046435D01*
X0037153Y0018450D02*
X0037277D01*
X0006835Y0008286D02*
Y0006973D01*
X0003235Y0025202D02*
Y0001628D01*
X0004585Y0000106D02*
Y0000000D01*
X0004915Y0005665D02*
Y0005170D01*
X0005935Y0008231D02*
Y0007028D01*
X0006415Y0010705D02*
Y0009735D01*
X0007285Y0008207D02*
Y0007052D01*
X0003724Y0004381D02*
X0004716Y0003389D01*
X0005035Y0007460D02*
Y0006757D01*
X0004915Y0005400D02*
X0005147D01*
X0006385Y0008492D02*
Y0006830D01*
X0004790Y0010705D02*
X0005015D01*
X0023035Y0018801D02*
Y0018558D01*
X0014485Y0021200D02*
Y0020055D01*
X0012235Y0021200D02*
Y0019698D01*
X0037223Y0021390D02*
X0039275D01*
X0041727Y0018000D02*
X0046435D01*
X0006425D02*
X0009606D01*
X0011005Y0018330D02*
X0012265Y0017070D01*
X0011203Y0020250D02*
X0015003D01*
X0011005Y0018450D02*
X0012265D01*
X0041510Y0016575D02*
Y0015330D01*
X0027693Y0016650D02*
X0030127D01*
X0027535Y0026950D02*
Y0023537D01*
X0012685Y0011430D02*
Y0009607D01*
X0014935Y0011430D02*
Y0011271D01*
X0010478Y0009900D02*
X0011320D01*
X0020290Y0006385D02*
X0017374Y0003469D01*
X0023485Y0026950D02*
Y0024710D01*
X0025285Y0026950D02*
Y0023935D01*
X0014035Y0005930D02*
Y0004885D01*
X0006425Y0013500D02*
X0012867D01*
X0002935Y0018900D02*
X0003515D01*
X0002935Y0019800D02*
X0003515D01*
X0028320Y0020250D02*
X0028855D01*
X0031555Y0020820D02*
Y0020147D01*
X0031860Y0023905D02*
X0033710D01*
Y0022055D01*
X0037435Y0012940D02*
Y0012060D01*
X0039235Y0012940D02*
Y0012060D01*
X0034735Y0012940D02*
Y0012060D01*
X0042835Y0010816D02*
Y0000000D01*
X0026185Y0013012D02*
Y0006150D01*
X0043360Y0014850D02*
X0046435D01*
X0043360Y0016575D02*
Y0014725D01*
X0041545Y0018900D02*
X0046435D01*
X0041510Y0016575D02*
X0043360D01*
X0015835Y0026950D02*
Y0025440D01*
X0015385Y0021200D02*
Y0020524D01*
Y0026950D02*
Y0025440D01*
X0013290Y0020055D02*
Y0019996D01*
X0011335Y0026950D02*
Y0025440D01*
X0040145Y0018915D02*
Y0018325D01*
X0017635Y0007534D02*
Y0005710D01*
X0012925Y0005850D02*
X0017775D01*
X0012620Y0004885D02*
X0014470D01*
X0034210Y0003150D02*
X0046435D01*
X0006835Y0026950D02*
Y0024320D01*
X0002935Y0020700D02*
X0003515D01*
X0032035Y0012940D02*
Y0012060D01*
X0004135Y0024740D02*
Y0023960D01*
X0028035Y0008600D02*
X0028317D01*
X0039685Y0020980D02*
Y0020759D01*
X0040145Y0018915D02*
Y0018325D01*
X0041045Y0021600D02*
X0046435D01*
X0041760Y0020765D02*
Y0018915D01*
X0039910D02*
X0040145D01*
X0028315Y0018900D02*
X0028815D01*
X0033537Y0021150D02*
X0034203D01*
X0037885Y0026950D02*
Y0022790D01*
X0005108Y0001350D02*
X0029774D01*
X0045535Y0024745D02*
Y0002085D01*
X0041803Y0001350D02*
X0044432D01*
X0028908Y0012150D02*
X0030883D01*
X0028300Y0010425D02*
Y0009900D01*
X0002935Y0026550D02*
X0003381D01*
X0004585Y0026950D02*
Y0026724D01*
X0002935Y0003600D02*
X0004505D01*
X0017635Y0018738D02*
Y0018450D01*
X0007936Y0008550D02*
X0008275D01*
X0007735Y0011117D02*
Y0009895D01*
X0017635Y0026950D02*
Y0025440D01*
X0002935Y0009450D02*
X0004847D01*
X0002935Y0005850D02*
X0003515D01*
X0025887Y0008550D02*
X0028330D01*
X0028145Y0010489D02*
X0028033Y0010378D01*
X0029335Y0012940D02*
Y0010425D01*
X0026097Y0010350D02*
X0026422D01*
X0030316Y0011851D02*
X0029760Y0011295D01*
X0024915Y0012600D02*
X0039961D01*
X0037885Y0021390D02*
Y0018644D01*
X0028435Y0010456D02*
Y0010425D01*
X0031555Y0020820D02*
Y0020147D01*
X0006630Y0013950D02*
X0013015D01*
X0009985Y0002955D02*
Y0000000D01*
X0011785Y0017550D02*
X0012265D01*
X0026635Y0018473D02*
Y0018170D01*
X0027985Y0026950D02*
Y0023881D01*
X0026470Y0020830D02*
Y0019325D01*
X0028435Y0026950D02*
Y0023924D01*
X0026134Y0023400D02*
X0027456D01*
X0031585Y0000438D02*
Y0000000D01*
X0034210Y0004500D02*
X0046435D01*
X0032360Y0004885D02*
X0034210D01*
Y0003035D01*
X0032360D02*
X0034210D01*
X0032035Y0000438D02*
Y0000000D01*
X0044635Y0000360D02*
Y0000000D01*
X0031095Y0010425D02*
X0031595D01*
X0032935Y0010660D02*
Y0009950D01*
X0035185Y0012940D02*
Y0012060D01*
X0020888Y0025200D02*
X0044567D01*
X0032035Y0005960D02*
Y0004850D01*
X0045085Y0026950D02*
Y0026780D01*
X0030992Y0010547D02*
X0030905Y0010460D01*
X0033605Y0008550D02*
X0039000D01*
X0033605D02*
Y0007230D01*
X0045085Y0000050D02*
Y0000000D01*
X0039910Y0018974D02*
Y0018915D01*
X0025723Y0008100D02*
X0028317D01*
X0018405Y0004500D02*
X0031534D01*
X0028435Y0007845D02*
Y0007047D01*
X0027026Y0009009D02*
X0027280Y0008755D01*
X0003685Y0026950D02*
Y0026752D01*
X0033605Y0007200D02*
X0046435D01*
X0029116Y0010800D02*
X0029555D01*
X0029311Y0011250D02*
X0029719D01*
X0031135Y0022322D02*
Y0022230D01*
X0010075Y0011250D02*
X0014890D01*
X0031530Y0019965D02*
Y0019465D01*
X0002935Y0000000D02*
X0003961D01*
X0006425Y0012555D02*
X0006640D01*
X0028139Y0018450D02*
X0031530D01*
X0002935Y0001800D02*
X0003381D01*
X0030255Y0020250D02*
X0031555D01*
X0030255Y0020820D02*
X0031555D01*
X0005485Y0026950D02*
Y0024320D01*
X0002935Y0004500D02*
X0003627D01*
X0009985Y0011160D02*
Y0010055D01*
X0010435Y0011430D02*
Y0009927D01*
X0021235Y0012710D02*
Y0011330D01*
X0021455Y0012675D02*
X0021955D01*
X0018535Y0013210D02*
Y0011330D01*
X0019335Y0012675D02*
X0019835D01*
X0045580Y0024750D02*
X0046435D01*
X0009814Y0017541D02*
X0012793Y0014562D01*
X0046304Y0025200D02*
X0046435D01*
X0002935Y0021150D02*
X0003515D01*
X0002935Y0026100D02*
X0003102D01*
X0029785Y0012940D02*
Y0011320D01*
X0031908Y0012150D02*
X0040101D01*
X0033835Y0026950D02*
Y0020510D01*
X0028435Y0004750D02*
Y0000000D01*
X0044635Y0026950D02*
Y0026470D01*
X0046435Y0026950D02*
Y0026110D01*
X0034735Y0017430D02*
Y0015330D01*
X0041485Y0017052D02*
Y0015344D01*
X0024944Y0017881D02*
X0025928Y0016897D01*
X0030451Y0019350D02*
X0031540D01*
X0002935Y0014400D02*
X0003547D01*
X0027085Y0016127D02*
Y0015330D01*
X0018985Y0007830D02*
Y0007060D01*
X0033835Y0016727D02*
Y0015330D01*
X0007809Y0011250D02*
X0008284D01*
X0034285Y0026950D02*
Y0021271D01*
X0027790Y0007650D02*
X0028666D01*
X0002935Y0001350D02*
X0003102D01*
X0007533Y0018900D02*
X0009605D01*
X0028682Y0023850D02*
X0031471D01*
X0005135Y0004950D02*
X0008295D01*
X0033385Y0016720D02*
Y0015330D01*
X0012685Y0026950D02*
Y0025440D01*
X0007735Y0008365D02*
Y0006895D01*
X0040135Y0012098D02*
Y0012060D01*
X0040524Y0016200D02*
X0041510D01*
X0039235Y0015462D02*
Y0015330D01*
X0033835Y0000438D02*
Y0000000D01*
X0004135Y0003970D02*
Y0002089D01*
X0002935Y0006750D02*
X0003515D01*
X0034285Y0016980D02*
Y0015330D01*
X0039685Y0000438D02*
Y0000000D01*
X0027535Y0016404D02*
Y0015330D01*
X0034990Y0017685D02*
X0035436Y0017239D01*
X0040135Y0015552D02*
Y0015330D01*
X0037435Y0020355D02*
Y0018549D01*
X0022560Y0013050D02*
X0023534D01*
X0026135Y0018670D02*
X0026860Y0017945D01*
X0024477Y0018000D02*
X0024847D01*
X0017185Y0018902D02*
Y0018794D01*
X0027530Y0011855D02*
X0026664Y0010989D01*
X0027085Y0012767D02*
Y0011410D01*
X0032485Y0017041D02*
Y0015330D01*
X0041457Y0021150D02*
X0046435D01*
X0026355Y0018450D02*
X0026651D01*
X0005015Y0010705D02*
Y0009735D01*
X0025124Y0016981D02*
X0025576Y0016529D01*
X0032022Y0012060D02*
X0040165D01*
X0027767Y0017100D02*
X0029692D01*
X0020666Y0020830D02*
X0026470D01*
X0027603Y0017550D02*
X0029613D01*
X0012685Y0005610D02*
Y0004885D01*
X0009985Y0017370D02*
Y0012830D01*
X0003685Y0014153D02*
Y0008087D01*
X0006425Y0013535D02*
Y0012555D01*
X0027085Y0018128D02*
Y0017913D01*
X0026354Y0019800D02*
X0026470D01*
X0029263Y0011700D02*
X0030165D01*
X0002935Y0016650D02*
X0003515D01*
X0025682Y0023850D02*
X0027908D01*
X0029785Y0026950D02*
Y0022230D01*
X0025735Y0008117D02*
Y0006150D01*
X0044185Y0026950D02*
Y0000000D01*
X0036985Y0012940D02*
Y0012060D01*
X0038785Y0000438D02*
Y0000000D01*
X0043285Y0014285D02*
Y0014015D01*
X0030685Y0012940D02*
Y0012048D01*
X0036535Y0012940D02*
Y0012060D01*
X0040135Y0000438D02*
Y0000000D01*
X0022135Y0026950D02*
Y0025020D01*
X0006425Y0018450D02*
X0009605D01*
X0008635Y0026950D02*
Y0025440D01*
X0004830Y0026550D02*
X0044711D01*
X0012235Y0017100D02*
X0012265D01*
X0005485Y0016247D02*
Y0015033D01*
X0003724Y0014111D02*
X0004176Y0013659D01*
X0020785Y0020830D02*
Y0020286D01*
X0002935Y0008100D02*
X0003696D01*
X0043359Y0011700D02*
X0046435D01*
X0038413Y0018450D02*
X0040145D01*
X0013585Y0026950D02*
Y0025440D01*
X0013135Y0026950D02*
Y0025440D01*
X0018985Y0026950D02*
Y0025440D01*
X0025735Y0009865D02*
Y0009142D01*
X0015505Y0006930D02*
X0014714Y0006139D01*
X0025765Y0015864D02*
Y0015306D01*
X0010255Y0011430D02*
X0016505D01*
X0024835Y0006150D02*
X0026708D01*
X0023035Y0005970D02*
Y0000000D01*
X0021575Y0007430D02*
X0024046Y0004959D01*
X0032240Y0009950D02*
X0032905D01*
X0024545Y0004750D02*
X0029435D01*
X0040210Y0008550D02*
X0046435D01*
X0032485Y0003035D02*
Y0002139D01*
X0031722Y0005850D02*
X0046435D01*
X0029785Y0004844D02*
Y0002139D01*
X0026635Y0004750D02*
Y0000000D01*
X0023915Y0009555D02*
X0024640D01*
X0031880Y0005960D02*
X0032335D01*
X0025285Y0017540D02*
Y0016820D01*
X0028435Y0006273D02*
Y0006150D01*
X0023485Y0020830D02*
Y0020554D01*
X0006385Y0026950D02*
Y0024320D01*
X0009085Y0026950D02*
Y0025440D01*
X0006835Y0010714D02*
Y0009973D01*
X0006320Y0006830D02*
X0006610D01*
X0009985Y0026950D02*
Y0025440D01*
X0006640Y0018764D02*
Y0018705D01*
X0002935Y0025200D02*
X0003237D01*
X0008210Y0019800D02*
X0009410D01*
X0002935Y0013500D02*
X0004415D01*
X0022585Y0013108D02*
Y0011330D01*
X0002935Y0019350D02*
X0003515D01*
X0030403Y0019800D02*
X0031530D01*
X0016630D02*
X0016801D01*
X0017185Y0021200D02*
Y0020418D01*
X0017905Y0021200D02*
X0018704Y0020401D01*
X0010058Y0021150D02*
X0017955D01*
X0035257Y0019800D02*
X0036489D01*
X0003235Y0026950D02*
Y0026378D01*
X0032552Y0017108D02*
X0032469Y0017024D01*
X0032035Y0016831D02*
Y0015330D01*
X0033195Y0016720D02*
X0033735D01*
X0031530Y0019140D02*
X0031614D01*
X0039275Y0021390D02*
X0039910Y0020755D01*
X0032552Y0017108D02*
X0032587Y0017074D01*
X0026185Y0004750D02*
Y0000000D01*
X0036535Y0019796D02*
Y0018643D01*
X0004974Y0000450D02*
X0029774D01*
X0032544Y0017100D02*
X0032561D01*
X0007285Y0005207D02*
Y0004580D01*
X0008635Y0005570D02*
Y0005290D01*
X0026635Y0026950D02*
Y0022230D01*
X0040145Y0022500D02*
X0046435D01*
X0026067D02*
X0027523D01*
X0018535Y0026950D02*
Y0025440D01*
X0016735Y0026950D02*
Y0025440D01*
X0021235Y0020830D02*
Y0018786D01*
X0020785Y0026950D02*
Y0025345D01*
X0023935Y0026950D02*
Y0024260D01*
X0022585Y0026950D02*
Y0025020D01*
X0021115D02*
X0022885D01*
X0024835Y0026950D02*
Y0023812D01*
X0024385Y0026950D02*
Y0023931D01*
X0020335Y0012896D02*
Y0011330D01*
X0005935Y0003180D02*
Y0000000D01*
X0017534Y0007200D02*
X0019125D01*
X0012235Y0018562D02*
Y0017100D01*
X0014935Y0006360D02*
Y0004799D01*
X0014716Y0011121D02*
X0013648Y0010052D01*
X0018085Y0007830D02*
Y0006160D01*
X0012430Y0009900D02*
X0013203D01*
X0007888Y0011700D02*
X0008545D01*
X0006385Y0005430D02*
Y0004580D01*
X0008185Y0005430D02*
Y0004840D01*
X0008925Y0003600D02*
X0009084D01*
X0011466Y0008121D02*
X0007925Y0004580D01*
X0009675Y0008251D02*
Y0006890D01*
X0009535Y0003061D02*
Y0000000D01*
X0011785Y0011430D02*
Y0010080D01*
X0004793Y0009197D02*
X0003724Y0008129D01*
X0004915Y0007340D02*
Y0006594D01*
X0012685Y0002180D02*
Y0000000D01*
X0031585Y0005788D02*
Y0004565D01*
X0011465Y0002180D02*
X0013115D01*
X0010686Y0008550D02*
X0011180D01*
X0015835Y0006930D02*
Y0004660D01*
X0024385Y0007705D02*
Y0006600D01*
X0011335Y0002192D02*
Y0000000D01*
X0010885Y0002470D02*
Y0000000D01*
X0020785Y0006915D02*
Y0000000D01*
X0029925Y0004950D02*
X0046435D01*
X0040263Y0009900D02*
X0046435D01*
X0037178Y0018430D02*
X0037252D01*
X0028114Y0007200D02*
X0028524D01*
X0011005Y0019374D02*
Y0018330D01*
X0007285Y0018762D02*
Y0012498D01*
X0010474Y0002881D02*
X0010966Y0002389D01*
X0027985Y0012940D02*
Y0012209D01*
X0034405Y0017100D02*
X0035630D01*
X0033477Y0022055D02*
X0033710D01*
X0010435Y0002923D02*
Y0000000D01*
X0011220Y0019800D02*
X0012327D01*
X0028160Y0009900D02*
X0028300D01*
X0040595Y0022050D02*
X0046435D01*
X0022613Y0013200D02*
X0023383D01*
X0037885Y0012940D02*
Y0012060D01*
X0041545Y0018915D02*
X0041760D01*
X0010908Y0020700D02*
X0018405D01*
X0031585Y0010475D02*
Y0010425D01*
X0034285Y0012940D02*
Y0012060D01*
X0024915Y0011700D02*
X0027375D01*
X0015835Y0021200D02*
Y0020577D01*
X0014035Y0026950D02*
Y0025440D01*
X0031585Y0012940D02*
Y0012285D01*
X0033605Y0007650D02*
X0046435D01*
X0012265Y0018525D02*
Y0017070D01*
X0029335Y0026950D02*
Y0022230D01*
X0028300Y0010425D02*
X0029605D01*
X0028855Y0020830D02*
Y0020107D01*
X0019300Y0007375D02*
X0016585Y0004660D01*
X0030685Y0026950D02*
Y0022230D01*
X0018470Y0013050D02*
X0018730D01*
X0017635Y0018450D02*
X0017847D01*
X0043285Y0026950D02*
Y0016575D01*
X0013135Y0021200D02*
Y0020039D01*
X0004915Y0016650D02*
X0004941D01*
X0012574Y0004500D02*
X0012620D01*
X0016735Y0011469D02*
Y0011330D01*
X0024915Y0012600D02*
Y0011630D01*
X0012571Y0008550D02*
X0012995D01*
X0021685Y0012675D02*
Y0011330D01*
X0027426Y0012940D02*
X0040010D01*
X0024835Y0018019D02*
Y0017158D01*
X0024383Y0017190D02*
X0024625D01*
X0023035Y0013200D02*
Y0011537D01*
X0025764Y0016200D02*
X0026417D01*
X0011335Y0008409D02*
Y0007990D01*
X0025813Y0009000D02*
X0027035D01*
X0027085Y0008950D02*
Y0007823D01*
X0028049Y0010350D02*
X0028300D01*
X0025735Y0013420D02*
Y0011395D01*
X0025902Y0011250D02*
X0026925D01*
X0002935Y0002250D02*
X0011160D01*
X0025393Y0009450D02*
X0026433D01*
X0026124Y0010800D02*
X0026528D01*
X0024385Y0010222D02*
Y0009555D01*
X0024640D02*
Y0009496D01*
X0026635Y0012759D02*
Y0010958D01*
X0024915Y0012150D02*
X0027883D01*
X0023915Y0009900D02*
X0024647D01*
X0025285Y0009707D02*
Y0009498D01*
X0018441Y0012150D02*
X0023515D01*
X0020388Y0012963D02*
X0020455Y0012896D01*
X0023515Y0012890D02*
Y0011920D01*
X0028885Y0012940D02*
Y0012164D01*
X0025285Y0007762D02*
Y0006150D01*
X0033835Y0012940D02*
Y0012060D01*
X0041760Y0020700D02*
X0046435D01*
X0038727Y0018000D02*
X0039964D01*
X0037510Y0020700D02*
X0039245D01*
X0039910Y0020755D02*
Y0020706D01*
X0037435Y0026950D02*
Y0022790D01*
X0041545Y0020810D02*
Y0020765D01*
X0027931Y0006300D02*
X0028423D01*
X0011335Y0018000D02*
X0012265D01*
X0013135Y0002180D02*
Y0000000D01*
X0019885Y0012677D02*
Y0011330D01*
X0039235Y0018984D02*
Y0017158D01*
X0019435Y0012675D02*
Y0011330D01*
X0028160Y0009900D02*
X0028300D01*
X0002935Y0012150D02*
X0004790D01*
X0002935Y0012600D02*
X0005025D01*
X0036085Y0019942D02*
Y0018570D01*
X0013015Y0014025D02*
Y0013735D01*
X0002935Y0010350D02*
X0005015D01*
X0002935Y0013050D02*
X0005025D01*
X0011005Y0019350D02*
X0012067D01*
X0007735Y0019117D02*
Y0012142D01*
X0006835Y0018714D02*
Y0012546D01*
X0006415Y0010350D02*
X0008275D01*
X0038335Y0016935D02*
Y0015330D01*
X0033205Y0021600D02*
X0034839D01*
X0029785Y0018589D02*
Y0018021D01*
X0030255Y0020820D02*
Y0020061D01*
X0033605Y0020700D02*
X0034025D01*
X0025765Y0015750D02*
X0038869D01*
X0004915Y0006750D02*
X0005029D01*
X0031555Y0020820D02*
Y0020147D01*
X0004790Y0012555D02*
X0005025D01*
X0031555Y0020820D02*
Y0020147D01*
X0033476Y0022050D02*
X0035375D01*
X0014189Y0003035D02*
X0014470D01*
X0015215Y0011330D02*
X0016833D01*
X0036681Y0019800D02*
X0038661D01*
X0018411Y0012245D02*
X0018470D01*
X0003685Y0004423D02*
Y0002002D01*
X0022135Y0012699D02*
Y0011330D01*
X0010833Y0009450D02*
X0010997D01*
X0027535Y0012940D02*
Y0011860D01*
X0010435Y0008333D02*
Y0007090D01*
X0017635Y0021200D02*
Y0020581D01*
X0021685Y0020830D02*
Y0020388D01*
X0024327Y0019350D02*
X0024564D01*
X0028320Y0019800D02*
X0028667D01*
X0026218Y0022950D02*
X0027372D01*
X0038785Y0008550D02*
Y0002139D01*
X0035185Y0019783D02*
Y0019597D01*
X0005485Y0003180D02*
Y0000000D01*
X0029134Y0023400D02*
X0030961D01*
X0014035Y0021200D02*
Y0020055D01*
X0007847Y0019350D02*
X0009605D01*
X0013925Y0002700D02*
X0046435D01*
X0022783Y0018900D02*
X0022877D01*
X0016320Y0018830D02*
X0016965D01*
X0019885Y0026950D02*
Y0025643D01*
X0011785Y0021200D02*
Y0017550D01*
X0008635Y0020087D02*
Y0011790D01*
X0016735Y0021200D02*
Y0018830D01*
X0014935Y0026950D02*
Y0025440D01*
X0024603Y0023850D02*
X0024908D01*
X0026185Y0022758D02*
Y0022230D01*
X0028885Y0026950D02*
Y0023722D01*
X0031135Y0026950D02*
Y0023638D01*
X0028261Y0019325D02*
X0028320D01*
X0006554Y0017550D02*
X0009805D01*
X0028320Y0020700D02*
X0028855D01*
X0009605Y0019397D02*
Y0018040D01*
X0038335Y0012940D02*
Y0012060D01*
X0009085Y0006010D02*
Y0005740D01*
X0014935Y0021200D02*
Y0020157D01*
X0009965Y0012830D02*
X0012840D01*
X0018258Y0011330D02*
X0022610D01*
X0035185Y0008550D02*
Y0002139D01*
X0006283Y0005400D02*
X0006647D01*
X0006415Y0010705D02*
X0006640D01*
X0008083Y0009450D02*
X0008275D01*
X0023485Y0013164D02*
Y0011890D01*
X0041754Y0017550D02*
X0046435D01*
X0002935Y0022500D02*
X0003515D01*
X0028885Y0010595D02*
Y0010425D01*
X0029335Y0018577D02*
Y0015330D01*
X0035185Y0000438D02*
Y0000000D01*
X0033605Y0020860D02*
Y0020280D01*
X0015150Y0004660D02*
X0016585D01*
X0005035Y0026950D02*
Y0026277D01*
X0032965Y0006300D02*
X0046435D01*
X0038785Y0021390D02*
Y0020304D01*
X0030256Y0018900D02*
X0031530D01*
X0016242D02*
X0017188D01*
X0035929Y0018725D02*
X0036130Y0018525D01*
X0037435Y0000438D02*
Y0000000D01*
X0030943Y0016650D02*
X0038745D01*
X0030685Y0020820D02*
Y0018393D01*
X0025365Y0013050D02*
X0026150D01*
X0028320Y0020830D02*
Y0019325D01*
X0038785Y0012940D02*
Y0012060D01*
X0041035Y0010660D02*
Y0002139D01*
X0020907Y0012710D02*
X0021241D01*
X0027985Y0008582D02*
Y0007451D01*
X0024294Y0010719D02*
X0024138Y0010562D01*
X0031976Y0010660D02*
X0041415D01*
X0041035Y0016815D02*
Y0015553D01*
X0005225Y0007650D02*
X0008275D01*
X0002935Y0010800D02*
X0004790D01*
X0002935Y0008550D02*
X0004145D01*
X0009675Y0008100D02*
X0011445D01*
X0007373Y0010800D02*
X0008275D01*
X0006415Y0009900D02*
X0006703D01*
X0008925Y0005850D02*
X0009195D01*
X0003515Y0007630D02*
Y0004880D01*
X0002935Y0024750D02*
X0003961D01*
X0024685Y0006300D02*
X0026540D01*
X0012685Y0008713D02*
Y0008330D01*
X0004585Y0003520D02*
Y0001974D01*
X0002935Y0007200D02*
X0003515D01*
X0004915D02*
X0008275D01*
X0025285Y0012970D02*
Y0011552D01*
X0002935Y0004050D02*
X0004055D01*
X0025922Y0013606D02*
X0024915Y0012600D01*
X0005215Y0003180D02*
X0008215D01*
X0005485Y0005234D02*
Y0004600D01*
X0008275Y0011140D02*
Y0007180D01*
X0005505Y0004580D02*
X0007925D01*
X0007285Y0003180D02*
Y0000000D01*
X0005035Y0003203D02*
Y0001527D01*
X0008635Y0003320D02*
Y0000000D01*
X0040135Y0008492D02*
Y0002139D01*
X0009675Y0007200D02*
X0010545D01*
X0010885Y0011430D02*
Y0009226D01*
X0009375Y0006300D02*
X0009645D01*
X0022585Y0006420D02*
Y0000000D01*
X0024097Y0010350D02*
X0024334D01*
X0021340Y0007430D02*
X0021575D01*
X0023935Y0010049D02*
Y0009555D01*
X0002935Y0009900D02*
X0005015D01*
X0028885Y0018822D02*
Y0015330D01*
X0002935Y0007650D02*
X0003515D01*
X0026455Y0010490D02*
Y0010407D01*
X0036085Y0016942D02*
Y0015330D01*
X0003685Y0024827D02*
Y0023507D01*
X0002935Y0024300D02*
X0004619D01*
X0025945Y0015330D02*
X0040269D01*
X0043269Y0013050D02*
X0046435D01*
X0033169Y0021566D02*
X0033411Y0021323D01*
X0042385Y0026950D02*
Y0016575D01*
X0041935Y0026950D02*
Y0016575D01*
X0033385Y0026950D02*
Y0023905D01*
X0043285Y0013285D02*
Y0013015D01*
X0013290Y0020055D02*
X0014879D01*
X0013585Y0011430D02*
Y0010046D01*
X0043285Y0012285D02*
Y0012015D01*
X0010885Y0016470D02*
Y0012830D01*
X0041935Y0010872D02*
Y0000000D01*
X0012685Y0021200D02*
Y0020011D01*
X0002935Y0005400D02*
X0003515D01*
X0015385Y0011430D02*
Y0011330D01*
X0009675Y0010350D02*
X0013945D01*
X0009675Y0010800D02*
X0014395D01*
X0010885Y0021200D02*
Y0020718D01*
X0011785Y0015570D02*
Y0012830D01*
X0011335Y0016020D02*
Y0012830D01*
X0012685Y0014670D02*
Y0012830D01*
X0009675Y0010850D02*
Y0010008D01*
X0010255Y0011430D02*
X0009675Y0010850D01*
X0008275Y0007180D02*
X0007925Y0006830D01*
X0029335Y0004750D02*
Y0000000D01*
X0006385Y0003180D02*
Y0000000D01*
X0010435Y0016920D02*
Y0012830D01*
X0007728Y0009900D02*
X0008275D01*
X0009053Y0003728D02*
X0008714Y0003389D01*
X0002935Y0009000D02*
X0004595D01*
X0002935Y0004950D02*
X0003515D01*
X0006436Y0008550D02*
X0006495D01*
X0006425Y0013050D02*
X0012794D01*
X0007735Y0005365D02*
Y0004580D01*
X0029218Y0022950D02*
X0030861D01*
X0031135Y0020820D02*
Y0018184D01*
X0030235Y0018875D02*
Y0018355D01*
X0006835Y0005286D02*
Y0004580D01*
X0026132Y0020250D02*
X0026470D01*
X0026327Y0019350D02*
X0026470D01*
X0028320D02*
X0028619D01*
X0030905Y0010460D02*
Y0010398D01*
X0031193Y0018130D02*
X0031530D01*
X0030255Y0020700D02*
X0031555D01*
X0026185Y0020830D02*
Y0020185D01*
X0028320Y0020830D02*
X0028855D01*
X0029785Y0016938D02*
Y0015330D01*
X0026185Y0016372D02*
Y0015330D01*
X0035185Y0017490D02*
Y0015330D01*
X0005035Y0016524D02*
Y0014850D01*
X0018985Y0012773D02*
Y0011330D01*
X0020785Y0012722D02*
Y0011330D01*
X0012235Y0015120D02*
Y0012830D01*
X0018490Y0013210D02*
X0018675D01*
X0009985Y0008205D02*
Y0006640D01*
X0010885Y0009034D02*
Y0007540D01*
X0024969Y0017100D02*
X0025725D01*
X0006613Y0014400D02*
X0012819D01*
X0016587Y0019350D02*
X0016844D01*
X0029785Y0000438D02*
Y0000000D01*
X0020335Y0026950D02*
Y0025630D01*
X0023485Y0018706D02*
Y0018607D01*
X0024385Y0020830D02*
Y0018187D01*
X0010048Y0021200D02*
X0017905D01*
X0023384Y0024811D02*
X0024243Y0023952D01*
X0016285Y0026950D02*
Y0025440D01*
X0021235Y0026950D02*
Y0025020D01*
X0024735Y0019037D02*
Y0018380D01*
X0030235Y0026950D02*
Y0022230D01*
X0009466Y0006391D02*
X0008714Y0005639D01*
X0024835Y0020830D02*
Y0020325D01*
X0017185Y0026950D02*
Y0025440D01*
X0023035Y0026950D02*
Y0025004D01*
X0007735Y0026950D02*
Y0025663D01*
X0019435Y0026950D02*
Y0025440D01*
X0008187Y0025650D02*
X0019919D01*
X0012235Y0026950D02*
Y0025440D01*
X0004250Y0024750D02*
X0007010D01*
X0008562Y0025440D02*
X0019480D01*
X0016285Y0021200D02*
Y0020388D01*
X0007820Y0006830D02*
X0007925D01*
X0009085Y0020077D02*
Y0012240D01*
X0006425Y0012600D02*
X0009445D01*
X0011005Y0018900D02*
X0012069D01*
X0002935Y0022050D02*
X0003515D01*
X0002935Y0023850D02*
X0004025D01*
X0020404Y0020681D02*
X0020706Y0020379D01*
X0002935Y0018450D02*
X0003515D01*
X0005035Y0025302D02*
Y0024320D01*
X0010435Y0026950D02*
Y0025440D01*
X0010881Y0009000D02*
X0010964D01*
X0009661Y0006750D02*
X0010095D01*
X0006320Y0005430D02*
X0006610D01*
X0008131Y0009000D02*
X0008275D01*
X0006835Y0003180D02*
Y0000000D01*
X0013015Y0008525D02*
Y0008330D01*
X0014485Y0003037D02*
Y0000000D01*
X0037435Y0016891D02*
Y0015330D01*
X0038785Y0015882D02*
Y0015330D01*
X0007285Y0010762D02*
Y0010052D01*
X0004286Y0024111D02*
X0003724Y0023549D01*
X0026635Y0016119D02*
Y0015330D01*
X0022820Y0018930D02*
X0022840D01*
X0020915Y0019800D02*
X0021306D01*
X0024520Y0017550D02*
X0025275D01*
X0040135Y0018915D02*
Y0018313D01*
X0020809Y0020250D02*
X0021529D01*
X0002935Y0011250D02*
X0004790D01*
X0024354Y0019800D02*
X0024536D01*
X0020915Y0018840D02*
X0020965D01*
X0018085Y0026950D02*
Y0025440D01*
X0006318Y0014850D02*
X0012505D01*
X0018535Y0020570D02*
Y0020330D01*
X0007820Y0005430D02*
X0008215D01*
X0018353Y0020330D02*
X0018610D01*
X0022135Y0020830D02*
Y0020551D01*
X0037885Y0016796D02*
Y0015330D01*
X0016428Y0020250D02*
X0017003D01*
X0041485Y0000438D02*
Y0000000D01*
X0007285Y0026950D02*
Y0025418D01*
X0002935Y0021600D02*
X0003515D01*
X0004785Y0024320D02*
X0007055D01*
X0002935Y0020250D02*
X0003515D01*
X0002935Y0022950D02*
X0003515D01*
X0002935Y0023400D02*
X0003609D01*
X0005783Y0008207D02*
X0004915Y0007340D01*
X0003515Y0023050D02*
Y0014610D01*
X0005108Y0026100D02*
X0044432D01*
X0005935Y0016239D02*
Y0015041D01*
X0018444Y0011700D02*
X0023295D01*
X0002935Y0017100D02*
X0003515D01*
X0004135Y0013700D02*
Y0008540D01*
X0004965Y0014850D02*
X0005132D01*
X0002935Y0013950D02*
X0003885D01*
X0004915Y0015750D02*
X0011605D01*
X0004585Y0013456D02*
Y0008990D01*
X0004915Y0014900D02*
X0004965Y0014850D01*
X0002935D02*
X0003515D01*
X0008185Y0003180D02*
Y0000000D01*
X0002935Y0015750D02*
X0003515D01*
X0006510Y0016650D02*
X0010705D01*
X0004915Y0016200D02*
X0011155D01*
X0007730Y0012150D02*
X0008995D01*
X0015835Y0011430D02*
Y0011330D01*
X0002935Y0016200D02*
X0003515D01*
X0002935Y0017550D02*
X0003515D01*
X0015505Y0006930D02*
X0016110D01*
X0039685Y0012940D02*
Y0012060D01*
X0041760Y0019350D02*
X0046435D01*
X0036535Y0026950D02*
Y0022790D01*
X0035185Y0026950D02*
Y0021860D01*
X0041803Y0000900D02*
X0044395D01*
X0032935Y0012940D02*
Y0012060D01*
X0031135Y0016776D02*
Y0015330D01*
X0016735Y0003260D02*
Y0000000D01*
X0013135Y0011430D02*
Y0009850D01*
X0002935Y0002700D02*
X0010655D01*
X0041485Y0010663D02*
Y0002139D01*
X0027985Y0018287D02*
Y0015330D01*
X0014485Y0011430D02*
Y0010890D01*
X0028885Y0004750D02*
Y0000000D01*
X0007783Y0005400D02*
X0008745D01*
X0025792Y0022230D02*
X0027395D01*
X0006649Y0017100D02*
X0010255D01*
X0023485Y0005520D02*
Y0000000D01*
X0017505Y0003600D02*
X0031433D01*
X0017185Y0006833D02*
Y0005260D01*
X0020335Y0006434D02*
Y0000000D01*
X0017635Y0003730D02*
Y0000000D01*
X0013005Y0005930D02*
X0014215D01*
X0015385Y0006810D02*
Y0004660D01*
X0012025Y0004950D02*
X0016875D01*
X0018535Y0007830D02*
Y0006610D01*
X0019435Y0005530D02*
Y0000000D01*
X0017722Y0007650D02*
X0019116D01*
X0020620Y0006750D02*
X0022255D01*
X0019885Y0005980D02*
Y0000000D01*
X0021070Y0007200D02*
X0021805D01*
X0032035Y0003069D02*
Y0002139D01*
X0040585Y0016390D02*
Y0015515D01*
X0034210Y0004050D02*
X0046435D01*
X0021062Y0007193D02*
X0020404Y0006534D01*
X0015325Y0006750D02*
X0016430D01*
X0037201Y0017030D02*
X0037229D01*
X0014875Y0006300D02*
X0018225D01*
X0037435Y0021390D02*
Y0021085D01*
X0033710Y0022500D02*
X0035825D01*
X0027762Y0006150D02*
X0028503D01*
X0034855Y0017550D02*
X0035125D01*
X0033385Y0006720D02*
Y0004885D01*
X0023335Y0007650D02*
X0026680D01*
X0026635Y0009206D02*
Y0007614D01*
X0033385Y0000438D02*
Y0000000D01*
X0030235Y0016605D02*
Y0015330D01*
X0036985Y0026950D02*
Y0022790D01*
X0025783Y0009900D02*
X0026310D01*
X0038785Y0026950D02*
Y0022790D01*
Y0019375D02*
Y0016738D01*
X0024235Y0006750D02*
X0026324D01*
X0025735Y0004750D02*
Y0000000D01*
X0016735Y0006705D02*
Y0004810D01*
X0041545Y0018915D02*
Y0018325D01*
X0009535Y0019493D02*
Y0012682D01*
X0039235Y0026950D02*
Y0022790D01*
X0040585Y0026950D02*
Y0022060D01*
X0040064Y0022581D02*
X0041336Y0021309D01*
X0034735Y0026950D02*
Y0021575D01*
X0039685Y0026950D02*
Y0022779D01*
X0033710Y0023850D02*
X0046435D01*
X0036405Y0022790D02*
X0039565D01*
X0043348Y0013500D02*
X0046435D01*
X0037404Y0021150D02*
X0039515D01*
X0035653Y0019350D02*
X0038801D01*
X0037382Y0020250D02*
X0038756D01*
X0036085Y0026950D02*
Y0022712D01*
X0041545Y0020765D02*
X0041760D01*
X0038532Y0017100D02*
X0039124D01*
X0016285Y0003260D02*
Y0000000D01*
X0038335Y0021390D02*
Y0018504D01*
X0033710Y0022950D02*
X0046435D01*
X0031135Y0005745D02*
Y0002139D01*
X0032485Y0005976D02*
Y0004885D01*
X0033396Y0006731D02*
X0032834Y0006169D01*
X0041532Y0017100D02*
X0046435D01*
X0033710Y0023400D02*
X0046435D01*
X0033605Y0008100D02*
X0046435D01*
X0031904Y0010350D02*
X0046435D01*
X0034285Y0000438D02*
Y0000000D01*
Y0010660D02*
Y0009950D01*
X0035635Y0026950D02*
Y0022310D01*
X0039235Y0000438D02*
Y0000000D01*
X0035185Y0010660D02*
Y0009950D01*
X0033835Y0010660D02*
Y0009950D01*
X0042800Y0010800D02*
X0046435D01*
X0040508Y0009450D02*
X0046435D01*
X0033385Y0010660D02*
Y0009950D01*
X0030235Y0012940D02*
Y0011770D01*
X0036535Y0010660D02*
Y0009950D01*
X0038785Y0010660D02*
Y0009950D01*
X0040135Y0010660D02*
Y0010008D01*
X0039235Y0021390D02*
Y0020696D01*
X0040585Y0010660D02*
Y0002139D01*
X0038335Y0010660D02*
Y0009950D01*
X0037885Y0000438D02*
Y0000000D01*
X0036085Y0010660D02*
Y0009950D01*
X0035635Y0010660D02*
Y0009950D01*
X0039685Y0018920D02*
Y0017470D01*
X0035635Y0017097D02*
Y0015330D01*
X0031585Y0016830D02*
Y0015330D01*
X0037435Y0010660D02*
Y0009950D01*
X0037885Y0010660D02*
Y0009950D01*
X0039685Y0015388D02*
Y0015330D01*
X0035073Y0019767D02*
X0034916Y0019611D01*
X0024132Y0020250D02*
X0024759D01*
X0032935Y0026950D02*
Y0023905D01*
X0032485Y0026950D02*
Y0023905D01*
X0031585Y0026950D02*
Y0023883D01*
X0023895Y0024300D02*
X0046435D01*
X0026185Y0019075D02*
Y0018620D01*
X0004675Y0013450D02*
X0005025D01*
X0041485Y0026950D02*
Y0021093D01*
X0025735Y0026950D02*
Y0023823D01*
X0026185Y0026950D02*
Y0023262D01*
X0031585Y0019198D02*
Y0019140D01*
X0025285Y0020830D02*
Y0020541D01*
X0020915Y0019350D02*
X0021334D01*
X0020666Y0020830D02*
X0026470D01*
X0018490Y0013210D02*
X0018470Y0013190D01*
X0032035Y0026950D02*
Y0023905D01*
X0020450Y0020700D02*
X0026470D01*
X0027395Y0022230D02*
X0027798D01*
X0020915Y0019880D02*
Y0018840D01*
X0022820Y0020330D02*
X0022840D01*
X0005935Y0005231D02*
Y0004580D01*
X0023515Y0011920D02*
X0023148Y0011552D01*
X0023445Y0024750D02*
X0045291D01*
X0028435Y0012940D02*
Y0012304D01*
X0021235Y0007438D02*
Y0000000D01*
X0038335Y0026950D02*
Y0022790D01*
X0031530Y0019140D02*
Y0018130D01*
X0027535Y0004750D02*
Y0000000D01*
X0004915Y0016693D02*
Y0014900D01*
X0027985Y0004750D02*
Y0000000D01*
X0030235Y0000438D02*
Y0000000D01*
X0012620Y0004885D02*
Y0004435D01*
X0029067Y0022500D02*
X0030994D01*
X0031135Y0010492D02*
Y0010425D01*
X0032485Y0000438D02*
Y0000000D01*
X0035635Y0020013D02*
Y0019367D01*
X0017955Y0004050D02*
X0031365D01*
X0032935Y0006270D02*
Y0004885D01*
X0031585Y0003355D02*
Y0002139D01*
X0034735Y0000438D02*
Y0000000D01*
X0035635Y0000438D02*
Y0000000D01*
X0036085Y0000438D02*
Y0000000D01*
X0026635Y0006206D02*
Y0006150D01*
X0036985Y0000438D02*
Y0000000D01*
X0036085Y0012940D02*
Y0012060D01*
X0038335Y0000438D02*
Y0000000D01*
X0018470Y0012600D02*
X0023515D01*
X0035635Y0012940D02*
Y0012060D01*
X0005146Y0025650D02*
X0007683D01*
X0024835Y0004750D02*
Y0000000D01*
X0004250D02*
X0045291D01*
X0004830Y0001800D02*
X0029774D01*
X0020205Y0006300D02*
X0022705D01*
X0011785Y0002180D02*
Y0000000D01*
X0014485Y0005984D02*
Y0004883D01*
X0012786Y0009000D02*
X0012799D01*
X0013135Y0005930D02*
Y0004885D01*
X0011335Y0011430D02*
Y0009911D01*
X0005035Y0005503D02*
Y0005050D01*
X0002935Y0003150D02*
X0009397D01*
X0013005Y0005930D02*
X0011927Y0004851D01*
X0032935Y0000438D02*
Y0000000D01*
X0019755Y0005850D02*
X0023155D01*
X0027535Y0008592D02*
Y0007785D01*
X0012475Y0005400D02*
X0017325D01*
X0018470Y0013190D02*
Y0012245D01*
X0015835Y0003260D02*
Y0000000D01*
X0018085Y0004180D02*
Y0000000D01*
X0018535Y0004630D02*
Y0000000D01*
X0018855Y0004950D02*
X0024055D01*
X0018985Y0005080D02*
Y0000000D01*
X0028885Y0022297D02*
Y0022230D01*
X0028792D02*
X0031244D01*
X0024640Y0007764D02*
Y0007705D01*
X0033385Y0021799D02*
Y0021349D01*
X0043310Y0013950D02*
X0046435D01*
X0041760Y0020250D02*
X0046435D01*
X0039920Y0017705D02*
X0039434Y0017219D01*
X0041035Y0000438D02*
Y0000000D01*
X0042385Y0010726D02*
Y0000000D01*
X0043360Y0015300D02*
X0046435D01*
X0043269Y0011250D02*
X0046435D01*
X0008185Y0026950D02*
Y0025650D01*
X0005025Y0013450D02*
Y0012555D01*
X0005146Y0000900D02*
X0029774D01*
X0026805Y0018000D02*
X0029770D01*
X0024013Y0018900D02*
X0024735D01*
X0011335Y0021200D02*
Y0018000D01*
X0004974Y0025200D02*
X0007122D01*
X0020915Y0018900D02*
X0021647D01*
X0026135D02*
X0026476D01*
X0012283Y0008330D02*
X0013015D01*
X0043360Y0015750D02*
X0046435D01*
X0036535Y0016796D02*
Y0015330D01*
X0036985Y0010660D02*
Y0009950D01*
X0023935Y0005070D02*
Y0000000D01*
X0002935Y0011700D02*
X0004790D01*
X0002935Y0018000D02*
X0003515D01*
X0003685Y0000077D02*
Y0000000D01*
G01X0037845Y0018645D02*
G03X0037252Y0018430I0000000J0000925D01*
G01X0043360Y0014650D02*
G03X0043357Y0014725I0000925J0000000D01*
G01X0025445Y0020555D02*
G03X0024520Y0019630I0000000J0000925D01*
G01X0026370D02*
G03X0025445Y0020555I0000925J0000000D01*
G01X0023445Y0018705D02*
G03X0024370Y0019630I0000000J0000925D01*
G01X0021290D02*
G03X0021674Y0018880I0000925J0000000D01*
G01X0024370Y0019630D02*
G03X0023445Y0020555I0000925J0000000D01*
G01X0012965Y0020055D02*
G03X0012040Y0019130I0000000J0000925D01*
G01X0011005Y0019374D02*
G03X0011240Y0019990I0000690J0000616D01*
G01X0016737Y0011469D02*
G03X0016833Y0011330I0000808J0000451D01*
G01X0016790Y0019660D02*
G03X0017715Y0018735I0000925J0000000D01*
Y0020585D02*
G03X0016790Y0019660I0000000J0000925D01*
G01X0012040Y0019130D02*
G03X0012265Y0018525I0000925J0000000D01*
G01X0016640Y0019660D02*
G03X0015715Y0020585I0000925J0000000D01*
G01X0025215Y0009705D02*
G03X0026140Y0010630I0000000J0000925D01*
G01X0024290D02*
G03X0025215Y0009705I0000925J0000000D01*
G01X0025922Y0013606D02*
G03X0026845Y0012735I0000923J0000054D01*
G01X0026140Y0010630D02*
G03X0025215Y0011555I0000925J0000000D01*
G01X0024965Y0007705D02*
G03X0025890Y0008630I0000000J0000925D01*
G01X0028350Y0006660D02*
G03X0028503Y0006150I0000925J0000000D01*
G01X0025890Y0008630D02*
G03X0024965Y0009555I0000925J0000000D01*
G01X0006965Y0010705D02*
G03X0007890Y0011630I0000000J0000925D01*
G03X0006965Y0012555I0000925J0000000D01*
Y0018705D02*
G03X0007890Y0019630I0000000J0000925D01*
G01X0003055Y0001040D02*
G03X0003961Y0000000I0001050J0000000D01*
G01X0014545Y0004885D02*
G03X0014470Y0004882I0000000J0000925D01*
G01X0024640Y0007764D02*
G03X0024965Y0007705I0000325J0000866D01*
G01X0006610Y0005430D02*
G03X0007215Y0005205I0000605J0000700D01*
G01X0009398Y0020110D02*
G03X0009390Y0019990I0000917J0000120D01*
G01X0009605Y0018040D02*
G03X0009810Y0017545I0000700J0000000D01*
G01X0041415Y0010660D02*
G03X0041910Y0010865I0000000J0000700D01*
G01X0015150Y0004660D02*
G03X0014545Y0004885I0000605J0000700D01*
G01X0022757Y0018880D02*
G03X0022820Y0018930I0000542J0000750D01*
G01X0006640Y0018764D02*
G03X0006965Y0018705I0000325J0000866D01*
G01X0029435Y0004750D02*
G03X0029930Y0004955I0000000J0000700D01*
G01X0032285Y0003035D02*
G03X0032360Y0003038I0000000J0000925D01*
G01X0039960Y0012640D02*
G03X0040165Y0012060I0000925J0000000D01*
G01X0022820Y0020330D02*
G03X0022215Y0020555I0000605J0000700D01*
G01X0043213Y0014150D02*
G03X0043360Y0014650I0000778J0000500D01*
G01X0046435Y0026110D02*
G03X0045435Y0026840I0001000J0000320D01*
G01X0007925Y0019755D02*
G03X0008707Y0020185I0000000J0000925D01*
G01X0020915Y0019880D02*
G03X0020710Y0020375I0000700J0000000D01*
G01X0007882Y0019756D02*
G03X0007925Y0019755I0000043J0000924D01*
G01X0007215Y0005205D02*
G03X0007820Y0005430I0000000J0000925D01*
G01X0005015Y0009735D02*
G03X0004793Y0009197I0000700J0000605D01*
G01X0043213Y0013150D02*
G03X0043360Y0013650I0000778J0000500D01*
G01X0041924Y0010879D02*
G03X0042435Y0010725I0000511J0000771D01*
G01X0009965Y0002955D02*
G03X0010353Y0003040I0000000J0000925D01*
G01X0016715Y0006705D02*
G03X0017638Y0007565I0000000J0000925D01*
G01X0031193Y0018130D02*
G03X0030535Y0018405I0000658J0000650D01*
G01X0028295Y0023935D02*
G03X0027370Y0023010I0000000J0000925D01*
G01X0029220D02*
G03X0028295Y0023935I0000925J0000000D01*
G01X0028792Y0022230D02*
G03X0029220Y0023010I0000497J0000780D01*
G01X0031555Y0020147D02*
G03X0031530Y0019965I0000650J0000182D01*
G01X0026220Y0023010D02*
G03X0025295Y0023935I0000925J0000000D01*
G01X0029555Y0010800D02*
G03X0029605Y0010540I0000700J0000000D01*
G01X0028395Y0010455D02*
G03X0029320Y0011380I0000000J0000925D01*
G03X0028395Y0012305I0000925J0000000D01*
G01X0028317Y0008600D02*
G03X0028348Y0008500I0000658J0000150D01*
G01X0028145Y0010489D02*
G03X0028395Y0010455I0000250J0000891D01*
G01X0027235Y0007835D02*
G03X0026310Y0006910I0000000J0000925D01*
G01X0028160D02*
G03X0027235Y0007835I0000925J0000000D01*
G01X0036585Y0019795D02*
G03X0037510Y0020720I0000000J0000925D01*
G01X0032587Y0017074D02*
G03X0033195Y0016720I0000608J0000346D01*
G01X0037845Y0016795D02*
G03X0038770Y0017720I0000000J0000925D01*
G03X0037845Y0018645I0000925J0000000D01*
G01X0007215Y0008205D02*
G03X0008140Y0009130I0000000J0000925D01*
G03X0007215Y0010055I0000925J0000000D01*
G01X0003720Y0008125D02*
G03X0003515Y0007630I0000495J0000495D01*
G01X0023605Y0018615D02*
G03X0023082Y0018453I0000000J0000925D01*
G01X0022215Y0020555D02*
G03X0021290Y0019630I0000000J0000925D01*
G01X0010062Y0020880D02*
G03X0010070Y0021000I0000917J0000120D01*
G01X0011240Y0019990D02*
G03X0010315Y0020915I0000925J0000000D01*
G01X0010070Y0021000D02*
G03X0010048Y0021200I0000925J0000000D01*
G01X0018096Y0018817D02*
G03X0017803Y0018282I0000619J0000687D01*
G01X0016505Y0011430D02*
G03X0016737Y0011469I0000000J0000700D01*
G01X0032005Y0016830D02*
G03X0032465Y0017020I0000000J0000650D01*
G01X0035968Y0017031D02*
G03X0036585Y0016795I0000617J0000689D01*
G01X0006650Y0014140D02*
G03X0005725Y0015065I0000925J0000000D01*
Y0016215D02*
G03X0006650Y0017140I0000000J0000925D01*
G01X0033735Y0016720D02*
G03X0034230Y0016925I0000000J0000700D01*
G01X0029610Y0017480D02*
G03X0030535Y0016555I0000925J0000000D01*
Y0018405D02*
G03X0029610Y0017480I0000000J0000925D01*
G01X0030535Y0016555D02*
G03X0031193Y0016830I0000000J0000925D01*
G01X0029535Y0018555D02*
G03X0030460Y0019480I0000000J0000925D01*
G01X0028610D02*
G03X0029535Y0018555I0000925J0000000D01*
G01X0031785Y0023905D02*
G03X0030860Y0022980I0000000J0000925D01*
G01X0042435Y0010725D02*
G03X0043360Y0011650I0000000J0000925D01*
G03X0043213Y0012150I0000925J0000000D01*
G01X0043360Y0012650D02*
G03X0043213Y0013150I0000925J0000000D01*
G01X0031860Y0023902D02*
G03X0031785Y0023905I0000075J0000922D01*
G01X0014040Y0002815D02*
G03X0014189Y0003035I0000495J0000495D01*
G01X0005725Y0015065D02*
G03X0005132Y0014850I0000000J0000925D01*
G01X0010353Y0003040D02*
G03X0010470Y0002885I0000612J0000340D01*
G01X0007123Y0024317D02*
G03X0007055Y0024320I0000068J0000697D01*
G01X0033400Y0006735D02*
G03X0033605Y0007230I0000495J0000495D01*
G01X0030760Y0005785D02*
G03X0030821Y0005854I0000495J0000495D01*
G01X0038660Y0019840D02*
G03X0039585Y0018915I0000925J0000000D01*
Y0020765D02*
G03X0038660Y0019840I0000000J0000925D01*
G01X0040145Y0018325D02*
G03X0039920Y0017720I0000700J0000605D01*
G01X0027395Y0018075D02*
G03X0028320Y0019000I0000000J0000925D01*
G01X0026470D02*
G03X0027395Y0018075I0000925J0000000D01*
G01X0018704Y0020401D02*
G03X0018610Y0020330I0000511J0000771D01*
G01X0039920Y0017720D02*
G03X0039920Y0017705I0000925J0000000D01*
G01X0046435Y0001360D02*
G03X0045435Y0002090I0001000J0000320D01*
G01X0023082Y0018453D02*
G03X0022757Y0018880I0000867J0000323D01*
G01X0026660Y0010985D02*
G03X0026455Y0010490I0000495J0000495D01*
G01X0026660Y0010985D02*
G03X0026455Y0010490I0000495J0000495D01*
G01X0006425Y0013535D02*
G03X0006650Y0014140I0000700J0000605D01*
G01X0025792Y0022230D02*
G03X0026220Y0023010I0000497J0000780D01*
G01X0020404Y0020681D02*
G03X0020666Y0020830I0000319J0000869D01*
G01X0025295Y0023935D02*
G03X0024748Y0023756I0000000J0000925D01*
G01X0031360Y0003960D02*
G03X0032285Y0003035I0000925J0000000D01*
Y0004885D02*
G03X0031360Y0003960I0000000J0000925D01*
G01X0004250Y0000000D02*
G03X0005155Y0001040I0000145J0001040D01*
G01X0004105Y0002090D02*
G03X0003055Y0001040I0000000J0001050D01*
G01X0005155D02*
G03X0004105Y0002090I0001050J0000000D01*
Y0024740D02*
G03X0005155Y0025790I0000000J0001050D01*
G01X0003055D02*
G03X0004105Y0024740I0001050J0000000D01*
Y0026840D02*
G03X0003055Y0025790I0000000J0001050D01*
G01X0005155D02*
G03X0004105Y0026840I0001050J0000000D01*
G01X0045435Y0002090D02*
G03X0044385Y0001040I0000000J0001050D01*
G03X0045291Y0000000I0001050J0000000D01*
G01X0044385Y0025790D02*
G03X0045435Y0024740I0001050J0000000D01*
Y0026840D02*
G03X0044385Y0025790I0000000J0001050D01*
G01X0045435Y0024740D02*
G03X0046435Y0025470I0000000J0001050D01*
G01X0003515Y0004880D02*
G03X0003720Y0004385I0000700J0000000D01*
G01X0029140Y0007575D02*
G03X0028350Y0006660I0000135J0000915D01*
G01X0028300Y0008250D02*
G03X0028975Y0007575I0000675J0000000D01*
G01X0030821Y0005854D02*
G03X0031275Y0005735I0000454J0000806D01*
G01X0030992Y0010547D02*
G03X0031395Y0010455I0000403J0000833D01*
G01X0030766Y0012058D02*
G03X0030320Y0011855I0000049J0000698D01*
G01X0031095Y0010425D02*
G03X0030905Y0010398I0000000J0000675D01*
G01X0019835Y0012675D02*
G03X0020388Y0012963I0000000J0000675D01*
G01X0020455Y0012896D02*
G03X0020907Y0012709I0000452J0000454D01*
G01X0041770Y0017720D02*
G03X0041545Y0018325I0000925J0000000D01*
G01X0009390Y0019990D02*
G03X0009605Y0019397I0000925J0000000D01*
G01X0004785Y0024320D02*
G03X0004290Y0024115I0000000J0000700D01*
G01X0008215Y0005430D02*
G03X0008710Y0005635I0000000J0000700D01*
G01X0008707Y0020185D02*
G03X0009145Y0020075I0000438J0000815D01*
G01X0040010Y0012940D02*
G03X0039960Y0012640I0000875J0000300D01*
G01X0026845Y0016095D02*
G03X0027770Y0017020I0000000J0000925D01*
G01X0025945Y0015330D02*
G03X0025765Y0015306I0000000J0000700D01*
Y0015864D02*
G03X0025785Y0016030I0000680J0000166D01*
G01X0024735Y0018380D02*
G03X0024940Y0017885I0000700J0000000D01*
G01X0009145Y0020075D02*
G03X0009398Y0020110I0000000J0000925D01*
G01X0007890Y0019630D02*
G03X0007882Y0019756I0000925J0000000D01*
G01X0012793Y0014562D02*
G03X0013015Y0014025I0000922J0000068D01*
G01X0041415Y0010660D02*
G03X0041910Y0010865I0000000J0000700D01*
G01X0039605Y0010175D02*
G03X0039000Y0009950I0000000J0000925D01*
G01X0027770Y0017020D02*
G03X0026860Y0017945I0000925J0000000D01*
G01X0024965Y0009555D02*
G03X0024640Y0009496I0000000J0000925D01*
G01X0020971Y0025005D02*
G03X0020085Y0025665I0000886J0000265D01*
G01X0009965Y0012830D02*
G03X0009470Y0012625I0000000J0000700D01*
G01X0005715Y0005205D02*
G03X0006320Y0005430I0000000J0000925D01*
G01X0023915Y0010025D02*
G03X0024138Y0010562I0000700J0000605D01*
G01X0025120Y0016985D02*
G03X0024625Y0017190I0000495J0000495D01*
G01X0029435Y0004750D02*
G03X0029930Y0004955I0000000J0000700D01*
G01X0024050D02*
G03X0024545Y0004750I0000495J0000495D01*
G01X0024050Y0004955D02*
G03X0024545Y0004750I0000495J0000495D01*
G01X0032335Y0005960D02*
G03X0032830Y0006165I0000000J0000700D01*
G01X0006965Y0012555D02*
G03X0006640Y0012496I0000000J0000925D01*
G01X0021062Y0007193D02*
G03X0021220Y0007440I0000477J0000477D01*
G01X0012790Y0013130D02*
G03X0012840Y0012830I0000925J0000000D01*
G01X0037178Y0018430D02*
G03X0036585Y0018645I0000593J0000710D01*
G01X0033735Y0016720D02*
G03X0034230Y0016925I0000000J0000700D01*
G01X0026455Y0010407D02*
G03X0026310Y0009910I0000780J0000497D01*
G01X0016875Y0003260D02*
G03X0017370Y0003465I0000000J0000700D01*
G01X0010315Y0020915D02*
G03X0010062Y0020880I0000000J0000925D01*
G01X0007820Y0006830D02*
G03X0007215Y0007055I0000605J0000700D01*
G01X0032005Y0016830D02*
G03X0032465Y0017020I0000000J0000650D01*
G01X0023380Y0024815D02*
G03X0022885Y0025020I0000495J0000495D01*
G01X0016110Y0006930D02*
G03X0016715Y0006705I0000605J0000700D01*
G01X0014215Y0005930D02*
G03X0014710Y0006135I0000000J0000700D01*
G01X0009675Y0008251D02*
G03X0009965Y0008204I0000290J0000879D01*
G01X0009470Y0006395D02*
G03X0009675Y0006890I0000495J0000495D01*
G01X0008215Y0003180D02*
G03X0008710Y0003385I0000000J0000700D01*
G01X0010970Y0002385D02*
G03X0011465Y0002180I0000495J0000495D01*
G01X0012620Y0004435D02*
G03X0011927Y0004851I0000775J0000505D01*
G01X0010970Y0002385D02*
G03X0011465Y0002180I0000495J0000495D01*
G01X0013115D02*
G03X0013610Y0002385I0000000J0000700D01*
G01X0004915Y0005665D02*
G03X0005715Y0005205I0000800J0000465D01*
G01X0014040Y0002815D02*
G03X0014189Y0003035I0000495J0000495D01*
G01X0043360Y0013650D02*
G03X0043213Y0014150I0000925J0000000D01*
G01X0003720Y0023545D02*
G03X0003515Y0023050I0000495J0000495D01*
G01X0013648Y0010052D02*
G03X0012797Y0009240I0000067J0000922D01*
G01X0040885Y0015565D02*
G03X0040269Y0015330I0000000J0000925D01*
G01X0028160Y0009910D02*
G03X0028033Y0010378I0000925J0000000D01*
G01X0009605Y0018040D02*
G03X0009810Y0017545I0000700J0000000D01*
G01X0005783Y0008207D02*
G03X0006465Y0008588I0000068J0000923D01*
Y0009671D02*
G03X0006415Y0009735I0000750J0000541D01*
G01X0030766Y0012058D02*
G03X0030320Y0011855I0000049J0000698D01*
G01X0032240Y0009950D02*
G03X0031595Y0010425I0000645J0000200D01*
G01X0029760Y0011295D02*
G03X0029555Y0010800I0000495J0000495D01*
G01X0034938Y0021612D02*
G03X0034083Y0020757I0000067J0000922D01*
G01X0018675Y0013210D02*
G03X0019335Y0012675I0000660J0000140D01*
G01X0006650Y0017140D02*
G03X0006425Y0017745I0000925J0000000D01*
G01X0021955Y0012675D02*
G03X0022613Y0013200I0000000J0000675D01*
G01X0028855Y0020107D02*
G03X0028610Y0019480I0000680J0000627D01*
G01X0027684Y0011971D02*
G03X0027530Y0011855I0000341J0000611D01*
G01X0025765Y0015864D02*
G03X0025785Y0016030I0000680J0000166D01*
G03X0025580Y0016525I0000700J0000000D01*
G01X0025928Y0016897D02*
G03X0026845Y0016095I0000917J0000123D01*
G01X0025785Y0016030D02*
G03X0025580Y0016525I0000700J0000000D01*
G01X0025120Y0016985D02*
G03X0024625Y0017190I0000495J0000495D01*
G01X0017460Y0018625D02*
G03X0016965Y0018830I0000495J0000495D01*
G01X0035073Y0019767D02*
G03X0035804Y0020224I0000068J0000923D01*
G01X0021674Y0018880D02*
G03X0021448Y0018647I0000541J0000750D01*
G01X0041501Y0015330D02*
G03X0040885Y0015565I0000616J0000690D01*
G01X0031395Y0012305D02*
G03X0030766Y0012058I0000000J0000925D01*
G01X0026310Y0006910D02*
G03X0026708Y0006150I0000925J0000000D01*
G01X0027280Y0008755D02*
G03X0027775Y0008550I0000495J0000495D01*
G01X0028348Y0008500D02*
G03X0028300Y0008250I0000627J0000250D01*
G01X0027762Y0006150D02*
G03X0028160Y0006910I0000527J0000760D01*
G01X0037510Y0020720D02*
G03X0037223Y0021390I0000925J0000000D01*
G01X0030460Y0019480D02*
G03X0030255Y0020061I0000925J0000000D01*
G01X0003515Y0014610D02*
G03X0003720Y0014115I0000700J0000000D01*
G01X0012797Y0009240D02*
G03X0011875Y0010085I0000922J0000080D01*
G01X0033605Y0020860D02*
G03X0033415Y0021319I0000650J0000000D01*
G01X0011661Y0008260D02*
G03X0011470Y0008125I0000304J0000630D01*
G01X0035929Y0018725D02*
G03X0035005Y0019615I0000924J0000035D01*
G01X0015215Y0011330D02*
G03X0014720Y0011125I0000000J0000700D01*
G01X0043213Y0012150D02*
G03X0043360Y0012650I0000778J0000500D01*
G01X0018258Y0011330D02*
G03X0018470Y0011920I0000713J0000590D01*
G01X0016505Y0011430D02*
G03X0016737Y0011469I0000000J0000700D01*
G01X0033605Y0020860D02*
G03X0033415Y0021319I0000650J0000000D01*
G01X0033163Y0021571D02*
G03X0033477Y0022055I0000378J0000589D01*
G01X0031530Y0019465D02*
G03X0031614Y0019140I0000675J0000000D01*
G01X0023380Y0024815D02*
G03X0022885Y0025020I0000495J0000495D01*
G01X0023564Y0013147D02*
G03X0023515Y0012890I0000651J0000257D01*
G01X0020085Y0025665D02*
G03X0019480Y0025440I0000000J0000925D01*
G01X0004180Y0013655D02*
G03X0004675Y0013450I0000495J0000495D01*
G01X0021241Y0012710D02*
G03X0021455Y0012675I0000214J0000640D01*
G01X0015715Y0020585D02*
G03X0014879Y0020055I0000000J0000925D01*
G01X0014470Y0003038D02*
G03X0014545Y0003035I0000075J0000922D01*
G01X0041004Y0016809D02*
G03X0041770Y0017720I0000159J0000911D01*
G01X0040530Y0016310D02*
G03X0040530Y0016335I0000925J0000000D01*
G01X0023148Y0011552D02*
G03X0022610Y0011330I0000067J0000922D01*
G01X0023564Y0013147D02*
G03X0023515Y0012890I0000651J0000257D01*
G01X0024903Y0011501D02*
G03X0024915Y0011630I0000688J0000129D01*
G01X0003515Y0004880D02*
G03X0003720Y0004385I0000700J0000000D01*
Y0008125D02*
G03X0003515Y0007630I0000495J0000495D01*
G01X0004720Y0003385D02*
G03X0005215Y0003180I0000495J0000495D01*
G01X0008215D02*
G03X0008710Y0003385I0000000J0000700D01*
G01X0004720D02*
G03X0005215Y0003180I0000495J0000495D01*
G01X0012794Y0009050D02*
G03X0013015Y0008525I0000921J0000080D01*
G01X0006320Y0006830D02*
G03X0005715Y0007055I0000605J0000700D01*
G01X0006465Y0008588D02*
G03X0007215Y0008205I0000750J0000542D01*
G01X0014215Y0005930D02*
G03X0014710Y0006135I0000000J0000700D01*
G01X0014545Y0003035D02*
G03X0015150Y0003260I0000000J0000925D01*
G01X0025945Y0015330D02*
G03X0025765Y0015306I0000000J0000700D01*
G01X0021062Y0007193D02*
G03X0021220Y0007440I0000477J0000477D01*
G01X0026310Y0009910D02*
G03X0027026Y0009009I0000925J0000000D01*
G01X0028395Y0012305D02*
G03X0027684Y0011971I0000000J0000925D01*
G01X0007215Y0007055D02*
G03X0006610Y0006830I0000000J0000925D01*
G01X0039585Y0018915D02*
G03X0039910Y0018974I0000000J0000925D01*
G01X0018470Y0011920D02*
G03X0018411Y0012245I0000925J0000000D01*
G01X0009965Y0012830D02*
G03X0009470Y0012625I0000000J0000700D01*
Y0006395D02*
G03X0009675Y0006890I0000495J0000495D01*
G01X0009053Y0003728D02*
G03X0009965Y0002955I0000912J0000152D01*
G01X0008480Y0011635D02*
G03X0008275Y0011140I0000495J0000495D01*
G01X0008480Y0011635D02*
G03X0008275Y0011140I0000495J0000495D01*
G01X0007215Y0010055D02*
G03X0006465Y0009671I0000000J0000925D01*
G01X0008215Y0005430D02*
G03X0008710Y0005635I0000000J0000700D01*
G01X0013015Y0013735D02*
G03X0012790Y0013130I0000700J0000605D01*
G01X0030860Y0022980D02*
G03X0031244Y0022230I0000925J0000000D01*
G01X0004915Y0016693D02*
G03X0005725Y0016215I0000810J0000447D01*
G01X0010353Y0003040D02*
G03X0010470Y0002885I0000612J0000340D01*
G01X0020455Y0012896D02*
G03X0020907Y0012709I0000452J0000454D01*
G01X0024383Y0017190D02*
G03X0024530Y0017690I0000778J0000500D01*
G01X0016235Y0018895D02*
G03X0016640Y0019660I0000520J0000765D01*
G01X0017715Y0018735D02*
G03X0018096Y0018817I0000000J0000925D01*
G01X0017460Y0018625D02*
G03X0016965Y0018830I0000495J0000495D01*
G01X0015215Y0011330D02*
G03X0014720Y0011125I0000000J0000700D01*
G01X0024520Y0019630D02*
G03X0024735Y0019037I0000925J0000000D01*
G01X0021115Y0025020D02*
G03X0020971Y0025005I0000000J0000700D01*
G01X0007123Y0024317D02*
G03X0007055Y0024320I0000068J0000697D01*
G01X0007935Y0025685D02*
G03X0007010Y0024760I0000000J0000925D01*
G01X0027370Y0023010D02*
G03X0027798Y0022230I0000925J0000000D01*
G01X0011661Y0008260D02*
G03X0011470Y0008125I0000304J0000630D01*
G01X0008562Y0025440D02*
G03X0007935Y0025685I0000627J0000680D01*
G01X0007010Y0024760D02*
G03X0007123Y0024317I0000925J0000000D01*
G01X0013115Y0002180D02*
G03X0013610Y0002385I0000000J0000700D01*
G01X0018985Y0007830D02*
G03X0019427Y0007475I0000605J0000300D01*
G01X0011875Y0010085D02*
G03X0010950Y0009160I0000000J0000925D01*
G01X0009965Y0008205D02*
G03X0010890Y0009130I0000000J0000925D01*
G01X0010950Y0009160D02*
G03X0011661Y0008260I0000925J0000000D01*
G01X0010890Y0009130D02*
G03X0009965Y0010055I0000925J0000000D01*
G01X0005715Y0007055D02*
G03X0004915Y0006594I0000000J0000925D01*
G01X0026135Y0019014D02*
G03X0026370Y0019630I0000690J0000616D01*
G01X0024530Y0017690D02*
G03X0023605Y0018615I0000925J0000000D01*
G01X0021448Y0018647D02*
G03X0020965Y0018840I0000483J0000507D01*
G01X0023445Y0020555D02*
G03X0022840Y0020330I0000000J0000925D01*
G01X0021448Y0018647D02*
G03X0020965Y0018840I0000483J0000507D01*
G01X0020915Y0019880D02*
G03X0020710Y0020375I0000700J0000000D01*
G01X0021115Y0025020D02*
G03X0020971Y0025005I0000000J0000700D01*
G01X0016320Y0018830D02*
G03X0016235Y0018895I0000605J0000700D01*
G01X0018353Y0020330D02*
G03X0017715Y0020585I0000638J0000670D01*
G01X0004785Y0024320D02*
G03X0004290Y0024115I0000000J0000700D01*
G01X0003720Y0023545D02*
G03X0003515Y0023050I0000495J0000495D01*
G01X0006640Y0010764D02*
G03X0006965Y0010705I0000325J0000866D01*
G01X0004180Y0013655D02*
G03X0004675Y0013450I0000495J0000495D01*
G01X0003515Y0014610D02*
G03X0003720Y0014115I0000700J0000000D01*
G01X0023383Y0013200D02*
G03X0023564Y0013147I0000284J0000640D01*
G01X0025215Y0011555D02*
G03X0024903Y0011501I0000000J0000925D01*
G01X0012283Y0008330D02*
G03X0012794Y0009050I0000408J0000830D01*
G01X0016875Y0003260D02*
G03X0017370Y0003465I0000000J0000700D01*
G01X0035005Y0019615D02*
G03X0034916Y0019611I0000000J0000925D01*
G01X0035804Y0020224D02*
G03X0036585Y0019795I0000781J0000496D01*
G01X0035935Y0017030D02*
G03X0035968Y0017031I0000000J0000700D01*
G01X0035935Y0017030D02*
G03X0035968Y0017031I0000000J0000700D01*
G01X0024294Y0010719D02*
G03X0024290Y0010630I0000921J0000089D01*
G01X0024748Y0023756D02*
G03X0024243Y0023952I0000573J0000726D01*
G01X0035440Y0017235D02*
G03X0035935Y0017030I0000495J0000495D01*
G01X0020290Y0006385D02*
G03X0020404Y0006534I0000495J0000495D01*
G01X0022840Y0018930D02*
G03X0023445Y0018705I0000605J0000700D01*
G01X0036585Y0018645D02*
G03X0036130Y0018525I0000000J0000925D01*
G01X0035440Y0017235D02*
G03X0035935Y0017030I0000495J0000495D01*
G01X0021220Y0007440D02*
G03X0021340Y0007430I0000120J0000690D01*
G01X0028320Y0019000D02*
G03X0028261Y0019325I0000925J0000000D01*
G01X0026529D02*
G03X0026470Y0019000I0000866J0000325D01*
G01X0039910Y0020706D02*
G03X0039585Y0020765I0000325J0000866D01*
G01X0040060Y0022585D02*
G03X0039565Y0022790I0000495J0000495D01*
G01X0036405D02*
G03X0035910Y0022585I0000000J0000700D01*
G01X0040060D02*
G03X0039565Y0022790I0000495J0000495D01*
G01X0041545Y0020810D02*
G03X0041340Y0021305I0000700J0000000D01*
G01X0032335Y0005960D02*
G03X0032830Y0006165I0000000J0000700D01*
G01X0033400Y0006735D02*
G03X0033605Y0007230I0000495J0000495D01*
G01X0031275Y0005735D02*
G03X0031880Y0005960I0000000J0000925D01*
G01X0026845Y0012735D02*
G03X0027426Y0012940I0000000J0000925D01*
G01X0032360Y0004882D02*
G03X0032285Y0004885I0000075J0000922D01*
G01X0039605Y0008325D02*
G03X0040530Y0009250I0000000J0000925D01*
G03X0039605Y0010175I0000925J0000000D01*
Y0015385D02*
G03X0040530Y0016310I0000000J0000925D01*
G01X0038680D02*
G03X0039605Y0015385I0000925J0000000D01*
G01X0039434Y0017219D02*
G03X0038680Y0016310I0000171J0000909D01*
G01X0036405Y0022790D02*
G03X0035910Y0022585I0000000J0000700D01*
G01X0032022Y0012060D02*
G03X0031395Y0012305I0000627J0000680D01*
G01X0009965Y0010055D02*
G03X0009675Y0010008I0000000J0000925D01*
G01X0024903Y0011501D02*
G03X0024915Y0011630I0000688J0000129D01*
G01X0024735Y0018380D02*
G03X0024940Y0017885I0000700J0000000D01*
G01X0036585Y0016795D02*
G03X0037201Y0017030I0000000J0000925D01*
G01X0037229D02*
G03X0037845Y0016795I0000616J0000690D01*
G01X0039000Y0008550D02*
G03X0039605Y0008325I0000605J0000700D01*
G01X0019427Y0007475D02*
G03X0019300Y0007375I0000368J0000595D01*
G01X0027775Y0008550D02*
G03X0028035Y0008600I0000000J0000700D01*
G01X0041545Y0020810D02*
G03X0041340Y0021305I0000700J0000000D01*
G01X0013290Y0019996D02*
G03X0012965Y0020055I0000325J0000866D01*
G01X0031395Y0010455D02*
G03X0031976Y0010660I0000000J0000925D01*
G54D32*
G01X0039605Y0016310D02*
Y0016400D01*
X0027315Y0009710D02*
X0027285D01*
X0027155Y0009840D01*
Y0009910D01*
X0027095Y0009970D01*
Y0010020D01*
X0027185Y0010110D01*
X0027205D01*
X0027295Y0010020D01*
Y0009960D01*
X0040835Y0019840D02*
X0040845Y0019830D01*
X0032575Y0019720D02*
X0032580Y0019715D01*
X0036585Y0017720D02*
X0037845D01*
X0027295Y0009960D02*
Y0009990D01*
X0028025Y0011360D02*
X0028645D01*
X0028625Y0011380D01*
X0028395D01*
G54D33*
G01X0019840Y0008880D02*
X0019155D01*
X0018405Y0009630D01*
X0019840Y0008880D02*
X0020425D01*
X0020585Y0008720D01*
Y0007670D01*
X0019795Y0006880D01*
X0022370Y0008505D02*
X0021340D01*
X0019840Y0008130D02*
X0019830Y0008120D01*
X0018835D01*
X0018115Y0007400D01*
X0011875Y0009160D02*
Y0011410D01*
X0017035D01*
X0017545Y0011920D01*
X0011865Y0011410D02*
X0017035D01*
X0017545Y0011920D01*
X0017035Y0011410D01*
X0011865D01*
X0023215Y0009130D02*
X0022215D01*
X0021965Y0008880D01*
X0021340D01*
X0018825Y0008120D02*
X0019830D01*
X0019840Y0008130D01*
X0032955Y0018215D02*
Y0017660D01*
X0033195Y0017420D01*
X0019840Y0008505D02*
X0017585D01*
G54D34*
G01X0019585Y0013350D02*
X0018925D01*
X0018445Y0012870D01*
Y0012060D01*
X0018295Y0011910D01*
X0017555D01*
X0017545Y0011920D01*
X0021705Y0014850D02*
X0023105D01*
X0023585Y0015330D01*
X0021705Y0014350D02*
X0020954D01*
X0020635Y0014670D01*
Y0015920D01*
X0020655Y0015940D01*
X0019585Y0013850D02*
X0019709D01*
X0019715Y0013860D01*
X0020394D01*
X0020907Y0013350D01*
X0021705D01*
X0019585Y0014350D02*
X0017975D01*
X0017711Y0014614D01*
X0016735D01*
X0016715Y0014630D01*
X0017545Y0013170D02*
X0018225Y0013850D01*
X0019585D01*
Y0014850D02*
X0018715D01*
X0017835Y0015730D01*
Y0016240D01*
X0016995Y0017080D01*
X0021705Y0013850D02*
X0021713Y0013840D01*
X0023667D01*
X0024208Y0014380D02*
X0024215D01*
X0019585Y0013850D02*
X0019565D01*
X0019575Y0013840D01*
X0019719D01*
X0019709Y0013850D01*
X0019585D01*
X0019609Y0014350D02*
X0019585D01*
X0019793Y0013850D02*
X0019585D01*
G54D19*
X0032285Y0003960D03*
X0025295Y0023010D03*
X0028295D03*
X0021175Y0023030D03*
X0024175D03*
X0028395Y0011380D03*
X0031395D03*
X0027235Y0006910D03*
Y0009910D03*
X0036585Y0017720D03*
Y0020720D03*
X0040845Y0017720D03*
X0037845D03*
X0007215Y0009130D03*
Y0006130D03*
X0005715D03*
Y0009130D03*
X0022215Y0019630D03*
X0019215D03*
X0013715Y0016130D03*
X0016715D03*
X0010315Y0019990D03*
Y0022990D03*
X0016715Y0014630D03*
X0013715D03*
X0018715Y0018130D03*
X0015715D03*
X0013715Y0009130D03*
X0016715D03*
X0013715Y0007630D03*
X0016715D03*
X0005725Y0017140D03*
Y0014140D03*
X0029535Y0019480D03*
X0030535Y0017480D03*
X0031785Y0022980D03*
X0042435Y0014650D03*
Y0013650D03*
Y0012650D03*
Y0011650D03*
X0012745Y0022990D03*
X0013745D03*
X0014545Y0003960D03*
X0005715Y0022630D03*
X0006715D03*
X0029275Y0006660D03*
X0031275D03*
X0039585Y0019840D03*
X0027395Y0019000D03*
X0035005Y0018690D03*
Y0020690D03*
X0009145Y0023000D03*
Y0021000D03*
X0017545Y0011920D03*
X0020215Y0018130D03*
X0022215D03*
X0040885Y0012640D03*
Y0014640D03*
X0023445Y0019630D03*
X0025445D03*
X0012965Y0019130D03*
X0013715Y0013130D03*
X0015715D03*
Y0019660D03*
X0017715D03*
X0025215Y0010630D03*
X0023215D03*
X0024965Y0008630D03*
X0006965Y0011630D03*
Y0019630D03*
G54D20*
X0033285Y0003960D03*
X0032785Y0022980D03*
X0042435Y0015650D03*
X0011745Y0022990D03*
X0013545Y0003960D03*
X0040835Y0019840D03*
X0027395Y0020250D03*
X0017545Y0013170D03*
X0014215Y0019130D03*
X0023715Y0008630D03*
X0005715Y0011630D03*
Y0019630D03*
G54D45*
X0039605Y0009250D03*
Y0016310D03*
X0020085Y0021550D03*
Y0024740D03*
X0007935Y0024760D03*
X0007925Y0020680D03*
X0011845Y0003930D03*
X0011875Y0009160D03*
X0009965Y0009130D03*
Y0003880D03*
X0023585Y0015330D03*
X0023605Y0017690D03*
X0026845Y0013660D03*
Y0017020D03*
G54D48*
X0029225Y0009250D03*
Y0008750D03*
Y0008250D03*
X0031345D03*
Y0008750D03*
Y0009250D03*
Y0009750D03*
X0019585Y0014350D03*
Y0013850D03*
Y0013350D03*
X0021705D03*
Y0013850D03*
Y0014350D03*
Y0014850D03*
X0021340Y0008505D03*
Y0008880D03*
X0019840D03*
Y0008505D03*
Y0008130D03*
G54D49*
X0029225Y0009750D03*
X0019585Y0014850D03*
X0021340Y0008130D03*
G54D50*
X0032580Y0018215D03*
X0032955D03*
Y0019715D03*
X0032580D03*
X0032205D03*
G54D51*
Y0018215D03*
G54D54*
X0004105Y0001040D03*
Y0025790D03*
X0045435Y0001040D03*
Y0025790D03*
M02*
