*
G04 Mass Parameters ***
*
G04 Image ***
*
%IND:\DATE\GPR\HARDWARE\SECTIUNEA_LF\GPR_LF.BOT*%
%ICAS*%
%MOIN*%
%IPPOS*%
%ASAXBY*%
G74*%FSLAN2X34Y34*%
*
G04 Aperture Definitions ***
*
%ADD10C,0.0520*%
%ADD11R,0.0520X0.0520*%
%ADD12C,0.0550*%
%ADD13C,0.0620*%
%ADD14R,0.0620X0.0620*%
%ADD15C,0.0580*%
%ADD16R,0.0580X0.0580*%
%ADD17R,0.0550X0.0550*%
%ADD18C,0.1470*%
%ADD19C,0.0750*%
%ADD20R,0.0750X0.0750*%
%ADD21C,0.0500*%
%ADD22C,0.0010*%
%ADD23C,0.0500*%
%ADD24C,0.0300*%
%ADD25C,0.0200*%
%ADD26O,0.0250X0.0860*%
%ADD27R,0.0250X0.0860*%
%ADD28O,0.0860X0.0250*%
%ADD29R,0.0860X0.0250*%
%ADD30C,0.0100*%
%ADD31C,0.0500*%
%ADD32C,0.0080*%
%ADD33C,0.0250*%
%ADD34C,0.0180*%
%ADD35C,0.0720*%
%ADD36R,0.0720X0.0720*%
%ADD37C,0.0800*%
%ADD38C,0.0820*%
%ADD39R,0.0820X0.0820*%
%ADD40C,0.0780*%
%ADD41R,0.0780X0.0780*%
%ADD42C,0.1750*%
%ADD43C,0.0950*%
%ADD44R,0.0950X0.0950*%
%ADD45C,0.0750*%
%ADD46C,0.0670*%
%ADD47C,0.0550*%
%ADD48O,0.0750X0.0250*%
%ADD49R,0.0750X0.0250*%
%ADD50O,0.0250X0.0750*%
%ADD51R,0.0250X0.0750*%
%ADD52C,0.0400*%
%ADD53C,0.1100*%
%ADD54C,0.1000*%
%ADD55C,0.1400*%
%ADD56C,0.1050*%
*
G04 Plot Data ***
*
G54D24*
G01X0018405Y0009630D02*
X0017215D01*
X0016715Y0009130D01*
X0019795Y0006880D02*
X0016875Y0003960D01*
X0014545D01*
X0037845Y0017720D02*
X0037835Y0017730D01*
X0036585D01*
X0036575Y0017740D01*
X0035945D01*
X0035935Y0017730D01*
X0035005Y0018660D01*
Y0018690D01*
Y0020690D02*
X0036405Y0022090D01*
X0039565D01*
X0040845Y0020810D01*
Y0017720D01*
X0031275Y0006660D02*
X0032335D01*
X0032905Y0007230D01*
Y0009250D01*
X0031345D01*
X0039605D01*
Y0016400D02*
X0040845Y0017640D01*
Y0017720D01*
X0032785Y0022980D02*
Y0022160D01*
X0027395Y0020250D02*
Y0021530D01*
X0020115D01*
X0020095Y0021550D01*
X0021155D01*
X0021165Y0021560D01*
Y0023020D01*
X0021175Y0023030D01*
X0027395Y0020250D02*
Y0021530D01*
X0020115D01*
X0020085Y0021560D01*
Y0021550D01*
Y0024740D02*
X0007955D01*
X0007935Y0024760D01*
X0007925Y0020680D02*
X0007915D01*
X0007135Y0021460D01*
X0005725D01*
X0005715Y0021470D01*
Y0019630D01*
X0025215Y0010630D02*
X0025475D01*
X0027475Y0012630D01*
X0040875D01*
X0040885Y0012640D01*
X0007215Y0009130D02*
Y0009880D01*
X0007965Y0010630D01*
Y0011630D01*
X0006965D01*
X0027235Y0006910D02*
X0027185Y0006860D01*
X0026025D01*
X0024965Y0007920D01*
Y0008630D01*
Y0007880D01*
X0024715Y0007630D01*
X0023245D01*
X0022370Y0008505D01*
X0039585Y0019840D02*
X0039595Y0019830D01*
Y0018120D01*
X0037505Y0016030D01*
X0032525D01*
X0027395Y0019000D02*
X0028105Y0018290D01*
Y0016850D01*
X0028925Y0016030D01*
X0032525D01*
X0028295Y0023010D02*
X0028285D01*
Y0024160D01*
X0029165Y0025040D01*
X0034675D01*
X0034725Y0024990D01*
Y0024490D01*
X0032295D01*
X0031785Y0023980D01*
Y0022980D01*
X0006965Y0019630D02*
X0009185D01*
Y0020940D01*
X0009145Y0020980D01*
X0008885D01*
X0008905Y0021000D01*
X0009145D01*
X0022215Y0018130D02*
X0022625D01*
X0023325Y0018830D01*
X0023835D01*
X0026635Y0016030D01*
X0032525D01*
X0031785Y0022980D02*
Y0023980D01*
X0032295Y0024490D01*
X0034725D01*
Y0024990D01*
X0034785Y0025050D01*
X0040995D01*
X0043595Y0022450D01*
Y0012630D01*
X0042455D01*
X0042435Y0012650D01*
X0031785Y0022980D02*
Y0023980D01*
X0032295Y0024490D01*
X0039525D01*
X0042515Y0021500D01*
Y0017630D01*
X0040425Y0015540D01*
X0037935D01*
X0037505Y0015970D01*
Y0016030D01*
X0032525D01*
X0018115Y0007400D02*
X0016235Y0005520D01*
X0012855D01*
X0011865Y0004530D01*
Y0003950D01*
X0011845Y0003930D01*
X0007215Y0009130D02*
Y0008130D01*
X0006465Y0007380D01*
X0005215D01*
X0004965Y0007130D01*
Y0005380D01*
X0005465Y0004880D01*
X0008215D01*
X0009965Y0006630D01*
Y0010750D01*
X0010625Y0011410D01*
X0011865D01*
X0010625D01*
X0009965Y0010750D01*
Y0009130D01*
Y0003880D02*
Y0003050D01*
X0010885Y0002130D01*
X0041825D01*
X0043595Y0003900D01*
Y0012630D01*
X0042455D01*
X0042435Y0012650D01*
X0023605Y0017690D02*
X0023595D01*
X0023135Y0017230D01*
X0021875D01*
X0020965Y0018140D01*
X0020225D01*
X0020215Y0018130D01*
Y0019880D01*
X0018195Y0021900D01*
X0008775D01*
X0007055Y0023620D01*
X0004785D01*
X0004215Y0023050D01*
Y0014610D01*
X0004675Y0014150D01*
X0005715D01*
X0005725Y0014140D01*
X0040885Y0014640D02*
X0040875Y0014630D01*
X0025945D01*
Y0014620D01*
X0024215Y0012890D01*
Y0011630D01*
X0023215Y0010630D01*
X0006965Y0011630D02*
X0007965D01*
Y0019630D01*
X0006965D01*
X0006715Y0022630D02*
X0007135D01*
X0008775Y0020990D01*
X0008895D01*
X0008905Y0021000D01*
X0009145D01*
X0036585Y0020720D02*
X0038705D01*
X0039585Y0019840D01*
X0005715Y0009130D02*
X0004215Y0007630D01*
Y0004880D01*
X0005215Y0003880D01*
X0008215D01*
X0011965Y0007630D01*
X0013715D01*
X0023715Y0008630D02*
X0023215Y0009130D01*
X0032205Y0021520D02*
X0029555D01*
Y0019500D01*
X0029545Y0019490D02*
X0029535Y0019480D01*
X0040885Y0012640D02*
X0040895Y0012630D01*
X0042415D01*
X0042435Y0012650D01*
X0017545Y0013170D02*
X0016505Y0012130D01*
X0009965D01*
X0008975Y0011140D01*
Y0006890D01*
X0008215Y0006130D01*
X0007215D01*
X0040885Y0014640D02*
X0040895Y0014630D01*
X0042415D01*
X0042435Y0014650D01*
X0020655Y0015940D02*
X0020215Y0016380D01*
X0018715D01*
X0016965Y0018130D01*
X0015715D01*
X0005725Y0014140D02*
Y0011640D01*
X0005715Y0011630D01*
X0024965Y0008630D02*
Y0009630D01*
X0025215Y0009880D01*
Y0010630D01*
X0027395Y0020250D02*
Y0021530D01*
X0032205D01*
X0015715Y0018130D02*
X0015035D01*
Y0019090D01*
X0015015Y0019070D01*
X0014985Y0019100D01*
X0014245D01*
X0014215Y0019130D01*
X0023215Y0010630D02*
X0015215D01*
X0013715Y0009130D01*
X0029225Y0008250D02*
X0029275Y0008200D01*
Y0006660D01*
X0016995Y0017080D02*
X0016165D01*
X0013715Y0014630D01*
X0005715Y0006130D02*
X0007215D01*
X0033285Y0018970D02*
X0035005Y0020690D01*
X0023667Y0013840D02*
X0024208Y0014380D01*
X0024215D02*
X0025065Y0015230D01*
Y0016030D01*
X0025085D01*
X0024625Y0016490D01*
X0021415D01*
X0020775Y0017130D01*
X0019715D01*
X0018715Y0018130D01*
X0023215Y0010630D02*
Y0009130D01*
X0023715Y0008630D01*
X0005715Y0022630D02*
Y0019630D01*
X0016715Y0014630D02*
X0015715Y0013630D01*
Y0013130D01*
Y0019660D02*
Y0019630D01*
X0015595D01*
X0015035Y0019070D01*
Y0018130D01*
X0015715D01*
X0016715Y0016130D02*
Y0014630D01*
X0015715Y0018130D02*
X0015035D01*
Y0019100D01*
X0014245D01*
X0014215Y0019130D01*
X0040845Y0019830D02*
Y0017720D01*
X0016715Y0007630D02*
X0015215D01*
X0014215Y0006630D01*
X0012715D01*
X0010965Y0004880D01*
Y0003380D01*
X0011465Y0002880D01*
X0013115D01*
X0013545Y0003310D01*
Y0003960D01*
X0033195Y0017420D02*
X0033735D01*
X0035005Y0018690D01*
X0013745Y0022990D02*
X0019785D01*
X0021115Y0024320D01*
X0022885D01*
X0024175Y0023030D01*
X0013715Y0009130D02*
Y0007630D01*
Y0014630D02*
X0010305Y0018040D01*
Y0019990D01*
X0010315D01*
X0031395Y0011380D02*
X0031375Y0011360D01*
X0030815D01*
X0030255Y0010800D01*
X0027775Y0009250D02*
X0027315Y0009710D01*
X0027295Y0009960D02*
X0027275Y0009940D01*
X0027265D01*
X0027235Y0009910D01*
X0009145Y0023000D02*
X0009155Y0022990D01*
X0010315D01*
X0006975Y0015630D02*
X0007965D01*
Y0019630D01*
X0006965D01*
X0005715D02*
X0005725Y0019620D01*
Y0017140D01*
X0017715Y0019660D02*
Y0019630D01*
X0019215D01*
X0010315Y0022990D02*
X0011745D01*
X0042435Y0013650D02*
X0042425Y0013640D01*
X0026865D01*
X0026845Y0013660D01*
Y0017020D02*
X0026795D01*
X0025435Y0018380D01*
Y0019580D01*
X0027235Y0009910D02*
X0027265Y0009940D01*
X0027275D01*
X0027295Y0009960D01*
Y0009990D02*
X0027175Y0010110D01*
X0027155D01*
Y0010490D01*
X0028025Y0011360D01*
X0022215Y0019630D02*
X0023445D01*
X0013715Y0014630D02*
Y0013130D01*
X0017585Y0008505D02*
X0016715Y0007630D01*
X0027425Y0018980D02*
X0027405Y0019000D01*
X0027395D01*
X0024175Y0023030D02*
X0024195Y0023010D01*
X0025295D01*
X0012965Y0019130D02*
Y0016880D01*
X0013715Y0016130D01*
X0019215Y0019630D02*
Y0018630D01*
X0018715Y0018130D01*
X0021340Y0008130D02*
X0021865D01*
X0024545Y0005450D01*
X0029435D01*
X0030265Y0006280D01*
X0014215Y0019130D02*
X0014225Y0019120D01*
X0014965D01*
X0014985Y0019100D01*
X0015035D01*
Y0018130D01*
X0015715D01*
X0005715Y0011630D02*
Y0009130D01*
X0031395Y0011380D02*
X0031415Y0011360D01*
X0041415D01*
X0041705Y0011650D01*
X0042435D01*
X0029515Y0019500D02*
X0029535Y0019480D01*
G54D25*
G01X0032785Y0022160D02*
X0032215Y0021590D01*
Y0021490D01*
X0032205Y0021520D01*
Y0019715D01*
X0029225Y0008250D02*
X0028635D01*
X0027295Y0006910D01*
X0027285Y0006925D01*
X0027250D01*
X0027235Y0006910D01*
X0032525Y0016030D02*
X0032580Y0016085D01*
Y0018215D01*
X0032525Y0016030D02*
X0032580Y0016085D01*
Y0018215D01*
X0032525Y0016030D02*
X0032580Y0016085D01*
Y0018215D01*
X0032525Y0016030D02*
X0032580Y0016085D01*
Y0018215D01*
X0032205Y0019715D02*
Y0021520D01*
X0029555Y0019500D02*
X0029545Y0019490D01*
X0032205Y0019715D02*
Y0021100D01*
X0032215Y0021110D01*
X0032705D01*
X0032955Y0020860D01*
Y0019715D01*
X0032205Y0021530D02*
Y0019715D01*
X0032580D02*
Y0019115D01*
X0032725Y0018970D01*
X0033285D01*
X0030255Y0010800D02*
Y0009230D01*
X0030735Y0008750D01*
X0031345D01*
X0029225Y0009250D02*
X0027775D01*
X0030535Y0017480D02*
X0032005D01*
X0032205Y0017680D01*
Y0018215D01*
X0030265Y0006280D02*
Y0008300D01*
X0029815Y0008750D01*
X0029225D01*
G54D30*
G01X0030583Y0001038D02*
X0030666Y0001122D01*
X0030708Y0001205D01*
Y0001372D01*
X0030666Y0001455D01*
X0030583Y0001538D01*
X0030499D01*
X0030416Y0001455D01*
X0030374Y0001372D01*
Y0001205D01*
X0030416Y0001122D01*
X0030499Y0001038D01*
X0030583D01*
X0030949D02*
X0031283D01*
X0030949Y0001372D01*
Y0001455D01*
X0030991Y0001538D01*
X0031241D01*
X0031283Y0001455D01*
X0031733Y0001038D02*
X0031816Y0001122D01*
X0031858Y0001205D01*
Y0001372D01*
X0031816Y0001455D01*
X0031733Y0001538D01*
X0031649D01*
X0031566Y0001455D01*
X0031524Y0001372D01*
Y0001205D01*
X0031566Y0001122D01*
X0031649Y0001038D01*
X0031733D01*
X0032099D02*
X0032433D01*
X0032099Y0001372D01*
Y0001455D01*
X0032141Y0001538D01*
X0032391D01*
X0032433Y0001455D01*
X0033437Y0001038D02*
Y0001288D01*
X0033478Y0001372D01*
X0033728D01*
Y0001038D01*
X0034012Y0001372D02*
Y0001038D01*
X0033970D02*
X0034262D01*
X0034303Y0001122D01*
Y0001372D01*
X0034795D02*
X0034628D01*
X0034587Y0001288D01*
Y0001122D01*
X0034545Y0001038D01*
X0034837D01*
X0034878Y0001122D01*
X0034837Y0001205D01*
X0034587D01*
X0035453Y0001288D02*
X0035203D01*
X0035120Y0001372D01*
Y0001455D01*
X0035203Y0001538D01*
X0035453D01*
Y0001038D01*
X0036458D02*
X0036624D01*
X0036541D02*
Y0001538D01*
X0036624D01*
X0036949Y0001038D02*
X0037199D01*
X0037241Y0001122D01*
Y0001288D01*
X0037199Y0001372D01*
X0036949D01*
X0036908Y0001288D01*
Y0001205D01*
X0037241D01*
X0037483Y0001372D02*
X0037649D01*
X0037691Y0001288D01*
X0037774D01*
Y0001372D02*
Y0001038D01*
X0038100Y0001538D02*
Y0001539D01*
X0038099D01*
Y0001538D01*
X0038100D01*
X0038016Y0001038D02*
X0038183D01*
X0038099D02*
Y0001372D01*
X0038183D01*
X0038466Y0001038D02*
Y0001538D01*
X0038549Y0001455D01*
X0038633Y0001288D01*
X0038716Y0001455D01*
X0038799Y0001538D01*
Y0001038D01*
X0040053Y0001538D02*
X0039803Y0001288D01*
X0040053Y0001038D01*
X0040378Y0001122D02*
X0040420Y0001038D01*
X0040670D01*
X0040712Y0001122D01*
Y0001455D01*
X0040670Y0001538D01*
X0040420D01*
X0040378Y0001455D01*
X0040953Y0001538D02*
X0041203Y0001288D01*
X0040953Y0001038D01*
X0007831Y0018764D02*
X0006965Y0019630D01*
X0018770Y0011920D02*
X0017545D01*
X0039660Y0012640D02*
X0040885D01*
X0009145Y0019775D02*
Y0021000D01*
X0012741Y0010026D02*
X0011875Y0009160D01*
X0011009Y0008294D02*
X0011875Y0009160D01*
X0011009Y0010026D02*
X0011875Y0009160D01*
X0010831Y0009996D02*
X0009965Y0009130D01*
X0010831Y0008264D02*
X0009965Y0009130D01*
X0009099Y0003014D02*
X0009965Y0003880D01*
X0029161Y0023876D02*
X0028295Y0023010D01*
X0027429Y0023876D02*
X0028295Y0023010D01*
X0026369Y0007776D02*
X0027235Y0006910D01*
X0028101Y0007776D02*
X0027235Y0006910D01*
X0037451Y0019854D02*
X0036585Y0020720D01*
X0035719Y0019854D02*
X0036585Y0020720D01*
X0008081Y0008264D02*
X0007215Y0009130D01*
X0008081Y0009996D02*
X0007215Y0009130D01*
X0006349Y0008264D02*
X0007215Y0009130D01*
X0028409Y0007526D02*
X0029275Y0006660D01*
X0038719Y0018974D02*
X0039585Y0019840D01*
X0038719Y0020706D02*
X0039585Y0019840D01*
X0028261Y0018134D02*
X0027395Y0019000D01*
X0021349Y0018996D02*
X0022215Y0018130D01*
X0026081Y0011496D02*
X0025215Y0010630D01*
X0024349Y0009764D02*
X0025215Y0010630D01*
X0026081Y0009764D02*
X0025215Y0010630D01*
X0025831Y0009496D02*
X0024965Y0008630D01*
X0025831Y0007764D02*
X0024965Y0008630D01*
X0007831Y0012496D02*
X0006965Y0011630D01*
X0007831Y0010764D02*
X0006965Y0011630D01*
X0008975Y0013550D02*
X0009255D01*
X0008975Y0013460D02*
X0009255D01*
X0008975Y0013370D02*
X0009255D01*
X0008975Y0013280D02*
X0009255D01*
X0008975Y0013190D02*
X0009255D01*
X0008975Y0013100D02*
X0009255D01*
X0008975Y0013010D02*
X0009255D01*
X0008975Y0012920D02*
X0009255D01*
X0008975Y0012830D02*
X0009255D01*
X0008975Y0012740D02*
X0009255D01*
X0008975Y0012650D02*
X0009255D01*
X0008975Y0014540D02*
X0009255D01*
X0008975Y0014450D02*
X0009255D01*
X0008975Y0014360D02*
X0009255D01*
X0008975Y0014270D02*
X0009255D01*
X0008975Y0014180D02*
X0009255D01*
X0008975Y0014090D02*
X0009255D01*
X0008975Y0014000D02*
X0009255D01*
X0008975Y0013910D02*
X0009255D01*
X0008975Y0013820D02*
X0009255D01*
X0008975Y0013730D02*
X0009255D01*
X0008975Y0013640D02*
X0009255D01*
X0008975Y0015530D02*
X0009255D01*
X0008975Y0015440D02*
X0009255D01*
X0008975Y0015350D02*
X0009255D01*
X0008975Y0015260D02*
X0009255D01*
X0008975Y0015170D02*
X0009255D01*
X0008975Y0015080D02*
X0009255D01*
X0008975Y0014990D02*
X0009255D01*
X0008975Y0014900D02*
X0009255D01*
X0008975Y0014810D02*
X0009255D01*
X0008975Y0014720D02*
X0009255D01*
X0008975Y0014630D02*
X0009255D01*
X0008975Y0012560D02*
X0009255D01*
X0008975Y0012520D02*
X0009255D01*
X0008975Y0015660D02*
Y0012520D01*
Y0015660D02*
X0009255D01*
Y0012520D01*
X0009035Y0015660D02*
Y0012520D01*
X0009125Y0015660D02*
Y0012520D01*
X0009215Y0015660D02*
Y0012520D01*
X0008975Y0015620D02*
X0009255D01*
G54D31*
G01X0016285Y0003160D02*
Y0000000D01*
X0035635Y0019881D02*
Y0019498D01*
X0006835Y0008178D02*
Y0007082D01*
X0005015Y0014950D02*
X0005097D01*
X0033952Y0016650D02*
X0038638D01*
X0039685Y0010560D02*
Y0010272D01*
X0039810Y0018815D02*
X0040045D01*
X0023935Y0020730D02*
Y0020530D01*
X0020700Y0020730D02*
X0026370D01*
X0026235Y0018900D02*
X0026375D01*
X0033385Y0012840D02*
Y0012160D01*
X0027395Y0022330D02*
X0027528D01*
X0018570Y0013110D02*
X0018598D01*
X0009505Y0019362D02*
Y0018040D01*
X0011335Y0002090D02*
Y0000000D01*
X0023935Y0004929D02*
Y0000000D01*
X0028885Y0012840D02*
Y0012280D01*
X0035185Y0010560D02*
Y0010050D01*
X0026635Y0009079D02*
Y0007741D01*
X0021235Y0007248D02*
Y0000000D01*
X0018996Y0004950D02*
X0023914D01*
X0006385Y0016356D02*
Y0014924D01*
X0002935Y0011250D02*
X0004690D01*
X0024385Y0004666D02*
Y0000000D01*
X0004690Y0012655D02*
Y0010605D01*
X0019885Y0026950D02*
Y0025745D01*
X0009744Y0017470D02*
X0012696Y0014517D01*
X0029674Y0000338D02*
X0041903D01*
X0029674Y0002239D02*
Y0000338D01*
Y0002239D02*
X0041903D01*
Y0000338D01*
X0023935Y0026950D02*
Y0024401D01*
X0002935Y0026950D02*
Y0000000D01*
Y0026950D02*
X0046435D01*
X0041903Y0000450D02*
X0044448D01*
X0030831Y0005714D02*
X0030005Y0004889D01*
X0002935Y0000900D02*
X0002964D01*
X0003235Y0025038D02*
Y0001792D01*
X0006740Y0012655D02*
Y0012630D01*
X0005935Y0008129D02*
Y0007131D01*
X0013135Y0002080D02*
Y0000000D01*
X0005935Y0003080D02*
Y0000000D01*
X0010435Y0011330D02*
Y0010041D01*
X0009085Y0019977D02*
Y0012381D01*
X0037437Y0021290D02*
X0039234D01*
X0015186Y0003160D02*
X0016875D01*
X0014935Y0006219D02*
Y0004908D01*
X0011785Y0026950D02*
Y0025540D01*
X0014035Y0002669D02*
Y0000000D01*
X0014935Y0003012D02*
Y0000000D01*
X0041860Y0019350D02*
X0046435D01*
X0018985Y0004939D02*
Y0000000D01*
X0023935Y0007605D02*
Y0007191D01*
X0024015Y0009989D02*
Y0009655D01*
X0025285Y0012829D02*
Y0011652D01*
X0021685Y0007179D02*
Y0000000D01*
X0022135Y0006729D02*
Y0000000D01*
X0023521Y0007605D02*
X0024740D01*
X0020761Y0006750D02*
X0022114D01*
X0041860Y0019800D02*
X0046435D01*
X0025266Y0007650D02*
X0026526D01*
X0025285Y0004650D02*
Y0000000D01*
X0027085Y0004650D02*
Y0000000D01*
X0008451Y0019800D02*
X0009308D01*
X0005247Y0000900D02*
X0029674D01*
X0041645Y0018815D02*
X0041860D01*
X0030235Y0005119D02*
Y0002239D01*
X0031903Y0005850D02*
X0046435D01*
X0031585Y0003211D02*
Y0002239D01*
X0032935Y0002935D02*
Y0002239D01*
X0033385Y0002935D02*
Y0002239D01*
X0033835Y0002935D02*
Y0002239D01*
X0034285Y0008450D02*
Y0004985D01*
X0034735Y0008450D02*
Y0002239D01*
X0032485Y0010560D02*
Y0010050D01*
X0035635Y0008450D02*
Y0002239D01*
X0036085Y0008450D02*
Y0002239D01*
X0036535Y0008450D02*
Y0002239D01*
X0036985Y0008450D02*
Y0002239D01*
X0037435Y0008450D02*
Y0002239D01*
X0037885Y0008450D02*
Y0002239D01*
X0038335Y0008450D02*
Y0002239D01*
X0040135Y0010560D02*
Y0010127D01*
X0039235Y0008294D02*
Y0002239D01*
X0039685Y0008228D02*
Y0002239D01*
X0040135Y0008372D02*
Y0002239D01*
X0039235Y0012840D02*
Y0012160D01*
X0034285Y0016839D02*
Y0015430D01*
X0043459Y0011700D02*
X0046435D01*
X0043285Y0011077D02*
Y0000000D01*
X0043735Y0026950D02*
Y0000000D01*
X0034285Y0002935D02*
Y0002239D01*
X0046435Y0025222D02*
Y0001608D01*
X0044635Y0024964D02*
Y0001866D01*
X0040585Y0000338D02*
Y0000000D01*
X0002935Y0000450D02*
X0003118D01*
X0045535Y0026950D02*
Y0026935D01*
X0045985Y0026950D02*
Y0026800D01*
X0020557Y0025650D02*
X0044294D01*
X0016285Y0026950D02*
Y0025540D01*
X0030235Y0018731D02*
Y0018460D01*
X0027535Y0008487D02*
Y0007890D01*
X0004585Y0003379D02*
Y0002085D01*
X0007285Y0018656D02*
Y0012604D01*
X0005015Y0016200D02*
X0005316D01*
X0041645Y0018450D02*
X0046435D01*
X0041645Y0018815D02*
Y0018361D01*
X0041856Y0017550D02*
X0046435D01*
X0042385Y0026950D02*
Y0016675D01*
X0043285Y0026950D02*
Y0016675D01*
X0041053Y0016716D02*
X0040630Y0016293D01*
X0043460Y0016200D02*
X0046435D01*
X0035635Y0016988D02*
Y0015430D01*
X0009085Y0003354D02*
Y0000000D01*
X0006740Y0010630D02*
Y0010605D01*
X0005035Y0000363D02*
Y0000000D01*
X0043330Y0012150D02*
X0046435D01*
X0043459Y0012600D02*
X0046435D01*
X0029785Y0000338D02*
Y0000000D01*
X0024826Y0006300D02*
X0026411D01*
X0033545Y0006750D02*
X0046435D01*
X0029335Y0010971D02*
Y0010525D01*
X0043008Y0010800D02*
X0046435D01*
X0029072Y0012150D02*
X0030689D01*
X0040585Y0010560D02*
Y0009550D01*
X0027985Y0004650D02*
Y0000000D01*
X0031135Y0000338D02*
Y0000000D01*
X0027944Y0007650D02*
X0028485D01*
X0017185Y0003222D02*
Y0000000D01*
X0025285Y0007656D02*
Y0006250D01*
X0015173Y0003150D02*
X0031657D01*
X0041035Y0010560D02*
Y0002239D01*
X0045985Y0024780D02*
Y0002050D01*
X0041903Y0001800D02*
X0044572D01*
X0013608Y0002250D02*
X0046435D01*
X0046298Y0026550D02*
X0046435D01*
X0043460Y0014850D02*
X0046435D01*
X0008185Y0005330D02*
Y0004981D01*
X0017943Y0007730D02*
X0017734Y0007520D01*
X0020361Y0006314D02*
X0017445Y0003399D01*
X0020335Y0006289D02*
Y0000000D01*
X0026185Y0016236D02*
Y0015430D01*
X0002935Y0015300D02*
X0003415D01*
X0021340Y0007330D02*
X0021534D01*
X0017646Y0007200D02*
X0018984D01*
X0029335Y0026950D02*
Y0022330D01*
X0026185Y0020730D02*
Y0020339D01*
X0026318Y0022950D02*
X0027272D01*
X0021235Y0020730D02*
Y0019930D01*
X0024385Y0026950D02*
Y0024033D01*
X0030235Y0012840D02*
Y0011911D01*
X0033835Y0000338D02*
Y0000000D01*
X0035185Y0012840D02*
Y0012160D01*
X0026235Y0018977D02*
Y0018711D01*
X0033106Y0006300D02*
X0046435D01*
X0029335Y0012840D02*
Y0011789D01*
X0023521Y0007605D02*
X0024876Y0006250D01*
X0030509Y0019800D02*
X0031430D01*
X0036985Y0000338D02*
Y0000000D01*
X0031135Y0016649D02*
Y0015430D01*
X0036535Y0019696D02*
Y0018744D01*
X0036085Y0019825D02*
Y0018711D01*
X0034310Y0003600D02*
X0046435D01*
X0038335Y0016820D02*
Y0015430D01*
X0007735Y0005247D02*
Y0004680D01*
X0010435Y0008219D02*
Y0007231D01*
X0003654Y0004310D02*
X0004645Y0003319D01*
X0004915Y0010605D02*
Y0009771D01*
X0002935Y0009000D02*
X0004454D01*
X0002935Y0008100D02*
X0003568D01*
X0002935Y0004050D02*
X0003914D01*
X0004596Y0024750D02*
X0006910D01*
X0002935Y0004950D02*
X0003415D01*
X0005935Y0005129D02*
Y0004680D01*
X0009985Y0011019D02*
Y0010155D01*
X0024165Y0018900D02*
X0024635D01*
X0010435Y0002779D02*
Y0000000D01*
X0007685Y0018900D02*
X0009505D01*
X0026062Y0022330D02*
X0027395D01*
X0006717Y0014400D02*
X0012716D01*
X0020030Y0012600D02*
X0021260D01*
X0014035Y0011330D02*
Y0010581D01*
X0009395Y0012691D02*
X0008414Y0011710D01*
X0009763Y0006750D02*
X0009954D01*
X0012166Y0004950D02*
X0012520D01*
X0014393Y0005850D02*
X0017634D01*
X0014035Y0005830D02*
Y0004985D01*
X0014485Y0011330D02*
Y0011031D01*
X0004675Y0013350D02*
X0004925D01*
X0002935Y0014400D02*
X0003443D01*
X0005485Y0016143D02*
Y0015136D01*
X0002935Y0019350D02*
X0003415D01*
X0032485Y0002935D02*
Y0002239D01*
X0028420Y0020250D02*
X0028755D01*
X0034735Y0026950D02*
Y0021679D01*
X0031760Y0024005D02*
X0033810D01*
Y0021955D01*
X0040135Y0000338D02*
Y0000000D01*
X0033835Y0012840D02*
Y0012160D01*
X0042835Y0010706D02*
Y0000000D01*
X0043460Y0016675D02*
Y0014625D01*
X0041410Y0016675D02*
X0043460D01*
X0041569Y0021150D02*
X0046435D01*
X0009535Y0026950D02*
Y0025540D01*
X0043460Y0015750D02*
X0046435D01*
X0008185Y0003080D02*
Y0000000D01*
X0012520Y0004985D02*
X0014570D01*
X0032035Y0002966D02*
Y0002239D01*
X0032485Y0005874D02*
Y0004985D01*
X0032310Y0010050D02*
X0032905D01*
X0026185Y0010299D02*
Y0006250D01*
X0040045Y0018815D02*
Y0018361D01*
X0035635Y0026950D02*
Y0022451D01*
X0041860Y0020865D02*
Y0018815D01*
X0038565Y0018450D02*
X0040045D01*
X0037885Y0021290D02*
Y0018744D01*
X0031585Y0016730D02*
Y0015430D01*
X0028415Y0018900D02*
X0028690D01*
X0024549Y0017290D02*
X0024625D01*
X0029785Y0016781D02*
Y0015430D01*
X0017185Y0006719D02*
Y0005401D01*
X0038335Y0026950D02*
Y0022890D01*
X0024876Y0006250D02*
X0026451D01*
X0028019D02*
X0028336D01*
X0023035Y0005829D02*
Y0000000D01*
X0021534Y0007330D02*
X0023975Y0004889D01*
X0024545Y0004650D02*
X0029435D01*
X0040354Y0008550D02*
X0046435D01*
X0035185Y0000338D02*
Y0000000D01*
X0018546Y0004500D02*
X0031414D01*
X0020785Y0006774D02*
Y0000000D01*
X0015385Y0006669D02*
Y0004760D01*
X0026635Y0004650D02*
Y0000000D01*
X0004135Y0026950D02*
Y0026939D01*
X0033385Y0000338D02*
Y0000000D01*
X0031916Y0005860D02*
X0032335D01*
X0023926Y0007200D02*
X0026252D01*
X0031585Y0000338D02*
Y0000000D01*
X0005485Y0003080D02*
Y0000000D01*
X0002935Y0001350D02*
X0002998D01*
X0039235Y0021289D02*
Y0020803D01*
X0046435Y0026950D02*
Y0026358D01*
X0005035Y0026950D02*
Y0026466D01*
X0039235Y0018876D02*
Y0017266D01*
X0023586Y0024750D02*
X0044944D01*
X0006515Y0009900D02*
X0006539D01*
X0005035Y0003100D02*
Y0001716D01*
X0006356Y0005330D02*
X0006574D01*
X0005366Y0007650D02*
X0008175D01*
X0002935Y0016200D02*
X0003415D01*
X0028755Y0020730D02*
Y0020145D01*
X0022135Y0020730D02*
Y0020652D01*
X0026243Y0023400D02*
X0027347D01*
X0045535Y0024644D02*
Y0002185D01*
X0029062Y0022330D02*
X0030993D01*
X0045926Y0024750D02*
X0046435D01*
X0041935Y0010752D02*
Y0000000D01*
X0033705Y0008450D02*
Y0007230D01*
X0031585Y0012840D02*
Y0012387D01*
X0044185Y0026950D02*
Y0000000D01*
X0038785Y0000338D02*
Y0000000D01*
X0027535Y0012840D02*
Y0011992D01*
X0040131Y0015430D02*
X0040232D01*
X0026387Y0019225D02*
X0026395D01*
X0027085Y0016023D02*
Y0015430D01*
X0034990Y0017544D02*
X0034305Y0016859D01*
X0002935Y0015750D02*
X0003415D01*
X0026235Y0018711D02*
X0026645Y0018301D01*
X0005015Y0016401D02*
Y0014950D01*
X0032035Y0000338D02*
Y0000000D01*
X0034310Y0004500D02*
X0046435D01*
X0034310Y0004050D02*
X0046435D01*
X0032260Y0004985D02*
X0034310D01*
Y0002935D01*
X0032260D02*
X0034310D01*
X0014811Y0004950D02*
X0016734D01*
X0007735Y0003080D02*
Y0000000D01*
X0044635Y0000214D02*
Y0000000D01*
X0040398Y0009900D02*
X0046435D01*
X0025883Y0023850D02*
X0027708D01*
X0032310Y0010050D02*
X0032905D01*
X0032935Y0010560D02*
Y0010050D01*
X0045085Y0026950D02*
Y0026885D01*
X0044635Y0026950D02*
Y0026616D01*
X0033835Y0026950D02*
Y0020651D01*
X0032035Y0005860D02*
Y0004954D01*
X0041903Y0001350D02*
X0044328D01*
X0033705Y0008450D02*
X0038964D01*
X0002935Y0025650D02*
X0002964D01*
X0041831Y0018000D02*
X0046435D01*
X0004585Y0026950D02*
Y0026835D01*
X0002935Y0026100D02*
X0002998D01*
X0026975Y0008918D02*
X0027209Y0008684D01*
X0003685Y0026950D02*
Y0026860D01*
X0025843Y0008100D02*
X0028215D01*
X0003235Y0026950D02*
Y0026542D01*
X0030685Y0005569D02*
Y0002239D01*
X0035635Y0012840D02*
Y0012160D01*
X0030066Y0004950D02*
X0032020D01*
X0002935Y0005850D02*
X0003415D01*
X0032935Y0012840D02*
Y0012160D01*
X0026226Y0010800D02*
X0026418D01*
X0030235Y0026950D02*
Y0022330D01*
X0031430Y0019965D02*
Y0019465D01*
X0027985Y0012840D02*
Y0012319D01*
X0030866Y0018450D02*
X0031430D01*
X0032060Y0012160D02*
X0039980D01*
X0032485Y0012840D02*
Y0012160D01*
X0015186Y0004760D02*
X0016544D01*
X0017863Y0007650D02*
X0018982D01*
X0009775Y0010350D02*
X0013804D01*
X0020785Y0012620D02*
Y0011430D01*
X0021455Y0012575D02*
X0021955D01*
X0019335D02*
X0019835D01*
X0033986Y0020802D02*
X0033705Y0020521D01*
X0013046Y0005830D02*
X0012131Y0004914D01*
X0040585Y0016009D02*
Y0015620D01*
X0006385Y0008354D02*
Y0006930D01*
X0005035Y0016382D02*
Y0014950D01*
X0004690Y0010605D02*
X0004915D01*
X0028395Y0019225D02*
X0028420D01*
X0033835Y0016626D02*
Y0015430D01*
X0021685Y0012575D02*
Y0011430D01*
X0028435Y0020730D02*
Y0015430D01*
X0042385Y0010626D02*
Y0000000D01*
X0025015Y0012559D02*
Y0011635D01*
X0025945Y0015430D02*
X0039080D01*
X0036085Y0016825D02*
Y0015430D01*
X0025735Y0016949D02*
Y0016496D01*
X0021685Y0026950D02*
Y0025120D01*
X0027801Y0016650D02*
X0029934D01*
X0025865Y0015852D02*
Y0015426D01*
X0027085Y0012663D02*
Y0011551D01*
X0030685Y0016466D02*
Y0015430D01*
X0024621Y0017550D02*
X0025134D01*
X0041035Y0026950D02*
Y0021751D01*
X0029785Y0018486D02*
Y0018178D01*
X0027985Y0018162D02*
Y0015430D01*
X0025195Y0017051D02*
X0025646Y0016600D01*
X0025285Y0017399D02*
Y0016961D01*
X0024385Y0019221D02*
Y0018355D01*
X0029785Y0026950D02*
Y0022330D01*
X0025285Y0020730D02*
Y0020642D01*
X0004215Y0024181D02*
X0003654Y0023620D01*
X0026201Y0010350D02*
X0026309D01*
X0026031Y0011250D02*
X0026784D01*
X0025735Y0013279D02*
Y0011513D01*
X0041410Y0016675D02*
Y0015520D01*
X0027460Y0012840D02*
X0039880D01*
X0026635Y0012657D02*
Y0011101D01*
X0028960Y0010525D02*
X0029504D01*
X0025056Y0012600D02*
X0039861D01*
X0031455Y0020720D02*
Y0020160D01*
X0015466Y0006750D02*
X0016190D01*
X0006515Y0010350D02*
X0008175D01*
X0009965Y0012930D02*
X0012710D01*
X0014252Y0002935D02*
X0014570D01*
X0008635Y0005449D02*
Y0005431D01*
X0012235Y0014979D02*
Y0012930D01*
X0017185Y0026950D02*
Y0025540D01*
X0018445Y0011430D02*
X0022574D01*
X0015546Y0006830D02*
X0016074D01*
X0013585Y0011330D02*
Y0010147D01*
X0004968Y0026550D02*
X0044572D01*
X0028885Y0026950D02*
Y0023848D01*
X0024835Y0026950D02*
Y0023926D01*
X0023485Y0020730D02*
Y0020654D01*
X0028435Y0026950D02*
Y0024025D01*
X0033385Y0006579D02*
Y0004985D01*
X0025854Y0013398D02*
X0025015Y0012559D01*
X0018985Y0007645D02*
Y0007201D01*
X0035185Y0017349D02*
Y0015430D01*
X0032485Y0016904D02*
Y0015430D01*
X0010885Y0002329D02*
Y0000000D01*
X0020335Y0012758D02*
Y0011430D01*
X0006525Y0018450D02*
X0009505D01*
X0002935Y0010800D02*
X0004690D01*
X0005015Y0007200D02*
X0008154D01*
X0008175Y0007221D02*
X0007884Y0006930D01*
X0007735Y0010953D02*
Y0010013D01*
X0006749Y0017100D02*
X0010114D01*
X0038785Y0026950D02*
Y0022890D01*
X0032935Y0016663D02*
Y0015430D01*
X0034735Y0012840D02*
Y0012160D01*
X0046298Y0001800D02*
X0046435D01*
X0033195Y0016620D02*
X0033735D01*
X0025735Y0004650D02*
Y0000000D01*
X0031430Y0019240D02*
Y0018230D01*
X0030355Y0020720D02*
Y0020095D01*
X0020785Y0026950D02*
Y0025489D01*
X0006385Y0026950D02*
Y0024420D01*
X0002935Y0023400D02*
X0003496D01*
X0017635Y0026950D02*
Y0025540D01*
X0020924Y0020250D02*
X0021399D01*
X0015385Y0026950D02*
Y0025540D01*
X0014935Y0026950D02*
Y0025540D01*
X0022135Y0026950D02*
Y0025120D01*
X0021115D02*
X0022885D01*
X0027985Y0026950D02*
Y0023987D01*
X0020335Y0026950D02*
Y0025734D01*
X0014035Y0026950D02*
Y0025540D01*
X0025735Y0020730D02*
Y0020613D01*
X0009775Y0008100D02*
X0011304D01*
X0010885Y0011330D02*
Y0009582D01*
X0008635Y0019941D02*
Y0011931D01*
X0006525Y0013499D02*
Y0012655D01*
X0038785Y0012840D02*
Y0012160D01*
X0032035Y0012840D02*
Y0012180D01*
X0023035Y0026950D02*
Y0025106D01*
X0029412Y0011250D02*
X0029594D01*
X0030245Y0011921D02*
X0029689Y0011366D01*
X0022585Y0026950D02*
Y0025120D01*
X0007951Y0019350D02*
X0009505D01*
X0023485Y0026950D02*
Y0024851D01*
X0031135Y0012840D02*
Y0012371D01*
X0019435Y0026950D02*
Y0025540D01*
X0026355Y0010490D02*
Y0010435D01*
X0046422Y0025200D02*
X0046435D01*
X0014485Y0026950D02*
Y0025540D01*
X0005213Y0026100D02*
X0044328D01*
X0025580Y0009450D02*
X0026319D01*
X0029785Y0012840D02*
Y0011461D01*
X0006835Y0026950D02*
Y0024420D01*
X0033385Y0010560D02*
Y0010050D01*
X0041485Y0000338D02*
Y0000000D01*
X0045085Y0024694D02*
Y0002135D01*
X0005935Y0026950D02*
Y0024420D01*
X0034285Y0012840D02*
Y0012160D01*
X0027085Y0008809D02*
Y0007924D01*
X0043429Y0014400D02*
X0046435D01*
X0005035Y0005363D02*
Y0005191D01*
X0002935Y0026550D02*
X0003242D01*
X0005092Y0000450D02*
X0029674D01*
X0002935Y0000000D02*
X0003614D01*
X0029240Y0010800D02*
X0029455D01*
X0024385Y0010028D02*
Y0009655D01*
X0025935Y0009900D02*
X0026210D01*
X0024835Y0009678D02*
Y0009647D01*
X0025735Y0007953D02*
Y0006250D01*
X0022150Y0012600D02*
X0023415D01*
X0027459Y0011926D02*
X0026594Y0011060D01*
X0020346Y0006300D02*
X0022564D01*
X0012685Y0026950D02*
Y0025540D01*
X0026370Y0020730D02*
Y0020071D01*
X0032935Y0026950D02*
Y0024005D01*
X0008444Y0025650D02*
X0019613D01*
X0002935Y0024750D02*
X0003614D01*
X0033558Y0021955D02*
X0033810D01*
X0014106Y0002740D02*
X0013685Y0002319D01*
X0018570Y0012150D02*
X0023415D01*
X0002935Y0022500D02*
X0003415D01*
X0027085Y0026950D02*
Y0022330D01*
X0022585Y0012898D02*
Y0011438D01*
X0025143Y0017100D02*
X0025584D01*
X0025506Y0013050D02*
X0026021D01*
X0009535Y0002949D02*
Y0000000D01*
X0024874Y0017810D02*
X0025834Y0016849D01*
X0026496Y0018450D02*
X0026530D01*
X0035185Y0008450D02*
Y0002239D01*
X0034546Y0017100D02*
X0035442D01*
X0020785Y0020730D02*
Y0020441D01*
X0008060Y0008550D02*
X0008175D01*
X0024835Y0017851D02*
Y0017262D01*
X0028218Y0007200D02*
X0028404D01*
X0028420Y0019800D02*
X0028561D01*
X0019435Y0012575D02*
Y0011430D01*
X0020576Y0020650D02*
X0020776Y0020450D01*
X0002935Y0022050D02*
X0003415D01*
X0023415Y0011961D02*
X0023103Y0011649D01*
X0006732Y0013950D02*
X0012915D01*
X0010810Y0008550D02*
X0011051D01*
X0022585Y0020730D02*
Y0020586D01*
X0006525Y0018000D02*
X0009506D01*
X0013135Y0026950D02*
Y0025540D01*
X0024835Y0020730D02*
Y0020454D01*
X0014066Y0002700D02*
X0046435D01*
X0006134Y0016200D02*
X0011014D01*
X0028435Y0007694D02*
Y0007247D01*
X0009985Y0017229D02*
Y0012930D01*
X0028435Y0012840D02*
Y0012404D01*
X0007856Y0005330D02*
X0008215D01*
X0033385Y0016620D02*
Y0015430D01*
X0034735Y0017289D02*
Y0015430D01*
X0041643Y0020865D02*
X0041860D01*
X0040286Y0022500D02*
X0046435D01*
X0015385Y0003160D02*
Y0000000D01*
X0033810Y0023850D02*
X0046435D01*
X0028059Y0006300D02*
X0028315D01*
X0037885Y0026950D02*
Y0022890D01*
X0038661Y0017100D02*
X0038952D01*
X0006835Y0018613D02*
Y0012647D01*
X0041860Y0020700D02*
X0046435D01*
X0011785Y0002080D02*
Y0000000D01*
X0008542Y0003150D02*
X0009246D01*
X0014485Y0005877D02*
Y0004985D01*
X0006835Y0003080D02*
Y0000000D01*
X0007988Y0011700D02*
X0008404D01*
X0007285Y0005107D02*
Y0004680D01*
X0009775Y0010809D02*
Y0010137D01*
X0007285Y0008107D02*
Y0007152D01*
X0010216Y0011250D02*
X0014710D01*
X0011335Y0011330D02*
Y0010031D01*
X0007892Y0009900D02*
X0008175D01*
X0012584D02*
X0013039D01*
X0007285Y0003080D02*
Y0000000D01*
X0006385Y0005330D02*
Y0004680D01*
X0009000Y0003534D02*
X0008785Y0003319D01*
X0016735Y0006605D02*
Y0004951D01*
X0012685Y0002080D02*
Y0000000D01*
X0011465Y0002080D02*
X0013115D01*
X0002935Y0004500D02*
X0003511D01*
X0034310Y0003150D02*
X0046435D01*
X0013135Y0005830D02*
Y0004985D01*
X0010404Y0002810D02*
X0010895Y0002319D01*
X0024385Y0007605D02*
Y0006741D01*
X0011335Y0026950D02*
Y0025540D01*
X0034310Y0004950D02*
X0046435D01*
X0027535Y0016262D02*
Y0015430D01*
X0023415Y0012890D02*
Y0011961D01*
X0010296Y0011330D02*
X0014828D01*
X0002935Y0012150D02*
X0004690D01*
X0002935Y0012600D02*
X0004690D01*
X0002935Y0013050D02*
X0004925D01*
X0041903Y0000900D02*
X0044294D01*
X0006515Y0010605D02*
X0006740D01*
X0006525Y0013050D02*
X0012693D01*
X0002935Y0010350D02*
X0004915D01*
X0007735Y0018953D02*
Y0012306D01*
X0007567Y0010800D02*
X0008175D01*
X0029369Y0011700D02*
X0030024D01*
X0030355Y0020720D02*
X0031455D01*
X0033705Y0020860D02*
Y0020521D01*
X0033315Y0021561D02*
X0033481Y0021394D01*
X0033705Y0020700D02*
X0033884D01*
X0030355Y0020250D02*
X0031455D01*
X0039821Y0017747D02*
X0039385Y0017311D01*
X0034735Y0010560D02*
Y0010050D01*
X0010435Y0026950D02*
Y0025540D01*
X0026696Y0018250D02*
X0026903Y0018043D01*
X0028885Y0004650D02*
Y0000000D01*
X0031430Y0019240D02*
X0031464D01*
X0029243Y0023400D02*
X0030850D01*
X0018535Y0011654D02*
Y0011430D01*
X0030380Y0018900D02*
X0031430D01*
X0014645Y0011191D02*
X0013603Y0010149D01*
X0006525Y0018605D02*
Y0017781D01*
X0022135Y0012596D02*
Y0011430D01*
X0021235Y0012607D02*
Y0011430D01*
X0017943Y0007730D02*
X0018926D01*
X0028420Y0020700D02*
X0028755D01*
X0025735Y0009747D02*
Y0009306D01*
X0024635Y0019002D02*
Y0018380D01*
X0036985Y0012840D02*
Y0012160D01*
X0018570Y0013110D02*
Y0012145D01*
X0027535Y0026950D02*
Y0023698D01*
X0019228Y0007444D02*
X0016544Y0004760D01*
X0016735Y0026950D02*
Y0025540D01*
X0002935Y0006300D02*
X0003415D01*
X0029318Y0022950D02*
X0030761D01*
X0033810Y0022050D02*
X0035234D01*
X0038785Y0019199D02*
Y0018129D01*
X0039685Y0012840D02*
Y0012160D01*
X0024015Y0009900D02*
X0024496D01*
X0010885Y0016329D02*
Y0012930D01*
X0007917Y0011250D02*
X0008183D01*
X0010642Y0009900D02*
X0011166D01*
X0018570Y0012600D02*
X0019140D01*
X0012915Y0013989D02*
Y0013771D01*
X0006835Y0005178D02*
Y0004680D01*
X0006356Y0006930D02*
X0006574D01*
X0007285Y0010656D02*
Y0010152D01*
X0002935Y0009450D02*
X0004741D01*
X0026185Y0022501D02*
Y0022330D01*
X0030235Y0016500D02*
Y0015430D01*
X0031234Y0018230D02*
X0031430D01*
X0027723Y0017550D02*
X0029513D01*
X0027620Y0018000D02*
X0029652D01*
X0040135Y0022651D02*
X0041406Y0021380D01*
X0036985Y0019776D02*
Y0018664D01*
X0041485Y0016919D02*
Y0016675D01*
X0013585Y0026950D02*
Y0025540D01*
X0032905Y0010050D02*
X0038964D01*
X0027460Y0016200D02*
X0038586D01*
X0028420Y0020730D02*
Y0019225D01*
X0037435Y0012840D02*
Y0012160D01*
X0037885Y0012840D02*
Y0012160D01*
X0041035Y0000338D02*
Y0000000D01*
X0024201Y0010350D02*
X0024229D01*
X0032010Y0010560D02*
X0041415D01*
X0002935Y0007650D02*
X0003415D01*
Y0007630D02*
Y0004880D01*
X0005816Y0008100D02*
X0008175D01*
X0008690Y0005486D02*
X0007884Y0004680D01*
X0004696Y0009242D02*
X0003654Y0008200D01*
X0002935Y0005400D02*
X0003415D01*
X0005015Y0005211D02*
X0005546Y0004680D01*
X0038785Y0017311D02*
Y0016925D01*
X0005015Y0007299D02*
Y0006879D01*
X0009775Y0007200D02*
X0010404D01*
X0005215Y0003080D02*
X0008215D01*
X0010435Y0016779D02*
Y0012930D01*
X0013585Y0005830D02*
Y0004985D01*
X0003685Y0004279D02*
Y0002110D01*
X0005828Y0008111D02*
X0005015Y0007299D01*
X0005485Y0005131D02*
Y0004741D01*
X0005276Y0004950D02*
X0008154D01*
X0010885Y0008678D02*
Y0007681D01*
X0025596Y0016650D02*
X0025889D01*
X0022585Y0006279D02*
Y0000000D01*
X0035185Y0026950D02*
Y0022001D01*
X0008635Y0003199D02*
Y0000000D01*
X0024740Y0009655D02*
Y0009630D01*
X0002935Y0009900D02*
X0004915D01*
X0003685Y0024719D02*
Y0023651D01*
X0027985Y0008478D02*
Y0007608D01*
X0025987Y0008550D02*
X0027388D01*
X0024015Y0009655D02*
X0024740D01*
X0031455Y0020720D02*
Y0020160D01*
X0028260Y0018450D02*
X0030204D01*
X0027535Y0017984D02*
Y0017778D01*
X0019885Y0005839D02*
Y0000000D01*
X0020658Y0020700D02*
X0026370D01*
X0033356Y0021600D02*
X0034533D01*
X0031135Y0020720D02*
Y0018311D01*
X0031234Y0016730D02*
X0032005D01*
X0028420Y0019350D02*
X0028518D01*
X0002935Y0019800D02*
X0003415D01*
X0007735Y0026950D02*
Y0025765D01*
X0028420Y0020730D02*
X0028755D01*
X0030355Y0020700D02*
X0031455D01*
X0028885Y0018687D02*
Y0015430D01*
X0026635Y0016017D02*
Y0015430D01*
X0021001Y0025200D02*
X0044448D01*
X0002935Y0016650D02*
X0003415D01*
X0011785Y0011330D02*
Y0010181D01*
X0011335Y0015879D02*
Y0012930D01*
X0006835Y0010613D02*
Y0010082D01*
X0010296Y0011330D02*
X0009775Y0010809D01*
Y0010800D02*
X0014254D01*
X0006625Y0016650D02*
X0010564D01*
X0011785Y0015429D02*
Y0012930D01*
X0012235Y0005019D02*
Y0004878D01*
X0012685Y0014529D02*
Y0012930D01*
X0011335Y0008289D02*
Y0008131D01*
X0005035Y0007319D02*
Y0006897D01*
X0030685Y0000338D02*
Y0000000D01*
X0002935Y0006750D02*
X0003415D01*
X0009985Y0008105D02*
Y0006781D01*
X0006515Y0010605D02*
Y0009879D01*
X0002935Y0003600D02*
X0004364D01*
X0008175Y0011140D02*
Y0009489D01*
X0007735Y0008247D02*
Y0007013D01*
X0002935Y0003150D02*
X0004888D01*
X0038335Y0010560D02*
Y0010050D01*
X0018535Y0026950D02*
Y0025540D01*
X0043449Y0013500D02*
X0046435D01*
X0036985Y0010560D02*
Y0010050D01*
X0040585Y0008949D02*
Y0002239D01*
X0036085Y0012840D02*
Y0012160D01*
X0041935Y0026950D02*
Y0016675D01*
X0041661Y0017100D02*
X0046435D01*
X0043460Y0016650D02*
X0046435D01*
X0043379Y0011250D02*
X0046435D01*
X0043379Y0013050D02*
X0046435D01*
X0009535Y0017823D02*
Y0012804D01*
X0024582Y0018000D02*
X0024731D01*
X0008185Y0019688D02*
Y0011266D01*
X0015835Y0003160D02*
Y0000000D01*
X0019885Y0012576D02*
Y0011430D01*
X0024385Y0020730D02*
Y0020039D01*
X0009985Y0002855D02*
Y0000000D01*
X0018985Y0026950D02*
Y0025540D01*
X0027867Y0017100D02*
X0029583D01*
X0024431Y0019350D02*
X0024459D01*
X0021215Y0018900D02*
X0021496D01*
X0024261Y0020250D02*
X0024629D01*
X0021685Y0020730D02*
Y0020507D01*
X0023455Y0024881D02*
X0024288Y0024049D01*
X0008600Y0025540D02*
X0019444D01*
X0021015Y0019350D02*
X0021229D01*
X0012235Y0026950D02*
Y0025540D01*
X0005247Y0025650D02*
X0007427D01*
X0004785Y0024420D02*
X0006968D01*
X0041035Y0016699D02*
Y0015654D01*
X0008542Y0005400D02*
X0008604D01*
X0006464Y0014850D02*
X0012364D01*
X0002935Y0022950D02*
X0003415D01*
X0007848Y0012150D02*
X0008854D01*
X0006665Y0017550D02*
X0009673D01*
X0006740Y0018630D02*
Y0018605D01*
X0002935Y0021150D02*
X0003415D01*
X0004135Y0024640D02*
Y0024101D01*
X0002935Y0017100D02*
X0003415D01*
X0002935Y0017550D02*
X0003415D01*
X0002935Y0020250D02*
X0003415D01*
X0009985Y0026950D02*
Y0025540D01*
X0014485Y0002935D02*
Y0000000D01*
X0019446Y0005400D02*
X0023464D01*
X0025285Y0026950D02*
Y0024035D01*
X0008175Y0008771D02*
Y0007221D01*
X0011395Y0008191D02*
X0009619Y0006415D01*
X0013135Y0011330D02*
Y0009975D01*
X0007856Y0006930D02*
X0007884D01*
X0009775Y0007650D02*
X0010854D01*
X0012685Y0011330D02*
Y0009788D01*
X0006385Y0003080D02*
Y0000000D01*
X0004135Y0003829D02*
Y0002189D01*
X0005546Y0004680D02*
X0007884D01*
X0037435Y0016780D02*
Y0015430D01*
X0020907Y0012610D02*
X0021225D01*
X0004925Y0013350D02*
Y0012655D01*
X0025015Y0011700D02*
X0027234D01*
X0018545Y0012145D02*
X0018570D01*
X0002935Y0024300D02*
X0004364D01*
X0022670Y0013050D02*
X0023431D01*
X0026185Y0012876D02*
Y0010961D01*
X0021015Y0019880D02*
Y0018938D01*
X0025867Y0016200D02*
X0026230D01*
X0040045Y0018815D02*
Y0018361D01*
X0024293Y0018450D02*
X0024635D01*
X0031135Y0026950D02*
Y0023772D01*
X0023035Y0013100D02*
Y0011639D01*
X0023935Y0018730D02*
Y0018660D01*
X0003685Y0014009D02*
Y0008231D01*
X0007296Y0012600D02*
X0009304D01*
X0018570Y0013050D02*
X0018621D01*
X0021235Y0026950D02*
Y0025120D01*
X0018085Y0026950D02*
Y0025540D01*
X0021015Y0019800D02*
X0021204D01*
X0015835Y0026950D02*
Y0025540D01*
X0031137Y0016650D02*
X0032978D01*
X0037435Y0000338D02*
Y0000000D01*
X0002935Y0008550D02*
X0004004D01*
X0002935Y0021600D02*
X0003415D01*
X0007285Y0026950D02*
Y0025552D01*
X0005035Y0025113D02*
Y0024420D01*
X0002935Y0023850D02*
X0003884D01*
X0008635Y0026950D02*
Y0025540D01*
X0003415Y0023050D02*
Y0014610D01*
X0002935Y0020700D02*
X0003415D01*
X0002935Y0018900D02*
X0003415D01*
X0008185Y0026950D02*
Y0025754D01*
X0005485Y0007769D02*
Y0007129D01*
X0002935Y0014850D02*
X0003415D01*
X0005015Y0015750D02*
X0011464D01*
X0002935Y0018000D02*
X0003415D01*
X0004585Y0013355D02*
Y0009131D01*
X0021235Y0019329D02*
Y0018893D01*
X0015546Y0006830D02*
X0014785Y0006069D01*
X0002935Y0013950D02*
X0003744D01*
X0004135Y0013560D02*
Y0008681D01*
X0006526Y0013500D02*
X0012759D01*
X0002935D02*
X0004209D01*
X0041186Y0021600D02*
X0046435D01*
X0020700Y0020730D02*
X0026370D01*
X0006525Y0018605D02*
X0006740D01*
X0002935Y0002700D02*
X0010514D01*
X0018546Y0011700D02*
X0023154D01*
X0016735Y0003160D02*
Y0000000D01*
X0017635Y0003589D02*
Y0000000D01*
X0038785Y0015695D02*
Y0015430D01*
X0025865Y0015750D02*
X0038747D01*
X0031455Y0020720D02*
Y0020160D01*
X0030685Y0020720D02*
Y0018494D01*
X0018985Y0012658D02*
Y0011430D01*
X0018535Y0004489D02*
Y0000000D01*
X0023485Y0005379D02*
Y0000000D01*
X0017646Y0003600D02*
X0031325D01*
X0012520Y0004985D02*
Y0004701D01*
X0021130Y0007119D02*
X0020484Y0006472D01*
X0013046Y0005830D02*
X0014215D01*
X0012685Y0005469D02*
Y0004985D01*
X0012616Y0005400D02*
X0017184D01*
X0018085Y0007730D02*
Y0006301D01*
X0019896Y0005850D02*
X0023014D01*
X0018535Y0007730D02*
Y0006751D01*
X0021201Y0007200D02*
X0021664D01*
X0030516Y0005400D02*
X0046435D01*
X0036535Y0016696D02*
Y0015430D01*
X0035789Y0019350D02*
X0038685D01*
X0038856Y0017550D02*
X0039624D01*
X0036027Y0018769D02*
X0036149Y0018647D01*
X0037435Y0026950D02*
Y0022890D01*
X0033810Y0022500D02*
X0035684D01*
X0035835Y0022651D02*
X0034893Y0021709D01*
X0024376Y0006750D02*
X0026223D01*
X0038785Y0021290D02*
Y0020481D01*
X0033810Y0023400D02*
X0046435D01*
X0040464Y0015750D02*
X0041410D01*
X0041645Y0018815D02*
Y0018361D01*
X0025921Y0009000D02*
X0026763D01*
X0026185Y0004650D02*
Y0000000D01*
X0034990Y0017544D02*
X0035365Y0017169D01*
X0026635Y0026950D02*
Y0022330D01*
X0003654Y0014040D02*
X0004105Y0013589D01*
X0036985Y0026950D02*
Y0022890D01*
X0037496Y0020250D02*
X0038646D01*
X0040986Y0016650D02*
X0041410D01*
X0039810Y0018840D02*
Y0018815D01*
X0039235Y0026950D02*
Y0022890D01*
X0012235Y0002080D02*
Y0000000D01*
X0033647Y0021150D02*
X0034089D01*
X0036405Y0022890D02*
X0039565D01*
X0037516Y0021150D02*
X0039374D01*
X0042835Y0026950D02*
Y0016675D01*
X0040736Y0022050D02*
X0046435D01*
X0038335Y0021290D02*
Y0018620D01*
X0039685Y0026950D02*
Y0022881D01*
X0041485Y0026950D02*
Y0021290D01*
X0037885Y0016696D02*
Y0015430D01*
X0024835Y0007613D02*
Y0006291D01*
X0036008Y0018900D02*
X0039176D01*
X0033810Y0022950D02*
X0046435D01*
X0031135Y0005644D02*
Y0002239D01*
X0041485Y0010563D02*
Y0002239D01*
X0033466Y0006660D02*
X0032905Y0006099D01*
X0033705Y0007650D02*
X0046435D01*
X0033705Y0008100D02*
X0046435D01*
X0034285Y0000338D02*
Y0000000D01*
Y0010560D02*
Y0010050D01*
X0029184Y0022500D02*
X0030880D01*
X0033705Y0007200D02*
X0046435D01*
X0039685Y0000338D02*
Y0000000D01*
X0033835Y0010560D02*
Y0010050D01*
X0032086Y0010350D02*
X0046435D01*
X0040610Y0009450D02*
X0046435D01*
X0036535Y0010560D02*
Y0010050D01*
X0036085Y0026950D02*
Y0022823D01*
X0040135Y0026950D02*
Y0022651D01*
X0036085Y0010560D02*
Y0010050D01*
X0038785Y0010560D02*
Y0010050D01*
X0036535Y0026950D02*
Y0022890D01*
X0040599Y0009000D02*
X0046435D01*
X0037885Y0000338D02*
Y0000000D01*
X0035635Y0010560D02*
Y0010050D01*
X0038785Y0008450D02*
Y0002239D01*
X0039685Y0018820D02*
Y0017611D01*
X0041860Y0018900D02*
X0046435D01*
X0035514Y0019800D02*
X0036133D01*
X0039235Y0010560D02*
Y0010206D01*
X0043460Y0015300D02*
X0046435D01*
X0037435Y0010560D02*
Y0010050D01*
X0037885Y0010560D02*
Y0010050D01*
X0037037Y0019800D02*
X0038561D01*
X0039234Y0021290D02*
X0039662Y0020862D01*
X0032035Y0016730D02*
Y0015430D01*
X0032485Y0026950D02*
Y0024005D01*
X0032035Y0026950D02*
Y0024005D01*
X0031585Y0026950D02*
Y0023985D01*
X0024036Y0024300D02*
X0046435D01*
X0005935Y0016137D02*
Y0015143D01*
X0030685Y0026950D02*
Y0022330D01*
X0040624Y0016200D02*
X0041410D01*
X0025735Y0026950D02*
Y0023936D01*
X0006525Y0012655D02*
X0006740D01*
X0034285Y0026950D02*
Y0021419D01*
X0030552Y0019350D02*
X0031439D01*
X0031455Y0020720D02*
Y0020160D01*
X0022689Y0013100D02*
X0023363D01*
X0009085Y0026950D02*
Y0025540D01*
X0026184Y0022500D02*
X0027406D01*
X0038831Y0018000D02*
X0039859D01*
X0033385Y0026950D02*
Y0024005D01*
X0026261Y0020250D02*
X0026370D01*
X0023035Y0020730D02*
Y0020569D01*
X0037610Y0020700D02*
X0039027D01*
X0027535Y0004650D02*
Y0000000D01*
X0002935Y0001800D02*
X0003242D01*
X0005213Y0001350D02*
X0029674D01*
X0030235Y0000338D02*
Y0000000D01*
X0031585Y0005683D02*
Y0004709D01*
X0033835Y0008450D02*
Y0004985D01*
X0032485Y0000338D02*
Y0000000D01*
X0037435Y0020147D02*
Y0018659D01*
X0032935Y0000338D02*
Y0000000D01*
Y0006129D02*
Y0004985D01*
X0032035Y0010560D02*
Y0010388D01*
X0015835Y0006830D02*
Y0004760D01*
X0034735Y0000338D02*
Y0000000D01*
X0035635Y0000338D02*
Y0000000D01*
X0036085Y0000338D02*
Y0000000D01*
X0040585Y0026950D02*
Y0022201D01*
X0036535Y0000338D02*
Y0000000D01*
X0030685Y0012840D02*
Y0012149D01*
X0038335Y0000338D02*
Y0000000D01*
Y0012840D02*
Y0012160D01*
X0036535Y0012840D02*
Y0012160D01*
X0005092Y0025200D02*
X0007009D01*
X0024835Y0004650D02*
Y0000000D01*
X0004596D02*
X0044944D01*
X0004968Y0001800D02*
X0029674D01*
X0016285Y0006699D02*
Y0004760D01*
X0012235Y0011330D02*
Y0010120D01*
X0010885Y0026950D02*
Y0025540D01*
X0015016Y0006300D02*
X0018084D01*
X0002935Y0007200D02*
X0003415D01*
X0002935Y0002250D02*
X0010972D01*
X0009775Y0008123D02*
Y0006890D01*
X0028054Y0008500D02*
X0028242D01*
X0004690Y0012655D02*
X0004925D01*
X0017241Y0006750D02*
X0018534D01*
X0019435Y0005389D02*
Y0000000D01*
X0005015Y0005381D02*
Y0005211D01*
X0024740Y0007630D02*
Y0007605D01*
X0025015Y0012150D02*
X0027719D01*
X0017635Y0007178D02*
Y0005851D01*
X0033385Y0021631D02*
Y0021490D01*
X0043415Y0013950D02*
X0046435D01*
X0041860Y0020250D02*
X0046435D01*
X0028883Y0023850D02*
X0031243D01*
X0026185Y0026950D02*
Y0023518D01*
X0004585Y0024745D02*
Y0024394D01*
X0005485Y0026950D02*
Y0024420D01*
X0029785Y0004730D02*
Y0002239D01*
X0028435Y0004650D02*
Y0000000D01*
X0029335Y0004650D02*
Y0000000D01*
X0036985Y0016776D02*
Y0015430D01*
X0005015Y0015300D02*
X0011914D01*
X0013585Y0002232D02*
Y0000000D01*
X0029335Y0018475D02*
Y0015430D01*
X0039235Y0000338D02*
Y0000000D01*
X0018096Y0004050D02*
X0031264D01*
X0002935Y0011700D02*
X0004690D01*
X0002935Y0025200D02*
X0003118D01*
X0002935Y0018450D02*
X0003415D01*
X0003235Y0000288D02*
Y0000000D01*
X0018085Y0004039D02*
Y0000000D01*
G01X0018445Y0011430D02*
G03X0018570Y0011920I0000900J0000490D01*
G01X0021431Y0018790D02*
G03X0021015Y0018938I0000466J0000650D01*
G01X0021517Y0018880D02*
G03X0021431Y0018790I0000698J0000750D01*
G01X0043460Y0013650D02*
G03X0043330Y0014150I0001025J0000000D01*
G01X0026395Y0019225D02*
G03X0026370Y0019000I0001000J0000225D01*
G01X0005725Y0015165D02*
G03X0005097Y0014950I0000000J0001025D01*
G01X0026240Y0010630D02*
G03X0025215Y0011655I0001025J0000000D01*
G01X0024965Y0007605D02*
G03X0025990Y0008630I0000000J0001025D01*
G01X0028250Y0006660D02*
G03X0028336Y0006250I0001025J0000000D01*
G01X0024740Y0007630D02*
G03X0024965Y0007605I0000225J0001000D01*
G01X0006965Y0010605D02*
G03X0007990Y0011630I0000000J0001025D01*
G03X0006965Y0012655I0001025J0000000D01*
Y0018605D02*
G03X0007990Y0019630I0000000J0001025D01*
G01X0002955Y0001040D02*
G03X0003614Y0000000I0001150J0000000D01*
G01X0005715Y0007155D02*
G03X0005015Y0006879I0000000J0001025D01*
G01X0008175Y0009489D02*
G03X0007215Y0010155I0000960J0000359D01*
G01X0008215Y0005330D02*
G03X0008690Y0005486I0000000J0000800D01*
G01X0009505Y0018040D02*
G03X0009739Y0017474I0000800J0000000D01*
G01X0008215Y0005330D02*
G03X0008690Y0005486I0000000J0000800D01*
G01X0030846Y0005729D02*
G03X0031275Y0005635I0000429J0000931D01*
G01X0024215Y0010405D02*
G03X0024904Y0009653I0001000J0000225D01*
G01X0024905D02*
G03X0024740Y0009630I0000060J0001023D01*
G01X0023103Y0011649D02*
G03X0022574Y0011430I0000112J0001019D01*
G01X0026210Y0006910D02*
G03X0026451Y0006250I0001025J0000000D01*
G01X0006740Y0018630D02*
G03X0006965Y0018605I0000225J0001000D01*
G01X0029435Y0004650D02*
G03X0030001Y0004884I0000000J0000800D01*
G01X0031260Y0003960D02*
G03X0032260Y0002935I0001025J0000000D01*
G01X0043330Y0014150D02*
G03X0043460Y0014625I0000895J0000500D01*
G01X0046435Y0026358D02*
G03X0045435Y0026940I0001000J0000568D01*
G01X0024445Y0019855D02*
G03X0023445Y0020655I0001000J0000225D01*
G01X0043460Y0011650D02*
G03X0043330Y0012150I0001025J0000000D01*
G01X0009965Y0002855D02*
G03X0010313Y0002916I0000000J0001025D01*
G01X0021133Y0007122D02*
G03X0021283Y0007332I0000548J0000548D01*
G01X0028295Y0024035D02*
G03X0027270Y0023010I0000000J0001025D01*
G01X0029320D02*
G03X0028295Y0024035I0001025J0000000D01*
G01X0031455Y0020160D02*
G03X0031430Y0019965I0000750J0000195D01*
G01X0026320Y0023010D02*
G03X0025295Y0024035I0001025J0000000D01*
G01X0022830Y0020450D02*
G03X0022215Y0020655I0000615J0000820D01*
G01X0021115Y0025120D02*
G03X0021039Y0025116I0000000J0000800D01*
G01X0028395Y0012405D02*
G03X0027619Y0012049I0000000J0001025D01*
G01X0026355Y0010435D02*
G03X0026210Y0009910I0000880J0000525D01*
G01X0029420Y0011380D02*
G03X0028395Y0012405I0001025J0000000D01*
G01X0027235Y0007935D02*
G03X0026210Y0006910I0000000J0001025D01*
G01X0028260D02*
G03X0027235Y0007935I0001025J0000000D01*
G01X0036585Y0019695D02*
G03X0037610Y0020720I0000000J0001025D01*
G01X0026370Y0020071D02*
G03X0025445Y0020655I0000925J0000441D01*
G01X0037845Y0016695D02*
G03X0038870Y0017720I0000000J0001025D01*
G03X0037845Y0018745I0001025J0000000D01*
G01X0023128Y0018597D02*
G03X0023087Y0018670I0000913J0000467D01*
G01X0040045Y0018361D02*
G03X0039821Y0017747I0000800J0000641D01*
G01X0009775Y0008123D02*
G03X0009965Y0008105I0000190J0001007D01*
Y0010155D02*
G03X0009775Y0010137I0000000J0001025D01*
G01X0003649Y0008196D02*
G03X0003415Y0007630I0000566J0000566D01*
G01X0022215Y0020655D02*
G03X0021190Y0019630I0000000J0001025D01*
G01X0032005Y0016730D02*
G03X0032535Y0016950I0000000J0000750D01*
G01X0041870Y0017720D02*
G03X0041645Y0018361I0001025J0000000D01*
G01X0009965Y0008105D02*
G03X0010926Y0008773I0000000J0001025D01*
G01X0006750Y0014140D02*
G03X0005725Y0015165I0001025J0000000D01*
Y0016115D02*
G03X0006750Y0017140I0000000J0001025D01*
G01X0029510Y0017480D02*
G03X0030535Y0016455I0001025J0000000D01*
Y0018505D02*
G03X0029510Y0017480I0000000J0001025D01*
G01X0029535Y0018455D02*
G03X0030560Y0019480I0000000J0001025D01*
G01X0028510D02*
G03X0029535Y0018455I0001025J0000000D01*
G01X0030760Y0022980D02*
G03X0030993Y0022330I0001025J0000000D01*
G01X0042435Y0010625D02*
G03X0043460Y0011650I0000000J0001025D01*
G01X0043330Y0012150D02*
G03X0043460Y0012650I0000895J0000500D01*
G01X0041410Y0015520D02*
G03X0040885Y0015665I0000525J0000880D01*
G01X0014111Y0002744D02*
G03X0014252Y0002935I0000566J0000566D01*
G01X0010899Y0002314D02*
G03X0011465Y0002080I0000566J0000566D01*
G01X0028019Y0006250D02*
G03X0028260Y0006910I0000784J0000660D01*
G01X0006356Y0006930D02*
G03X0005715Y0007155I0000641J0000800D01*
G01X0038560Y0019840D02*
G03X0039585Y0018815I0001025J0000000D01*
Y0020865D02*
G03X0038560Y0019840I0000000J0001025D01*
G01X0027395Y0017975D02*
G03X0028420Y0019000I0000000J0001025D01*
G01X0027870Y0017020D02*
G03X0026903Y0018043I0001025J0000000D01*
G01X0029435Y0004650D02*
G03X0030001Y0004884I0000000J0000800D01*
G01X0023979D02*
G03X0024545Y0004650I0000566J0000566D01*
G01X0023979Y0004884D02*
G03X0024545Y0004650I0000566J0000566D01*
G01X0028200Y0008250D02*
G03X0028717Y0007519I0000775J0000000D01*
G01X0003415Y0014610D02*
G03X0003649Y0014044I0000800J0000000D01*
G01X0035230Y0019690D02*
G03X0035808Y0020052I0000225J0001000D01*
G01X0041415Y0010560D02*
G03X0041937Y0010754I0000000J0000800D01*
G01X0041415Y0010560D02*
G03X0041937Y0010754I0000000J0000800D01*
G03X0042435Y0010625I0000498J0000896D01*
G01X0007215Y0008105D02*
G03X0008175Y0008771I0000000J0001025D01*
G01X0004596Y0000000D02*
G03X0005255Y0001040I0000491J0001040D01*
G01X0004105Y0002190D02*
G03X0002955Y0001040I0000000J0001150D01*
G01X0005255D02*
G03X0004105Y0002190I0001150J0000000D01*
Y0024640D02*
G03X0005255Y0025790I0000000J0001150D01*
G01X0002955D02*
G03X0004105Y0024640I0001150J0000000D01*
Y0026940D02*
G03X0002955Y0025790I0000000J0001150D01*
G01X0005255D02*
G03X0004105Y0026940I0001150J0000000D01*
G01X0045435Y0002190D02*
G03X0044285Y0001040I0000000J0001150D01*
G03X0044944Y0000000I0001150J0000000D01*
G01X0044285Y0025790D02*
G03X0045435Y0024640I0001150J0000000D01*
Y0026940D02*
G03X0044285Y0025790I0000000J0001150D01*
G01X0045435Y0024640D02*
G03X0046435Y0025222I0000000J0001150D01*
G01X0020576Y0020650D02*
G03X0020700Y0020730I0000491J0000900D01*
G01X0032335Y0005860D02*
G03X0032901Y0006094I0000000J0000800D01*
G01X0031395Y0012405D02*
G03X0030724Y0012155I0000000J0001025D01*
G01X0005715Y0005105D02*
G03X0006356Y0005330I0000000J0001025D01*
G01X0031430Y0019465D02*
G03X0031464Y0019240I0000775J0000000D01*
G01X0010313Y0002916D02*
G03X0010399Y0002814I0000652J0000464D01*
G01X0021038Y0025116D02*
G03X0020085Y0025764I0000953J0000376D01*
G01X0021133Y0007122D02*
G03X0021283Y0007332I0000548J0000548D01*
G01X0021115Y0025120D02*
G03X0021039Y0025116I0000000J0000800D01*
G01X0043460Y0012650D02*
G03X0043330Y0013150I0001025J0000000D01*
G01X0038580Y0016310D02*
G03X0039080Y0015430I0001025J0000000D01*
G01X0039385Y0017311D02*
G03X0038580Y0016310I0000220J0001001D01*
G01X0032543Y0016957D02*
G03X0033195Y0016620I0000652J0000463D01*
G01X0021190Y0019630D02*
G03X0021517Y0018880I0001025J0000000D01*
G01X0026845Y0015995D02*
G03X0027870Y0017020I0000000J0001025D01*
G01X0025445Y0020655D02*
G03X0024445Y0019855I0000000J0001025D01*
G01X0026696Y0018250D02*
G03X0027395Y0017975I0000699J0000750D01*
G01X0024635Y0018380D02*
G03X0024869Y0017814I0000800J0000000D01*
G01X0026589Y0011056D02*
G03X0026355Y0010490I0000566J0000566D01*
G01X0028960Y0010525D02*
G03X0029420Y0011380I0000565J0000855D01*
G01X0026370Y0019000D02*
G03X0026645Y0018301I0001025J0000000D01*
G01X0026845Y0012635D02*
G03X0027460Y0012840I0000000J0001025D01*
G01X0021225Y0012610D02*
G03X0021455Y0012575I0000230J0000740D01*
G01X0033705Y0020860D02*
G03X0033485Y0021390I0000750J0000000D01*
G01X0012690Y0013130D02*
G03X0012710Y0012930I0001025J0000000D01*
G01X0027270Y0023010D02*
G03X0027528Y0022330I0001025J0000000D01*
G01X0029062D02*
G03X0029320Y0023010I0000767J0000680D01*
G01X0030535Y0016455D02*
G03X0031234Y0016730I0000000J0001025D01*
G01X0018926Y0007730D02*
G03X0019228Y0007444I0000664J0000400D01*
G01X0012696Y0014517D02*
G03X0012915Y0013989I0001019J0000113D01*
G01X0036585Y0016695D02*
G03X0037215Y0016911I0000000J0001025D01*
G01X0021015Y0019880D02*
G03X0020781Y0020446I0000800J0000000D01*
G01X0009145Y0019975D02*
G03X0009290Y0019985I0000000J0001025D01*
G01X0004915Y0009771D02*
G03X0004696Y0009242I0000800J0000641D01*
G01X0033735Y0016620D02*
G03X0034301Y0016854I0000000J0000800D01*
G01X0037213Y0018530D02*
G03X0036585Y0018745I0000628J0000810D01*
G01X0020085Y0025765D02*
G03X0019444Y0025540I0000000J0001025D01*
G01X0040131Y0022656D02*
G03X0039565Y0022890I0000566J0000566D01*
G01X0026062Y0022330D02*
G03X0026320Y0023010I0000767J0000680D01*
G01X0023451Y0024886D02*
G03X0022885Y0025120I0000566J0000566D01*
G01X0007215Y0007155D02*
G03X0006574Y0006930I0000000J0001025D01*
G01X0015186Y0004760D02*
G03X0014570Y0004985I0000641J0000800D01*
G01X0007990Y0019630D02*
G03X0007989Y0019657I0001025J0000000D01*
G01X0026589Y0011056D02*
G03X0026355Y0010490I0000566J0000566D01*
G01X0009505Y0018040D02*
G03X0009739Y0017474I0000800J0000000D01*
G01X0026210Y0009910D02*
G03X0026975Y0008918I0001025J0000000D01*
G01X0031873Y0010473D02*
G03X0032010Y0010560I0000478J0000907D01*
G01X0029689Y0011366D02*
G03X0029455Y0010800I0000566J0000566D01*
G01X0046435Y0001608D02*
G03X0045435Y0002190I0001000J0000568D01*
G01X0009290Y0019985D02*
G03X0009505Y0019362I0001025J0000005D01*
G01X0028242Y0008500D02*
G03X0028201Y0008250I0000733J0000250D01*
G01X0033735Y0016620D02*
G03X0034301Y0016854I0000000J0000800D01*
G01X0027775Y0008450D02*
G03X0028054Y0008500I0000000J0000800D01*
G01X0025191Y0017056D02*
G03X0024625Y0017290I0000566J0000566D01*
G01X0027209Y0008684D02*
G03X0027775Y0008450I0000566J0000566D01*
G01X0027619Y0012049D02*
G03X0027459Y0011926I0000406J0000689D01*
G01X0026235Y0018977D02*
G03X0026387Y0019225I0000790J0000653D01*
G01X0004785Y0024420D02*
G03X0004219Y0024186I0000000J0000800D01*
G01X0024015Y0009989D02*
G03X0024215Y0010405I0000800J0000641D01*
G01X0003649Y0023616D02*
G03X0003415Y0023050I0000566J0000566D01*
G01X0006965Y0012655D02*
G03X0006740Y0012630I0000000J0001025D01*
G01X0023087Y0018670D02*
G03X0023205Y0018633I0000358J0000960D01*
G01X0025865Y0015852D02*
G03X0025885Y0016030I0000780J0000178D01*
G03X0025651Y0016596I0000800J0000000D01*
G01X0025885Y0016030D02*
G03X0025651Y0016596I0000800J0000000D01*
G01X0025191Y0017056D02*
G03X0024625Y0017290I0000566J0000566D01*
G01X0023846Y0018686D02*
G03X0024445Y0019405I0000401J0000944D01*
G01X0024635Y0018380D02*
G03X0024869Y0017814I0000800J0000000D01*
G01X0018598Y0013110D02*
G03X0019335Y0012575I0000737J0000240D01*
G01X0023363Y0013100D02*
G03X0023437Y0013074I0000304J0000740D01*
G01X0041643Y0020865D02*
G03X0041411Y0021376I0000798J0000055D01*
G01X0011875Y0010185D02*
G03X0010914Y0009517I0000000J0001025D01*
G01X0014570Y0002935D02*
G03X0015186Y0003160I0000025J0001025D01*
G01X0014215Y0005830D02*
G03X0014781Y0006064I0000000J0000800D01*
G01X0012520Y0004701D02*
G03X0012131Y0004914I0000675J0000771D01*
G01X0005015Y0005381D02*
G03X0005715Y0005105I0000700J0000749D01*
G01X0010926Y0008773D02*
G03X0011439Y0008232I0000949J0000387D01*
G01X0010899Y0002314D02*
G03X0011465Y0002080I0000566J0000566D01*
G01X0013115D02*
G03X0013681Y0002314I0000000J0000800D01*
G01X0014111Y0002744D02*
G03X0014252Y0002935I0000566J0000566D01*
G01X0028755Y0020145D02*
G03X0028510Y0019480I0000780J0000665D01*
G01X0010313Y0002916D02*
G03X0010399Y0002814I0000652J0000464D01*
G01X0010914Y0009517D02*
G03X0009965Y0010155I0000949J0000387D01*
G01X0031234Y0018230D02*
G03X0030535Y0018505I0000699J0000750D01*
G01X0041053Y0016716D02*
G03X0041870Y0017720I0000208J0001004D01*
G01X0018570Y0011920D02*
G03X0018545Y0012145I0001025J0000000D01*
G01X0008740Y0020058D02*
G03X0009145Y0019975I0000405J0000942D01*
G01X0006574Y0005330D02*
G03X0007215Y0005105I0000641J0000800D01*
G01X0006525Y0013499D02*
G03X0006750Y0014140I0000800J0000641D01*
G01X0029455Y0010800D02*
G03X0029504Y0010525I0000800J0000000D01*
G01X0014828Y0011330D02*
G03X0014649Y0011196I0000387J0000700D01*
G01X0020396Y0012815D02*
G03X0020907Y0012610I0000511J0000535D01*
G01X0021431Y0018790D02*
G03X0021015Y0018938I0000466J0000650D01*
G01X0021955Y0012575D02*
G03X0022689Y0013100I0000000J0000775D01*
G01X0025854Y0013398D02*
G03X0026845Y0012635I0000991J0000262D01*
G01X0007215Y0005105D02*
G03X0007856Y0005330I0000000J0001025D01*
G01X0040131Y0015430D02*
G03X0040630Y0016293I0000526J0000880D01*
G01X0030560Y0019480D02*
G03X0030355Y0020095I0001025J0000000D01*
G01X0033705Y0020860D02*
G03X0033485Y0021390I0000750J0000000D01*
G01X0033471Y0006664D02*
G03X0033705Y0007230I0000566J0000566D01*
G01X0039605Y0010275D02*
G03X0038964Y0010050I0000000J0001025D01*
G01X0016875Y0003160D02*
G03X0017441Y0003394I0000000J0000800D01*
G01X0023437Y0013074D02*
G03X0023416Y0012890I0000778J0000184D01*
G01X0025276Y0009607D02*
G03X0026240Y0010630I0000061J0001023D01*
G01X0008215Y0003080D02*
G03X0008781Y0003314I0000000J0000800D01*
G01X0009965Y0012930D02*
G03X0009399Y0012696I0000000J0000800D01*
G01X0004649Y0003314D02*
G03X0005215Y0003080I0000566J0000566D01*
G01X0003415Y0004880D02*
G03X0003649Y0004314I0000800J0000000D01*
Y0008196D02*
G03X0003415Y0007630I0000566J0000566D01*
G01X0008215Y0003080D02*
G03X0008781Y0003314I0000000J0000800D01*
G01X0004649D02*
G03X0005215Y0003080I0000566J0000566D01*
G01X0011439Y0008232D02*
G03X0011399Y0008196I0000526J0000602D01*
G01X0014215Y0005830D02*
G03X0014781Y0006064I0000000J0000800D01*
G01X0006750Y0017140D02*
G03X0006525Y0017781I0001025J0000000D01*
G01X0025215Y0011655D02*
G03X0025015Y0011635I0000000J0001025D01*
G01X0019835Y0012575D02*
G03X0020396Y0012815I0000000J0000775D01*
G01X0007990Y0019657D02*
G03X0008740Y0020058I0000065J0001023D01*
G01X0009965Y0012930D02*
G03X0009399Y0012696I0000000J0000800D01*
G01X0013603Y0010149D02*
G03X0012803Y0009596I0000112J0001019D01*
G01X0008409Y0011706D02*
G03X0008175Y0011140I0000566J0000566D01*
G01X0008409Y0011706D02*
G03X0008175Y0011140I0000566J0000566D01*
G01X0009000Y0003534D02*
G03X0009965Y0002855I0000965J0000346D01*
G01X0007215Y0010155D02*
G03X0006515Y0009879I0000000J0001025D01*
G01X0006465Y0008431D02*
G03X0007215Y0008105I0000750J0000699D01*
G01X0009619Y0006415D02*
G03X0009775Y0006890I0000644J0000475D01*
G01X0024445Y0019405D02*
G03X0024635Y0019002I0001000J0000225D01*
G01X0009619Y0006415D02*
G03X0009775Y0006890I0000644J0000475D01*
G01X0024750Y0023878D02*
G03X0024288Y0024049I0000575J0000848D01*
G01X0020396Y0012815D02*
G03X0020907Y0012610I0000511J0000535D01*
G01X0007856Y0006930D02*
G03X0007215Y0007155I0000641J0000800D01*
G01X0023445Y0020655D02*
G03X0022830Y0020450I0000000J0001025D01*
G01X0008600Y0025540D02*
G03X0007935Y0025785I0000665J0000780D01*
G03X0006910Y0024760I0000000J0001025D01*
G01X0024630Y0017690D02*
G03X0023846Y0018686I0001025J0000000D01*
G01X0003415Y0004880D02*
G03X0003649Y0004314I0000800J0000000D01*
G01X0013115Y0002080D02*
G03X0013681Y0002314I0000000J0000800D01*
G01X0011439Y0008232D02*
G03X0011399Y0008196I0000526J0000602D01*
G01X0025865Y0015852D02*
G03X0025885Y0016030I0000780J0000178D01*
G01X0025945Y0015430D02*
G03X0025865Y0015426I0000000J0000800D01*
G01X0023205Y0018633D02*
G03X0023128Y0018597I0000400J0000943D01*
G01X0025945Y0015430D02*
G03X0025865Y0015426I0000000J0000800D01*
G01X0021015Y0019880D02*
G03X0020781Y0020446I0000800J0000000D01*
G01X0036585Y0018745D02*
G03X0036149Y0018647I0000000J0001025D01*
G01X0036027Y0018769D02*
G03X0035230Y0019690I0001022J0000079D01*
G01X0006910Y0024760D02*
G03X0006968Y0024420I0001025J0000000D01*
G01X0016074Y0006830D02*
G03X0016715Y0006605I0000641J0000800D01*
G01X0004785Y0024420D02*
G03X0004219Y0024186I0000000J0000800D01*
G01X0012915Y0013771D02*
G03X0012690Y0013130I0000800J0000641D01*
G01X0004109Y0013584D02*
G03X0004675Y0013350I0000566J0000566D01*
G01X0003649Y0023616D02*
G03X0003415Y0023050I0000566J0000566D01*
G01X0006740Y0010630D02*
G03X0006965Y0010605I0000225J0001000D01*
G01X0003415Y0014610D02*
G03X0003649Y0014044I0000800J0000000D01*
G01X0004109Y0013584D02*
G03X0004675Y0013350I0000566J0000566D01*
G01X0005015Y0016401D02*
G03X0005725Y0016115I0000710J0000739D01*
G01X0039860Y0012640D02*
G03X0039980Y0012160I0001025J0000000D01*
G01X0030831Y0005714D02*
G03X0030846Y0005729I0000566J0000566D01*
G01X0016715Y0006605D02*
G03X0017734Y0007520I0000000J0001025D01*
G01X0040885Y0015665D02*
G03X0040232Y0015430I0000000J0001025D01*
G01X0016875Y0003160D02*
G03X0017441Y0003394I0000000J0000800D01*
G01X0035935Y0016930D02*
G03X0036585Y0016697I0000650J0000790D01*
G01X0025990Y0008630D02*
G03X0025276Y0009607I0001025J0000000D01*
G01X0028717Y0007519D02*
G03X0028251Y0006660I0000558J0000859D01*
G01X0035369Y0017164D02*
G03X0035932Y0016930I0000566J0000566D01*
G01X0032310Y0010050D02*
G03X0031873Y0010473I0000715J0000300D01*
G01X0035808Y0020052D02*
G03X0036585Y0019695I0000777J0000668D01*
G01X0035369Y0017164D02*
G03X0035932Y0016930I0000566J0000566D01*
G01X0039585Y0018815D02*
G03X0039810Y0018840I0000000J0001025D01*
G01X0039662Y0020862D02*
G03X0039585Y0020865I0000077J0001022D01*
G01X0034893Y0021709D02*
G03X0033986Y0020802I0000112J0001019D01*
G01X0028420Y0019000D02*
G03X0028395Y0019225I0001025J0000000D01*
G01X0040131Y0022656D02*
G03X0039565Y0022890I0000566J0000566D01*
G01X0036405D02*
G03X0035839Y0022656I0000000J0000800D01*
G01X0041643Y0020865D02*
G03X0041411Y0021376I0000798J0000055D01*
G01X0032335Y0005860D02*
G03X0032901Y0006094I0000000J0000800D01*
G01X0032260Y0004985D02*
G03X0031260Y0003960I0000025J0001025D01*
G01X0033471Y0006664D02*
G03X0033705Y0007230I0000566J0000566D01*
G01X0031275Y0005635D02*
G03X0031916Y0005860I0000000J0001025D01*
G01X0005828Y0008111D02*
G03X0006465Y0008431I0000113J0001019D01*
G01X0030724Y0012155D02*
G03X0030249Y0011926I0000091J0000795D01*
G01X0039605Y0008225D02*
G03X0040630Y0009250I0000000J0001025D01*
G03X0039605Y0010275I0001025J0000000D01*
G01X0032060Y0012160D02*
G03X0031395Y0012405I0000665J0000780D01*
G01X0037845Y0018745D02*
G03X0037217Y0018530I0000000J0001025D01*
G01X0037215Y0016911D02*
G03X0037845Y0016695I0000630J0000809D01*
G01X0036405Y0022890D02*
G03X0035839Y0022656I0000000J0000800D01*
G01X0030724Y0012155D02*
G03X0030249Y0011926I0000091J0000795D01*
G01X0033315Y0021561D02*
G03X0033558Y0021955I0000530J0000599D01*
G01X0023451Y0024886D02*
G03X0022885Y0025120I0000566J0000566D01*
G01X0025295Y0024035D02*
G03X0024751Y0023878I0000000J0001025D01*
G01X0023437Y0013074D02*
G03X0023416Y0012890I0000778J0000184D01*
G01X0032005Y0016730D02*
G03X0032535Y0016950I0000000J0000750D01*
G01X0038964Y0008450D02*
G03X0039605Y0008225I0000641J0000800D01*
G01X0012803Y0009596D02*
G03X0011875Y0010185I0000928J0000436D01*
G01X0021283Y0007332D02*
G03X0021340Y0007330I0000057J0000798D01*
G01X0031760Y0024005D02*
G03X0030760Y0022980I0000025J0001025D01*
G01X0037610Y0020720D02*
G03X0037437Y0021290I0001025J0000000D01*
G01X0025834Y0016849D02*
G03X0026845Y0015995I0001011J0000171D01*
G01X0014828Y0011330D02*
G03X0014649Y0011196I0000387J0000700D01*
G01X0043330Y0013150D02*
G03X0043460Y0013650I0000895J0000500D01*
G01X0024549Y0017290D02*
G03X0024630Y0017690I0000944J0000400D01*
G01X0020361Y0006314D02*
G03X0020484Y0006472I0000566J0000566D01*
G01X0039880Y0012840D02*
G03X0039860Y0012640I0001005J0000200D01*
G54D32*
G01X0039605Y0016310D02*
Y0016400D01*
X0040835Y0019840D02*
X0040845Y0019830D01*
X0027315Y0009710D02*
X0027285D01*
X0027155Y0009840D01*
Y0009910D01*
X0027095Y0009970D01*
Y0010020D01*
X0027185Y0010110D01*
X0027205D01*
X0027295Y0010020D01*
Y0009960D01*
Y0009990D01*
X0028025Y0011360D02*
X0028645D01*
X0028625Y0011380D01*
X0028395D01*
X0032575Y0019720D02*
X0032580Y0019715D01*
X0036585Y0017720D02*
X0037845D01*
G54D33*
G01X0019840Y0008880D02*
X0019155D01*
X0018405Y0009630D01*
X0019840Y0008880D02*
X0020425D01*
X0020585Y0008720D01*
Y0007670D01*
X0019795Y0006880D01*
X0022370Y0008505D02*
X0021340D01*
X0019840Y0008130D02*
X0019830Y0008120D01*
X0018835D01*
X0018115Y0007400D01*
X0011875Y0009160D02*
Y0011410D01*
X0017035D01*
X0017545Y0011920D01*
X0011865Y0011410D02*
X0017035D01*
X0017545Y0011920D01*
X0017035Y0011410D01*
X0011865D01*
X0023215Y0009130D02*
X0022215D01*
X0021965Y0008880D01*
X0021340D01*
X0018825Y0008120D02*
X0019830D01*
X0019840Y0008130D01*
X0032955Y0018215D02*
Y0017660D01*
X0033195Y0017420D01*
X0019840Y0008505D02*
X0017585D01*
G54D34*
G01X0019585Y0013350D02*
X0018925D01*
X0018445Y0012870D01*
Y0012060D01*
X0018295Y0011910D01*
X0017555D01*
X0017545Y0011920D01*
X0021705Y0014850D02*
X0023105D01*
X0023585Y0015330D01*
X0021705Y0014350D02*
X0020954D01*
X0020635Y0014670D01*
Y0015920D01*
X0020655Y0015940D01*
X0019585Y0013850D02*
X0019709D01*
X0019715Y0013860D01*
X0020394D01*
X0020907Y0013350D01*
X0021705D01*
X0019585Y0014350D02*
X0017975D01*
X0017711Y0014614D01*
X0016735D01*
X0016715Y0014630D01*
X0017545Y0013170D02*
X0018225Y0013850D01*
X0019585D01*
Y0014850D02*
X0018715D01*
X0017835Y0015730D01*
Y0016240D01*
X0016995Y0017080D01*
X0021705Y0013850D02*
X0021713Y0013840D01*
X0023667D01*
X0024208Y0014380D02*
X0024215D01*
X0019585Y0013850D02*
X0019565D01*
X0019575Y0013840D01*
X0019719D01*
X0019709Y0013850D01*
X0019585D01*
X0019793D02*
X0019585D01*
X0019609Y0014350D02*
X0019585D01*
G54D19*
X0032285Y0003960D03*
X0025295Y0023010D03*
X0028295D03*
X0021175Y0023030D03*
X0024175D03*
X0028395Y0011380D03*
X0031395D03*
X0027235Y0006910D03*
Y0009910D03*
X0036585Y0017720D03*
Y0020720D03*
X0040845Y0017720D03*
X0037845D03*
X0007215Y0009130D03*
Y0006130D03*
X0005715D03*
Y0009130D03*
X0022215Y0019630D03*
X0019215D03*
X0013715Y0016130D03*
X0016715D03*
X0010315Y0019990D03*
Y0022990D03*
X0016715Y0014630D03*
X0013715D03*
X0018715Y0018130D03*
X0015715D03*
X0013715Y0009130D03*
X0016715D03*
X0013715Y0007630D03*
X0016715D03*
X0005725Y0017140D03*
Y0014140D03*
X0029535Y0019480D03*
X0030535Y0017480D03*
X0031785Y0022980D03*
X0042435Y0014650D03*
Y0013650D03*
Y0012650D03*
Y0011650D03*
X0012745Y0022990D03*
X0013745D03*
X0014545Y0003960D03*
X0005715Y0022630D03*
X0006715D03*
X0029275Y0006660D03*
X0031275D03*
X0039585Y0019840D03*
X0027395Y0019000D03*
X0035005Y0018690D03*
Y0020690D03*
X0009145Y0023000D03*
Y0021000D03*
X0017545Y0011920D03*
X0020215Y0018130D03*
X0022215D03*
X0040885Y0012640D03*
Y0014640D03*
X0023445Y0019630D03*
X0025445D03*
X0012965Y0019130D03*
X0013715Y0013130D03*
X0015715D03*
Y0019660D03*
X0017715D03*
X0025215Y0010630D03*
X0023215D03*
X0024965Y0008630D03*
X0006965Y0011630D03*
Y0019630D03*
G54D20*
X0033285Y0003960D03*
X0032785Y0022980D03*
X0042435Y0015650D03*
X0011745Y0022990D03*
X0013545Y0003960D03*
X0040835Y0019840D03*
X0027395Y0020250D03*
X0017545Y0013170D03*
X0014215Y0019130D03*
X0023715Y0008630D03*
X0005715Y0011630D03*
Y0019630D03*
G54D45*
X0039605Y0009250D03*
Y0016310D03*
X0020085Y0021550D03*
Y0024740D03*
X0007935Y0024760D03*
X0007925Y0020680D03*
X0011845Y0003930D03*
X0011875Y0009160D03*
X0009965Y0009130D03*
Y0003880D03*
X0023585Y0015330D03*
X0023605Y0017690D03*
X0026845Y0013660D03*
Y0017020D03*
G54D48*
X0029225Y0009250D03*
Y0008750D03*
Y0008250D03*
X0031345D03*
Y0008750D03*
Y0009250D03*
Y0009750D03*
X0019585Y0014350D03*
Y0013850D03*
Y0013350D03*
X0021705D03*
Y0013850D03*
Y0014350D03*
Y0014850D03*
X0021340Y0008505D03*
Y0008880D03*
X0019840D03*
Y0008505D03*
Y0008130D03*
G54D49*
X0029225Y0009750D03*
X0019585Y0014850D03*
X0021340Y0008130D03*
G54D50*
X0032580Y0018215D03*
X0032955D03*
Y0019715D03*
X0032580D03*
X0032205D03*
G54D51*
Y0018215D03*
G54D54*
X0004105Y0001040D03*
Y0025790D03*
X0045435Y0001040D03*
Y0025790D03*
M02*
