%
T1C0.075F200S100
X004000Y011650
X004000Y012650
X004000Y013650
X004000Y014650
X004000Y015650
X005550Y012640
X005550Y014640
X005590Y017720
X005600Y019840
X006830Y009250
X006830Y016310
X006850Y019840
X008590Y017720
X009850Y017720
X009850Y020720
X011430Y018690
X011430Y020690
X013150Y003960
X013650Y022980
X014150Y003960
X014650Y022980
X015040Y011380
X015160Y006660
X015900Y017480
X016900Y019480
X017160Y006660
X018040Y011380
X018140Y023010
X019040Y019000
X019040Y020250
X019200Y006910
X019200Y009910
X019590Y013660
X019590Y017020
X020990Y019630
X021140Y023010
X021220Y010630
X021470Y008630
X022260Y023030
X022720Y008630
X022830Y017690
X022850Y015330
X022990Y019630
X023220Y010630
X024220Y018130
X024220Y019630
X025260Y023030
X026220Y018130
X026350Y021550
X027220Y019630
X026350Y024740
X027720Y018130
X028720Y019660
X028890Y011920
X028890Y013170
X029720Y007630
X029720Y009130
X029720Y014630
X029720Y016130
X030720Y013130
X030720Y018130
X030720Y019660
X031890Y003960
X032220Y019130
X032690Y022990
X032720Y007630
X032720Y009130
X032720Y013130
X032720Y014630
X032720Y016130
X032890Y003960
X033470Y019130
X033690Y022990
X034560Y009160
X034590Y003930
X034690Y022990
X036120Y019990
X036120Y022990
X036470Y003880
X036470Y009130
X037290Y021000
X037290Y023000
X038500Y024760
X038510Y020680
X039220Y006130
X039220Y009130
X039470Y011630
X039470Y019630
X039720Y022630
X040710Y014140
X040710Y017140
X040720Y006130
X040720Y009130
X040720Y011630
X040720Y019630
X040720Y022630
T2C0.110F200S100
X001000Y001040
X001000Y025790
X042330Y001040
X042330Y025790
M30
