*
G04 Mass Parameters ***
*
G04 Image ***
*
%IND:\DATE\GPR\HARDWARE\SECTIUNEA_RF\GPR_RF.AST*%
%ICAS*%
%MOIN*%
%IPPOS*%
%ASAXBY*%
G74*%FSLAN2X34Y34*%
*
G04 Aperture Definitions ***
*
%ADD10C,0.0580*%
%ADD11R,0.0580X0.0580*%
%ADD12C,0.0750*%
%ADD13R,0.0220X0.0220*%
%ADD14R,0.0500X0.0500*%
%ADD15C,0.0550*%
%ADD16R,0.0550X0.0550*%
%ADD17R,0.1000X0.0650*%
%ADD18R,0.0600X0.0600*%
%ADD19R,0.0370X0.0200*%
%ADD20R,0.0370X0.0310*%
%ADD21R,0.0310X0.0660*%
%ADD22C,0.0100*%
%ADD23C,0.0080*%
%ADD24C,0.0010*%
%ADD25C,0.0650*%
%ADD26C,0.0220*%
%ADD27C,0.0440*%
%ADD28C,0.0350*%
%ADD29C,0.0260*%
%ADD30C,0.0600*%
%ADD31C,0.0120*%
%ADD32C,0.0780*%
%ADD33R,0.0780X0.0780*%
%ADD34C,0.0950*%
%ADD35R,0.0750X0.0750*%
%ADD36C,0.0060*%
%ADD37C,0.0040*%
%ADD38R,0.0780X0.0600*%
%ADD39C,0.0400*%
%ADD40C,0.1100*%
%ADD41C,0.1000*%
%ADD42C,0.1400*%
%ADD43C,0.1050*%
%ADD44C,0.0500*%
*
G04 Plot Data ***
*
G54D22*
G01X0041946Y0027279D02*
X0041680D01*
X0041635Y0027368D01*
Y0027457D01*
X0041680Y0027545D01*
X0041946D01*
X0041991Y0027457D01*
Y0027368D01*
X0041813Y0027012D01*
X0041391D02*
X0041213D01*
X0041302D02*
Y0027545D01*
X0041213Y0027457D01*
X0000616Y0027279D02*
X0000661Y0027368D01*
Y0027457D01*
X0000616Y0027545D01*
X0000350D01*
X0000305Y0027457D01*
Y0027368D01*
X0000350Y0027279D01*
X0000616D01*
X0000661Y0027190D01*
Y0027101D01*
X0000616Y0027012D01*
X0000350D01*
X0000305Y0027101D01*
Y0027190D01*
X0000350Y0027279D01*
X0000061Y0027012D02*
X-0000117D01*
X-0000028D02*
Y0027545D01*
X-0000117Y0027457D01*
X0000394Y0002262D02*
X0000661Y0002795D01*
X0000305D01*
X0000061Y0002262D02*
X-0000117D01*
X-0000028D02*
Y0002795D01*
X-0000117Y0002707D01*
X0041858Y0002262D02*
X0041769Y0002351D01*
X0041724Y0002440D01*
Y0002618D01*
X0041769Y0002707D01*
X0041858Y0002795D01*
X0041947D01*
X0042035Y0002707D01*
X0042080Y0002618D01*
Y0002440D01*
X0042035Y0002351D01*
X0041947Y0002262D01*
X0041858D01*
X0041480D02*
X0041124D01*
X0041480Y0002618D01*
Y0002707D01*
X0041435Y0002795D01*
X0041169D01*
X0041124Y0002707D01*
X0016605Y0020255D02*
Y0019922D01*
X0016772Y0020088D02*
X0016438D01*
X0015988Y0019838D02*
X0015905Y0019922D01*
X0015863Y0020005D01*
Y0020172D01*
X0015905Y0020255D01*
X0015988Y0020338D01*
X0016072D01*
X0016155Y0020255D01*
X0016197Y0020172D01*
Y0020005D01*
X0016155Y0019922D01*
X0016072Y0019838D01*
X0015988D01*
X0015622D02*
X0015455D01*
X0015538D02*
Y0020338D01*
X0015455Y0020255D01*
X0015130Y0020088D02*
X0014797D01*
X0014388Y0019838D02*
Y0020338D01*
X0014555D02*
X0014222D01*
X0013980Y0020005D02*
X0013647D01*
X0013980Y0019838D02*
Y0020088D01*
X0013855Y0020338D01*
X0013772D01*
X0013647Y0020088D01*
Y0019838D01*
X0013072Y0020088D02*
X0013322D01*
X0013405Y0020172D01*
Y0020255D01*
X0013322Y0020338D01*
X0013072D01*
Y0019838D01*
X0029295Y0014595D02*
X0028962D01*
X0029128Y0014928D01*
X0029212D01*
Y0014428D01*
X0028720Y0014678D02*
X0028387D01*
X0028145Y0014428D02*
X0027812D01*
X0028145Y0014762D01*
Y0014845D01*
X0028103Y0014928D01*
X0027853D01*
X0027812Y0014845D01*
X0027570Y0014678D02*
X0027237D01*
X0026662D02*
X0026912D01*
X0026995Y0014762D01*
Y0014845D01*
X0026912Y0014928D01*
X0026662D01*
Y0014428D01*
X0026128D02*
Y0014928D01*
X0026087Y0014428D02*
X0026337D01*
X0026420Y0014595D01*
Y0014762D01*
X0026337Y0014928D01*
X0026087D01*
X0025845Y0014595D02*
X0025512D01*
X0025845Y0014428D02*
Y0014678D01*
X0025720Y0014928D01*
X0025637D01*
X0025512Y0014678D01*
Y0014428D01*
X0026050Y0009248D02*
X0025800Y0009498D01*
X0026050Y0009748D01*
X0025717D02*
Y0009248D01*
X0025475Y0009665D02*
X0025433Y0009748D01*
X0025183D01*
X0025142Y0009665D01*
Y0009582D01*
X0025183Y0009498D01*
X0025433D01*
X0025475Y0009415D01*
Y0009332D01*
X0025433Y0009248D01*
X0025183D01*
X0025142Y0009332D01*
X0024900Y0009415D02*
X0024567D01*
X0024900Y0009248D02*
Y0009498D01*
X0024775Y0009748D01*
X0024692D01*
X0024567Y0009498D01*
Y0009248D01*
X0024325D02*
X0023992D01*
X0024325Y0009582D01*
Y0009665D01*
X0024283Y0009748D01*
X0024033D01*
X0023992Y0009665D01*
X0023750Y0009498D02*
X0023417D01*
X0023092D02*
X0022842D01*
X0023175Y0009248D02*
X0022842D01*
Y0009748D01*
X0023175D01*
X0022308Y0009248D02*
Y0009748D01*
X0022267Y0009248D02*
X0022517D01*
X0022600Y0009415D01*
Y0009582D01*
X0022517Y0009748D01*
X0022267D01*
X0022025Y0009415D02*
X0021692D01*
X0022025Y0009248D02*
Y0009498D01*
X0021900Y0009748D01*
X0021817D01*
X0021692Y0009498D01*
Y0009248D01*
X0023640Y0016425D02*
Y0016092D01*
X0023807Y0016258D02*
X0023473D01*
X0023232Y0016175D02*
X0022898D01*
X0023065Y0016508D01*
X0023148D01*
Y0016008D01*
X0022657D02*
X0022490D01*
X0022573D02*
Y0016508D01*
X0022490Y0016425D01*
X0022165Y0016258D02*
X0021832D01*
X0021423Y0016008D02*
Y0016508D01*
X0021590D02*
X0021257D01*
X0020723Y0016008D02*
Y0016508D01*
X0020682Y0016008D02*
X0020932D01*
X0021015Y0016092D01*
Y0016175D01*
X0020973Y0016258D01*
X0020723D02*
X0020973D01*
X0021015Y0016342D01*
Y0016425D01*
X0020932Y0016508D01*
X0020682D01*
X0020440Y0016092D02*
X0020398Y0016008D01*
X0020148D01*
X0020107Y0016092D01*
Y0016425D01*
X0020148Y0016508D01*
X0020398D01*
X0020440Y0016425D01*
X0019698Y0016008D02*
Y0016508D01*
X0019865D02*
X0019532D01*
X0011717Y0011795D02*
Y0011462D01*
X0011883Y0011628D02*
X0011550D01*
X0011308Y0011878D02*
Y0011462D01*
X0011267Y0011378D01*
X0011142Y0011628D01*
Y0011712D02*
Y0011628D01*
X0011017Y0011378D01*
X0010975Y0011462D01*
Y0011878D01*
X0010733D02*
Y0011712D01*
X0010567Y0011378D01*
X0010400Y0011712D01*
Y0011878D01*
X0009950Y0011378D02*
X0009867Y0011462D01*
X0009825Y0011545D01*
Y0011712D01*
X0009867Y0011795D01*
X0009950Y0011878D01*
X0010033D01*
X0010117Y0011795D01*
X0010158Y0011712D01*
Y0011545D01*
X0010117Y0011462D01*
X0010033Y0011378D01*
X0009950D01*
X0009250Y0011462D02*
X0009292Y0011378D01*
X0009542D01*
X0009583Y0011462D01*
Y0011628D01*
X0009500Y0011712D01*
X0009250D01*
Y0011878D01*
X0009583D01*
X0008967Y0011628D02*
X0009008Y0011712D01*
Y0011795D01*
X0008967Y0011878D01*
X0008717D01*
X0008675Y0011795D01*
Y0011712D01*
X0008717Y0011628D01*
X0008967D01*
X0009008Y0011545D01*
Y0011462D01*
X0008967Y0011378D01*
X0008717D01*
X0008675Y0011462D01*
Y0011545D01*
X0008717Y0011628D01*
X0008433D02*
X0008100D01*
X0007858Y0011795D02*
X0007817Y0011878D01*
X0007567D01*
X0007525Y0011795D01*
Y0011712D01*
X0007567Y0011628D01*
X0007817D01*
X0007858Y0011545D01*
Y0011462D01*
X0007817Y0011378D01*
X0007567D01*
X0007525Y0011462D01*
X0006992Y0011378D02*
X0006950Y0011462D01*
Y0011795D01*
X0006992Y0011878D01*
X0007242D01*
X0007283Y0011795D01*
Y0011462D01*
X0007242Y0011378D01*
X0006992D01*
X0006542D02*
Y0011878D01*
X0006708D02*
X0006375D01*
X0005842Y0011545D02*
Y0011462D01*
X0005883Y0011378D01*
X0006050D01*
X0006092Y0011462D01*
Y0011878D01*
X0006133D02*
X0005967D01*
X0025410Y0005315D02*
Y0004982D01*
X0025577Y0005148D02*
X0025243D01*
X0025002Y0005065D02*
X0024668D01*
X0024835Y0005398D01*
X0024918D01*
Y0004898D01*
X0024427D02*
X0024260D01*
X0024343D02*
Y0005398D01*
X0024260Y0005315D01*
X0023935Y0005148D02*
X0023602D01*
X0023193Y0004898D02*
Y0005398D01*
X0023360D02*
X0023027D01*
X0022493Y0004898D02*
Y0005398D01*
X0022452Y0004898D02*
X0022702D01*
X0022785Y0004982D01*
Y0005065D01*
X0022743Y0005148D01*
X0022493D02*
X0022743D01*
X0022785Y0005232D01*
Y0005315D01*
X0022702Y0005398D01*
X0022452D01*
X0022210Y0004982D02*
X0022168Y0004898D01*
X0021918D01*
X0021877Y0004982D01*
Y0005315D01*
X0021918Y0005398D01*
X0022168D01*
X0022210Y0005315D01*
X0021468Y0004898D02*
Y0005398D01*
X0021635D02*
X0021302D01*
G54D23*
G01X0029020Y0004759D02*
X0028798D01*
X0028909Y0004648D02*
Y0004871D01*
X0028798Y0005281D02*
X0028742Y0005225D01*
Y0005114D01*
X0028798Y0005058D01*
X0028854D01*
X0028965Y0005169D01*
X0029076Y0005058D01*
Y0005281D01*
X0028854Y0005468D02*
Y0005691D01*
X0029076Y0005579D01*
Y0005524D01*
X0028742D01*
Y0006017D02*
X0028798Y0006073D01*
X0028854Y0006101D01*
X0028965D01*
X0029020Y0006073D01*
X0029076Y0006017D01*
Y0005962D01*
X0029020Y0005906D01*
X0028965Y0005878D01*
X0028854D01*
X0028798Y0005906D01*
X0028742Y0005962D01*
Y0006017D01*
X0028798Y0006511D02*
X0028742Y0006483D01*
Y0006316D01*
X0028798Y0006288D01*
X0028909D01*
X0028965Y0006344D01*
Y0006511D01*
X0029076D01*
Y0006288D01*
X0028909Y0006698D02*
Y0006921D01*
X0028854Y0007108D02*
Y0007331D01*
X0029076Y0007219D01*
Y0007164D01*
X0028742D01*
X0028854Y0007518D02*
Y0007741D01*
X0028742Y0007518D02*
X0028909D01*
X0029076Y0007602D01*
Y0007657D01*
X0028909Y0007741D01*
X0028742D01*
X0029020Y0007928D02*
X0029076Y0007956D01*
Y0008123D01*
X0029020Y0008151D01*
X0028965D01*
X0028909Y0008123D01*
Y0007956D01*
X0028854Y0007928D01*
X0028798D01*
X0028742Y0007956D01*
Y0008123D01*
X0028798Y0008151D01*
X0028909Y0008561D02*
Y0008394D01*
X0028965Y0008338D01*
X0029020D01*
X0029076Y0008394D01*
Y0008561D01*
X0028742D01*
X0028167Y0008076D02*
X0028501Y0007909D01*
Y0008132D01*
Y0008319D02*
X0028223D01*
X0028167Y0008347D01*
Y0008514D01*
X0028223Y0008542D01*
X0028501D01*
X0016630Y0021050D02*
X0016852D01*
X0016741Y0021162D02*
Y0020939D01*
X0016852Y0020529D02*
X0016907Y0020585D01*
Y0020696D01*
X0016852Y0020752D01*
X0016796D01*
X0016685Y0020640D01*
X0016574Y0020752D01*
Y0020529D01*
X0016796Y0020342D02*
Y0020119D01*
X0016574Y0020230D01*
Y0020286D01*
X0016907D01*
Y0019793D02*
X0016852Y0019737D01*
X0016796Y0019709D01*
X0016685D01*
X0016630Y0019737D01*
X0016574Y0019793D01*
Y0019848D01*
X0016630Y0019904D01*
X0016685Y0019932D01*
X0016796D01*
X0016852Y0019904D01*
X0016907Y0019848D01*
Y0019793D01*
X0016852Y0019299D02*
X0016907Y0019327D01*
Y0019494D01*
X0016852Y0019522D01*
X0016741D01*
X0016685Y0019466D01*
Y0019299D01*
X0016574D01*
Y0019522D01*
X0016741Y0019112D02*
Y0018889D01*
X0016796Y0018702D02*
Y0018479D01*
X0016574Y0018590D01*
Y0018646D01*
X0016907D01*
X0016796Y0018292D02*
Y0018069D01*
X0016907Y0018292D02*
X0016741D01*
X0016574Y0018208D01*
Y0018153D01*
X0016741Y0018069D01*
X0016907D01*
X0016630Y0017882D02*
X0016574Y0017854D01*
Y0017687D01*
X0016630Y0017659D01*
X0016685D01*
X0016741Y0017687D01*
Y0017854D01*
X0016796Y0017882D01*
X0016852D01*
X0016907Y0017854D01*
Y0017687D01*
X0016852Y0017659D01*
X0016741Y0017249D02*
Y0017416D01*
X0016685Y0017472D01*
X0016630D01*
X0016574Y0017416D01*
Y0017249D01*
X0016907D01*
X0017427Y0017678D02*
X0017482Y0017734D01*
Y0017845D01*
X0017427Y0017900D01*
X0017371D01*
X0017260Y0017789D01*
X0017149Y0017900D01*
Y0017678D01*
Y0017490D02*
X0017427D01*
X0017482Y0017463D01*
Y0017296D01*
X0017427Y0017268D01*
X0017149D01*
X0004500Y0015750D02*
X0003500D01*
Y0010750D01*
X0004500D01*
Y0015750D01*
Y0010750D02*
X0004550Y0010700D01*
X0011130Y0012260D02*
Y0012760D01*
X0011140Y0019950D02*
Y0020450D01*
G54D36*
G01X0021524Y0005382D02*
X0021357D01*
Y0005215D02*
Y0005548D01*
X0021580D01*
X0021210Y0005215D02*
Y0005382D01*
X0021182Y0005437D01*
X0021015D01*
Y0005215D01*
X0020729D02*
X0020673Y0005271D01*
X0020645Y0005326D01*
Y0005437D01*
X0020673Y0005493D01*
X0020729Y0005548D01*
X0020784D01*
X0020840Y0005493D01*
X0020868Y0005437D01*
Y0005326D01*
X0020840Y0005271D01*
X0020784Y0005215D01*
X0020729D01*
X0020359D02*
X0020303Y0005271D01*
X0020275Y0005326D01*
Y0005437D01*
X0020303Y0005493D01*
X0020359Y0005548D01*
X0020414D01*
X0020470Y0005493D01*
X0020498Y0005437D01*
Y0005326D01*
X0020470Y0005271D01*
X0020414Y0005215D01*
X0020359D01*
X0020128D02*
X0020017D01*
X0020072D02*
Y0005548D01*
X0020017Y0005493D01*
X0029687Y0006923D02*
X0029521D01*
Y0006756D02*
Y0007090D01*
X0029743D01*
X0029373Y0006756D02*
Y0006923D01*
X0029345Y0006979D01*
X0029179D01*
Y0006756D01*
X0029031D02*
X0028920D01*
X0028975D02*
Y0007090D01*
X0028920Y0007034D01*
X0025457Y0018839D02*
X0025291D01*
Y0018672D02*
Y0019006D01*
X0025513D01*
X0025143Y0018672D02*
Y0018839D01*
X0025115Y0018895D01*
X0024949D01*
Y0018672D01*
X0024662D02*
X0024606Y0018728D01*
X0024579Y0018784D01*
Y0018895D01*
X0024606Y0018950D01*
X0024662Y0019006D01*
X0024718D01*
X0024773Y0018950D01*
X0024801Y0018895D01*
Y0018784D01*
X0024773Y0018728D01*
X0024718Y0018672D01*
X0024662D01*
X0024292D02*
X0024236Y0018728D01*
X0024209Y0018784D01*
Y0018895D01*
X0024236Y0018950D01*
X0024292Y0019006D01*
X0024348D01*
X0024403Y0018950D01*
X0024431Y0018895D01*
Y0018784D01*
X0024403Y0018728D01*
X0024348Y0018672D01*
X0024292D01*
X0024061D02*
X0023950D01*
X0024005D02*
Y0019006D01*
X0023950Y0018950D01*
X0017087Y0017713D02*
X0016921D01*
Y0017546D02*
Y0017880D01*
X0017143D01*
X0016773Y0017546D02*
Y0017713D01*
X0016745Y0017769D01*
X0016579D01*
Y0017546D01*
X0016431D02*
X0016320D01*
X0016375D02*
Y0017880D01*
X0016320Y0017824D01*
X0019610Y0006595D02*
Y0005845D01*
X0021210D01*
Y0006595D01*
X0019610D01*
X0029820Y0007762D02*
Y0007280D01*
X0028910D01*
Y0007762D01*
X0029820D01*
X0025170Y0019295D02*
Y0020045D01*
X0023570D01*
Y0019295D01*
X0025170D01*
X0017250Y0018532D02*
Y0018050D01*
X0016340D01*
Y0018532D01*
X0017250D01*
G54D39*
G01X-0000400Y0027350D02*
Y-0000400D01*
X0043900D01*
Y0027350D01*
X-0000400D01*
G54D12*
X0033220Y0018490D03*
X0034220Y0019490D03*
Y0017490D03*
X0032220D03*
Y0019490D03*
X0033220Y0007520D03*
X0034220Y0008520D03*
Y0006520D03*
X0032220D03*
Y0008520D03*
G54D13*
X0029150Y0007520D03*
X0029570D03*
X0016580Y0018290D03*
X0017000D03*
G54D14*
X0020830Y0006220D03*
X0019990D03*
X0023950Y0019670D03*
X0024790D03*
G54D15*
X0004000Y0012300D03*
Y0013300D03*
Y0014300D03*
Y0015300D03*
G54D16*
Y0011300D03*
G54D17*
X0022850Y0013050D03*
Y0012050D03*
Y0011050D03*
X0024850D03*
Y0012050D03*
Y0013050D03*
X0026310Y0018350D03*
Y0017350D03*
Y0016350D03*
X0028310D03*
Y0017350D03*
Y0018350D03*
X0006840Y0019310D03*
Y0018310D03*
Y0017310D03*
Y0016310D03*
Y0015310D03*
Y0014310D03*
Y0013310D03*
X0011090D03*
Y0014310D03*
Y0015310D03*
Y0016310D03*
Y0017310D03*
X0011080Y0018300D03*
X0011090Y0019310D03*
G54D18*
X0014030Y0017430D03*
X0014880Y0018280D03*
X0014030Y0019130D03*
X0013180Y0018280D03*
G54D19*
X0026180Y0007580D03*
Y0008030D03*
X0027050Y0007520D03*
Y0008030D03*
X0019470Y0018230D03*
Y0017780D03*
X0018600Y0018290D03*
Y0017780D03*
G54D21*
X0023850Y0007500D03*
X0022850D03*
Y0006230D03*
X0023850D03*
X0021140Y0018330D03*
X0022140D03*
Y0019600D03*
X0021140D03*
M02*
