*
G04 Mass Parameters ***
*
G04 Image ***
*
%IND:\DATE\GPR\HARDWARE\SECTIUNEA_RF\GPR_RF.SSB*%
%ICAS*%
%MOIN*%
%IPPOS*%
%ASAXBY*%
G74*%FSLAN2X34Y34*%
*
G04 Aperture Definitions ***
*
%ADD10C,0.0580*%
%ADD11R,0.0580X0.0580*%
%ADD12C,0.0750*%
%ADD13R,0.0220X0.0220*%
%ADD14R,0.0500X0.0500*%
%ADD15C,0.0550*%
%ADD16R,0.0550X0.0550*%
%ADD17R,0.1000X0.0650*%
%ADD18R,0.0600X0.0600*%
%ADD19R,0.0370X0.0200*%
%ADD20R,0.0370X0.0310*%
%ADD21R,0.0310X0.0660*%
%ADD22C,0.0100*%
%ADD23C,0.0080*%
%ADD24C,0.0010*%
%ADD25C,0.0650*%
%ADD26C,0.0220*%
%ADD27C,0.0440*%
%ADD28C,0.0350*%
%ADD29C,0.0260*%
%ADD30C,0.0600*%
%ADD31C,0.0120*%
%ADD32C,0.0780*%
%ADD33R,0.0780X0.0780*%
%ADD34C,0.0950*%
%ADD35R,0.0750X0.0750*%
%ADD36C,0.0060*%
%ADD37C,0.0040*%
%ADD38R,0.0780X0.0600*%
%ADD39C,0.0400*%
%ADD40C,0.1100*%
%ADD41C,0.1000*%
%ADD42C,0.1400*%
%ADD43C,0.1050*%
%ADD44C,0.0500*%
*
G04 Plot Data ***
*
G54D23*
G01X0031154Y0006315D02*
X0031487D01*
X0031432Y0006371D01*
X0031210Y0006482D01*
X0031154Y0006537D01*
X0031487D01*
Y0006725D02*
Y0006836D01*
Y0006781D02*
X0031154D01*
Y0006725D02*
Y0006836D01*
X0031487Y0007726D02*
X0031154D01*
Y0007614D02*
Y0007837D01*
Y0008024D02*
X0031487D01*
X0031432Y0008080D01*
X0031210Y0008191D01*
X0031154Y0008247D01*
X0031487D01*
X0031376Y0008434D02*
Y0008657D01*
X0031487Y0008434D02*
X0031321D01*
X0031154Y0008518D01*
Y0008573D01*
X0031321Y0008657D01*
X0031487D01*
X0031277Y0017121D02*
X0030944D01*
Y0017009D02*
Y0017232D01*
Y0017419D02*
X0031222D01*
X0031277Y0017447D01*
Y0017614D01*
X0031222Y0017642D01*
X0030944D01*
X0031277Y0018024D02*
X0031222Y0018052D01*
X0031000D01*
X0030944Y0018024D01*
Y0017857D01*
X0031000Y0017829D01*
X0031222D01*
X0031277Y0017857D01*
Y0018024D01*
Y0018886D02*
X0030944D01*
Y0018774D02*
Y0018997D01*
Y0019184D02*
X0031277D01*
X0031222Y0019240D01*
X0031000Y0019351D01*
X0030944Y0019407D01*
X0031277D01*
X0031166Y0019594D02*
Y0019817D01*
X0031277Y0019594D02*
X0031111D01*
X0030944Y0019678D01*
Y0019733D01*
X0031111Y0019817D01*
X0031277D01*
X0034470Y0017990D02*
Y0018990D01*
X0031970Y0008020D02*
Y0007020D01*
X0033720Y0008770D02*
X0032720D01*
X0034470Y0007020D02*
Y0008020D01*
X0032720Y0006270D02*
X0033720D01*
X0032720Y0017240D02*
X0033720D01*
X0031970Y0018990D02*
Y0017990D01*
X0033720Y0019740D02*
X0032720D01*
M02*
