*
G04 Mass Parameters ***
*
G04 Image ***
*
%IND:\DATE\GPR\HARDWARE\SECTIUNEA_LF\GPR_LF.AST*%
%ICAS*%
%MOIN*%
%IPPOS*%
%ASAXBY*%
G74*%FSLAN2X34Y34*%
*
G04 Aperture Definitions ***
*
%ADD10C,0.0520*%
%ADD11R,0.0520X0.0520*%
%ADD12C,0.0550*%
%ADD13C,0.0620*%
%ADD14R,0.0620X0.0620*%
%ADD15C,0.0580*%
%ADD16R,0.0580X0.0580*%
%ADD17R,0.0550X0.0550*%
%ADD18C,0.1470*%
%ADD19C,0.0750*%
%ADD20R,0.0750X0.0750*%
%ADD21C,0.0500*%
%ADD22C,0.0010*%
%ADD23C,0.0500*%
%ADD24C,0.0300*%
%ADD25C,0.0200*%
%ADD26O,0.0250X0.0860*%
%ADD27R,0.0250X0.0860*%
%ADD28O,0.0860X0.0250*%
%ADD29R,0.0860X0.0250*%
%ADD30C,0.0100*%
%ADD31C,0.0500*%
%ADD32C,0.0080*%
%ADD33C,0.0250*%
%ADD34C,0.0180*%
%ADD35C,0.0720*%
%ADD36R,0.0720X0.0720*%
%ADD37C,0.0800*%
%ADD38C,0.0820*%
%ADD39R,0.0820X0.0820*%
%ADD40C,0.0780*%
%ADD41R,0.0780X0.0780*%
%ADD42C,0.1750*%
%ADD43C,0.0950*%
%ADD44R,0.0950X0.0950*%
%ADD45C,0.0750*%
%ADD46C,0.0670*%
%ADD47C,0.0550*%
%ADD48O,0.0750X0.0250*%
%ADD49R,0.0750X0.0250*%
%ADD50O,0.0250X0.0750*%
%ADD51R,0.0250X0.0750*%
%ADD52C,0.0400*%
%ADD53C,0.1100*%
%ADD54C,0.1000*%
%ADD55C,0.1400*%
%ADD56C,0.1050*%
*
G04 Plot Data ***
*
G54D30*
G01X0005085Y0024469D02*
X0005130Y0024558D01*
Y0024647D01*
X0005085Y0024735D01*
X0004819D01*
X0004774Y0024647D01*
Y0024558D01*
X0004819Y0024469D01*
X0005085D01*
X0005130Y0024380D01*
Y0024291D01*
X0005085Y0024202D01*
X0004819D01*
X0004774Y0024291D01*
Y0024380D01*
X0004819Y0024469D01*
X0004530Y0024380D02*
X0004174D01*
X0004352Y0024735D01*
X0004441D01*
Y0024202D01*
X0004163Y0005182D02*
X0004430Y0005715D01*
X0004074D01*
X0003830Y0005360D02*
X0003474D01*
X0003652Y0005715D01*
X0003741D01*
Y0005182D01*
X0041769Y0002529D02*
X0042035D01*
X0042080Y0002440D01*
Y0002351D01*
X0042035Y0002262D01*
X0041769D01*
X0041724Y0002351D01*
Y0002440D01*
X0041902Y0002795D01*
X0041480Y0002440D02*
X0041124D01*
X0041302Y0002795D01*
X0041391D01*
Y0002262D01*
X0041724Y0027101D02*
X0041769Y0027012D01*
X0042035D01*
X0042080Y0027101D01*
Y0027279D01*
X0041991Y0027368D01*
X0041724D01*
Y0027545D01*
X0042080D01*
X0041480Y0027190D02*
X0041124D01*
X0041302Y0027545D01*
X0041391D01*
Y0027012D01*
X0000750Y0002440D02*
X0000394D01*
X0000572Y0002795D01*
X0000661D01*
Y0002262D01*
X0000150Y0002440D02*
X-0000206D01*
X-0000028Y0002795D01*
X0000061D01*
Y0002262D01*
X0000394Y0027101D02*
X0000483Y0027012D01*
X0000661D01*
X0000750Y0027101D01*
Y0027190D01*
X0000572Y0027368D01*
X0000750Y0027545D01*
X0000394D01*
X0000150Y0027190D02*
X-0000206D01*
X-0000028Y0027545D01*
X0000061D01*
Y0027012D01*
X0040853Y0023908D02*
X0041031D01*
X0040942D02*
Y0023374D01*
X0041031Y0023463D01*
X0041676Y0023730D02*
Y0023819D01*
X0041631Y0023908D01*
X0041453D01*
X0041409Y0023819D01*
Y0023374D01*
X0041364D02*
X0041542D01*
X0040603Y0023658D02*
X0040781D01*
X0040692D02*
Y0023124D01*
X0040781Y0023213D01*
X0041426Y0023480D02*
Y0023569D01*
X0041381Y0023658D01*
X0041203D01*
X0041159Y0023569D01*
Y0023124D01*
X0041114D02*
X0041292D01*
X0040420Y0022230D02*
Y0023030D01*
X0040070D01*
Y0022230D01*
X0040420D01*
G54D32*
G01X0036575Y0021343D02*
X0036241D01*
X0036297Y0021399D01*
X0036519Y0021510D01*
X0036575Y0021566D01*
X0036241D01*
Y0021892D02*
X0036297Y0021948D01*
X0036353Y0021976D01*
X0036464D01*
X0036519Y0021948D01*
X0036575Y0021892D01*
Y0021837D01*
X0036519Y0021781D01*
X0036464Y0021753D01*
X0036353D01*
X0036297Y0021781D01*
X0036241Y0021837D01*
Y0021892D01*
Y0022330D02*
X0036575Y0022163D01*
Y0022386D01*
X0036353Y0022573D02*
Y0022796D01*
X0036575Y0022684D01*
Y0022629D01*
X0036241D01*
X0037973Y0021631D02*
Y0021853D01*
X0038195Y0021631D01*
X0038250D01*
X0038306Y0021659D01*
Y0021826D01*
X0038250Y0021853D01*
X0037973Y0022041D02*
Y0022152D01*
Y0022097D02*
X0038306D01*
X0038250Y0022152D01*
X0038028Y0022395D02*
X0037973Y0022423D01*
Y0022590D01*
X0038028Y0022618D01*
X0038250D01*
X0038306Y0022590D01*
Y0022423D01*
X0038250Y0022395D01*
X0040453Y0014983D02*
Y0015206D01*
X0040286Y0014983D02*
X0040620D01*
X0040286Y0015206D02*
X0040620D01*
Y0015393D02*
X0040342D01*
X0040286Y0015421D01*
Y0015588D01*
X0040342Y0015616D01*
X0040620D01*
X0040342Y0016026D02*
X0040286Y0015970D01*
Y0015859D01*
X0040342Y0015803D01*
X0040398D01*
X0040509Y0015914D01*
X0040620Y0015803D01*
Y0016026D01*
X0040342Y0016436D02*
X0040286Y0016380D01*
Y0016269D01*
X0040342Y0016213D01*
X0040398D01*
X0040509Y0016324D01*
X0040620Y0016213D01*
Y0016436D01*
X0041018Y0015778D02*
Y0016001D01*
X0041240Y0015778D01*
X0041295D01*
X0041351Y0015806D01*
Y0015973D01*
X0041295Y0016001D01*
X0041018Y0016188D02*
Y0016383D01*
X0041351D01*
X0019618Y0022647D02*
X0019591Y0022702D01*
X0019424D01*
X0019396Y0022647D01*
Y0022536D01*
X0019452Y0022480D01*
X0019618D01*
Y0022369D01*
X0019396D01*
X0019806Y0022702D02*
X0019917D01*
X0019862D02*
Y0022369D01*
X0019917Y0022424D01*
X0020244Y0022536D02*
X0020160Y0022702D01*
X0020383Y0022536D02*
X0020216D01*
X0020160Y0022480D01*
Y0022424D01*
X0020216Y0022369D01*
X0020383D01*
Y0022702D01*
X0019039Y0023433D02*
X0019206Y0023267D01*
X0019039Y0023100D01*
X0019261D02*
Y0023433D01*
X0019588D02*
X0019643Y0023378D01*
X0019671Y0023322D01*
Y0023211D01*
X0019643Y0023156D01*
X0019588Y0023100D01*
X0019532D01*
X0019477Y0023156D01*
X0019449Y0023211D01*
Y0023322D01*
X0019477Y0023378D01*
X0019532Y0023433D01*
X0019588D01*
X0019998D02*
X0020053Y0023378D01*
X0020081Y0023322D01*
Y0023211D01*
X0020053Y0023156D01*
X0019998Y0023100D01*
X0019942D01*
X0019887Y0023156D01*
X0019859Y0023211D01*
Y0023322D01*
X0019887Y0023378D01*
X0019942Y0023433D01*
X0019998D01*
X0020269D02*
X0020380D01*
X0020324D02*
Y0023100D01*
X0020380Y0023156D01*
X0015559Y0007375D02*
Y0007708D01*
X0015615Y0007653D01*
X0015726Y0007431D01*
X0015781Y0007375D01*
Y0007708D01*
X0016108D02*
X0016163Y0007653D01*
X0016191Y0007597D01*
Y0007486D01*
X0016163Y0007431D01*
X0016108Y0007375D01*
X0016052D01*
X0015997Y0007431D01*
X0015969Y0007486D01*
Y0007597D01*
X0015997Y0007653D01*
X0016052Y0007708D01*
X0016108D01*
X0016518D02*
X0016573Y0007653D01*
X0016601Y0007597D01*
Y0007486D01*
X0016573Y0007431D01*
X0016518Y0007375D01*
X0016462D01*
X0016407Y0007431D01*
X0016379Y0007486D01*
Y0007597D01*
X0016407Y0007653D01*
X0016462Y0007708D01*
X0016518D01*
X0016789D02*
X0016900D01*
X0016844D02*
Y0007375D01*
X0016900Y0007431D01*
X0015958Y0005977D02*
X0015791Y0005644D01*
X0016013D01*
X0016201Y0005977D02*
X0016312D01*
X0016257D02*
Y0005644D01*
X0016312Y0005699D01*
X0016555Y0005922D02*
X0016583Y0005977D01*
X0016750D01*
X0016778Y0005922D01*
Y0005699D01*
X0016750Y0005644D01*
X0016583D01*
X0016555Y0005699D01*
X0022003Y0018781D02*
X0021975Y0018725D01*
Y0018669D01*
X0022003Y0018614D01*
X0022170D01*
X0022198Y0018669D01*
Y0018725D01*
X0022170Y0018781D01*
X0022003D01*
X0021975Y0018836D01*
Y0018892D01*
X0022003Y0018947D01*
X0022170D01*
X0022198Y0018892D01*
Y0018836D01*
X0022170Y0018781D01*
X0022385Y0018892D02*
X0022413Y0018947D01*
X0022580D01*
X0022608Y0018892D01*
Y0018669D01*
X0022580Y0018614D01*
X0022413D01*
X0022385Y0018669D01*
X0021472Y0020678D02*
Y0020512D01*
X0021500Y0020456D01*
X0021667D01*
Y0020678D01*
X0022021D02*
X0021854Y0020345D01*
X0022077D01*
X0022320Y0020678D02*
X0022264D01*
Y0020623D01*
X0022320D01*
Y0020678D01*
X0022563Y0020567D02*
X0022786D01*
X0022674Y0020345D01*
X0022619D01*
Y0020678D01*
X0006524Y0020564D02*
X0006691D01*
X0006719Y0020509D01*
Y0020453D01*
X0006691Y0020398D01*
X0006524D01*
X0006496Y0020453D01*
Y0020509D01*
X0006608Y0020731D01*
X0006309Y0020398D02*
X0006198D01*
X0006253D02*
Y0020731D01*
X0006198Y0020675D01*
X0005954Y0020453D02*
X0005927Y0020398D01*
X0005760D01*
X0005732Y0020453D01*
Y0020675D01*
X0005760Y0020731D01*
X0005927D01*
X0005954Y0020675D01*
X0007180Y0019250D02*
Y0018972D01*
X0007153Y0018916D01*
X0006986D01*
X0006958Y0018972D01*
Y0019250D01*
X0006604Y0018916D02*
X0006770Y0019250D01*
X0006548D01*
X0006360Y0019028D02*
X0006138D01*
X0006249Y0019250D01*
X0006305D01*
Y0018916D01*
X0005895D02*
X0005950D01*
Y0018972D01*
X0005895D01*
Y0018916D01*
X0005513D02*
X0005457Y0018972D01*
X0005429Y0019028D01*
Y0019139D01*
X0005457Y0019194D01*
X0005513Y0019250D01*
X0005568D01*
X0005624Y0019194D01*
X0005652Y0019139D01*
Y0019028D01*
X0005624Y0018972D01*
X0005568Y0018916D01*
X0005513D01*
X0005600Y0019222D02*
Y0018956D01*
X0005733Y0019089D02*
X0005467D01*
X0010636Y0020059D02*
Y0019836D01*
X0010414Y0019948D01*
Y0020003D01*
X0010747D01*
Y0019649D02*
Y0019538D01*
Y0019593D02*
X0010414D01*
X0010469Y0019538D01*
X0010692Y0019294D02*
X0010747Y0019267D01*
Y0019100D01*
X0010692Y0019072D01*
X0010469D01*
X0010414Y0019100D01*
Y0019267D01*
X0010469Y0019294D01*
X0012312Y0019714D02*
Y0019881D01*
X0012256Y0019937D01*
X0012201D01*
X0012145Y0019881D01*
Y0019714D01*
X0012478D01*
Y0019527D02*
Y0019304D01*
X0012256Y0019527D01*
X0012201D01*
X0012145Y0019499D01*
Y0019332D01*
X0012201Y0019304D01*
X0012478Y0019117D02*
Y0018894D01*
X0012256Y0019117D01*
X0012201D01*
X0012145Y0019089D01*
Y0018922D01*
X0012201Y0018894D01*
X0016733Y0018536D02*
Y0018647D01*
Y0018591D02*
X0017066D01*
X0017010Y0018647D01*
X0016733Y0018890D02*
Y0019085D01*
X0017066D01*
X0015949Y0017840D02*
Y0018063D01*
X0015782Y0017840D02*
X0016116D01*
X0015782Y0018063D02*
X0016116D01*
Y0018250D02*
X0015838D01*
X0015782Y0018278D01*
Y0018445D01*
X0015838Y0018473D01*
X0016116D01*
X0015838Y0018883D02*
X0015782Y0018827D01*
Y0018716D01*
X0015838Y0018660D01*
X0015894D01*
X0016005Y0018771D01*
X0016116Y0018660D01*
Y0018883D01*
X0015838Y0019293D02*
X0015782Y0019237D01*
Y0019126D01*
X0015838Y0019070D01*
X0015894D01*
X0016005Y0019181D01*
X0016116Y0019070D01*
Y0019293D01*
X0010273Y0019411D02*
X0010107Y0019244D01*
X0009940Y0019411D01*
Y0019189D02*
X0010273D01*
Y0018862D02*
X0010218Y0018806D01*
X0010162Y0018779D01*
X0010051D01*
X0009996Y0018806D01*
X0009940Y0018862D01*
Y0018918D01*
X0009996Y0018973D01*
X0010051Y0019001D01*
X0010162D01*
X0010218Y0018973D01*
X0010273Y0018918D01*
Y0018862D01*
Y0018591D02*
Y0018480D01*
Y0018535D02*
X0009940D01*
X0009996Y0018480D01*
X0018892Y0008654D02*
Y0008431D01*
X0018670Y0008654D01*
X0018614D01*
X0018559Y0008626D01*
Y0008459D01*
X0018614Y0008431D01*
X0018892Y0008244D02*
Y0008133D01*
Y0008188D02*
X0018559D01*
X0018614Y0008133D01*
X0018726Y0007806D02*
X0018892Y0007889D01*
X0018726Y0007667D02*
Y0007834D01*
X0018670Y0007889D01*
X0018614D01*
X0018559Y0007834D01*
Y0007667D01*
X0018892D01*
X0019457Y0008900D02*
Y0009011D01*
X0019568D01*
X0019623Y0008983D01*
Y0008816D01*
X0019568Y0008789D01*
X0019346D01*
X0019290Y0008816D01*
Y0008983D01*
X0019346Y0009011D01*
X0019457Y0008545D02*
Y0008379D01*
X0019623Y0008601D02*
Y0008379D01*
X0019290D01*
Y0008601D01*
X0019623Y0008191D02*
X0019290D01*
X0019346Y0008135D01*
X0019457Y0008080D01*
X0019346Y0008024D01*
X0019290Y0007969D01*
X0019623D01*
Y0007781D02*
Y0007670D01*
Y0007725D02*
X0019290D01*
X0019346Y0007670D01*
X0016518Y0011017D02*
X0016463Y0011072D01*
X0016352D01*
X0016296Y0011017D01*
Y0010961D01*
X0016407Y0010850D01*
X0016296Y0010739D01*
X0016518D01*
X0016706Y0011072D02*
X0016817D01*
X0016762D02*
Y0010739D01*
X0016817Y0010794D01*
X0017144Y0010906D02*
X0017060Y0011072D01*
X0017283Y0010906D02*
X0017116D01*
X0017060Y0010850D01*
Y0010794D01*
X0017116Y0010739D01*
X0017283D01*
Y0011072D01*
X0015286Y0011637D02*
X0015174D01*
Y0011748D01*
X0015202Y0011803D01*
X0015369D01*
X0015397Y0011748D01*
Y0011526D01*
X0015369Y0011470D01*
X0015202D01*
X0015174Y0011526D01*
X0015640Y0011637D02*
X0015807D01*
X0015584Y0011803D02*
X0015807D01*
Y0011470D01*
X0015584D01*
X0015994Y0011803D02*
Y0011470D01*
X0016050Y0011526D01*
X0016106Y0011637D01*
X0016161Y0011526D01*
X0016217Y0011470D01*
Y0011803D01*
X0016571D02*
X0016404Y0011470D01*
X0016627D01*
X0016870Y0011803D02*
X0016814D01*
Y0011748D01*
X0016870D01*
Y0011803D01*
X0017113D02*
X0017336D01*
X0017113Y0011581D01*
Y0011526D01*
X0017141Y0011470D01*
X0017308D01*
X0017336Y0011526D01*
X0007195Y0018028D02*
X0007139Y0018083D01*
X0007111Y0018139D01*
Y0018250D01*
X0007139Y0018305D01*
X0007195Y0018361D01*
X0007250D01*
X0007306Y0018305D01*
X0007334Y0018250D01*
Y0018139D01*
X0007306Y0018083D01*
X0007250Y0018028D01*
X0007195D01*
X0006924D02*
X0006813D01*
X0006868D02*
Y0018361D01*
X0006813Y0018305D01*
X0006486Y0018194D02*
X0006569Y0018028D01*
X0006347Y0018194D02*
X0006514D01*
X0006569Y0018250D01*
Y0018305D01*
X0006514Y0018361D01*
X0006347D01*
Y0018028D01*
X0007691Y0017296D02*
X0007524Y0017463D01*
X0007691Y0017630D01*
X0007469D02*
Y0017296D01*
X0007142D02*
X0007086Y0017352D01*
X0007059Y0017408D01*
Y0017519D01*
X0007086Y0017574D01*
X0007142Y0017630D01*
X0007198D01*
X0007253Y0017574D01*
X0007281Y0017519D01*
Y0017408D01*
X0007253Y0017352D01*
X0007198Y0017296D01*
X0007142D01*
X0006843Y0017463D02*
X0006871Y0017519D01*
Y0017574D01*
X0006843Y0017630D01*
X0006676D01*
X0006649Y0017574D01*
Y0017519D01*
X0006676Y0017463D01*
X0006843D01*
X0006871Y0017408D01*
Y0017352D01*
X0006843Y0017296D01*
X0006676D01*
X0006649Y0017352D01*
Y0017408D01*
X0006676Y0017463D01*
X0006461Y0017296D02*
X0006350D01*
X0006405D02*
Y0017630D01*
X0006350Y0017574D01*
X0009542Y0019408D02*
Y0019297D01*
Y0019353D02*
X0009209D01*
X0009264Y0019297D01*
X0009542Y0019054D02*
Y0018943D01*
Y0018998D02*
X0009209D01*
X0009264Y0018943D01*
X0009376Y0018616D02*
X0009542Y0018699D01*
X0009376Y0018477D02*
Y0018644D01*
X0009320Y0018699D01*
X0009264D01*
X0009209Y0018644D01*
Y0018477D01*
X0009542D01*
X0022720Y0009247D02*
Y0009514D01*
X0022587Y0009381D02*
X0022853D01*
X0032818Y0019688D02*
X0032984Y0020021D01*
X0032762D01*
X0032574Y0019743D02*
X0032547Y0019688D01*
X0032380D01*
X0032352Y0019743D01*
Y0019965D01*
X0032380Y0020021D01*
X0032547D01*
X0032574Y0019965D01*
X0033363Y0018429D02*
Y0018206D01*
X0033390D02*
X0033196D01*
X0033168Y0018262D01*
Y0018429D01*
X0032980Y0018206D02*
X0032758D01*
X0032980Y0018429D01*
Y0018484D01*
X0032953Y0018540D01*
X0032786D01*
X0032758Y0018484D01*
X0032515Y0018206D02*
X0032570D01*
Y0018262D01*
X0032515D01*
Y0018206D01*
X0032133D02*
X0032077Y0018262D01*
X0032049Y0018318D01*
Y0018429D01*
X0032077Y0018484D01*
X0032133Y0018540D01*
X0032188D01*
X0032244Y0018484D01*
X0032272Y0018429D01*
Y0018318D01*
X0032244Y0018262D01*
X0032188Y0018206D01*
X0032133D01*
X0032220Y0018512D02*
Y0018246D01*
X0032353Y0018379D02*
X0032087D01*
X0018450Y0019844D02*
X0018172D01*
X0018116Y0019872D01*
Y0020038D01*
X0018172Y0020066D01*
X0018450D01*
X0018116Y0020254D02*
Y0020365D01*
Y0020309D02*
X0018450D01*
X0018394Y0020365D01*
X0018422Y0020250D02*
X0018156D01*
X0018289Y0020117D02*
Y0020383D01*
X0019653Y0019353D02*
X0019598Y0019326D01*
Y0019159D01*
X0019653Y0019131D01*
X0019764D01*
X0019820Y0019187D01*
Y0019353D01*
X0019931D01*
Y0019131D01*
X0019598Y0019541D02*
Y0019652D01*
Y0019597D02*
X0019931D01*
X0019875Y0019652D01*
X0019653Y0019895D02*
X0019598Y0019923D01*
Y0020090D01*
X0019653Y0020118D01*
X0019875D01*
X0019931Y0020090D01*
Y0019923D01*
X0019875Y0019895D01*
X0029448Y0012107D02*
Y0012218D01*
Y0012162D02*
X0029781D01*
X0029725Y0012218D01*
X0029448Y0012461D02*
Y0012572D01*
Y0012517D02*
X0029781D01*
X0029725Y0012572D01*
X0029503Y0012815D02*
X0029448Y0012843D01*
Y0013010D01*
X0029503Y0013038D01*
X0029725D01*
X0029781Y0013010D01*
Y0012843D01*
X0029725Y0012815D01*
X0028300Y0011999D02*
X0028022D01*
X0027966Y0012027D01*
Y0012194D01*
X0028022Y0012222D01*
X0028300D01*
X0027966Y0012576D02*
X0028300Y0012409D01*
Y0012632D01*
X0027966Y0012875D02*
Y0012819D01*
X0028022D01*
Y0012875D01*
X0027966D01*
X0028078Y0013118D02*
Y0013341D01*
X0028300Y0013229D01*
Y0013174D01*
X0027966D01*
X0028272Y0013170D02*
X0028006D01*
X0028139Y0013037D02*
Y0013303D01*
X0031029Y0016553D02*
X0031196Y0016387D01*
X0031029Y0016220D01*
X0031251D02*
Y0016553D01*
X0031578D02*
X0031633Y0016498D01*
X0031661Y0016442D01*
Y0016331D01*
X0031633Y0016276D01*
X0031578Y0016220D01*
X0031522D01*
X0031467Y0016276D01*
X0031439Y0016331D01*
Y0016442D01*
X0031467Y0016498D01*
X0031522Y0016553D01*
X0031578D01*
X0031849D02*
X0031960D01*
X0031904D02*
Y0016220D01*
X0031960Y0016276D01*
X0025443Y0019938D02*
X0025609Y0020271D01*
X0025387D01*
X0025116Y0020104D02*
X0025199Y0019938D01*
X0024977Y0020104D02*
X0025144D01*
X0025199Y0020160D01*
Y0020215D01*
X0025144Y0020271D01*
X0024977D01*
Y0019938D01*
X0025772Y0019318D02*
X0025716D01*
X0025883Y0019206D02*
X0025772Y0019318D01*
X0025883Y0019429D01*
X0025716Y0019206D02*
Y0019540D01*
X0025362Y0019206D02*
X0025306Y0019262D01*
X0025279Y0019318D01*
Y0019429D01*
X0025306Y0019484D01*
X0025362Y0019540D01*
X0025418D01*
X0025473Y0019484D01*
X0025501Y0019429D01*
Y0019318D01*
X0025473Y0019262D01*
X0025418Y0019206D01*
X0025362D01*
X0025091D02*
X0024980D01*
X0025035D02*
Y0019540D01*
X0024980Y0019484D01*
X0040246Y0007492D02*
X0040190Y0007519D01*
X0040134D01*
X0040079Y0007492D01*
Y0007325D01*
X0040134Y0007297D01*
X0040190D01*
X0040246Y0007325D01*
Y0007492D01*
X0040301Y0007519D01*
X0040357D01*
X0040412Y0007492D01*
Y0007325D01*
X0040357Y0007297D01*
X0040301D01*
X0040246Y0007325D01*
Y0007026D02*
X0040412Y0007109D01*
X0040246Y0006887D02*
Y0007054D01*
X0040190Y0007109D01*
X0040134D01*
X0040079Y0007054D01*
Y0006887D01*
X0040412D01*
X0041143Y0008287D02*
X0040977Y0008120D01*
X0040810Y0008287D01*
Y0008064D02*
X0041143D01*
Y0007738D02*
X0041088Y0007682D01*
X0041032Y0007654D01*
X0040921D01*
X0040866Y0007682D01*
X0040810Y0007738D01*
Y0007793D01*
X0040866Y0007849D01*
X0040921Y0007877D01*
X0041032D01*
X0041088Y0007849D01*
X0041143Y0007793D01*
Y0007738D01*
Y0007300D02*
X0040810Y0007467D01*
Y0007244D01*
X0041032Y0007057D02*
Y0006834D01*
X0040810Y0006945D01*
Y0007001D01*
X0041143D01*
X0039694Y0007768D02*
Y0007935D01*
X0039750Y0007963D01*
X0039805D01*
X0039861Y0007935D01*
Y0007768D01*
X0039805Y0007740D01*
X0039750D01*
X0039528Y0007852D01*
X0039694Y0008234D02*
X0039528Y0008150D01*
X0039694Y0008373D02*
Y0008206D01*
X0039750Y0008150D01*
X0039805D01*
X0039861Y0008206D01*
Y0008373D01*
X0039528D01*
X0038908Y0007112D02*
Y0007168D01*
X0038796Y0007001D02*
X0038908Y0007112D01*
X0039019Y0007001D01*
X0038796Y0007168D02*
X0039130D01*
X0038796Y0007522D02*
X0038852Y0007578D01*
X0038908Y0007606D01*
X0039019D01*
X0039074Y0007578D01*
X0039130Y0007522D01*
Y0007467D01*
X0039074Y0007411D01*
X0039019Y0007383D01*
X0038908D01*
X0038852Y0007411D01*
X0038796Y0007467D01*
Y0007522D01*
Y0007960D02*
X0039130Y0007793D01*
Y0008016D01*
X0038908Y0008203D02*
Y0008426D01*
X0039130Y0008314D01*
Y0008259D01*
X0038796D01*
X0022234Y0011424D02*
X0022012D01*
X0022123Y0011646D01*
X0022179D01*
Y0011313D01*
X0021824Y0011368D02*
X0021797Y0011313D01*
X0021630D01*
X0021602Y0011368D01*
Y0011590D01*
X0021630Y0011646D01*
X0021797D01*
X0021824Y0011590D01*
X0022821Y0009915D02*
Y0009581D01*
X0022765Y0009637D01*
X0022654Y0009859D01*
X0022599Y0009915D01*
Y0009581D01*
X0022272D02*
X0022216Y0009637D01*
X0022189Y0009693D01*
Y0009804D01*
X0022216Y0009859D01*
X0022272Y0009915D01*
X0022328D01*
X0022383Y0009859D01*
X0022411Y0009804D01*
Y0009693D01*
X0022383Y0009637D01*
X0022328Y0009581D01*
X0022272D01*
X0021862D02*
X0021806Y0009637D01*
X0021779Y0009693D01*
Y0009804D01*
X0021806Y0009859D01*
X0021862Y0009915D01*
X0021918D01*
X0021973Y0009859D01*
X0022001Y0009804D01*
Y0009693D01*
X0021973Y0009637D01*
X0021918Y0009581D01*
X0021862D01*
X0021591D02*
X0021480D01*
X0021535D02*
Y0009915D01*
X0021480Y0009859D01*
X0040011Y0019072D02*
X0040122D01*
X0040067D02*
Y0018739D01*
X0040122Y0018794D01*
X0040365Y0019017D02*
X0040393Y0019072D01*
X0040560D01*
X0040588Y0019017D01*
Y0018794D01*
X0040560Y0018739D01*
X0040393D01*
X0040365Y0018794D01*
X0039494Y0020220D02*
Y0020498D01*
X0039522Y0020553D01*
X0039688D01*
X0039716Y0020498D01*
Y0020220D01*
X0040043Y0020553D02*
X0040098Y0020498D01*
X0040126Y0020442D01*
Y0020331D01*
X0040098Y0020276D01*
X0040043Y0020220D01*
X0039987D01*
X0039932Y0020276D01*
X0039904Y0020331D01*
Y0020442D01*
X0039932Y0020498D01*
X0039987Y0020553D01*
X0040043D01*
X0040453D02*
X0040508Y0020498D01*
X0040536Y0020442D01*
Y0020331D01*
X0040508Y0020276D01*
X0040453Y0020220D01*
X0040397D01*
X0040342Y0020276D01*
X0040314Y0020331D01*
Y0020442D01*
X0040342Y0020498D01*
X0040397Y0020553D01*
X0040453D01*
X0040724D02*
X0040835D01*
X0040779D02*
Y0020220D01*
X0040835Y0020276D01*
X0040720Y0020247D02*
Y0020514D01*
X0040587Y0020381D02*
X0040853D01*
X0039955Y0011072D02*
X0040178D01*
X0039955Y0010850D01*
Y0010794D01*
X0039983Y0010739D01*
X0040150D01*
X0040178Y0010794D01*
X0040365Y0011017D02*
X0040393Y0011072D01*
X0040560D01*
X0040588Y0011017D01*
Y0010794D01*
X0040560Y0010739D01*
X0040393D01*
X0040365Y0010794D01*
X0039904Y0012220D02*
Y0012498D01*
X0039932Y0012553D01*
X0040098D01*
X0040126Y0012498D01*
Y0012220D01*
X0040453Y0012553D02*
X0040508Y0012498D01*
X0040536Y0012442D01*
Y0012331D01*
X0040508Y0012276D01*
X0040453Y0012220D01*
X0040397D01*
X0040342Y0012276D01*
X0040314Y0012331D01*
Y0012442D01*
X0040342Y0012498D01*
X0040397Y0012553D01*
X0040453D01*
X0040724D02*
X0040835D01*
X0040779D02*
Y0012220D01*
X0040835Y0012276D01*
X0040720Y0012247D02*
Y0012514D01*
X0040587Y0012381D02*
X0040853D01*
X0022178Y0008017D02*
X0022122Y0008072D01*
X0022011D01*
X0021955Y0008017D01*
Y0007961D01*
X0022067Y0007850D01*
X0021955Y0007739D01*
X0022178D01*
X0022365Y0008017D02*
X0022393Y0008072D01*
X0022560D01*
X0022588Y0008017D01*
Y0007794D01*
X0022560Y0007739D01*
X0022393D01*
X0022365Y0007794D01*
X0021904Y0009220D02*
Y0009498D01*
X0021932Y0009553D01*
X0022098D01*
X0022126Y0009498D01*
Y0009220D01*
X0022453Y0009553D02*
X0022508Y0009498D01*
X0022536Y0009442D01*
Y0009331D01*
X0022508Y0009276D01*
X0022453Y0009220D01*
X0022397D01*
X0022342Y0009276D01*
X0022314Y0009331D01*
Y0009442D01*
X0022342Y0009498D01*
X0022397Y0009553D01*
X0022453D01*
X0022724D02*
X0022835D01*
X0022779D02*
Y0009220D01*
X0022835Y0009276D01*
X0004794Y0013682D02*
Y0013905D01*
X0005016Y0013793D01*
Y0013738D01*
X0004683D01*
X0004794Y0014287D02*
X0004738D01*
X0004683Y0014259D01*
Y0014148D01*
X0004738Y0014120D01*
X0005016D01*
Y0014092D02*
Y0014203D01*
X0003038Y0013216D02*
X0002982Y0013188D01*
Y0013021D01*
X0003038Y0012993D01*
X0003149D01*
X0003205Y0013049D01*
Y0013216D01*
X0003316D01*
Y0012993D01*
Y0013403D02*
X0002982D01*
X0003038Y0013459D01*
X0003260Y0013570D01*
X0003316Y0013626D01*
X0002982D01*
Y0014008D02*
X0003038Y0014036D01*
X0003260D01*
X0003316Y0014008D01*
Y0013841D01*
X0003260Y0013813D01*
X0003038D01*
X0002982Y0013841D01*
Y0014008D01*
X0003038Y0014223D02*
X0002982Y0014251D01*
Y0014418D01*
X0003038Y0014446D01*
X0003260D01*
X0003316Y0014418D01*
Y0014251D01*
X0003260Y0014223D01*
X0031386Y0007322D02*
X0031497D01*
X0031442D02*
Y0006989D01*
X0031497Y0007044D01*
X0031824Y0007156D02*
X0031740Y0007322D01*
X0031963Y0007156D02*
X0031796D01*
X0031740Y0007100D01*
Y0007044D01*
X0031796Y0006989D01*
X0031963D01*
Y0007322D01*
X0030813Y0007942D02*
X0030869D01*
X0030702Y0008053D02*
X0030813Y0007942D01*
X0030702Y0007831D01*
X0030869Y0008053D02*
Y0007720D01*
X0031307Y0007998D02*
X0031251Y0008053D01*
X0031140D01*
X0031084Y0007998D01*
Y0007942D01*
X0031196Y0007831D01*
X0031084Y0007720D01*
X0031307D01*
X0031550Y0008053D02*
X0031494D01*
Y0007998D01*
X0031550D01*
Y0008053D01*
X0031793Y0007942D02*
X0032016D01*
X0031904Y0007720D01*
X0031849D01*
Y0008053D01*
X0024990Y0017447D02*
X0025046Y0017392D01*
X0025073Y0017336D01*
Y0017225D01*
X0025046Y0017169D01*
X0024990Y0017114D01*
X0024934D01*
X0024879Y0017169D01*
X0024851Y0017225D01*
Y0017336D01*
X0024879Y0017392D01*
X0024934Y0017447D01*
X0024990D01*
X0025261D02*
X0025372D01*
X0025317D02*
Y0017114D01*
X0025372Y0017169D01*
X0025615Y0017392D02*
X0025643Y0017447D01*
X0025810D01*
X0025838Y0017392D01*
Y0017169D01*
X0025810Y0017114D01*
X0025643D01*
X0025615Y0017169D01*
X0024619Y0018845D02*
Y0019178D01*
X0024675Y0019123D01*
X0024786Y0018901D01*
X0024841Y0018845D01*
Y0019178D01*
X0025168D02*
X0025223Y0019123D01*
X0025251Y0019067D01*
Y0018956D01*
X0025223Y0018901D01*
X0025168Y0018845D01*
X0025112D01*
X0025057Y0018901D01*
X0025029Y0018956D01*
Y0019067D01*
X0025057Y0019123D01*
X0025112Y0019178D01*
X0025168D01*
X0025578D02*
X0025633Y0019123D01*
X0025661Y0019067D01*
Y0018956D01*
X0025633Y0018901D01*
X0025578Y0018845D01*
X0025522D01*
X0025467Y0018901D01*
X0025439Y0018956D01*
Y0019067D01*
X0025467Y0019123D01*
X0025522Y0019178D01*
X0025578D01*
X0025849D02*
X0025960D01*
X0025904D02*
Y0018845D01*
X0025960Y0018901D01*
X0031900Y0012281D02*
X0031733D01*
X0031705Y0012336D01*
Y0012392D01*
X0031733Y0012447D01*
X0031900D01*
X0031928Y0012392D01*
Y0012336D01*
X0031817Y0012114D01*
X0032115Y0012392D02*
X0032143Y0012447D01*
X0032310D01*
X0032338Y0012392D01*
Y0012169D01*
X0032310Y0012114D01*
X0032143D01*
X0032115Y0012169D01*
X0031341Y0014290D02*
Y0013956D01*
X0031175D01*
X0031147Y0014012D01*
Y0014123D01*
X0031175Y0014178D01*
X0031341D01*
X0031668D02*
X0031723Y0014123D01*
X0031751Y0014067D01*
Y0013956D01*
X0031723Y0013901D01*
X0031668Y0013845D01*
X0031612D01*
X0031557Y0013901D01*
X0031529Y0013956D01*
Y0014067D01*
X0031557Y0014123D01*
X0031612Y0014178D01*
X0031668D01*
X0032161Y0014123D02*
X0032133Y0014178D01*
X0031967D01*
X0031939Y0014123D01*
Y0014012D01*
X0031995Y0013956D01*
X0032161D01*
Y0013845D01*
X0031939D01*
X0032349Y0014178D02*
X0032460D01*
X0032404D02*
Y0013845D01*
X0032460Y0013901D01*
X0031330Y0008822D02*
X0031553D01*
X0031330Y0008600D01*
Y0008544D01*
X0031358Y0008489D01*
X0031525D01*
X0031553Y0008544D01*
X0031824Y0008656D02*
X0031740Y0008822D01*
X0031963Y0008656D02*
X0031796D01*
X0031740Y0008600D01*
Y0008544D01*
X0031796Y0008489D01*
X0031963D01*
Y0008822D01*
X0030813Y0009442D02*
X0030869D01*
X0030702Y0009553D02*
X0030813Y0009442D01*
X0030702Y0009331D01*
X0030869Y0009553D02*
Y0009220D01*
X0031307Y0009498D02*
X0031251Y0009553D01*
X0031140D01*
X0031084Y0009498D01*
Y0009442D01*
X0031196Y0009331D01*
X0031084Y0009220D01*
X0031307D01*
X0031550Y0009553D02*
X0031494D01*
Y0009498D01*
X0031550D01*
Y0009553D01*
X0031793Y0009442D02*
X0032016D01*
X0031904Y0009220D01*
X0031849D01*
Y0009553D01*
X0028887Y0018493D02*
X0028943Y0018438D01*
X0029054D01*
X0029109Y0018493D01*
Y0018549D01*
X0028998Y0018660D01*
X0029109Y0018771D01*
X0028887D01*
X0028616Y0018604D02*
X0028699Y0018438D01*
X0028477Y0018604D02*
X0028644D01*
X0028699Y0018660D01*
Y0018715D01*
X0028644Y0018771D01*
X0028477D01*
Y0018438D01*
X0029328Y0017818D02*
X0029272D01*
X0029439Y0017706D02*
X0029328Y0017818D01*
X0029439Y0017929D01*
X0029272Y0017706D02*
Y0018040D01*
X0028918Y0017706D02*
X0028862Y0017762D01*
X0028834Y0017818D01*
Y0017929D01*
X0028862Y0017984D01*
X0028918Y0018040D01*
X0028973D01*
X0029029Y0017984D01*
X0029057Y0017929D01*
Y0017818D01*
X0029029Y0017762D01*
X0028973Y0017706D01*
X0028918D01*
X0028647D02*
X0028424D01*
X0028647Y0017929D01*
Y0017984D01*
X0028619Y0018040D01*
X0028452D01*
X0028424Y0017984D01*
X0031109Y0015049D02*
X0030887D01*
X0030998Y0015271D01*
X0031054D01*
Y0014938D01*
X0030616Y0015104D02*
X0030699Y0014938D01*
X0030477Y0015104D02*
X0030644D01*
X0030699Y0015160D01*
Y0015215D01*
X0030644Y0015271D01*
X0030477D01*
Y0014938D01*
X0031738Y0014318D02*
X0031682D01*
X0031849Y0014206D02*
X0031738Y0014318D01*
X0031849Y0014429D01*
X0031682Y0014206D02*
Y0014540D01*
X0031328Y0014206D02*
X0031272Y0014262D01*
X0031244Y0014318D01*
Y0014429D01*
X0031272Y0014484D01*
X0031328Y0014540D01*
X0031383D01*
X0031439Y0014484D01*
X0031467Y0014429D01*
Y0014318D01*
X0031439Y0014262D01*
X0031383Y0014206D01*
X0031328D01*
X0030890D02*
X0031057Y0014540D01*
X0030834D01*
X0030647Y0014318D02*
X0030424D01*
X0030535Y0014540D01*
X0030591D01*
Y0014206D01*
X0029928Y0018922D02*
X0029900Y0018977D01*
X0029733D01*
X0029705Y0018922D01*
Y0018811D01*
X0029761Y0018755D01*
X0029928D01*
Y0018644D01*
X0029705D01*
X0030115Y0018922D02*
X0030143Y0018977D01*
X0030310D01*
X0030338Y0018922D01*
Y0018699D01*
X0030310Y0018644D01*
X0030143D01*
X0030115Y0018699D01*
X0029202Y0020708D02*
Y0020542D01*
X0029230Y0020486D01*
X0029397D01*
Y0020708D01*
X0029751D02*
X0029584Y0020375D01*
X0029807D01*
X0030050Y0020708D02*
X0029994D01*
Y0020653D01*
X0030050D01*
Y0020708D01*
X0030293Y0020597D02*
X0030516D01*
X0030404Y0020375D01*
X0030349D01*
Y0020708D01*
X0023516Y0022611D02*
X0023738D01*
X0023627Y0022389D01*
X0023572D01*
Y0022722D01*
X0023926D02*
X0024037D01*
X0023982D02*
Y0022389D01*
X0024037Y0022444D01*
X0024364Y0022556D02*
X0024280Y0022722D01*
X0024503Y0022556D02*
X0024336D01*
X0024280Y0022500D01*
Y0022444D01*
X0024336Y0022389D01*
X0024503D01*
Y0022722D01*
X0023159Y0023453D02*
X0023326Y0023287D01*
X0023159Y0023120D01*
X0023381D02*
Y0023453D01*
X0023708D02*
X0023763Y0023398D01*
X0023791Y0023342D01*
Y0023231D01*
X0023763Y0023176D01*
X0023708Y0023120D01*
X0023652D01*
X0023597Y0023176D01*
X0023569Y0023231D01*
Y0023342D01*
X0023597Y0023398D01*
X0023652Y0023453D01*
X0023708D01*
X0024201Y0023398D02*
X0024173Y0023453D01*
X0024007D01*
X0023979Y0023398D01*
Y0023287D01*
X0024035Y0023231D01*
X0024201D01*
Y0023120D01*
X0023979D01*
X0024389Y0023453D02*
X0024500D01*
X0024444D02*
Y0023120D01*
X0024500Y0023176D01*
X0004701Y0013627D02*
Y0013460D01*
X0004645Y0013432D01*
X0004589D01*
X0004534Y0013460D01*
Y0013627D01*
X0004589Y0013654D01*
X0004645D01*
X0004867Y0013543D01*
X0004812Y0013244D02*
X0004867Y0013217D01*
Y0013050D01*
X0004812Y0013022D01*
X0004589D01*
X0004534Y0013050D01*
Y0013217D01*
X0004589Y0013244D01*
X0006265Y0014241D02*
X0006598D01*
X0006543Y0014185D01*
X0006321Y0014074D01*
X0006265Y0014019D01*
X0006598D01*
Y0013692D02*
X0006543Y0013636D01*
X0006487Y0013609D01*
X0006376D01*
X0006321Y0013636D01*
X0006265Y0013692D01*
Y0013748D01*
X0006321Y0013803D01*
X0006376Y0013831D01*
X0006487D01*
X0006543Y0013803D01*
X0006598Y0013748D01*
Y0013692D01*
Y0013282D02*
X0006543Y0013226D01*
X0006487Y0013199D01*
X0006376D01*
X0006321Y0013226D01*
X0006265Y0013282D01*
Y0013338D01*
X0006321Y0013393D01*
X0006376Y0013421D01*
X0006487D01*
X0006543Y0013393D01*
X0006598Y0013338D01*
Y0013282D01*
Y0013011D02*
Y0012900D01*
Y0012955D02*
X0006265D01*
X0006321Y0012900D01*
X0035757Y0021157D02*
X0035812Y0021185D01*
Y0021352D01*
X0035757Y0021379D01*
X0035646D01*
X0035590Y0021324D01*
Y0021157D01*
X0035479D01*
Y0021379D01*
X0035646Y0020886D02*
X0035812Y0020969D01*
X0035646Y0020747D02*
Y0020914D01*
X0035590Y0020969D01*
X0035534D01*
X0035479Y0020914D01*
Y0020747D01*
X0035812D01*
X0036377Y0022008D02*
X0036543Y0022091D01*
X0036377Y0021869D02*
Y0022035D01*
X0036321Y0022091D01*
X0036266D01*
X0036210Y0022035D01*
Y0021869D01*
X0036543D01*
Y0021542D02*
X0036488Y0021486D01*
X0036432Y0021459D01*
X0036321D01*
X0036266Y0021486D01*
X0036210Y0021542D01*
Y0021598D01*
X0036266Y0021653D01*
X0036321Y0021681D01*
X0036432D01*
X0036488Y0021653D01*
X0036543Y0021598D01*
Y0021542D01*
Y0021132D02*
X0036488Y0021076D01*
X0036432Y0021049D01*
X0036321D01*
X0036266Y0021076D01*
X0036210Y0021132D01*
Y0021188D01*
X0036266Y0021243D01*
X0036321Y0021271D01*
X0036432D01*
X0036488Y0021243D01*
X0036543Y0021188D01*
Y0021132D01*
Y0020861D02*
Y0020750D01*
Y0020805D02*
X0036210D01*
X0036266Y0020750D01*
X0031525Y0015656D02*
X0031358D01*
X0031330Y0015711D01*
Y0015767D01*
X0031358Y0015822D01*
X0031525D01*
X0031553Y0015767D01*
Y0015711D01*
X0031442Y0015489D01*
X0031824Y0015656D02*
X0031740Y0015822D01*
X0031963Y0015656D02*
X0031796D01*
X0031740Y0015600D01*
Y0015544D01*
X0031796Y0015489D01*
X0031963D01*
Y0015822D01*
X0037790Y0021000D02*
Y0023000D01*
X0036790D02*
Y0021000D01*
X0020990Y0019130D02*
X0022990D01*
X0040710Y0016390D02*
Y0016640D01*
X0040210Y0014890D02*
Y0016390D01*
X0041210D01*
Y0014890D01*
X0040210D01*
X0040710D02*
Y0014640D01*
X0024510Y0023030D02*
X0024760D01*
X0023010Y0023530D02*
X0024510D01*
Y0022530D01*
X0023010D01*
Y0023530D01*
X0020390Y0023010D02*
X0020640D01*
X0018890Y0023510D02*
X0020390D01*
Y0022510D01*
X0018890D01*
Y0023510D01*
X0017160Y0007160D02*
X0015160D01*
Y0006160D02*
X0017160D01*
X0006340Y0017720D02*
X0006090D01*
X0007840Y0017220D02*
X0006340D01*
Y0018220D01*
X0007840D01*
Y0017220D01*
Y0017720D02*
X0008090D01*
X0009850Y0018470D02*
Y0018220D01*
X0010350Y0019970D02*
Y0018470D01*
X0009350D01*
Y0019970D01*
X0010350D01*
X0009850D02*
Y0020220D01*
X0019200Y0007660D02*
Y0007410D01*
X0019700Y0009160D02*
Y0007660D01*
X0018700D01*
Y0009160D01*
X0019700D01*
X0019200D02*
Y0009410D01*
X0017290Y0011380D02*
X0017540D01*
X0015790Y0011880D02*
X0017290D01*
Y0010880D01*
X0015790D01*
Y0011880D01*
X0010930Y0020690D02*
Y0018690D01*
X0011930D02*
Y0020690D01*
X0015525Y0017230D02*
Y0016730D01*
X0017275D01*
Y0019230D01*
Y0019730D02*
Y0020230D01*
X0015525D01*
Y0017730D01*
X0023010Y0023030D02*
X0022760D01*
X0018890Y0023010D02*
X0018640D01*
X0030470Y0016130D02*
X0030220D01*
X0024970Y0019630D02*
X0024720D01*
X0026470Y0019130D02*
X0024970D01*
Y0020130D01*
X0026470D01*
Y0019130D01*
Y0019630D02*
X0026720D01*
X0040720Y0006880D02*
Y0006630D01*
X0041220Y0008380D02*
Y0006880D01*
X0040220D01*
Y0008380D01*
X0041220D01*
X0040720D02*
Y0008630D01*
X0039220Y0008380D02*
Y0008630D01*
X0038720Y0006880D02*
Y0008380D01*
X0039720D01*
Y0006880D01*
X0038720D01*
X0039220D02*
Y0006630D01*
X0022990Y0020130D02*
X0020990D01*
X0015790Y0011380D02*
X0015540D01*
X0036120Y0022240D02*
Y0022490D01*
X0031970Y0016130D02*
X0032220D01*
X0030470Y0016630D02*
X0031970D01*
Y0015630D01*
X0030470D01*
Y0016630D01*
X0021220Y0010130D02*
X0023220D01*
X0003500Y0011200D02*
X0004500D01*
Y0016200D01*
X0003500D01*
Y0011200D01*
Y0016200D02*
X0003450Y0016250D01*
X0036120Y0020740D02*
Y0020490D01*
X0031970Y0007630D02*
X0032220D01*
X0030470Y0008130D02*
X0031970D01*
Y0007130D01*
X0030470D01*
Y0008130D01*
Y0007630D02*
X0030220D01*
X0036620Y0022240D02*
Y0020740D01*
X0035620D01*
Y0022240D01*
X0036620D01*
X0024220Y0017630D02*
X0026220D01*
Y0018630D02*
X0024220D01*
X0030720Y0012630D02*
X0032720D01*
Y0013630D02*
X0030720D01*
X0031970Y0009130D02*
X0032220D01*
X0030470Y0009630D02*
X0031970D01*
Y0008630D01*
X0030470D01*
Y0009630D01*
Y0009130D02*
X0030220D01*
X0028470Y0018130D02*
X0028220D01*
X0029970Y0017630D02*
X0028470D01*
Y0018630D01*
X0029970D01*
Y0017630D01*
Y0018130D02*
X0030220D01*
X0028720Y0019160D02*
X0030720D01*
Y0020160D02*
X0028720D01*
X0005050Y0014640D02*
Y0012640D01*
X0006050D02*
Y0014640D01*
X0030470Y0014630D02*
X0030220D01*
X0031970Y0014130D02*
X0030470D01*
Y0015130D01*
X0031970D01*
Y0014130D01*
Y0014630D02*
X0032220D01*
X0023220Y0011130D02*
X0021220D01*
G01X0005100Y0019840D02*
G03X0006225Y0018715I0001125J0000000D01*
G03X0007350Y0019840I0000000J0001125D01*
G03X0006225Y0020965I0001125J0000000D01*
G03X0005100Y0019840I0000000J0001125D01*
G01X0041220Y0019630D02*
G03X0040095Y0020755I0001125J0000000D01*
G03X0038970Y0019630I0000000J0001125D01*
G03X0040095Y0018505I0001125J0000000D01*
G03X0041220Y0019630I0000000J0001125D01*
Y0011630D02*
G03X0040095Y0012755I0001125J0000000D01*
G03X0038970Y0011630I0000000J0001125D01*
G03X0040095Y0010505I0001125J0000000D01*
G03X0041220Y0011630I0000000J0001125D01*
G01X0023220Y0008630D02*
G03X0022095Y0009755I0001125J0000000D01*
G03X0020970Y0008630I0000000J0001125D01*
G03X0022095Y0007505I0001125J0000000D01*
G03X0023220Y0008630I0000000J0001125D01*
G01X0031720Y0019130D02*
G03X0032845Y0018005I0001125J0000000D01*
G03X0033970Y0019130I0000000J0001125D01*
G03X0032845Y0020255I0001125J0000000D01*
G03X0031720Y0019130I0000000J0001125D01*
G01X0019040Y0020750D02*
G03X0017915Y0019625I0000000J0001125D01*
G03X0019040Y0018500I0001125J0000000D01*
G03X0020165Y0019625I0000000J0001125D01*
G03X0019040Y0020750I0001125J0000000D01*
G01X0028890Y0013670D02*
G03X0027765Y0012545I0000000J0001125D01*
G03X0028890Y0011420I0001125J0000000D01*
G03X0030015Y0012545I0000000J0001125D01*
G03X0028890Y0013670I0001125J0000000D01*
G54D52*
G01X-0000400Y-0000400D02*
X0043900D01*
Y0027350D01*
X-0000400D01*
Y-0000400D01*
G54D19*
X0014150Y0003960D03*
X0021140Y0023010D03*
X0018140D03*
X0025260Y0023030D03*
X0022260D03*
X0018040Y0011380D03*
X0015040D03*
X0019200Y0006910D03*
Y0009910D03*
X0009850Y0017720D03*
Y0020720D03*
X0005590Y0017720D03*
X0008590D03*
X0039220Y0009130D03*
Y0006130D03*
X0040720D03*
Y0009130D03*
X0024220Y0019630D03*
X0027220D03*
X0032720Y0016130D03*
X0029720D03*
X0036120Y0019990D03*
Y0022990D03*
X0029720Y0014630D03*
X0032720D03*
X0027720Y0018130D03*
X0030720D03*
X0032720Y0009130D03*
X0029720D03*
X0032720Y0007630D03*
X0029720D03*
X0040710Y0017140D03*
Y0014140D03*
X0016900Y0019480D03*
X0015900Y0017480D03*
X0014650Y0022980D03*
X0004000Y0014650D03*
Y0013650D03*
Y0012650D03*
Y0011650D03*
X0033690Y0022990D03*
X0032690D03*
X0031890Y0003960D03*
X0017160Y0006660D03*
X0015160D03*
X0006850Y0019840D03*
X0019040Y0019000D03*
X0011430Y0018690D03*
Y0020690D03*
X0037290Y0023000D03*
Y0021000D03*
X0028890Y0011920D03*
X0026220Y0018130D03*
X0024220D03*
X0005550Y0012640D03*
Y0014640D03*
X0022990Y0019630D03*
X0020990D03*
X0033470Y0019130D03*
X0032720Y0013130D03*
X0030720D03*
Y0019660D03*
X0028720D03*
X0021220Y0010630D03*
X0023220D03*
X0021470Y0008630D03*
X0039470Y0011630D03*
Y0019630D03*
G54D20*
X0013150Y0003960D03*
X0013650Y0022980D03*
X0004000Y0015650D03*
X0034690Y0022990D03*
X0032890Y0003960D03*
X0005600Y0019840D03*
X0019040Y0020250D03*
X0028890Y0013170D03*
X0032220Y0019130D03*
X0022720Y0008630D03*
X0040720Y0011630D03*
Y0019630D03*
M02*
