*
G04 Mass Parameters ***
*
G04 Image ***
*
%IND:\DATE\GPR\HARDWARE\SECTIUNEA_RF\GPR_RF.BOT*%
%ICAS*%
%MOIN*%
%IPPOS*%
%ASAXBY*%
G74*%FSLAN2X34Y34*%
*
G04 Aperture Definitions ***
*
%ADD10C,0.0580*%
%ADD11R,0.0580X0.0580*%
%ADD12C,0.0750*%
%ADD13R,0.0220X0.0220*%
%ADD14R,0.0500X0.0500*%
%ADD15C,0.0550*%
%ADD16R,0.0550X0.0550*%
%ADD17R,0.1000X0.0650*%
%ADD18R,0.0600X0.0600*%
%ADD19R,0.0370X0.0200*%
%ADD20R,0.0370X0.0310*%
%ADD21R,0.0310X0.0660*%
%ADD22C,0.0100*%
%ADD23C,0.0080*%
%ADD24C,0.0010*%
%ADD25C,0.0650*%
%ADD26C,0.0220*%
%ADD27C,0.0440*%
%ADD28C,0.0350*%
%ADD29C,0.0260*%
%ADD30C,0.0600*%
%ADD31C,0.0120*%
%ADD32C,0.0780*%
%ADD33R,0.0780X0.0780*%
%ADD34C,0.0950*%
%ADD35R,0.0750X0.0750*%
%ADD36C,0.0060*%
%ADD37C,0.0040*%
%ADD38R,0.0780X0.0600*%
%ADD39C,0.0400*%
%ADD40C,0.1100*%
%ADD41C,0.1000*%
%ADD42C,0.1400*%
%ADD43C,0.1050*%
%ADD44C,0.0500*%
*
G04 Plot Data ***
*
G54D22*
G01X0041715Y0001108D02*
X0041632Y0001192D01*
X0041590Y0001275D01*
Y0001442D01*
X0041632Y0001525D01*
X0041715Y0001608D01*
X0041798D01*
X0041882Y0001525D01*
X0041923Y0001442D01*
Y0001275D01*
X0041882Y0001192D01*
X0041798Y0001108D01*
X0041715D01*
X0041348D02*
X0041015D01*
X0041348Y0001442D01*
Y0001525D01*
X0041307Y0001608D01*
X0041057D01*
X0041015Y0001525D01*
X0040565Y0001108D02*
X0040482Y0001192D01*
X0040440Y0001275D01*
Y0001442D01*
X0040482Y0001525D01*
X0040565Y0001608D01*
X0040648D01*
X0040732Y0001525D01*
X0040773Y0001442D01*
Y0001275D01*
X0040732Y0001192D01*
X0040648Y0001108D01*
X0040565D01*
X0040198D02*
X0039865D01*
X0040198Y0001442D01*
Y0001525D01*
X0040157Y0001608D01*
X0039907D01*
X0039865Y0001525D01*
X0038861Y0001108D02*
Y0001358D01*
X0038819Y0001442D01*
X0038569D01*
Y0001108D01*
X0038286Y0001442D02*
Y0001108D01*
X0038328D02*
X0038036D01*
X0037994Y0001192D01*
Y0001442D01*
X0037503D02*
X0037669D01*
X0037711Y0001358D01*
Y0001192D01*
X0037753Y0001108D01*
X0037461D01*
X0037419Y0001192D01*
X0037461Y0001275D01*
X0037711D01*
X0036844Y0001358D02*
X0037094D01*
X0037178Y0001442D01*
Y0001525D01*
X0037094Y0001608D01*
X0036844D01*
Y0001108D01*
X0035840D02*
X0035673D01*
X0035757D02*
Y0001608D01*
X0035673D01*
X0035348Y0001108D02*
X0035098D01*
X0035057Y0001192D01*
Y0001358D01*
X0035098Y0001442D01*
X0035348D01*
X0035390Y0001358D01*
Y0001275D01*
X0035057D01*
X0034815Y0001442D02*
X0034648D01*
X0034607Y0001358D01*
X0034523D01*
Y0001442D02*
Y0001108D01*
X0034198Y0001608D02*
Y0001609D01*
X0034199D01*
Y0001608D01*
X0034198D01*
X0034282Y0001108D02*
X0034115D01*
X0034198D02*
Y0001442D01*
X0034115D01*
X0033832Y0001108D02*
Y0001608D01*
X0033748Y0001525D01*
X0033665Y0001358D01*
X0033582Y0001525D01*
X0033498Y0001608D01*
Y0001108D01*
X0032244Y0001608D02*
X0032494Y0001358D01*
X0032244Y0001108D01*
X0031919Y0001192D02*
X0031878Y0001108D01*
X0031628D01*
X0031586Y0001192D01*
Y0001525D01*
X0031628Y0001608D01*
X0031878D01*
X0031919Y0001525D01*
X0031344Y0001608D02*
X0031094Y0001358D01*
X0031344Y0001108D01*
X0013852Y0013641D02*
X0013215Y0013005D01*
X0012579Y0012368D02*
X0013215Y0013005D01*
X0013852Y0012368D02*
X0013215Y0013005D01*
X0012579Y0013641D02*
X0013215Y0013005D01*
X0026272Y0015766D02*
X0025635Y0015130D01*
X0024999Y0014493D02*
X0025635Y0015130D01*
X0026272Y0014493D02*
X0025635Y0015130D01*
X0024999Y0015766D02*
X0025635Y0015130D01*
X0031052Y0015766D02*
X0030415Y0015130D01*
X0029779Y0014493D02*
X0030415Y0015130D01*
X0031052Y0014493D02*
X0030415Y0015130D01*
X0029779Y0015766D02*
X0030415Y0015130D01*
X0030652Y0008716D02*
X0030015Y0008080D01*
X0029379Y0007443D02*
X0030015Y0008080D01*
X0030652Y0007443D02*
X0030015Y0008080D01*
X0029379Y0008716D02*
X0030015Y0008080D01*
X0039222Y0008716D02*
X0038585Y0008080D01*
X0037949Y0007443D02*
X0038585Y0008080D01*
X0039222Y0007443D02*
X0038585Y0008080D01*
X0037949Y0008716D02*
X0038585Y0008080D01*
X0014951Y0018754D02*
X0014215Y0019490D01*
X0013480Y0020225D02*
X0014215Y0019490D01*
X0014951Y0020225D02*
X0014215Y0019490D01*
X0014951Y0016754D02*
X0014215Y0017490D01*
X0013480Y0016754D02*
X0014215Y0017490D01*
X0014951Y0018225D02*
X0014215Y0017490D01*
X0012951Y0016754D02*
X0012215Y0017490D01*
X0011480Y0018225D02*
X0012215Y0017490D01*
X0011480Y0016754D02*
X0012215Y0017490D01*
X0011480Y0020225D02*
X0012215Y0019490D01*
X0011480Y0018754D02*
X0012215Y0019490D01*
X0012951Y0020225D02*
X0012215Y0019490D01*
X0014951Y0007784D02*
X0014215Y0008520D01*
X0013480Y0009255D02*
X0014215Y0008520D01*
X0014951Y0009255D02*
X0014215Y0008520D01*
X0014951Y0005784D02*
X0014215Y0006520D01*
X0013480Y0005784D02*
X0014215Y0006520D01*
X0014951Y0007255D02*
X0014215Y0006520D01*
X0012951Y0005784D02*
X0012215Y0006520D01*
X0011480Y0007255D02*
X0012215Y0006520D01*
X0011480Y0005784D02*
X0012215Y0006520D01*
X0011480Y0009255D02*
X0012215Y0008520D01*
X0011480Y0007784D02*
X0012215Y0008520D01*
X0012951Y0009255D02*
X0012215Y0008520D01*
X0041395Y0014300D02*
X0042435D01*
X0043475D02*
X0042435D01*
G54D24*
G01X0015205Y0008750D02*
X0015215Y0008280D01*
X0011105D02*
X0015215D01*
X0011105Y0008750D02*
Y0008280D01*
Y0008750D02*
X0015205D01*
X0011116D02*
Y0008280D01*
X0011125Y0008750D02*
Y0008280D01*
X0011134Y0008750D02*
Y0008280D01*
X0011143Y0008750D02*
Y0008280D01*
X0011152Y0008750D02*
Y0008280D01*
X0011161Y0008750D02*
Y0008280D01*
X0011170Y0008750D02*
Y0008280D01*
X0011179Y0008750D02*
Y0008280D01*
X0011188Y0008750D02*
Y0008280D01*
X0011197Y0008750D02*
Y0008280D01*
X0011206Y0008750D02*
Y0008280D01*
X0011215Y0008750D02*
Y0008280D01*
X0011224Y0008750D02*
Y0008280D01*
X0011233Y0008750D02*
Y0008280D01*
X0011242Y0008750D02*
Y0008280D01*
X0011251Y0008750D02*
Y0008280D01*
X0011260Y0008750D02*
Y0008280D01*
X0011269Y0008750D02*
Y0008280D01*
X0011278Y0008750D02*
Y0008280D01*
X0011287Y0008750D02*
Y0008280D01*
X0011296Y0008750D02*
Y0008280D01*
X0011305Y0008750D02*
Y0008280D01*
X0011314Y0008750D02*
Y0008280D01*
X0011323Y0008750D02*
Y0008280D01*
X0011332Y0008750D02*
Y0008280D01*
X0011341Y0008750D02*
Y0008280D01*
X0011350Y0008750D02*
Y0008280D01*
X0011359Y0008750D02*
Y0008280D01*
X0011368Y0008750D02*
Y0008280D01*
X0011377Y0008750D02*
Y0008280D01*
X0011386Y0008750D02*
Y0008280D01*
X0011395Y0008750D02*
Y0008280D01*
X0011404Y0008750D02*
Y0008280D01*
X0011413Y0008750D02*
Y0008280D01*
X0011422Y0008750D02*
Y0008280D01*
X0011431Y0008750D02*
Y0008280D01*
X0011440Y0008750D02*
Y0008280D01*
X0011449Y0008750D02*
Y0008280D01*
X0011458Y0008750D02*
Y0008280D01*
X0011467Y0008750D02*
Y0008280D01*
X0011476Y0008750D02*
Y0008280D01*
X0011485Y0008750D02*
Y0008280D01*
X0011494Y0008750D02*
Y0008280D01*
X0011503Y0008750D02*
Y0008280D01*
X0011512Y0008750D02*
Y0008280D01*
X0011521Y0008750D02*
Y0008280D01*
X0011530Y0008750D02*
Y0008280D01*
X0011539Y0008750D02*
Y0008280D01*
X0011548Y0008750D02*
Y0008280D01*
X0011557Y0008750D02*
Y0008280D01*
X0011566Y0008750D02*
Y0008280D01*
X0011575Y0008750D02*
Y0008280D01*
X0011584Y0008750D02*
Y0008280D01*
X0011593Y0008750D02*
Y0008280D01*
X0011602Y0008750D02*
Y0008280D01*
X0011611Y0008750D02*
Y0008280D01*
X0011620Y0008750D02*
Y0008280D01*
X0011629Y0008750D02*
Y0008280D01*
X0011638Y0008750D02*
Y0008280D01*
X0011647Y0008750D02*
Y0008280D01*
X0011656Y0008750D02*
Y0008280D01*
X0011665Y0008750D02*
Y0008280D01*
X0011674Y0008750D02*
Y0008280D01*
X0011683Y0008750D02*
Y0008280D01*
X0011692Y0008750D02*
Y0008280D01*
X0011701Y0008750D02*
Y0008280D01*
X0011710Y0008750D02*
Y0008280D01*
X0011719Y0008750D02*
Y0008280D01*
X0011728Y0008750D02*
Y0008280D01*
X0011737Y0008750D02*
Y0008280D01*
X0011746Y0008750D02*
Y0008280D01*
X0011755Y0008750D02*
Y0008280D01*
X0011764Y0008750D02*
Y0008280D01*
X0011773Y0008750D02*
Y0008280D01*
X0011782Y0008750D02*
Y0008280D01*
X0011791Y0008750D02*
Y0008280D01*
X0011800Y0008750D02*
Y0008280D01*
X0011809Y0008750D02*
Y0008280D01*
X0011818Y0008750D02*
Y0008280D01*
X0011827Y0008750D02*
Y0008280D01*
X0011836Y0008750D02*
Y0008280D01*
X0011845Y0008750D02*
Y0008280D01*
X0011854Y0008750D02*
Y0008280D01*
X0011863Y0008750D02*
Y0008280D01*
X0011872Y0008750D02*
Y0008280D01*
X0011881Y0008750D02*
Y0008280D01*
X0011890Y0008750D02*
Y0008280D01*
X0011899Y0008750D02*
Y0008280D01*
X0011908Y0008750D02*
Y0008280D01*
X0011917Y0008750D02*
Y0008280D01*
X0011926Y0008750D02*
Y0008280D01*
X0011935Y0008750D02*
Y0008280D01*
X0011944Y0008750D02*
Y0008280D01*
X0011953Y0008750D02*
Y0008280D01*
X0011962Y0008750D02*
Y0008280D01*
X0011971Y0008750D02*
Y0008280D01*
X0011980Y0008750D02*
Y0008280D01*
X0011989Y0008750D02*
Y0008280D01*
X0011998Y0008750D02*
Y0008280D01*
X0012007Y0008750D02*
Y0008280D01*
X0012016Y0008750D02*
Y0008280D01*
X0012025Y0008750D02*
Y0008280D01*
X0012034Y0008750D02*
Y0008280D01*
X0012043Y0008750D02*
Y0008280D01*
X0012052Y0008750D02*
Y0008280D01*
X0012061Y0008750D02*
Y0008280D01*
X0012070Y0008750D02*
Y0008280D01*
X0012079Y0008750D02*
Y0008280D01*
X0012088Y0008750D02*
Y0008280D01*
X0012097Y0008750D02*
Y0008280D01*
X0012106Y0008750D02*
Y0008280D01*
X0012115Y0008750D02*
Y0008280D01*
X0012124Y0008750D02*
Y0008280D01*
X0012133Y0008750D02*
Y0008280D01*
X0012142Y0008750D02*
Y0008280D01*
X0012151Y0008750D02*
Y0008280D01*
X0012160Y0008750D02*
Y0008280D01*
X0012169Y0008750D02*
Y0008280D01*
X0012178Y0008750D02*
Y0008280D01*
X0012187Y0008750D02*
Y0008280D01*
X0012196Y0008750D02*
Y0008280D01*
X0012205Y0008750D02*
Y0008280D01*
X0012214Y0008750D02*
Y0008280D01*
X0012223Y0008750D02*
Y0008280D01*
X0012232Y0008750D02*
Y0008280D01*
X0012241Y0008750D02*
Y0008280D01*
X0012250Y0008750D02*
Y0008280D01*
X0012259Y0008750D02*
Y0008280D01*
X0012268Y0008750D02*
Y0008280D01*
X0012277Y0008750D02*
Y0008280D01*
X0012286Y0008750D02*
Y0008280D01*
X0012295Y0008750D02*
Y0008280D01*
X0012304Y0008750D02*
Y0008280D01*
X0012313Y0008750D02*
Y0008280D01*
X0012322Y0008750D02*
Y0008280D01*
X0012331Y0008750D02*
Y0008280D01*
X0012340Y0008750D02*
Y0008280D01*
X0012349Y0008750D02*
Y0008280D01*
X0012358Y0008750D02*
Y0008280D01*
X0012367Y0008750D02*
Y0008280D01*
X0012376Y0008750D02*
Y0008280D01*
X0012385Y0008750D02*
Y0008280D01*
X0012394Y0008750D02*
Y0008280D01*
X0012403Y0008750D02*
Y0008280D01*
X0012412Y0008750D02*
Y0008280D01*
X0012421Y0008750D02*
Y0008280D01*
X0012430Y0008750D02*
Y0008280D01*
X0012439Y0008750D02*
Y0008280D01*
X0012448Y0008750D02*
Y0008280D01*
X0012457Y0008750D02*
Y0008280D01*
X0012466Y0008750D02*
Y0008280D01*
X0012475Y0008750D02*
Y0008280D01*
X0012484Y0008750D02*
Y0008280D01*
X0012493Y0008750D02*
Y0008280D01*
X0012502Y0008750D02*
Y0008280D01*
X0012511Y0008750D02*
Y0008280D01*
X0012520Y0008750D02*
Y0008280D01*
X0012529Y0008750D02*
Y0008280D01*
X0012538Y0008750D02*
Y0008280D01*
X0012547Y0008750D02*
Y0008280D01*
X0012556Y0008750D02*
Y0008280D01*
X0012565Y0008750D02*
Y0008280D01*
X0012574Y0008750D02*
Y0008280D01*
X0012583Y0008750D02*
Y0008280D01*
X0012592Y0008750D02*
Y0008280D01*
X0012601Y0008750D02*
Y0008280D01*
X0012610Y0008750D02*
Y0008280D01*
X0012619Y0008750D02*
Y0008280D01*
X0012628Y0008750D02*
Y0008280D01*
X0012637Y0008750D02*
Y0008280D01*
X0012646Y0008750D02*
Y0008280D01*
X0012655Y0008750D02*
Y0008280D01*
X0012664Y0008750D02*
Y0008280D01*
X0012673Y0008750D02*
Y0008280D01*
X0012682Y0008750D02*
Y0008280D01*
X0012691Y0008750D02*
Y0008280D01*
X0012700Y0008750D02*
Y0008280D01*
X0012709Y0008750D02*
Y0008280D01*
X0012718Y0008750D02*
Y0008280D01*
X0012727Y0008750D02*
Y0008280D01*
X0012736Y0008750D02*
Y0008280D01*
X0012745Y0008750D02*
Y0008280D01*
X0012754Y0008750D02*
Y0008280D01*
X0012763Y0008750D02*
Y0008280D01*
X0012772Y0008750D02*
Y0008280D01*
X0012781Y0008750D02*
Y0008280D01*
X0012790Y0008750D02*
Y0008280D01*
X0012799Y0008750D02*
Y0008280D01*
X0012808Y0008750D02*
Y0008280D01*
X0012817Y0008750D02*
Y0008280D01*
X0012826Y0008750D02*
Y0008280D01*
X0012835Y0008750D02*
Y0008280D01*
X0012844Y0008750D02*
Y0008280D01*
X0012853Y0008750D02*
Y0008280D01*
X0012862Y0008750D02*
Y0008280D01*
X0012871Y0008750D02*
Y0008280D01*
X0012880Y0008750D02*
Y0008280D01*
X0012889Y0008750D02*
Y0008280D01*
X0012898Y0008750D02*
Y0008280D01*
X0012907Y0008750D02*
Y0008280D01*
X0012916Y0008750D02*
Y0008280D01*
X0012925Y0008750D02*
Y0008280D01*
X0012934Y0008750D02*
Y0008280D01*
X0012943Y0008750D02*
Y0008280D01*
X0012952Y0008750D02*
Y0008280D01*
X0012961Y0008750D02*
Y0008280D01*
X0012970Y0008750D02*
Y0008280D01*
X0012979Y0008750D02*
Y0008280D01*
X0012988Y0008750D02*
Y0008280D01*
X0012997Y0008750D02*
Y0008280D01*
X0013006Y0008750D02*
Y0008280D01*
X0013015Y0008750D02*
Y0008280D01*
X0013024Y0008750D02*
Y0008280D01*
X0013033Y0008750D02*
Y0008280D01*
X0013042Y0008750D02*
Y0008280D01*
X0013051Y0008750D02*
Y0008280D01*
X0013060Y0008750D02*
Y0008280D01*
X0013069Y0008750D02*
Y0008280D01*
X0013078Y0008750D02*
Y0008280D01*
X0013087Y0008750D02*
Y0008280D01*
X0013096Y0008750D02*
Y0008280D01*
X0013105Y0008750D02*
Y0008280D01*
X0013114Y0008750D02*
Y0008280D01*
X0013123Y0008750D02*
Y0008280D01*
X0013132Y0008750D02*
Y0008280D01*
X0013141Y0008750D02*
Y0008280D01*
X0013150Y0008750D02*
Y0008280D01*
X0013159Y0008750D02*
Y0008280D01*
X0013168Y0008750D02*
Y0008280D01*
X0013177Y0008750D02*
Y0008280D01*
X0013186Y0008750D02*
Y0008280D01*
X0013195Y0008750D02*
Y0008280D01*
X0013204Y0008750D02*
Y0008280D01*
X0013213Y0008750D02*
Y0008280D01*
X0013222Y0008750D02*
Y0008280D01*
X0013231Y0008750D02*
Y0008280D01*
X0013240Y0008750D02*
Y0008280D01*
X0013249Y0008750D02*
Y0008280D01*
X0013258Y0008750D02*
Y0008280D01*
X0013267Y0008750D02*
Y0008280D01*
X0013276Y0008750D02*
Y0008280D01*
X0013285Y0008750D02*
Y0008280D01*
X0013294Y0008750D02*
Y0008280D01*
X0013303Y0008750D02*
Y0008280D01*
X0013312Y0008750D02*
Y0008280D01*
X0013321Y0008750D02*
Y0008280D01*
X0013330Y0008750D02*
Y0008280D01*
X0013339Y0008750D02*
Y0008280D01*
X0013348Y0008750D02*
Y0008280D01*
X0013357Y0008750D02*
Y0008280D01*
X0013366Y0008750D02*
Y0008280D01*
X0013375Y0008750D02*
Y0008280D01*
X0013384Y0008750D02*
Y0008280D01*
X0013393Y0008750D02*
Y0008280D01*
X0013402Y0008750D02*
Y0008280D01*
X0013411Y0008750D02*
Y0008280D01*
X0013420Y0008750D02*
Y0008280D01*
X0013429Y0008750D02*
Y0008280D01*
X0013438Y0008750D02*
Y0008280D01*
X0013447Y0008750D02*
Y0008280D01*
X0013456Y0008750D02*
Y0008280D01*
X0013465Y0008750D02*
Y0008280D01*
X0013474Y0008750D02*
Y0008280D01*
X0013483Y0008750D02*
Y0008280D01*
X0013492Y0008750D02*
Y0008280D01*
X0013501Y0008750D02*
Y0008280D01*
X0013510Y0008750D02*
Y0008280D01*
X0013519Y0008750D02*
Y0008280D01*
X0013528Y0008750D02*
Y0008280D01*
X0013537Y0008750D02*
Y0008280D01*
X0013546Y0008750D02*
Y0008280D01*
X0013555Y0008750D02*
Y0008280D01*
X0013564Y0008750D02*
Y0008280D01*
X0013573Y0008750D02*
Y0008280D01*
X0013582Y0008750D02*
Y0008280D01*
X0013591Y0008750D02*
Y0008280D01*
X0013600Y0008750D02*
Y0008280D01*
X0013609Y0008750D02*
Y0008280D01*
X0013618Y0008750D02*
Y0008280D01*
X0013627Y0008750D02*
Y0008280D01*
X0013636Y0008750D02*
Y0008280D01*
X0013645Y0008750D02*
Y0008280D01*
X0013654Y0008750D02*
Y0008280D01*
X0013663Y0008750D02*
Y0008280D01*
X0013672Y0008750D02*
Y0008280D01*
X0013681Y0008750D02*
Y0008280D01*
X0013690Y0008750D02*
Y0008280D01*
X0013699Y0008750D02*
Y0008280D01*
X0013708Y0008750D02*
Y0008280D01*
X0013717Y0008750D02*
Y0008280D01*
X0013726Y0008750D02*
Y0008280D01*
X0013735Y0008750D02*
Y0008280D01*
X0013744Y0008750D02*
Y0008280D01*
X0013753Y0008750D02*
Y0008280D01*
X0013762Y0008750D02*
Y0008280D01*
X0013771Y0008750D02*
Y0008280D01*
X0013780Y0008750D02*
Y0008280D01*
X0013789Y0008750D02*
Y0008280D01*
X0013798Y0008750D02*
Y0008280D01*
X0013807Y0008750D02*
Y0008280D01*
X0013816Y0008750D02*
Y0008280D01*
X0013825Y0008750D02*
Y0008280D01*
X0013834Y0008750D02*
Y0008280D01*
X0013843Y0008750D02*
Y0008280D01*
X0013852Y0008750D02*
Y0008280D01*
X0013861Y0008750D02*
Y0008280D01*
X0013870Y0008750D02*
Y0008280D01*
X0013879Y0008750D02*
Y0008280D01*
X0013888Y0008750D02*
Y0008280D01*
X0013897Y0008750D02*
Y0008280D01*
X0013906Y0008750D02*
Y0008280D01*
X0013915Y0008750D02*
Y0008280D01*
X0013924Y0008750D02*
Y0008280D01*
X0013933Y0008750D02*
Y0008280D01*
X0013942Y0008750D02*
Y0008280D01*
X0013951Y0008750D02*
Y0008280D01*
X0013960Y0008750D02*
Y0008280D01*
X0013969Y0008750D02*
Y0008280D01*
X0013978Y0008750D02*
Y0008280D01*
X0013987Y0008750D02*
Y0008280D01*
X0013996Y0008750D02*
Y0008280D01*
X0014005Y0008750D02*
Y0008280D01*
X0014014Y0008750D02*
Y0008280D01*
X0014023Y0008750D02*
Y0008280D01*
X0014032Y0008750D02*
Y0008280D01*
X0014041Y0008750D02*
Y0008280D01*
X0014050Y0008750D02*
Y0008280D01*
X0014059Y0008750D02*
Y0008280D01*
X0014068Y0008750D02*
Y0008280D01*
X0014077Y0008750D02*
Y0008280D01*
X0014086Y0008750D02*
Y0008280D01*
X0014095Y0008750D02*
Y0008280D01*
X0014104Y0008750D02*
Y0008280D01*
X0014113Y0008750D02*
Y0008280D01*
X0014122Y0008750D02*
Y0008280D01*
X0014131Y0008750D02*
Y0008280D01*
X0014140Y0008750D02*
Y0008280D01*
X0014149Y0008750D02*
Y0008280D01*
X0014158Y0008750D02*
Y0008280D01*
X0014167Y0008750D02*
Y0008280D01*
X0014176Y0008750D02*
Y0008280D01*
X0014185Y0008750D02*
Y0008280D01*
X0014194Y0008750D02*
Y0008280D01*
X0014203Y0008750D02*
Y0008280D01*
X0014212Y0008750D02*
Y0008280D01*
X0014221Y0008750D02*
Y0008280D01*
X0014230Y0008750D02*
Y0008280D01*
X0014239Y0008750D02*
Y0008280D01*
X0014248Y0008750D02*
Y0008280D01*
X0014257Y0008750D02*
Y0008280D01*
X0014266Y0008750D02*
Y0008280D01*
X0014275Y0008750D02*
Y0008280D01*
X0014284Y0008750D02*
Y0008280D01*
X0014293Y0008750D02*
Y0008280D01*
X0014302Y0008750D02*
Y0008280D01*
X0014311Y0008750D02*
Y0008280D01*
X0014320Y0008750D02*
Y0008280D01*
X0014329Y0008750D02*
Y0008280D01*
X0014338Y0008750D02*
Y0008280D01*
X0014347Y0008750D02*
Y0008280D01*
X0014356Y0008750D02*
Y0008280D01*
X0014365Y0008750D02*
Y0008280D01*
X0014374Y0008750D02*
Y0008280D01*
X0014383Y0008750D02*
Y0008280D01*
X0014392Y0008750D02*
Y0008280D01*
X0014401Y0008750D02*
Y0008280D01*
X0014410Y0008750D02*
Y0008280D01*
X0014419Y0008750D02*
Y0008280D01*
X0014428Y0008750D02*
Y0008280D01*
X0014437Y0008750D02*
Y0008280D01*
X0014446Y0008750D02*
Y0008280D01*
X0014455Y0008750D02*
Y0008280D01*
X0014464Y0008750D02*
Y0008280D01*
X0014473Y0008750D02*
Y0008280D01*
X0014482Y0008750D02*
Y0008280D01*
X0014491Y0008750D02*
Y0008280D01*
X0014500Y0008750D02*
Y0008280D01*
X0014509Y0008750D02*
Y0008280D01*
X0014518Y0008750D02*
Y0008280D01*
X0014527Y0008750D02*
Y0008280D01*
X0014536Y0008750D02*
Y0008280D01*
X0014545Y0008750D02*
Y0008280D01*
X0014554Y0008750D02*
Y0008280D01*
X0014563Y0008750D02*
Y0008280D01*
X0014572Y0008750D02*
Y0008280D01*
X0014581Y0008750D02*
Y0008280D01*
X0014590Y0008750D02*
Y0008280D01*
X0014599Y0008750D02*
Y0008280D01*
X0014608Y0008750D02*
Y0008280D01*
X0014617Y0008750D02*
Y0008280D01*
X0014626Y0008750D02*
Y0008280D01*
X0014635Y0008750D02*
Y0008280D01*
X0014644Y0008750D02*
Y0008280D01*
X0014653Y0008750D02*
Y0008280D01*
X0014662Y0008750D02*
Y0008280D01*
X0014671Y0008750D02*
Y0008280D01*
X0014680Y0008750D02*
Y0008280D01*
X0014689Y0008750D02*
Y0008280D01*
X0014698Y0008750D02*
Y0008280D01*
X0014707Y0008750D02*
Y0008280D01*
X0014716Y0008750D02*
Y0008280D01*
X0014725Y0008750D02*
Y0008280D01*
X0014734Y0008750D02*
Y0008280D01*
X0014743Y0008750D02*
Y0008280D01*
X0014752Y0008750D02*
Y0008280D01*
X0014761Y0008750D02*
Y0008280D01*
X0014770Y0008750D02*
Y0008280D01*
X0014779Y0008750D02*
Y0008280D01*
X0014788Y0008750D02*
Y0008280D01*
X0014797Y0008750D02*
Y0008280D01*
X0014806Y0008750D02*
Y0008280D01*
X0014815Y0008750D02*
Y0008280D01*
X0014824Y0008750D02*
Y0008280D01*
X0014833Y0008750D02*
Y0008280D01*
X0014842Y0008750D02*
Y0008280D01*
X0014851Y0008750D02*
Y0008280D01*
X0014860Y0008750D02*
Y0008280D01*
X0014869Y0008750D02*
Y0008280D01*
X0014878Y0008750D02*
Y0008280D01*
X0014887Y0008750D02*
Y0008280D01*
X0014896Y0008750D02*
Y0008280D01*
X0014905Y0008750D02*
Y0008280D01*
X0014914Y0008750D02*
Y0008280D01*
X0014923Y0008750D02*
Y0008280D01*
X0014932Y0008750D02*
Y0008280D01*
X0014941Y0008750D02*
Y0008280D01*
X0014950Y0008750D02*
Y0008280D01*
X0014959Y0008750D02*
Y0008280D01*
X0014968Y0008750D02*
Y0008280D01*
X0014977Y0008750D02*
Y0008280D01*
X0014986Y0008750D02*
Y0008280D01*
X0014995Y0008750D02*
Y0008280D01*
X0015004Y0008750D02*
Y0008280D01*
X0015013Y0008750D02*
Y0008280D01*
X0015022Y0008750D02*
Y0008280D01*
X0015031Y0008750D02*
Y0008280D01*
X0015040Y0008750D02*
Y0008280D01*
X0015049Y0008750D02*
Y0008280D01*
X0015058Y0008750D02*
Y0008280D01*
X0015067Y0008750D02*
Y0008280D01*
X0015076Y0008750D02*
Y0008280D01*
X0015085Y0008750D02*
Y0008280D01*
X0015094Y0008750D02*
Y0008280D01*
X0015103Y0008750D02*
Y0008280D01*
X0015112Y0008750D02*
Y0008280D01*
X0015121Y0008750D02*
Y0008280D01*
X0015130Y0008750D02*
Y0008280D01*
X0015139Y0008750D02*
Y0008280D01*
X0015148Y0008750D02*
Y0008280D01*
X0015157Y0008750D02*
Y0008280D01*
X0015166Y0008750D02*
Y0008280D01*
X0015175Y0008750D02*
Y0008280D01*
X0015184Y0008750D02*
Y0008280D01*
X0015193Y0008750D02*
Y0008280D01*
X0015202Y0008750D02*
Y0008280D01*
X0011105Y0008743D02*
X0015205D01*
X0011105Y0008734D02*
X0015206D01*
X0011105Y0008725D02*
X0015206D01*
X0011105Y0008716D02*
X0015206D01*
X0011105Y0008707D02*
X0015206D01*
X0011105Y0008698D02*
X0015206D01*
X0011105Y0008689D02*
X0015206D01*
X0011105Y0008680D02*
X0015207D01*
X0011105Y0008671D02*
X0015207D01*
X0011105Y0008662D02*
X0015207D01*
X0011105Y0008653D02*
X0015207D01*
X0011105Y0008644D02*
X0015207D01*
X0011105Y0008635D02*
X0015208D01*
X0011105Y0008626D02*
X0015208D01*
X0011105Y0008617D02*
X0015208D01*
X0011105Y0008608D02*
X0015208D01*
X0011105Y0008599D02*
X0015208D01*
X0011105Y0008590D02*
X0015209D01*
X0011105Y0008581D02*
X0015209D01*
X0011105Y0008572D02*
X0015209D01*
X0011105Y0008563D02*
X0015209D01*
X0011105Y0008554D02*
X0015209D01*
X0011105Y0008545D02*
X0015210D01*
X0011105Y0008536D02*
X0015210D01*
X0011105Y0008527D02*
X0015210D01*
X0011105Y0008518D02*
X0015210D01*
X0011105Y0008509D02*
X0015210D01*
X0011105Y0008500D02*
X0015210D01*
X0011105Y0008491D02*
X0015211D01*
X0011105Y0008482D02*
X0015211D01*
X0011105Y0008473D02*
X0015211D01*
X0011105Y0008464D02*
X0015211D01*
X0011105Y0008455D02*
X0015211D01*
X0011105Y0008446D02*
X0015212D01*
X0011105Y0008437D02*
X0015212D01*
X0011105Y0008428D02*
X0015212D01*
X0011105Y0008419D02*
X0015212D01*
X0011105Y0008410D02*
X0015212D01*
X0011105Y0008401D02*
X0015213D01*
X0011105Y0008392D02*
X0015213D01*
X0011105Y0008383D02*
X0015213D01*
X0011105Y0008374D02*
X0015213D01*
X0011105Y0008365D02*
X0015213D01*
X0011105Y0008356D02*
X0015214D01*
X0011105Y0008347D02*
X0015214D01*
X0011105Y0008338D02*
X0015214D01*
X0011105Y0008329D02*
X0015214D01*
X0011105Y0008320D02*
X0015214D01*
X0011105Y0008311D02*
X0015215D01*
X0011105Y0008302D02*
X0015215D01*
X0011105Y0008293D02*
X0015215D01*
X0015325Y0017700D02*
X0015315Y0017250D01*
X0011055D02*
X0015315D01*
X0011055Y0017700D02*
Y0017250D01*
Y0017700D02*
X0015325D01*
X0011064D02*
Y0017250D01*
X0011073Y0017700D02*
Y0017250D01*
X0011082Y0017700D02*
Y0017250D01*
X0011091Y0017700D02*
Y0017250D01*
X0011100Y0017700D02*
Y0017250D01*
X0011109Y0017700D02*
Y0017250D01*
X0011118Y0017700D02*
Y0017250D01*
X0011127Y0017700D02*
Y0017250D01*
X0011136Y0017700D02*
Y0017250D01*
X0011145Y0017700D02*
Y0017250D01*
X0011154Y0017700D02*
Y0017250D01*
X0011163Y0017700D02*
Y0017250D01*
X0011172Y0017700D02*
Y0017250D01*
X0011181Y0017700D02*
Y0017250D01*
X0011190Y0017700D02*
Y0017250D01*
X0011199Y0017700D02*
Y0017250D01*
X0011208Y0017700D02*
Y0017250D01*
X0011217Y0017700D02*
Y0017250D01*
X0011226Y0017700D02*
Y0017250D01*
X0011235Y0017700D02*
Y0017250D01*
X0011244Y0017700D02*
Y0017250D01*
X0011253Y0017700D02*
Y0017250D01*
X0011262Y0017700D02*
Y0017250D01*
X0011271Y0017700D02*
Y0017250D01*
X0011280Y0017700D02*
Y0017250D01*
X0011289Y0017700D02*
Y0017250D01*
X0011298Y0017700D02*
Y0017250D01*
X0011307Y0017700D02*
Y0017250D01*
X0011316Y0017700D02*
Y0017250D01*
X0011325Y0017700D02*
Y0017250D01*
X0011334Y0017700D02*
Y0017250D01*
X0011343Y0017700D02*
Y0017250D01*
X0011352Y0017700D02*
Y0017250D01*
X0011361Y0017700D02*
Y0017250D01*
X0011370Y0017700D02*
Y0017250D01*
X0011379Y0017700D02*
Y0017250D01*
X0011388Y0017700D02*
Y0017250D01*
X0011397Y0017700D02*
Y0017250D01*
X0011406Y0017700D02*
Y0017250D01*
X0011415Y0017700D02*
Y0017250D01*
X0011424Y0017700D02*
Y0017250D01*
X0011433Y0017700D02*
Y0017250D01*
X0011442Y0017700D02*
Y0017250D01*
X0011451Y0017700D02*
Y0017250D01*
X0011460Y0017700D02*
Y0017250D01*
X0011469Y0017700D02*
Y0017250D01*
X0011478Y0017700D02*
Y0017250D01*
X0011487Y0017700D02*
Y0017250D01*
X0011496Y0017700D02*
Y0017250D01*
X0011505Y0017700D02*
Y0017250D01*
X0011514Y0017700D02*
Y0017250D01*
X0011523Y0017700D02*
Y0017250D01*
X0011532Y0017700D02*
Y0017250D01*
X0011541Y0017700D02*
Y0017250D01*
X0011550Y0017700D02*
Y0017250D01*
X0011559Y0017700D02*
Y0017250D01*
X0011568Y0017700D02*
Y0017250D01*
X0011577Y0017700D02*
Y0017250D01*
X0011586Y0017700D02*
Y0017250D01*
X0011595Y0017700D02*
Y0017250D01*
X0011604Y0017700D02*
Y0017250D01*
X0011613Y0017700D02*
Y0017250D01*
X0011622Y0017700D02*
Y0017250D01*
X0011631Y0017700D02*
Y0017250D01*
X0011640Y0017700D02*
Y0017250D01*
X0011649Y0017700D02*
Y0017250D01*
X0011658Y0017700D02*
Y0017250D01*
X0011667Y0017700D02*
Y0017250D01*
X0011676Y0017700D02*
Y0017250D01*
X0011685Y0017700D02*
Y0017250D01*
X0011694Y0017700D02*
Y0017250D01*
X0011703Y0017700D02*
Y0017250D01*
X0011712Y0017700D02*
Y0017250D01*
X0011721Y0017700D02*
Y0017250D01*
X0011730Y0017700D02*
Y0017250D01*
X0011739Y0017700D02*
Y0017250D01*
X0011748Y0017700D02*
Y0017250D01*
X0011757Y0017700D02*
Y0017250D01*
X0011766Y0017700D02*
Y0017250D01*
X0011775Y0017700D02*
Y0017250D01*
X0011784Y0017700D02*
Y0017250D01*
X0011793Y0017700D02*
Y0017250D01*
X0011802Y0017700D02*
Y0017250D01*
X0011811Y0017700D02*
Y0017250D01*
X0011820Y0017700D02*
Y0017250D01*
X0011829Y0017700D02*
Y0017250D01*
X0011838Y0017700D02*
Y0017250D01*
X0011847Y0017700D02*
Y0017250D01*
X0011856Y0017700D02*
Y0017250D01*
X0011865Y0017700D02*
Y0017250D01*
X0011874Y0017700D02*
Y0017250D01*
X0011883Y0017700D02*
Y0017250D01*
X0011892Y0017700D02*
Y0017250D01*
X0011901Y0017700D02*
Y0017250D01*
X0011910Y0017700D02*
Y0017250D01*
X0011919Y0017700D02*
Y0017250D01*
X0011928Y0017700D02*
Y0017250D01*
X0011937Y0017700D02*
Y0017250D01*
X0011946Y0017700D02*
Y0017250D01*
X0011955Y0017700D02*
Y0017250D01*
X0011964Y0017700D02*
Y0017250D01*
X0011973Y0017700D02*
Y0017250D01*
X0011982Y0017700D02*
Y0017250D01*
X0011991Y0017700D02*
Y0017250D01*
X0012000Y0017700D02*
Y0017250D01*
X0012009Y0017700D02*
Y0017250D01*
X0012018Y0017700D02*
Y0017250D01*
X0012027Y0017700D02*
Y0017250D01*
X0012036Y0017700D02*
Y0017250D01*
X0012045Y0017700D02*
Y0017250D01*
X0012054Y0017700D02*
Y0017250D01*
X0012063Y0017700D02*
Y0017250D01*
X0012072Y0017700D02*
Y0017250D01*
X0012081Y0017700D02*
Y0017250D01*
X0012090Y0017700D02*
Y0017250D01*
X0012099Y0017700D02*
Y0017250D01*
X0012108Y0017700D02*
Y0017250D01*
X0012117Y0017700D02*
Y0017250D01*
X0012126Y0017700D02*
Y0017250D01*
X0012135Y0017700D02*
Y0017250D01*
X0012144Y0017700D02*
Y0017250D01*
X0012153Y0017700D02*
Y0017250D01*
X0012162Y0017700D02*
Y0017250D01*
X0012171Y0017700D02*
Y0017250D01*
X0012180Y0017700D02*
Y0017250D01*
X0012189Y0017700D02*
Y0017250D01*
X0012198Y0017700D02*
Y0017250D01*
X0012207Y0017700D02*
Y0017250D01*
X0012216Y0017700D02*
Y0017250D01*
X0012225Y0017700D02*
Y0017250D01*
X0012234Y0017700D02*
Y0017250D01*
X0012243Y0017700D02*
Y0017250D01*
X0012252Y0017700D02*
Y0017250D01*
X0012261Y0017700D02*
Y0017250D01*
X0012270Y0017700D02*
Y0017250D01*
X0012279Y0017700D02*
Y0017250D01*
X0012288Y0017700D02*
Y0017250D01*
X0012297Y0017700D02*
Y0017250D01*
X0012306Y0017700D02*
Y0017250D01*
X0012315Y0017700D02*
Y0017250D01*
X0012324Y0017700D02*
Y0017250D01*
X0012333Y0017700D02*
Y0017250D01*
X0012342Y0017700D02*
Y0017250D01*
X0012351Y0017700D02*
Y0017250D01*
X0012360Y0017700D02*
Y0017250D01*
X0012369Y0017700D02*
Y0017250D01*
X0012378Y0017700D02*
Y0017250D01*
X0012387Y0017700D02*
Y0017250D01*
X0012396Y0017700D02*
Y0017250D01*
X0012405Y0017700D02*
Y0017250D01*
X0012414Y0017700D02*
Y0017250D01*
X0012423Y0017700D02*
Y0017250D01*
X0012432Y0017700D02*
Y0017250D01*
X0012441Y0017700D02*
Y0017250D01*
X0012450Y0017700D02*
Y0017250D01*
X0012459Y0017700D02*
Y0017250D01*
X0012468Y0017700D02*
Y0017250D01*
X0012477Y0017700D02*
Y0017250D01*
X0012486Y0017700D02*
Y0017250D01*
X0012495Y0017700D02*
Y0017250D01*
X0012504Y0017700D02*
Y0017250D01*
X0012513Y0017700D02*
Y0017250D01*
X0012522Y0017700D02*
Y0017250D01*
X0012531Y0017700D02*
Y0017250D01*
X0012540Y0017700D02*
Y0017250D01*
X0012549Y0017700D02*
Y0017250D01*
X0012558Y0017700D02*
Y0017250D01*
X0012567Y0017700D02*
Y0017250D01*
X0012576Y0017700D02*
Y0017250D01*
X0012585Y0017700D02*
Y0017250D01*
X0012594Y0017700D02*
Y0017250D01*
X0012603Y0017700D02*
Y0017250D01*
X0012612Y0017700D02*
Y0017250D01*
X0012621Y0017700D02*
Y0017250D01*
X0012630Y0017700D02*
Y0017250D01*
X0012639Y0017700D02*
Y0017250D01*
X0012648Y0017700D02*
Y0017250D01*
X0012657Y0017700D02*
Y0017250D01*
X0012666Y0017700D02*
Y0017250D01*
X0012675Y0017700D02*
Y0017250D01*
X0012684Y0017700D02*
Y0017250D01*
X0012693Y0017700D02*
Y0017250D01*
X0012702Y0017700D02*
Y0017250D01*
X0012711Y0017700D02*
Y0017250D01*
X0012720Y0017700D02*
Y0017250D01*
X0012729Y0017700D02*
Y0017250D01*
X0012738Y0017700D02*
Y0017250D01*
X0012747Y0017700D02*
Y0017250D01*
X0012756Y0017700D02*
Y0017250D01*
X0012765Y0017700D02*
Y0017250D01*
X0012774Y0017700D02*
Y0017250D01*
X0012783Y0017700D02*
Y0017250D01*
X0012792Y0017700D02*
Y0017250D01*
X0012801Y0017700D02*
Y0017250D01*
X0012810Y0017700D02*
Y0017250D01*
X0012819Y0017700D02*
Y0017250D01*
X0012828Y0017700D02*
Y0017250D01*
X0012837Y0017700D02*
Y0017250D01*
X0012846Y0017700D02*
Y0017250D01*
X0012855Y0017700D02*
Y0017250D01*
X0012864Y0017700D02*
Y0017250D01*
X0012873Y0017700D02*
Y0017250D01*
X0012882Y0017700D02*
Y0017250D01*
X0012891Y0017700D02*
Y0017250D01*
X0012900Y0017700D02*
Y0017250D01*
X0012909Y0017700D02*
Y0017250D01*
X0012918Y0017700D02*
Y0017250D01*
X0012927Y0017700D02*
Y0017250D01*
X0012936Y0017700D02*
Y0017250D01*
X0012945Y0017700D02*
Y0017250D01*
X0012954Y0017700D02*
Y0017250D01*
X0012963Y0017700D02*
Y0017250D01*
X0012972Y0017700D02*
Y0017250D01*
X0012981Y0017700D02*
Y0017250D01*
X0012990Y0017700D02*
Y0017250D01*
X0012999Y0017700D02*
Y0017250D01*
X0013008Y0017700D02*
Y0017250D01*
X0013017Y0017700D02*
Y0017250D01*
X0013026Y0017700D02*
Y0017250D01*
X0013035Y0017700D02*
Y0017250D01*
X0013044Y0017700D02*
Y0017250D01*
X0013053Y0017700D02*
Y0017250D01*
X0013062Y0017700D02*
Y0017250D01*
X0013071Y0017700D02*
Y0017250D01*
X0013080Y0017700D02*
Y0017250D01*
X0013089Y0017700D02*
Y0017250D01*
X0013098Y0017700D02*
Y0017250D01*
X0013107Y0017700D02*
Y0017250D01*
X0013116Y0017700D02*
Y0017250D01*
X0013125Y0017700D02*
Y0017250D01*
X0013134Y0017700D02*
Y0017250D01*
X0013143Y0017700D02*
Y0017250D01*
X0013152Y0017700D02*
Y0017250D01*
X0013161Y0017700D02*
Y0017250D01*
X0013170Y0017700D02*
Y0017250D01*
X0013179Y0017700D02*
Y0017250D01*
X0013188Y0017700D02*
Y0017250D01*
X0013197Y0017700D02*
Y0017250D01*
X0013206Y0017700D02*
Y0017250D01*
X0013215Y0017700D02*
Y0017250D01*
X0013224Y0017700D02*
Y0017250D01*
X0013233Y0017700D02*
Y0017250D01*
X0013242Y0017700D02*
Y0017250D01*
X0013251Y0017700D02*
Y0017250D01*
X0013260Y0017700D02*
Y0017250D01*
X0013269Y0017700D02*
Y0017250D01*
X0013278Y0017700D02*
Y0017250D01*
X0013287Y0017700D02*
Y0017250D01*
X0013296Y0017700D02*
Y0017250D01*
X0013305Y0017700D02*
Y0017250D01*
X0013314Y0017700D02*
Y0017250D01*
X0013323Y0017700D02*
Y0017250D01*
X0013332Y0017700D02*
Y0017250D01*
X0013341Y0017700D02*
Y0017250D01*
X0013350Y0017700D02*
Y0017250D01*
X0013359Y0017700D02*
Y0017250D01*
X0013368Y0017700D02*
Y0017250D01*
X0013377Y0017700D02*
Y0017250D01*
X0013386Y0017700D02*
Y0017250D01*
X0013395Y0017700D02*
Y0017250D01*
X0013404Y0017700D02*
Y0017250D01*
X0013413Y0017700D02*
Y0017250D01*
X0013422Y0017700D02*
Y0017250D01*
X0013431Y0017700D02*
Y0017250D01*
X0013440Y0017700D02*
Y0017250D01*
X0013449Y0017700D02*
Y0017250D01*
X0013458Y0017700D02*
Y0017250D01*
X0013467Y0017700D02*
Y0017250D01*
X0013476Y0017700D02*
Y0017250D01*
X0013485Y0017700D02*
Y0017250D01*
X0013494Y0017700D02*
Y0017250D01*
X0013503Y0017700D02*
Y0017250D01*
X0013512Y0017700D02*
Y0017250D01*
X0013521Y0017700D02*
Y0017250D01*
X0013530Y0017700D02*
Y0017250D01*
X0013539Y0017700D02*
Y0017250D01*
X0013548Y0017700D02*
Y0017250D01*
X0013557Y0017700D02*
Y0017250D01*
X0013566Y0017700D02*
Y0017250D01*
X0013575Y0017700D02*
Y0017250D01*
X0013584Y0017700D02*
Y0017250D01*
X0013593Y0017700D02*
Y0017250D01*
X0013602Y0017700D02*
Y0017250D01*
X0013611Y0017700D02*
Y0017250D01*
X0013620Y0017700D02*
Y0017250D01*
X0013629Y0017700D02*
Y0017250D01*
X0013638Y0017700D02*
Y0017250D01*
X0013647Y0017700D02*
Y0017250D01*
X0013656Y0017700D02*
Y0017250D01*
X0013665Y0017700D02*
Y0017250D01*
X0013674Y0017700D02*
Y0017250D01*
X0013683Y0017700D02*
Y0017250D01*
X0013692Y0017700D02*
Y0017250D01*
X0013701Y0017700D02*
Y0017250D01*
X0013710Y0017700D02*
Y0017250D01*
X0013719Y0017700D02*
Y0017250D01*
X0013728Y0017700D02*
Y0017250D01*
X0013737Y0017700D02*
Y0017250D01*
X0013746Y0017700D02*
Y0017250D01*
X0013755Y0017700D02*
Y0017250D01*
X0013764Y0017700D02*
Y0017250D01*
X0013773Y0017700D02*
Y0017250D01*
X0013782Y0017700D02*
Y0017250D01*
X0013791Y0017700D02*
Y0017250D01*
X0013800Y0017700D02*
Y0017250D01*
X0013809Y0017700D02*
Y0017250D01*
X0013818Y0017700D02*
Y0017250D01*
X0013827Y0017700D02*
Y0017250D01*
X0013836Y0017700D02*
Y0017250D01*
X0013845Y0017700D02*
Y0017250D01*
X0013854Y0017700D02*
Y0017250D01*
X0013863Y0017700D02*
Y0017250D01*
X0013872Y0017700D02*
Y0017250D01*
X0013881Y0017700D02*
Y0017250D01*
X0013890Y0017700D02*
Y0017250D01*
X0013899Y0017700D02*
Y0017250D01*
X0013908Y0017700D02*
Y0017250D01*
X0013917Y0017700D02*
Y0017250D01*
X0013926Y0017700D02*
Y0017250D01*
X0013935Y0017700D02*
Y0017250D01*
X0013944Y0017700D02*
Y0017250D01*
X0013953Y0017700D02*
Y0017250D01*
X0013962Y0017700D02*
Y0017250D01*
X0013971Y0017700D02*
Y0017250D01*
X0013980Y0017700D02*
Y0017250D01*
X0013989Y0017700D02*
Y0017250D01*
X0013998Y0017700D02*
Y0017250D01*
X0014007Y0017700D02*
Y0017250D01*
X0014016Y0017700D02*
Y0017250D01*
X0014025Y0017700D02*
Y0017250D01*
X0014034Y0017700D02*
Y0017250D01*
X0014043Y0017700D02*
Y0017250D01*
X0014052Y0017700D02*
Y0017250D01*
X0014061Y0017700D02*
Y0017250D01*
X0014070Y0017700D02*
Y0017250D01*
X0014079Y0017700D02*
Y0017250D01*
X0014088Y0017700D02*
Y0017250D01*
X0014097Y0017700D02*
Y0017250D01*
X0014106Y0017700D02*
Y0017250D01*
X0014115Y0017700D02*
Y0017250D01*
X0014124Y0017700D02*
Y0017250D01*
X0014133Y0017700D02*
Y0017250D01*
X0014142Y0017700D02*
Y0017250D01*
X0014151Y0017700D02*
Y0017250D01*
X0014160Y0017700D02*
Y0017250D01*
X0014169Y0017700D02*
Y0017250D01*
X0014178Y0017700D02*
Y0017250D01*
X0014187Y0017700D02*
Y0017250D01*
X0014196Y0017700D02*
Y0017250D01*
X0014205Y0017700D02*
Y0017250D01*
X0014214Y0017700D02*
Y0017250D01*
X0014223Y0017700D02*
Y0017250D01*
X0014232Y0017700D02*
Y0017250D01*
X0014241Y0017700D02*
Y0017250D01*
X0014250Y0017700D02*
Y0017250D01*
X0014259Y0017700D02*
Y0017250D01*
X0014268Y0017700D02*
Y0017250D01*
X0014277Y0017700D02*
Y0017250D01*
X0014286Y0017700D02*
Y0017250D01*
X0014295Y0017700D02*
Y0017250D01*
X0014304Y0017700D02*
Y0017250D01*
X0014313Y0017700D02*
Y0017250D01*
X0014322Y0017700D02*
Y0017250D01*
X0014331Y0017700D02*
Y0017250D01*
X0014340Y0017700D02*
Y0017250D01*
X0014349Y0017700D02*
Y0017250D01*
X0014358Y0017700D02*
Y0017250D01*
X0014367Y0017700D02*
Y0017250D01*
X0014376Y0017700D02*
Y0017250D01*
X0014385Y0017700D02*
Y0017250D01*
X0014394Y0017700D02*
Y0017250D01*
X0014403Y0017700D02*
Y0017250D01*
X0014412Y0017700D02*
Y0017250D01*
X0014421Y0017700D02*
Y0017250D01*
X0014430Y0017700D02*
Y0017250D01*
X0014439Y0017700D02*
Y0017250D01*
X0014448Y0017700D02*
Y0017250D01*
X0014457Y0017700D02*
Y0017250D01*
X0014466Y0017700D02*
Y0017250D01*
X0014475Y0017700D02*
Y0017250D01*
X0014484Y0017700D02*
Y0017250D01*
X0014493Y0017700D02*
Y0017250D01*
X0014502Y0017700D02*
Y0017250D01*
X0014511Y0017700D02*
Y0017250D01*
X0014520Y0017700D02*
Y0017250D01*
X0014529Y0017700D02*
Y0017250D01*
X0014538Y0017700D02*
Y0017250D01*
X0014547Y0017700D02*
Y0017250D01*
X0014556Y0017700D02*
Y0017250D01*
X0014565Y0017700D02*
Y0017250D01*
X0014574Y0017700D02*
Y0017250D01*
X0014583Y0017700D02*
Y0017250D01*
X0014592Y0017700D02*
Y0017250D01*
X0014601Y0017700D02*
Y0017250D01*
X0014610Y0017700D02*
Y0017250D01*
X0014619Y0017700D02*
Y0017250D01*
X0014628Y0017700D02*
Y0017250D01*
X0014637Y0017700D02*
Y0017250D01*
X0014646Y0017700D02*
Y0017250D01*
X0014655Y0017700D02*
Y0017250D01*
X0014664Y0017700D02*
Y0017250D01*
X0014673Y0017700D02*
Y0017250D01*
X0014682Y0017700D02*
Y0017250D01*
X0014691Y0017700D02*
Y0017250D01*
X0014700Y0017700D02*
Y0017250D01*
X0014709Y0017700D02*
Y0017250D01*
X0014718Y0017700D02*
Y0017250D01*
X0014727Y0017700D02*
Y0017250D01*
X0014736Y0017700D02*
Y0017250D01*
X0014745Y0017700D02*
Y0017250D01*
X0014754Y0017700D02*
Y0017250D01*
X0014763Y0017700D02*
Y0017250D01*
X0014772Y0017700D02*
Y0017250D01*
X0014781Y0017700D02*
Y0017250D01*
X0014790Y0017700D02*
Y0017250D01*
X0014799Y0017700D02*
Y0017250D01*
X0014808Y0017700D02*
Y0017250D01*
X0014817Y0017700D02*
Y0017250D01*
X0014826Y0017700D02*
Y0017250D01*
X0014835Y0017700D02*
Y0017250D01*
X0014844Y0017700D02*
Y0017250D01*
X0014853Y0017700D02*
Y0017250D01*
X0014862Y0017700D02*
Y0017250D01*
X0014871Y0017700D02*
Y0017250D01*
X0014880Y0017700D02*
Y0017250D01*
X0014889Y0017700D02*
Y0017250D01*
X0014898Y0017700D02*
Y0017250D01*
X0014907Y0017700D02*
Y0017250D01*
X0014916Y0017700D02*
Y0017250D01*
X0014925Y0017700D02*
Y0017250D01*
X0014934Y0017700D02*
Y0017250D01*
X0014943Y0017700D02*
Y0017250D01*
X0014952Y0017700D02*
Y0017250D01*
X0014961Y0017700D02*
Y0017250D01*
X0014970Y0017700D02*
Y0017250D01*
X0014979Y0017700D02*
Y0017250D01*
X0014988Y0017700D02*
Y0017250D01*
X0014997Y0017700D02*
Y0017250D01*
X0015006Y0017700D02*
Y0017250D01*
X0015015Y0017700D02*
Y0017250D01*
X0015024Y0017700D02*
Y0017250D01*
X0015033Y0017700D02*
Y0017250D01*
X0015042Y0017700D02*
Y0017250D01*
X0015051Y0017700D02*
Y0017250D01*
X0015060Y0017700D02*
Y0017250D01*
X0015069Y0017700D02*
Y0017250D01*
X0015078Y0017700D02*
Y0017250D01*
X0015087Y0017700D02*
Y0017250D01*
X0015096Y0017700D02*
Y0017250D01*
X0015105Y0017700D02*
Y0017250D01*
X0015114Y0017700D02*
Y0017250D01*
X0015123Y0017700D02*
Y0017250D01*
X0015132Y0017700D02*
Y0017250D01*
X0015141Y0017700D02*
Y0017250D01*
X0015150Y0017700D02*
Y0017250D01*
X0015159Y0017700D02*
Y0017250D01*
X0015168Y0017700D02*
Y0017250D01*
X0015177Y0017700D02*
Y0017250D01*
X0015186Y0017700D02*
Y0017250D01*
X0015195Y0017700D02*
Y0017250D01*
X0015204Y0017700D02*
Y0017250D01*
X0015213Y0017700D02*
Y0017250D01*
X0015222Y0017700D02*
Y0017250D01*
X0015231Y0017700D02*
Y0017250D01*
X0015240Y0017700D02*
Y0017250D01*
X0015249Y0017700D02*
Y0017250D01*
X0015258Y0017700D02*
Y0017250D01*
X0015267Y0017700D02*
Y0017250D01*
X0015276Y0017700D02*
Y0017250D01*
X0015285Y0017700D02*
Y0017250D01*
X0015294Y0017700D02*
Y0017250D01*
X0015303Y0017700D02*
Y0017250D01*
X0015312Y0017700D02*
Y0017250D01*
X0011055Y0017686D02*
X0015325D01*
X0011055Y0017677D02*
X0015325D01*
X0011055Y0017668D02*
X0015324D01*
X0011055Y0017659D02*
X0015324D01*
X0011055Y0017650D02*
X0015324D01*
X0011055Y0017641D02*
X0015324D01*
X0011055Y0017632D02*
X0015324D01*
X0011055Y0017623D02*
X0015323D01*
X0011055Y0017614D02*
X0015323D01*
X0011055Y0017605D02*
X0015323D01*
X0011055Y0017596D02*
X0015323D01*
X0011055Y0017587D02*
X0015323D01*
X0011055Y0017578D02*
X0015322D01*
X0011055Y0017569D02*
X0015322D01*
X0011055Y0017560D02*
X0015322D01*
X0011055Y0017551D02*
X0015322D01*
X0011055Y0017542D02*
X0015322D01*
X0011055Y0017533D02*
X0015321D01*
X0011055Y0017524D02*
X0015321D01*
X0011055Y0017515D02*
X0015321D01*
X0011055Y0017506D02*
X0015321D01*
X0011055Y0017497D02*
X0015321D01*
X0011055Y0017488D02*
X0015320D01*
X0011055Y0017479D02*
X0015320D01*
X0011055Y0017470D02*
X0015320D01*
X0011055Y0017461D02*
X0015320D01*
X0011055Y0017452D02*
X0015320D01*
X0011055Y0017443D02*
X0015319D01*
X0011055Y0017434D02*
X0015319D01*
X0011055Y0017425D02*
X0015319D01*
X0011055Y0017416D02*
X0015319D01*
X0011055Y0017407D02*
X0015319D01*
X0011055Y0017398D02*
X0015318D01*
X0011055Y0017389D02*
X0015318D01*
X0011055Y0017380D02*
X0015318D01*
X0011055Y0017371D02*
X0015318D01*
X0011055Y0017362D02*
X0015318D01*
X0011055Y0017353D02*
X0015317D01*
X0011055Y0017344D02*
X0015317D01*
X0011055Y0017335D02*
X0015317D01*
X0011055Y0017326D02*
X0015317D01*
X0011055Y0017317D02*
X0015317D01*
X0011055Y0017308D02*
X0015316D01*
X0011055Y0017299D02*
X0015316D01*
X0011055Y0017290D02*
X0015316D01*
X0011055Y0017281D02*
X0015316D01*
X0011055Y0017272D02*
X0015316D01*
X0011055Y0017263D02*
X0015315D01*
X0011065Y0019720D02*
X0015385D01*
X0011065D02*
Y0019290D01*
X0015385D01*
Y0019720D02*
Y0019290D01*
X0011079Y0019720D02*
Y0019290D01*
X0011088Y0019720D02*
Y0019290D01*
X0011097Y0019720D02*
Y0019290D01*
X0011106Y0019720D02*
Y0019290D01*
X0011115Y0019720D02*
Y0019290D01*
X0011124Y0019720D02*
Y0019290D01*
X0011133Y0019720D02*
Y0019290D01*
X0011142Y0019720D02*
Y0019290D01*
X0011151Y0019720D02*
Y0019290D01*
X0011160Y0019720D02*
Y0019290D01*
X0011169Y0019720D02*
Y0019290D01*
X0011178Y0019720D02*
Y0019290D01*
X0011187Y0019720D02*
Y0019290D01*
X0011196Y0019720D02*
Y0019290D01*
X0011205Y0019720D02*
Y0019290D01*
X0011214Y0019720D02*
Y0019290D01*
X0011223Y0019720D02*
Y0019290D01*
X0011232Y0019720D02*
Y0019290D01*
X0011241Y0019720D02*
Y0019290D01*
X0011250Y0019720D02*
Y0019290D01*
X0011259Y0019720D02*
Y0019290D01*
X0011268Y0019720D02*
Y0019290D01*
X0011277Y0019720D02*
Y0019290D01*
X0011286Y0019720D02*
Y0019290D01*
X0011295Y0019720D02*
Y0019290D01*
X0011304Y0019720D02*
Y0019290D01*
X0011313Y0019720D02*
Y0019290D01*
X0011322Y0019720D02*
Y0019290D01*
X0011331Y0019720D02*
Y0019290D01*
X0011340Y0019720D02*
Y0019290D01*
X0011349Y0019720D02*
Y0019290D01*
X0011358Y0019720D02*
Y0019290D01*
X0011367Y0019720D02*
Y0019290D01*
X0011376Y0019720D02*
Y0019290D01*
X0011385Y0019720D02*
Y0019290D01*
X0011394Y0019720D02*
Y0019290D01*
X0011403Y0019720D02*
Y0019290D01*
X0011412Y0019720D02*
Y0019290D01*
X0011421Y0019720D02*
Y0019290D01*
X0011430Y0019720D02*
Y0019290D01*
X0011439Y0019720D02*
Y0019290D01*
X0011448Y0019720D02*
Y0019290D01*
X0011457Y0019720D02*
Y0019290D01*
X0011466Y0019720D02*
Y0019290D01*
X0011475Y0019720D02*
Y0019290D01*
X0011484Y0019720D02*
Y0019290D01*
X0011493Y0019720D02*
Y0019290D01*
X0011502Y0019720D02*
Y0019290D01*
X0011511Y0019720D02*
Y0019290D01*
X0011520Y0019720D02*
Y0019290D01*
X0011529Y0019720D02*
Y0019290D01*
X0011538Y0019720D02*
Y0019290D01*
X0011547Y0019720D02*
Y0019290D01*
X0011556Y0019720D02*
Y0019290D01*
X0011565Y0019720D02*
Y0019290D01*
X0011574Y0019720D02*
Y0019290D01*
X0011583Y0019720D02*
Y0019290D01*
X0011592Y0019720D02*
Y0019290D01*
X0011601Y0019720D02*
Y0019290D01*
X0011610Y0019720D02*
Y0019290D01*
X0011619Y0019720D02*
Y0019290D01*
X0011628Y0019720D02*
Y0019290D01*
X0011637Y0019720D02*
Y0019290D01*
X0011646Y0019720D02*
Y0019290D01*
X0011655Y0019720D02*
Y0019290D01*
X0011664Y0019720D02*
Y0019290D01*
X0011673Y0019720D02*
Y0019290D01*
X0011682Y0019720D02*
Y0019290D01*
X0011691Y0019720D02*
Y0019290D01*
X0011700Y0019720D02*
Y0019290D01*
X0011709Y0019720D02*
Y0019290D01*
X0011718Y0019720D02*
Y0019290D01*
X0011727Y0019720D02*
Y0019290D01*
X0011736Y0019720D02*
Y0019290D01*
X0011745Y0019720D02*
Y0019290D01*
X0011754Y0019720D02*
Y0019290D01*
X0011763Y0019720D02*
Y0019290D01*
X0011772Y0019720D02*
Y0019290D01*
X0011781Y0019720D02*
Y0019290D01*
X0011790Y0019720D02*
Y0019290D01*
X0011799Y0019720D02*
Y0019290D01*
X0011808Y0019720D02*
Y0019290D01*
X0011817Y0019720D02*
Y0019290D01*
X0011826Y0019720D02*
Y0019290D01*
X0011835Y0019720D02*
Y0019290D01*
X0011844Y0019720D02*
Y0019290D01*
X0011853Y0019720D02*
Y0019290D01*
X0011862Y0019720D02*
Y0019290D01*
X0011871Y0019720D02*
Y0019290D01*
X0011880Y0019720D02*
Y0019290D01*
X0011889Y0019720D02*
Y0019290D01*
X0011898Y0019720D02*
Y0019290D01*
X0011907Y0019720D02*
Y0019290D01*
X0011916Y0019720D02*
Y0019290D01*
X0011925Y0019720D02*
Y0019290D01*
X0011934Y0019720D02*
Y0019290D01*
X0011943Y0019720D02*
Y0019290D01*
X0011952Y0019720D02*
Y0019290D01*
X0011961Y0019720D02*
Y0019290D01*
X0011970Y0019720D02*
Y0019290D01*
X0011979Y0019720D02*
Y0019290D01*
X0011988Y0019720D02*
Y0019290D01*
X0011997Y0019720D02*
Y0019290D01*
X0012006Y0019720D02*
Y0019290D01*
X0012015Y0019720D02*
Y0019290D01*
X0012024Y0019720D02*
Y0019290D01*
X0012033Y0019720D02*
Y0019290D01*
X0012042Y0019720D02*
Y0019290D01*
X0012051Y0019720D02*
Y0019290D01*
X0012060Y0019720D02*
Y0019290D01*
X0012069Y0019720D02*
Y0019290D01*
X0012078Y0019720D02*
Y0019290D01*
X0012087Y0019720D02*
Y0019290D01*
X0012096Y0019720D02*
Y0019290D01*
X0012105Y0019720D02*
Y0019290D01*
X0012114Y0019720D02*
Y0019290D01*
X0012123Y0019720D02*
Y0019290D01*
X0012132Y0019720D02*
Y0019290D01*
X0012141Y0019720D02*
Y0019290D01*
X0012150Y0019720D02*
Y0019290D01*
X0012159Y0019720D02*
Y0019290D01*
X0012168Y0019720D02*
Y0019290D01*
X0012177Y0019720D02*
Y0019290D01*
X0012186Y0019720D02*
Y0019290D01*
X0012195Y0019720D02*
Y0019290D01*
X0012204Y0019720D02*
Y0019290D01*
X0012213Y0019720D02*
Y0019290D01*
X0012222Y0019720D02*
Y0019290D01*
X0012231Y0019720D02*
Y0019290D01*
X0012240Y0019720D02*
Y0019290D01*
X0012249Y0019720D02*
Y0019290D01*
X0012258Y0019720D02*
Y0019290D01*
X0012267Y0019720D02*
Y0019290D01*
X0012276Y0019720D02*
Y0019290D01*
X0012285Y0019720D02*
Y0019290D01*
X0012294Y0019720D02*
Y0019290D01*
X0012303Y0019720D02*
Y0019290D01*
X0012312Y0019720D02*
Y0019290D01*
X0012321Y0019720D02*
Y0019290D01*
X0012330Y0019720D02*
Y0019290D01*
X0012339Y0019720D02*
Y0019290D01*
X0012348Y0019720D02*
Y0019290D01*
X0012357Y0019720D02*
Y0019290D01*
X0012366Y0019720D02*
Y0019290D01*
X0012375Y0019720D02*
Y0019290D01*
X0012384Y0019720D02*
Y0019290D01*
X0012393Y0019720D02*
Y0019290D01*
X0012402Y0019720D02*
Y0019290D01*
X0012411Y0019720D02*
Y0019290D01*
X0012420Y0019720D02*
Y0019290D01*
X0012429Y0019720D02*
Y0019290D01*
X0012438Y0019720D02*
Y0019290D01*
X0012447Y0019720D02*
Y0019290D01*
X0012456Y0019720D02*
Y0019290D01*
X0012465Y0019720D02*
Y0019290D01*
X0012474Y0019720D02*
Y0019290D01*
X0012483Y0019720D02*
Y0019290D01*
X0012492Y0019720D02*
Y0019290D01*
X0012501Y0019720D02*
Y0019290D01*
X0012510Y0019720D02*
Y0019290D01*
X0012519Y0019720D02*
Y0019290D01*
X0012528Y0019720D02*
Y0019290D01*
X0012537Y0019720D02*
Y0019290D01*
X0012546Y0019720D02*
Y0019290D01*
X0012555Y0019720D02*
Y0019290D01*
X0012564Y0019720D02*
Y0019290D01*
X0012573Y0019720D02*
Y0019290D01*
X0012582Y0019720D02*
Y0019290D01*
X0012591Y0019720D02*
Y0019290D01*
X0012600Y0019720D02*
Y0019290D01*
X0012609Y0019720D02*
Y0019290D01*
X0012618Y0019720D02*
Y0019290D01*
X0012627Y0019720D02*
Y0019290D01*
X0012636Y0019720D02*
Y0019290D01*
X0012645Y0019720D02*
Y0019290D01*
X0012654Y0019720D02*
Y0019290D01*
X0012663Y0019720D02*
Y0019290D01*
X0012672Y0019720D02*
Y0019290D01*
X0012681Y0019720D02*
Y0019290D01*
X0012690Y0019720D02*
Y0019290D01*
X0012699Y0019720D02*
Y0019290D01*
X0012708Y0019720D02*
Y0019290D01*
X0012717Y0019720D02*
Y0019290D01*
X0012726Y0019720D02*
Y0019290D01*
X0012735Y0019720D02*
Y0019290D01*
X0012744Y0019720D02*
Y0019290D01*
X0012753Y0019720D02*
Y0019290D01*
X0012762Y0019720D02*
Y0019290D01*
X0012771Y0019720D02*
Y0019290D01*
X0012780Y0019720D02*
Y0019290D01*
X0012789Y0019720D02*
Y0019290D01*
X0012798Y0019720D02*
Y0019290D01*
X0012807Y0019720D02*
Y0019290D01*
X0012816Y0019720D02*
Y0019290D01*
X0012825Y0019720D02*
Y0019290D01*
X0012834Y0019720D02*
Y0019290D01*
X0012843Y0019720D02*
Y0019290D01*
X0012852Y0019720D02*
Y0019290D01*
X0012861Y0019720D02*
Y0019290D01*
X0012870Y0019720D02*
Y0019290D01*
X0012879Y0019720D02*
Y0019290D01*
X0012888Y0019720D02*
Y0019290D01*
X0012897Y0019720D02*
Y0019290D01*
X0012906Y0019720D02*
Y0019290D01*
X0012915Y0019720D02*
Y0019290D01*
X0012924Y0019720D02*
Y0019290D01*
X0012933Y0019720D02*
Y0019290D01*
X0012942Y0019720D02*
Y0019290D01*
X0012951Y0019720D02*
Y0019290D01*
X0012960Y0019720D02*
Y0019290D01*
X0012969Y0019720D02*
Y0019290D01*
X0012978Y0019720D02*
Y0019290D01*
X0012987Y0019720D02*
Y0019290D01*
X0012996Y0019720D02*
Y0019290D01*
X0013005Y0019720D02*
Y0019290D01*
X0013014Y0019720D02*
Y0019290D01*
X0013023Y0019720D02*
Y0019290D01*
X0013032Y0019720D02*
Y0019290D01*
X0013041Y0019720D02*
Y0019290D01*
X0013050Y0019720D02*
Y0019290D01*
X0013059Y0019720D02*
Y0019290D01*
X0013068Y0019720D02*
Y0019290D01*
X0013077Y0019720D02*
Y0019290D01*
X0013086Y0019720D02*
Y0019290D01*
X0013095Y0019720D02*
Y0019290D01*
X0013104Y0019720D02*
Y0019290D01*
X0013113Y0019720D02*
Y0019290D01*
X0013122Y0019720D02*
Y0019290D01*
X0013131Y0019720D02*
Y0019290D01*
X0013140Y0019720D02*
Y0019290D01*
X0013149Y0019720D02*
Y0019290D01*
X0013158Y0019720D02*
Y0019290D01*
X0013167Y0019720D02*
Y0019290D01*
X0013176Y0019720D02*
Y0019290D01*
X0013185Y0019720D02*
Y0019290D01*
X0013194Y0019720D02*
Y0019290D01*
X0013203Y0019720D02*
Y0019290D01*
X0013212Y0019720D02*
Y0019290D01*
X0013221Y0019720D02*
Y0019290D01*
X0013230Y0019720D02*
Y0019290D01*
X0013239Y0019720D02*
Y0019290D01*
X0013248Y0019720D02*
Y0019290D01*
X0013257Y0019720D02*
Y0019290D01*
X0013266Y0019720D02*
Y0019290D01*
X0013275Y0019720D02*
Y0019290D01*
X0013284Y0019720D02*
Y0019290D01*
X0013293Y0019720D02*
Y0019290D01*
X0013302Y0019720D02*
Y0019290D01*
X0013311Y0019720D02*
Y0019290D01*
X0013320Y0019720D02*
Y0019290D01*
X0013329Y0019720D02*
Y0019290D01*
X0013338Y0019720D02*
Y0019290D01*
X0013347Y0019720D02*
Y0019290D01*
X0013356Y0019720D02*
Y0019290D01*
X0013365Y0019720D02*
Y0019290D01*
X0013374Y0019720D02*
Y0019290D01*
X0013383Y0019720D02*
Y0019290D01*
X0013392Y0019720D02*
Y0019290D01*
X0013401Y0019720D02*
Y0019290D01*
X0013410Y0019720D02*
Y0019290D01*
X0013419Y0019720D02*
Y0019290D01*
X0013428Y0019720D02*
Y0019290D01*
X0013437Y0019720D02*
Y0019290D01*
X0013446Y0019720D02*
Y0019290D01*
X0013455Y0019720D02*
Y0019290D01*
X0013464Y0019720D02*
Y0019290D01*
X0013473Y0019720D02*
Y0019290D01*
X0013482Y0019720D02*
Y0019290D01*
X0013491Y0019720D02*
Y0019290D01*
X0013500Y0019720D02*
Y0019290D01*
X0013509Y0019720D02*
Y0019290D01*
X0013518Y0019720D02*
Y0019290D01*
X0013527Y0019720D02*
Y0019290D01*
X0013536Y0019720D02*
Y0019290D01*
X0013545Y0019720D02*
Y0019290D01*
X0013554Y0019720D02*
Y0019290D01*
X0013563Y0019720D02*
Y0019290D01*
X0013572Y0019720D02*
Y0019290D01*
X0013581Y0019720D02*
Y0019290D01*
X0013590Y0019720D02*
Y0019290D01*
X0013599Y0019720D02*
Y0019290D01*
X0013608Y0019720D02*
Y0019290D01*
X0013617Y0019720D02*
Y0019290D01*
X0013626Y0019720D02*
Y0019290D01*
X0013635Y0019720D02*
Y0019290D01*
X0013644Y0019720D02*
Y0019290D01*
X0013653Y0019720D02*
Y0019290D01*
X0013662Y0019720D02*
Y0019290D01*
X0013671Y0019720D02*
Y0019290D01*
X0013680Y0019720D02*
Y0019290D01*
X0013689Y0019720D02*
Y0019290D01*
X0013698Y0019720D02*
Y0019290D01*
X0013707Y0019720D02*
Y0019290D01*
X0013716Y0019720D02*
Y0019290D01*
X0013725Y0019720D02*
Y0019290D01*
X0013734Y0019720D02*
Y0019290D01*
X0013743Y0019720D02*
Y0019290D01*
X0013752Y0019720D02*
Y0019290D01*
X0013761Y0019720D02*
Y0019290D01*
X0013770Y0019720D02*
Y0019290D01*
X0013779Y0019720D02*
Y0019290D01*
X0013788Y0019720D02*
Y0019290D01*
X0013797Y0019720D02*
Y0019290D01*
X0013806Y0019720D02*
Y0019290D01*
X0013815Y0019720D02*
Y0019290D01*
X0013824Y0019720D02*
Y0019290D01*
X0013833Y0019720D02*
Y0019290D01*
X0013842Y0019720D02*
Y0019290D01*
X0013851Y0019720D02*
Y0019290D01*
X0013860Y0019720D02*
Y0019290D01*
X0013869Y0019720D02*
Y0019290D01*
X0013878Y0019720D02*
Y0019290D01*
X0013887Y0019720D02*
Y0019290D01*
X0013896Y0019720D02*
Y0019290D01*
X0013905Y0019720D02*
Y0019290D01*
X0013914Y0019720D02*
Y0019290D01*
X0013923Y0019720D02*
Y0019290D01*
X0013932Y0019720D02*
Y0019290D01*
X0013941Y0019720D02*
Y0019290D01*
X0013950Y0019720D02*
Y0019290D01*
X0013959Y0019720D02*
Y0019290D01*
X0013968Y0019720D02*
Y0019290D01*
X0013977Y0019720D02*
Y0019290D01*
X0013986Y0019720D02*
Y0019290D01*
X0013995Y0019720D02*
Y0019290D01*
X0014004Y0019720D02*
Y0019290D01*
X0014013Y0019720D02*
Y0019290D01*
X0014022Y0019720D02*
Y0019290D01*
X0014031Y0019720D02*
Y0019290D01*
X0014040Y0019720D02*
Y0019290D01*
X0014049Y0019720D02*
Y0019290D01*
X0014058Y0019720D02*
Y0019290D01*
X0014067Y0019720D02*
Y0019290D01*
X0014076Y0019720D02*
Y0019290D01*
X0014085Y0019720D02*
Y0019290D01*
X0014094Y0019720D02*
Y0019290D01*
X0014103Y0019720D02*
Y0019290D01*
X0014112Y0019720D02*
Y0019290D01*
X0014121Y0019720D02*
Y0019290D01*
X0014130Y0019720D02*
Y0019290D01*
X0014139Y0019720D02*
Y0019290D01*
X0014148Y0019720D02*
Y0019290D01*
X0014157Y0019720D02*
Y0019290D01*
X0014166Y0019720D02*
Y0019290D01*
X0014175Y0019720D02*
Y0019290D01*
X0014184Y0019720D02*
Y0019290D01*
X0014193Y0019720D02*
Y0019290D01*
X0014202Y0019720D02*
Y0019290D01*
X0014211Y0019720D02*
Y0019290D01*
X0014220Y0019720D02*
Y0019290D01*
X0014229Y0019720D02*
Y0019290D01*
X0014238Y0019720D02*
Y0019290D01*
X0014247Y0019720D02*
Y0019290D01*
X0014256Y0019720D02*
Y0019290D01*
X0014265Y0019720D02*
Y0019290D01*
X0014274Y0019720D02*
Y0019290D01*
X0014283Y0019720D02*
Y0019290D01*
X0014292Y0019720D02*
Y0019290D01*
X0014301Y0019720D02*
Y0019290D01*
X0014310Y0019720D02*
Y0019290D01*
X0014319Y0019720D02*
Y0019290D01*
X0014328Y0019720D02*
Y0019290D01*
X0014337Y0019720D02*
Y0019290D01*
X0014346Y0019720D02*
Y0019290D01*
X0014355Y0019720D02*
Y0019290D01*
X0014364Y0019720D02*
Y0019290D01*
X0014373Y0019720D02*
Y0019290D01*
X0014382Y0019720D02*
Y0019290D01*
X0014391Y0019720D02*
Y0019290D01*
X0014400Y0019720D02*
Y0019290D01*
X0014409Y0019720D02*
Y0019290D01*
X0014418Y0019720D02*
Y0019290D01*
X0014427Y0019720D02*
Y0019290D01*
X0014436Y0019720D02*
Y0019290D01*
X0014445Y0019720D02*
Y0019290D01*
X0014454Y0019720D02*
Y0019290D01*
X0014463Y0019720D02*
Y0019290D01*
X0014472Y0019720D02*
Y0019290D01*
X0014481Y0019720D02*
Y0019290D01*
X0014490Y0019720D02*
Y0019290D01*
X0014499Y0019720D02*
Y0019290D01*
X0014508Y0019720D02*
Y0019290D01*
X0014517Y0019720D02*
Y0019290D01*
X0014526Y0019720D02*
Y0019290D01*
X0014535Y0019720D02*
Y0019290D01*
X0014544Y0019720D02*
Y0019290D01*
X0014553Y0019720D02*
Y0019290D01*
X0014562Y0019720D02*
Y0019290D01*
X0014571Y0019720D02*
Y0019290D01*
X0014580Y0019720D02*
Y0019290D01*
X0014589Y0019720D02*
Y0019290D01*
X0014598Y0019720D02*
Y0019290D01*
X0014607Y0019720D02*
Y0019290D01*
X0014616Y0019720D02*
Y0019290D01*
X0014625Y0019720D02*
Y0019290D01*
X0014634Y0019720D02*
Y0019290D01*
X0014643Y0019720D02*
Y0019290D01*
X0014652Y0019720D02*
Y0019290D01*
X0014661Y0019720D02*
Y0019290D01*
X0014670Y0019720D02*
Y0019290D01*
X0014679Y0019720D02*
Y0019290D01*
X0014688Y0019720D02*
Y0019290D01*
X0014697Y0019720D02*
Y0019290D01*
X0014706Y0019720D02*
Y0019290D01*
X0014715Y0019720D02*
Y0019290D01*
X0014724Y0019720D02*
Y0019290D01*
X0014733Y0019720D02*
Y0019290D01*
X0014742Y0019720D02*
Y0019290D01*
X0014751Y0019720D02*
Y0019290D01*
X0014760Y0019720D02*
Y0019290D01*
X0014769Y0019720D02*
Y0019290D01*
X0014778Y0019720D02*
Y0019290D01*
X0014787Y0019720D02*
Y0019290D01*
X0014796Y0019720D02*
Y0019290D01*
X0014805Y0019720D02*
Y0019290D01*
X0014814Y0019720D02*
Y0019290D01*
X0014823Y0019720D02*
Y0019290D01*
X0014832Y0019720D02*
Y0019290D01*
X0014841Y0019720D02*
Y0019290D01*
X0014850Y0019720D02*
Y0019290D01*
X0014859Y0019720D02*
Y0019290D01*
X0014868Y0019720D02*
Y0019290D01*
X0014877Y0019720D02*
Y0019290D01*
X0014886Y0019720D02*
Y0019290D01*
X0014895Y0019720D02*
Y0019290D01*
X0014904Y0019720D02*
Y0019290D01*
X0014913Y0019720D02*
Y0019290D01*
X0014922Y0019720D02*
Y0019290D01*
X0014931Y0019720D02*
Y0019290D01*
X0014940Y0019720D02*
Y0019290D01*
X0014949Y0019720D02*
Y0019290D01*
X0014958Y0019720D02*
Y0019290D01*
X0014967Y0019720D02*
Y0019290D01*
X0014976Y0019720D02*
Y0019290D01*
X0014985Y0019720D02*
Y0019290D01*
X0014994Y0019720D02*
Y0019290D01*
X0015003Y0019720D02*
Y0019290D01*
X0015012Y0019720D02*
Y0019290D01*
X0015021Y0019720D02*
Y0019290D01*
X0015030Y0019720D02*
Y0019290D01*
X0015039Y0019720D02*
Y0019290D01*
X0015048Y0019720D02*
Y0019290D01*
X0015057Y0019720D02*
Y0019290D01*
X0015066Y0019720D02*
Y0019290D01*
X0015075Y0019720D02*
Y0019290D01*
X0015084Y0019720D02*
Y0019290D01*
X0015093Y0019720D02*
Y0019290D01*
X0015102Y0019720D02*
Y0019290D01*
X0015111Y0019720D02*
Y0019290D01*
X0015120Y0019720D02*
Y0019290D01*
X0015129Y0019720D02*
Y0019290D01*
X0015138Y0019720D02*
Y0019290D01*
X0015147Y0019720D02*
Y0019290D01*
X0015156Y0019720D02*
Y0019290D01*
X0015165Y0019720D02*
Y0019290D01*
X0015174Y0019720D02*
Y0019290D01*
X0015183Y0019720D02*
Y0019290D01*
X0015192Y0019720D02*
Y0019290D01*
X0015201Y0019720D02*
Y0019290D01*
X0015210Y0019720D02*
Y0019290D01*
X0015219Y0019720D02*
Y0019290D01*
X0015228Y0019720D02*
Y0019290D01*
X0015237Y0019720D02*
Y0019290D01*
X0015246Y0019720D02*
Y0019290D01*
X0015255Y0019720D02*
Y0019290D01*
X0015264Y0019720D02*
Y0019290D01*
X0015273Y0019720D02*
Y0019290D01*
X0015282Y0019720D02*
Y0019290D01*
X0015291Y0019720D02*
Y0019290D01*
X0015300Y0019720D02*
Y0019290D01*
X0015309Y0019720D02*
Y0019290D01*
X0015318Y0019720D02*
Y0019290D01*
X0015327Y0019720D02*
Y0019290D01*
X0015336Y0019720D02*
Y0019290D01*
X0015345Y0019720D02*
Y0019290D01*
X0015354Y0019720D02*
Y0019290D01*
X0015363Y0019720D02*
Y0019290D01*
X0015372Y0019720D02*
Y0019290D01*
X0011065Y0019708D02*
X0015385D01*
X0011065Y0019699D02*
X0015385D01*
X0011065Y0019690D02*
X0015385D01*
X0011065Y0019681D02*
X0015385D01*
X0011065Y0019672D02*
X0015385D01*
X0011065Y0019663D02*
X0015385D01*
X0011065Y0019654D02*
X0015385D01*
X0011065Y0019645D02*
X0015385D01*
X0011065Y0019636D02*
X0015385D01*
X0011065Y0019627D02*
X0015385D01*
X0011065Y0019618D02*
X0015385D01*
X0011065Y0019609D02*
X0015385D01*
X0011065Y0019600D02*
X0015385D01*
X0011065Y0019591D02*
X0015385D01*
X0011065Y0019582D02*
X0015385D01*
X0011065Y0019573D02*
X0015385D01*
X0011065Y0019564D02*
X0015385D01*
X0011065Y0019555D02*
X0015385D01*
X0011065Y0019546D02*
X0015385D01*
X0011065Y0019537D02*
X0015385D01*
X0011065Y0019528D02*
X0015385D01*
X0011065Y0019519D02*
X0015385D01*
X0011065Y0019510D02*
X0015385D01*
X0011065Y0019501D02*
X0015385D01*
X0011065Y0019492D02*
X0015385D01*
X0011065Y0019483D02*
X0015385D01*
X0011065Y0019474D02*
X0015385D01*
X0011065Y0019465D02*
X0015385D01*
X0011065Y0019456D02*
X0015385D01*
X0011065Y0019447D02*
X0015385D01*
X0011065Y0019438D02*
X0015385D01*
X0011065Y0019429D02*
X0015385D01*
X0011065Y0019420D02*
X0015385D01*
X0011065Y0019411D02*
X0015385D01*
X0011065Y0019402D02*
X0015385D01*
X0011065Y0019393D02*
X0015385D01*
X0011065Y0019384D02*
X0015385D01*
X0011065Y0019375D02*
X0015385D01*
X0011065Y0019366D02*
X0015385D01*
X0011065Y0019357D02*
X0015385D01*
X0011065Y0019348D02*
X0015385D01*
X0011065Y0019339D02*
X0015385D01*
X0011065Y0019330D02*
X0015385D01*
X0011065Y0019321D02*
X0015385D01*
X0011065Y0019312D02*
X0015385D01*
X0011065Y0019303D02*
X0015385D01*
X0015475Y0006750D02*
X0015465Y0006270D01*
X0011115D02*
X0015465D01*
X0011115Y0006750D02*
Y0006270D01*
Y0006750D02*
X0015475D01*
X0011124D02*
Y0006270D01*
X0011133Y0006750D02*
Y0006270D01*
X0011142Y0006750D02*
Y0006270D01*
X0011151Y0006750D02*
Y0006270D01*
X0011160Y0006750D02*
Y0006270D01*
X0011169Y0006750D02*
Y0006270D01*
X0011178Y0006750D02*
Y0006270D01*
X0011187Y0006750D02*
Y0006270D01*
X0011196Y0006750D02*
Y0006270D01*
X0011205Y0006750D02*
Y0006270D01*
X0011214Y0006750D02*
Y0006270D01*
X0011223Y0006750D02*
Y0006270D01*
X0011232Y0006750D02*
Y0006270D01*
X0011241Y0006750D02*
Y0006270D01*
X0011250Y0006750D02*
Y0006270D01*
X0011259Y0006750D02*
Y0006270D01*
X0011268Y0006750D02*
Y0006270D01*
X0011277Y0006750D02*
Y0006270D01*
X0011286Y0006750D02*
Y0006270D01*
X0011295Y0006750D02*
Y0006270D01*
X0011304Y0006750D02*
Y0006270D01*
X0011313Y0006750D02*
Y0006270D01*
X0011322Y0006750D02*
Y0006270D01*
X0011331Y0006750D02*
Y0006270D01*
X0011340Y0006750D02*
Y0006270D01*
X0011349Y0006750D02*
Y0006270D01*
X0011358Y0006750D02*
Y0006270D01*
X0011367Y0006750D02*
Y0006270D01*
X0011376Y0006750D02*
Y0006270D01*
X0011385Y0006750D02*
Y0006270D01*
X0011394Y0006750D02*
Y0006270D01*
X0011403Y0006750D02*
Y0006270D01*
X0011412Y0006750D02*
Y0006270D01*
X0011421Y0006750D02*
Y0006270D01*
X0011430Y0006750D02*
Y0006270D01*
X0011439Y0006750D02*
Y0006270D01*
X0011448Y0006750D02*
Y0006270D01*
X0011457Y0006750D02*
Y0006270D01*
X0011466Y0006750D02*
Y0006270D01*
X0011475Y0006750D02*
Y0006270D01*
X0011484Y0006750D02*
Y0006270D01*
X0011493Y0006750D02*
Y0006270D01*
X0011502Y0006750D02*
Y0006270D01*
X0011511Y0006750D02*
Y0006270D01*
X0011520Y0006750D02*
Y0006270D01*
X0011529Y0006750D02*
Y0006270D01*
X0011538Y0006750D02*
Y0006270D01*
X0011547Y0006750D02*
Y0006270D01*
X0011556Y0006750D02*
Y0006270D01*
X0011565Y0006750D02*
Y0006270D01*
X0011574Y0006750D02*
Y0006270D01*
X0011583Y0006750D02*
Y0006270D01*
X0011592Y0006750D02*
Y0006270D01*
X0011601Y0006750D02*
Y0006270D01*
X0011610Y0006750D02*
Y0006270D01*
X0011619Y0006750D02*
Y0006270D01*
X0011628Y0006750D02*
Y0006270D01*
X0011637Y0006750D02*
Y0006270D01*
X0011646Y0006750D02*
Y0006270D01*
X0011655Y0006750D02*
Y0006270D01*
X0011664Y0006750D02*
Y0006270D01*
X0011673Y0006750D02*
Y0006270D01*
X0011682Y0006750D02*
Y0006270D01*
X0011691Y0006750D02*
Y0006270D01*
X0011700Y0006750D02*
Y0006270D01*
X0011709Y0006750D02*
Y0006270D01*
X0011718Y0006750D02*
Y0006270D01*
X0011727Y0006750D02*
Y0006270D01*
X0011736Y0006750D02*
Y0006270D01*
X0011745Y0006750D02*
Y0006270D01*
X0011754Y0006750D02*
Y0006270D01*
X0011763Y0006750D02*
Y0006270D01*
X0011772Y0006750D02*
Y0006270D01*
X0011781Y0006750D02*
Y0006270D01*
X0011790Y0006750D02*
Y0006270D01*
X0011799Y0006750D02*
Y0006270D01*
X0011808Y0006750D02*
Y0006270D01*
X0011817Y0006750D02*
Y0006270D01*
X0011826Y0006750D02*
Y0006270D01*
X0011835Y0006750D02*
Y0006270D01*
X0011844Y0006750D02*
Y0006270D01*
X0011853Y0006750D02*
Y0006270D01*
X0011862Y0006750D02*
Y0006270D01*
X0011871Y0006750D02*
Y0006270D01*
X0011880Y0006750D02*
Y0006270D01*
X0011889Y0006750D02*
Y0006270D01*
X0011898Y0006750D02*
Y0006270D01*
X0011907Y0006750D02*
Y0006270D01*
X0011916Y0006750D02*
Y0006270D01*
X0011925Y0006750D02*
Y0006270D01*
X0011934Y0006750D02*
Y0006270D01*
X0011943Y0006750D02*
Y0006270D01*
X0011952Y0006750D02*
Y0006270D01*
X0011961Y0006750D02*
Y0006270D01*
X0011970Y0006750D02*
Y0006270D01*
X0011979Y0006750D02*
Y0006270D01*
X0011988Y0006750D02*
Y0006270D01*
X0011997Y0006750D02*
Y0006270D01*
X0012006Y0006750D02*
Y0006270D01*
X0012015Y0006750D02*
Y0006270D01*
X0012024Y0006750D02*
Y0006270D01*
X0012033Y0006750D02*
Y0006270D01*
X0012042Y0006750D02*
Y0006270D01*
X0012051Y0006750D02*
Y0006270D01*
X0012060Y0006750D02*
Y0006270D01*
X0012069Y0006750D02*
Y0006270D01*
X0012078Y0006750D02*
Y0006270D01*
X0012087Y0006750D02*
Y0006270D01*
X0012096Y0006750D02*
Y0006270D01*
X0012105Y0006750D02*
Y0006270D01*
X0012114Y0006750D02*
Y0006270D01*
X0012123Y0006750D02*
Y0006270D01*
X0012132Y0006750D02*
Y0006270D01*
X0012141Y0006750D02*
Y0006270D01*
X0012150Y0006750D02*
Y0006270D01*
X0012159Y0006750D02*
Y0006270D01*
X0012168Y0006750D02*
Y0006270D01*
X0012177Y0006750D02*
Y0006270D01*
X0012186Y0006750D02*
Y0006270D01*
X0012195Y0006750D02*
Y0006270D01*
X0012204Y0006750D02*
Y0006270D01*
X0012213Y0006750D02*
Y0006270D01*
X0012222Y0006750D02*
Y0006270D01*
X0012231Y0006750D02*
Y0006270D01*
X0012240Y0006750D02*
Y0006270D01*
X0012249Y0006750D02*
Y0006270D01*
X0012258Y0006750D02*
Y0006270D01*
X0012267Y0006750D02*
Y0006270D01*
X0012276Y0006750D02*
Y0006270D01*
X0012285Y0006750D02*
Y0006270D01*
X0012294Y0006750D02*
Y0006270D01*
X0012303Y0006750D02*
Y0006270D01*
X0012312Y0006750D02*
Y0006270D01*
X0012321Y0006750D02*
Y0006270D01*
X0012330Y0006750D02*
Y0006270D01*
X0012339Y0006750D02*
Y0006270D01*
X0012348Y0006750D02*
Y0006270D01*
X0012357Y0006750D02*
Y0006270D01*
X0012366Y0006750D02*
Y0006270D01*
X0012375Y0006750D02*
Y0006270D01*
X0012384Y0006750D02*
Y0006270D01*
X0012393Y0006750D02*
Y0006270D01*
X0012402Y0006750D02*
Y0006270D01*
X0012411Y0006750D02*
Y0006270D01*
X0012420Y0006750D02*
Y0006270D01*
X0012429Y0006750D02*
Y0006270D01*
X0012438Y0006750D02*
Y0006270D01*
X0012447Y0006750D02*
Y0006270D01*
X0012456Y0006750D02*
Y0006270D01*
X0012465Y0006750D02*
Y0006270D01*
X0012474Y0006750D02*
Y0006270D01*
X0012483Y0006750D02*
Y0006270D01*
X0012492Y0006750D02*
Y0006270D01*
X0012501Y0006750D02*
Y0006270D01*
X0012510Y0006750D02*
Y0006270D01*
X0012519Y0006750D02*
Y0006270D01*
X0012528Y0006750D02*
Y0006270D01*
X0012537Y0006750D02*
Y0006270D01*
X0012546Y0006750D02*
Y0006270D01*
X0012555Y0006750D02*
Y0006270D01*
X0012564Y0006750D02*
Y0006270D01*
X0012573Y0006750D02*
Y0006270D01*
X0012582Y0006750D02*
Y0006270D01*
X0012591Y0006750D02*
Y0006270D01*
X0012600Y0006750D02*
Y0006270D01*
X0012609Y0006750D02*
Y0006270D01*
X0012618Y0006750D02*
Y0006270D01*
X0012627Y0006750D02*
Y0006270D01*
X0012636Y0006750D02*
Y0006270D01*
X0012645Y0006750D02*
Y0006270D01*
X0012654Y0006750D02*
Y0006270D01*
X0012663Y0006750D02*
Y0006270D01*
X0012672Y0006750D02*
Y0006270D01*
X0012681Y0006750D02*
Y0006270D01*
X0012690Y0006750D02*
Y0006270D01*
X0012699Y0006750D02*
Y0006270D01*
X0012708Y0006750D02*
Y0006270D01*
X0012717Y0006750D02*
Y0006270D01*
X0012726Y0006750D02*
Y0006270D01*
X0012735Y0006750D02*
Y0006270D01*
X0012744Y0006750D02*
Y0006270D01*
X0012753Y0006750D02*
Y0006270D01*
X0012762Y0006750D02*
Y0006270D01*
X0012771Y0006750D02*
Y0006270D01*
X0012780Y0006750D02*
Y0006270D01*
X0012789Y0006750D02*
Y0006270D01*
X0012798Y0006750D02*
Y0006270D01*
X0012807Y0006750D02*
Y0006270D01*
X0012816Y0006750D02*
Y0006270D01*
X0012825Y0006750D02*
Y0006270D01*
X0012834Y0006750D02*
Y0006270D01*
X0012843Y0006750D02*
Y0006270D01*
X0012852Y0006750D02*
Y0006270D01*
X0012861Y0006750D02*
Y0006270D01*
X0012870Y0006750D02*
Y0006270D01*
X0012879Y0006750D02*
Y0006270D01*
X0012888Y0006750D02*
Y0006270D01*
X0012897Y0006750D02*
Y0006270D01*
X0012906Y0006750D02*
Y0006270D01*
X0012915Y0006750D02*
Y0006270D01*
X0012924Y0006750D02*
Y0006270D01*
X0012933Y0006750D02*
Y0006270D01*
X0012942Y0006750D02*
Y0006270D01*
X0012951Y0006750D02*
Y0006270D01*
X0012960Y0006750D02*
Y0006270D01*
X0012969Y0006750D02*
Y0006270D01*
X0012978Y0006750D02*
Y0006270D01*
X0012987Y0006750D02*
Y0006270D01*
X0012996Y0006750D02*
Y0006270D01*
X0013005Y0006750D02*
Y0006270D01*
X0013014Y0006750D02*
Y0006270D01*
X0013023Y0006750D02*
Y0006270D01*
X0013032Y0006750D02*
Y0006270D01*
X0013041Y0006750D02*
Y0006270D01*
X0013050Y0006750D02*
Y0006270D01*
X0013059Y0006750D02*
Y0006270D01*
X0013068Y0006750D02*
Y0006270D01*
X0013077Y0006750D02*
Y0006270D01*
X0013086Y0006750D02*
Y0006270D01*
X0013095Y0006750D02*
Y0006270D01*
X0013104Y0006750D02*
Y0006270D01*
X0013113Y0006750D02*
Y0006270D01*
X0013122Y0006750D02*
Y0006270D01*
X0013131Y0006750D02*
Y0006270D01*
X0013140Y0006750D02*
Y0006270D01*
X0013149Y0006750D02*
Y0006270D01*
X0013158Y0006750D02*
Y0006270D01*
X0013167Y0006750D02*
Y0006270D01*
X0013176Y0006750D02*
Y0006270D01*
X0013185Y0006750D02*
Y0006270D01*
X0013194Y0006750D02*
Y0006270D01*
X0013203Y0006750D02*
Y0006270D01*
X0013212Y0006750D02*
Y0006270D01*
X0013221Y0006750D02*
Y0006270D01*
X0013230Y0006750D02*
Y0006270D01*
X0013239Y0006750D02*
Y0006270D01*
X0013248Y0006750D02*
Y0006270D01*
X0013257Y0006750D02*
Y0006270D01*
X0013266Y0006750D02*
Y0006270D01*
X0013275Y0006750D02*
Y0006270D01*
X0013284Y0006750D02*
Y0006270D01*
X0013293Y0006750D02*
Y0006270D01*
X0013302Y0006750D02*
Y0006270D01*
X0013311Y0006750D02*
Y0006270D01*
X0013320Y0006750D02*
Y0006270D01*
X0013329Y0006750D02*
Y0006270D01*
X0013338Y0006750D02*
Y0006270D01*
X0013347Y0006750D02*
Y0006270D01*
X0013356Y0006750D02*
Y0006270D01*
X0013365Y0006750D02*
Y0006270D01*
X0013374Y0006750D02*
Y0006270D01*
X0013383Y0006750D02*
Y0006270D01*
X0013392Y0006750D02*
Y0006270D01*
X0013401Y0006750D02*
Y0006270D01*
X0013410Y0006750D02*
Y0006270D01*
X0013419Y0006750D02*
Y0006270D01*
X0013428Y0006750D02*
Y0006270D01*
X0013437Y0006750D02*
Y0006270D01*
X0013446Y0006750D02*
Y0006270D01*
X0013455Y0006750D02*
Y0006270D01*
X0013464Y0006750D02*
Y0006270D01*
X0013473Y0006750D02*
Y0006270D01*
X0013482Y0006750D02*
Y0006270D01*
X0013491Y0006750D02*
Y0006270D01*
X0013500Y0006750D02*
Y0006270D01*
X0013509Y0006750D02*
Y0006270D01*
X0013518Y0006750D02*
Y0006270D01*
X0013527Y0006750D02*
Y0006270D01*
X0013536Y0006750D02*
Y0006270D01*
X0013545Y0006750D02*
Y0006270D01*
X0013554Y0006750D02*
Y0006270D01*
X0013563Y0006750D02*
Y0006270D01*
X0013572Y0006750D02*
Y0006270D01*
X0013581Y0006750D02*
Y0006270D01*
X0013590Y0006750D02*
Y0006270D01*
X0013599Y0006750D02*
Y0006270D01*
X0013608Y0006750D02*
Y0006270D01*
X0013617Y0006750D02*
Y0006270D01*
X0013626Y0006750D02*
Y0006270D01*
X0013635Y0006750D02*
Y0006270D01*
X0013644Y0006750D02*
Y0006270D01*
X0013653Y0006750D02*
Y0006270D01*
X0013662Y0006750D02*
Y0006270D01*
X0013671Y0006750D02*
Y0006270D01*
X0013680Y0006750D02*
Y0006270D01*
X0013689Y0006750D02*
Y0006270D01*
X0013698Y0006750D02*
Y0006270D01*
X0013707Y0006750D02*
Y0006270D01*
X0013716Y0006750D02*
Y0006270D01*
X0013725Y0006750D02*
Y0006270D01*
X0013734Y0006750D02*
Y0006270D01*
X0013743Y0006750D02*
Y0006270D01*
X0013752Y0006750D02*
Y0006270D01*
X0013761Y0006750D02*
Y0006270D01*
X0013770Y0006750D02*
Y0006270D01*
X0013779Y0006750D02*
Y0006270D01*
X0013788Y0006750D02*
Y0006270D01*
X0013797Y0006750D02*
Y0006270D01*
X0013806Y0006750D02*
Y0006270D01*
X0013815Y0006750D02*
Y0006270D01*
X0013824Y0006750D02*
Y0006270D01*
X0013833Y0006750D02*
Y0006270D01*
X0013842Y0006750D02*
Y0006270D01*
X0013851Y0006750D02*
Y0006270D01*
X0013860Y0006750D02*
Y0006270D01*
X0013869Y0006750D02*
Y0006270D01*
X0013878Y0006750D02*
Y0006270D01*
X0013887Y0006750D02*
Y0006270D01*
X0013896Y0006750D02*
Y0006270D01*
X0013905Y0006750D02*
Y0006270D01*
X0013914Y0006750D02*
Y0006270D01*
X0013923Y0006750D02*
Y0006270D01*
X0013932Y0006750D02*
Y0006270D01*
X0013941Y0006750D02*
Y0006270D01*
X0013950Y0006750D02*
Y0006270D01*
X0013959Y0006750D02*
Y0006270D01*
X0013968Y0006750D02*
Y0006270D01*
X0013977Y0006750D02*
Y0006270D01*
X0013986Y0006750D02*
Y0006270D01*
X0013995Y0006750D02*
Y0006270D01*
X0014004Y0006750D02*
Y0006270D01*
X0014013Y0006750D02*
Y0006270D01*
X0014022Y0006750D02*
Y0006270D01*
X0014031Y0006750D02*
Y0006270D01*
X0014040Y0006750D02*
Y0006270D01*
X0014049Y0006750D02*
Y0006270D01*
X0014058Y0006750D02*
Y0006270D01*
X0014067Y0006750D02*
Y0006270D01*
X0014076Y0006750D02*
Y0006270D01*
X0014085Y0006750D02*
Y0006270D01*
X0014094Y0006750D02*
Y0006270D01*
X0014103Y0006750D02*
Y0006270D01*
X0014112Y0006750D02*
Y0006270D01*
X0014121Y0006750D02*
Y0006270D01*
X0014130Y0006750D02*
Y0006270D01*
X0014139Y0006750D02*
Y0006270D01*
X0014148Y0006750D02*
Y0006270D01*
X0014157Y0006750D02*
Y0006270D01*
X0014166Y0006750D02*
Y0006270D01*
X0014175Y0006750D02*
Y0006270D01*
X0014184Y0006750D02*
Y0006270D01*
X0014193Y0006750D02*
Y0006270D01*
X0014202Y0006750D02*
Y0006270D01*
X0014211Y0006750D02*
Y0006270D01*
X0014220Y0006750D02*
Y0006270D01*
X0014229Y0006750D02*
Y0006270D01*
X0014238Y0006750D02*
Y0006270D01*
X0014247Y0006750D02*
Y0006270D01*
X0014256Y0006750D02*
Y0006270D01*
X0014265Y0006750D02*
Y0006270D01*
X0014274Y0006750D02*
Y0006270D01*
X0014283Y0006750D02*
Y0006270D01*
X0014292Y0006750D02*
Y0006270D01*
X0014301Y0006750D02*
Y0006270D01*
X0014310Y0006750D02*
Y0006270D01*
X0014319Y0006750D02*
Y0006270D01*
X0014328Y0006750D02*
Y0006270D01*
X0014337Y0006750D02*
Y0006270D01*
X0014346Y0006750D02*
Y0006270D01*
X0014355Y0006750D02*
Y0006270D01*
X0014364Y0006750D02*
Y0006270D01*
X0014373Y0006750D02*
Y0006270D01*
X0014382Y0006750D02*
Y0006270D01*
X0014391Y0006750D02*
Y0006270D01*
X0014400Y0006750D02*
Y0006270D01*
X0014409Y0006750D02*
Y0006270D01*
X0014418Y0006750D02*
Y0006270D01*
X0014427Y0006750D02*
Y0006270D01*
X0014436Y0006750D02*
Y0006270D01*
X0014445Y0006750D02*
Y0006270D01*
X0014454Y0006750D02*
Y0006270D01*
X0014463Y0006750D02*
Y0006270D01*
X0014472Y0006750D02*
Y0006270D01*
X0014481Y0006750D02*
Y0006270D01*
X0014490Y0006750D02*
Y0006270D01*
X0014499Y0006750D02*
Y0006270D01*
X0014508Y0006750D02*
Y0006270D01*
X0014517Y0006750D02*
Y0006270D01*
X0014526Y0006750D02*
Y0006270D01*
X0014535Y0006750D02*
Y0006270D01*
X0014544Y0006750D02*
Y0006270D01*
X0014553Y0006750D02*
Y0006270D01*
X0014562Y0006750D02*
Y0006270D01*
X0014571Y0006750D02*
Y0006270D01*
X0014580Y0006750D02*
Y0006270D01*
X0014589Y0006750D02*
Y0006270D01*
X0014598Y0006750D02*
Y0006270D01*
X0014607Y0006750D02*
Y0006270D01*
X0014616Y0006750D02*
Y0006270D01*
X0014625Y0006750D02*
Y0006270D01*
X0014634Y0006750D02*
Y0006270D01*
X0014643Y0006750D02*
Y0006270D01*
X0014652Y0006750D02*
Y0006270D01*
X0014661Y0006750D02*
Y0006270D01*
X0014670Y0006750D02*
Y0006270D01*
X0014679Y0006750D02*
Y0006270D01*
X0014688Y0006750D02*
Y0006270D01*
X0014697Y0006750D02*
Y0006270D01*
X0014706Y0006750D02*
Y0006270D01*
X0014715Y0006750D02*
Y0006270D01*
X0014724Y0006750D02*
Y0006270D01*
X0014733Y0006750D02*
Y0006270D01*
X0014742Y0006750D02*
Y0006270D01*
X0014751Y0006750D02*
Y0006270D01*
X0014760Y0006750D02*
Y0006270D01*
X0014769Y0006750D02*
Y0006270D01*
X0014778Y0006750D02*
Y0006270D01*
X0014787Y0006750D02*
Y0006270D01*
X0014796Y0006750D02*
Y0006270D01*
X0014805Y0006750D02*
Y0006270D01*
X0014814Y0006750D02*
Y0006270D01*
X0014823Y0006750D02*
Y0006270D01*
X0014832Y0006750D02*
Y0006270D01*
X0014841Y0006750D02*
Y0006270D01*
X0014850Y0006750D02*
Y0006270D01*
X0014859Y0006750D02*
Y0006270D01*
X0014868Y0006750D02*
Y0006270D01*
X0014877Y0006750D02*
Y0006270D01*
X0014886Y0006750D02*
Y0006270D01*
X0014895Y0006750D02*
Y0006270D01*
X0014904Y0006750D02*
Y0006270D01*
X0014913Y0006750D02*
Y0006270D01*
X0014922Y0006750D02*
Y0006270D01*
X0014931Y0006750D02*
Y0006270D01*
X0014940Y0006750D02*
Y0006270D01*
X0014949Y0006750D02*
Y0006270D01*
X0014958Y0006750D02*
Y0006270D01*
X0014967Y0006750D02*
Y0006270D01*
X0014976Y0006750D02*
Y0006270D01*
X0014985Y0006750D02*
Y0006270D01*
X0014994Y0006750D02*
Y0006270D01*
X0015003Y0006750D02*
Y0006270D01*
X0015012Y0006750D02*
Y0006270D01*
X0015021Y0006750D02*
Y0006270D01*
X0015030Y0006750D02*
Y0006270D01*
X0015039Y0006750D02*
Y0006270D01*
X0015048Y0006750D02*
Y0006270D01*
X0015057Y0006750D02*
Y0006270D01*
X0015066Y0006750D02*
Y0006270D01*
X0015075Y0006750D02*
Y0006270D01*
X0015084Y0006750D02*
Y0006270D01*
X0015093Y0006750D02*
Y0006270D01*
X0015102Y0006750D02*
Y0006270D01*
X0015111Y0006750D02*
Y0006270D01*
X0015120Y0006750D02*
Y0006270D01*
X0015129Y0006750D02*
Y0006270D01*
X0015138Y0006750D02*
Y0006270D01*
X0015147Y0006750D02*
Y0006270D01*
X0015156Y0006750D02*
Y0006270D01*
X0015165Y0006750D02*
Y0006270D01*
X0015174Y0006750D02*
Y0006270D01*
X0015183Y0006750D02*
Y0006270D01*
X0015192Y0006750D02*
Y0006270D01*
X0015201Y0006750D02*
Y0006270D01*
X0015210Y0006750D02*
Y0006270D01*
X0015219Y0006750D02*
Y0006270D01*
X0015228Y0006750D02*
Y0006270D01*
X0015237Y0006750D02*
Y0006270D01*
X0015246Y0006750D02*
Y0006270D01*
X0015255Y0006750D02*
Y0006270D01*
X0015264Y0006750D02*
Y0006270D01*
X0015273Y0006750D02*
Y0006270D01*
X0015282Y0006750D02*
Y0006270D01*
X0015291Y0006750D02*
Y0006270D01*
X0015300Y0006750D02*
Y0006270D01*
X0015309Y0006750D02*
Y0006270D01*
X0015318Y0006750D02*
Y0006270D01*
X0015327Y0006750D02*
Y0006270D01*
X0015336Y0006750D02*
Y0006270D01*
X0015345Y0006750D02*
Y0006270D01*
X0015354Y0006750D02*
Y0006270D01*
X0015363Y0006750D02*
Y0006270D01*
X0015372Y0006750D02*
Y0006270D01*
X0015381Y0006750D02*
Y0006270D01*
X0015390Y0006750D02*
Y0006270D01*
X0015399Y0006750D02*
Y0006270D01*
X0015408Y0006750D02*
Y0006270D01*
X0015417Y0006750D02*
Y0006270D01*
X0015426Y0006750D02*
Y0006270D01*
X0015435Y0006750D02*
Y0006270D01*
X0015444Y0006750D02*
Y0006270D01*
X0015453Y0006750D02*
Y0006270D01*
X0015462Y0006750D02*
Y0006270D01*
X0015471Y0006750D02*
Y0006558D01*
X0011115Y0006742D02*
X0015475D01*
X0011115Y0006733D02*
X0015475D01*
X0011115Y0006724D02*
X0015475D01*
X0011115Y0006715D02*
X0015474D01*
X0011115Y0006706D02*
X0015474D01*
X0011115Y0006697D02*
X0015474D01*
X0011115Y0006688D02*
X0015474D01*
X0011115Y0006679D02*
X0015474D01*
X0011115Y0006670D02*
X0015473D01*
X0011115Y0006661D02*
X0015473D01*
X0011115Y0006652D02*
X0015473D01*
X0011115Y0006643D02*
X0015473D01*
X0011115Y0006634D02*
X0015473D01*
X0011115Y0006625D02*
X0015473D01*
X0011115Y0006616D02*
X0015472D01*
X0011115Y0006607D02*
X0015472D01*
X0011115Y0006598D02*
X0015472D01*
X0011115Y0006589D02*
X0015472D01*
X0011115Y0006580D02*
X0015472D01*
X0011115Y0006571D02*
X0015471D01*
X0011115Y0006562D02*
X0015471D01*
X0011115Y0006553D02*
X0015471D01*
X0011115Y0006544D02*
X0015471D01*
X0011115Y0006535D02*
X0015471D01*
X0011115Y0006526D02*
X0015470D01*
X0011115Y0006517D02*
X0015470D01*
X0011115Y0006508D02*
X0015470D01*
X0011115Y0006499D02*
X0015470D01*
X0011115Y0006490D02*
X0015470D01*
X0011115Y0006481D02*
X0015470D01*
X0011115Y0006472D02*
X0015469D01*
X0011115Y0006463D02*
X0015469D01*
X0011115Y0006454D02*
X0015469D01*
X0011115Y0006445D02*
X0015469D01*
X0011115Y0006436D02*
X0015469D01*
X0011115Y0006427D02*
X0015468D01*
X0011115Y0006418D02*
X0015468D01*
X0011115Y0006409D02*
X0015468D01*
X0011115Y0006400D02*
X0015468D01*
X0011115Y0006391D02*
X0015468D01*
X0011115Y0006382D02*
X0015467D01*
X0011115Y0006373D02*
X0015467D01*
X0011115Y0006364D02*
X0015467D01*
X0011115Y0006355D02*
X0015467D01*
X0011115Y0006346D02*
X0015467D01*
X0011115Y0006337D02*
X0015467D01*
X0011115Y0006328D02*
X0015466D01*
X0011115Y0006319D02*
X0015466D01*
X0011115Y0006310D02*
X0015466D01*
X0011115Y0006301D02*
X0015466D01*
X0011115Y0006292D02*
X0015466D01*
X0011115Y0006283D02*
X0015465D01*
X0043305Y0014480D02*
X0043295Y0014120D01*
X0041425D02*
X0043295D01*
X0041425Y0014480D02*
Y0014120D01*
Y0014480D02*
X0043305D01*
X0041438D02*
Y0014120D01*
X0041447Y0014480D02*
Y0014120D01*
X0041456Y0014480D02*
Y0014120D01*
X0041465Y0014480D02*
Y0014120D01*
X0041474Y0014480D02*
Y0014120D01*
X0041483Y0014480D02*
Y0014120D01*
X0041492Y0014480D02*
Y0014120D01*
X0041501Y0014480D02*
Y0014120D01*
X0041510Y0014480D02*
Y0014120D01*
X0041519Y0014480D02*
Y0014120D01*
X0041528Y0014480D02*
Y0014120D01*
X0041537Y0014480D02*
Y0014120D01*
X0041546Y0014480D02*
Y0014120D01*
X0041555Y0014480D02*
Y0014120D01*
X0041564Y0014480D02*
Y0014120D01*
X0041573Y0014480D02*
Y0014120D01*
X0041582Y0014480D02*
Y0014120D01*
X0041591Y0014480D02*
Y0014120D01*
X0041600Y0014480D02*
Y0014120D01*
X0041609Y0014480D02*
Y0014120D01*
X0041618Y0014480D02*
Y0014120D01*
X0041627Y0014480D02*
Y0014120D01*
X0041636Y0014480D02*
Y0014120D01*
X0041645Y0014480D02*
Y0014120D01*
X0041654Y0014480D02*
Y0014120D01*
X0041663Y0014480D02*
Y0014120D01*
X0041672Y0014480D02*
Y0014120D01*
X0041681Y0014480D02*
Y0014120D01*
X0041690Y0014480D02*
Y0014120D01*
X0041699Y0014480D02*
Y0014120D01*
X0041708Y0014480D02*
Y0014120D01*
X0041717Y0014480D02*
Y0014120D01*
X0041726Y0014480D02*
Y0014120D01*
X0041735Y0014480D02*
Y0014120D01*
X0041744Y0014480D02*
Y0014120D01*
X0041753Y0014480D02*
Y0014120D01*
X0041762Y0014480D02*
Y0014120D01*
X0041771Y0014480D02*
Y0014120D01*
X0041780Y0014480D02*
Y0014120D01*
X0041789Y0014480D02*
Y0014120D01*
X0041798Y0014480D02*
Y0014120D01*
X0041807Y0014480D02*
Y0014120D01*
X0041816Y0014480D02*
Y0014120D01*
X0041825Y0014480D02*
Y0014120D01*
X0041834Y0014480D02*
Y0014120D01*
X0041843Y0014480D02*
Y0014120D01*
X0041852Y0014480D02*
Y0014120D01*
X0041861Y0014480D02*
Y0014120D01*
X0041870Y0014480D02*
Y0014120D01*
X0041879Y0014480D02*
Y0014120D01*
X0041888Y0014480D02*
Y0014120D01*
X0041897Y0014480D02*
Y0014120D01*
X0041906Y0014480D02*
Y0014120D01*
X0041915Y0014480D02*
Y0014120D01*
X0041924Y0014480D02*
Y0014120D01*
X0041933Y0014480D02*
Y0014120D01*
X0041942Y0014480D02*
Y0014120D01*
X0041951Y0014480D02*
Y0014120D01*
X0041960Y0014480D02*
Y0014120D01*
X0041969Y0014480D02*
Y0014120D01*
X0041978Y0014480D02*
Y0014120D01*
X0041987Y0014480D02*
Y0014120D01*
X0041996Y0014480D02*
Y0014120D01*
X0042005Y0014480D02*
Y0014120D01*
X0042014Y0014480D02*
Y0014120D01*
X0042023Y0014480D02*
Y0014120D01*
X0042032Y0014480D02*
Y0014120D01*
X0042041Y0014480D02*
Y0014120D01*
X0042050Y0014480D02*
Y0014120D01*
X0042059Y0014480D02*
Y0014120D01*
X0042068Y0014480D02*
Y0014120D01*
X0042077Y0014480D02*
Y0014120D01*
X0042086Y0014480D02*
Y0014120D01*
X0042095Y0014480D02*
Y0014120D01*
X0042104Y0014480D02*
Y0014120D01*
X0042113Y0014480D02*
Y0014120D01*
X0042122Y0014480D02*
Y0014120D01*
X0042131Y0014480D02*
Y0014120D01*
X0042140Y0014480D02*
Y0014120D01*
X0042149Y0014480D02*
Y0014120D01*
X0042158Y0014480D02*
Y0014120D01*
X0042167Y0014480D02*
Y0014120D01*
X0042176Y0014480D02*
Y0014120D01*
X0042185Y0014480D02*
Y0014120D01*
X0042194Y0014480D02*
Y0014120D01*
X0042203Y0014480D02*
Y0014120D01*
X0042212Y0014480D02*
Y0014120D01*
X0042221Y0014480D02*
Y0014120D01*
X0042230Y0014480D02*
Y0014120D01*
X0042239Y0014480D02*
Y0014120D01*
X0042248Y0014480D02*
Y0014120D01*
X0042257Y0014480D02*
Y0014120D01*
X0042266Y0014480D02*
Y0014120D01*
X0042275Y0014480D02*
Y0014120D01*
X0042284Y0014480D02*
Y0014120D01*
X0042293Y0014480D02*
Y0014120D01*
X0042302Y0014480D02*
Y0014120D01*
X0042311Y0014480D02*
Y0014120D01*
X0042320Y0014480D02*
Y0014120D01*
X0042329Y0014480D02*
Y0014120D01*
X0042338Y0014480D02*
Y0014120D01*
X0042347Y0014480D02*
Y0014120D01*
X0042356Y0014480D02*
Y0014120D01*
X0042365Y0014480D02*
Y0014120D01*
X0042374Y0014480D02*
Y0014120D01*
X0042383Y0014480D02*
Y0014120D01*
X0042392Y0014480D02*
Y0014120D01*
X0042401Y0014480D02*
Y0014120D01*
X0042410Y0014480D02*
Y0014120D01*
X0042419Y0014480D02*
Y0014120D01*
X0042428Y0014480D02*
Y0014120D01*
X0042437Y0014480D02*
Y0014120D01*
X0042446Y0014480D02*
Y0014120D01*
X0042455Y0014480D02*
Y0014120D01*
X0042464Y0014480D02*
Y0014120D01*
X0042473Y0014480D02*
Y0014120D01*
X0042482Y0014480D02*
Y0014120D01*
X0042491Y0014480D02*
Y0014120D01*
X0042500Y0014480D02*
Y0014120D01*
X0042509Y0014480D02*
Y0014120D01*
X0042518Y0014480D02*
Y0014120D01*
X0042527Y0014480D02*
Y0014120D01*
X0042536Y0014480D02*
Y0014120D01*
X0042545Y0014480D02*
Y0014120D01*
X0042554Y0014480D02*
Y0014120D01*
X0042563Y0014480D02*
Y0014120D01*
X0042572Y0014480D02*
Y0014120D01*
X0042581Y0014480D02*
Y0014120D01*
X0042590Y0014480D02*
Y0014120D01*
X0042599Y0014480D02*
Y0014120D01*
X0042608Y0014480D02*
Y0014120D01*
X0042617Y0014480D02*
Y0014120D01*
X0042626Y0014480D02*
Y0014120D01*
X0042635Y0014480D02*
Y0014120D01*
X0042644Y0014480D02*
Y0014120D01*
X0042653Y0014480D02*
Y0014120D01*
X0042662Y0014480D02*
Y0014120D01*
X0042671Y0014480D02*
Y0014120D01*
X0042680Y0014480D02*
Y0014120D01*
X0042689Y0014480D02*
Y0014120D01*
X0042698Y0014480D02*
Y0014120D01*
X0042707Y0014480D02*
Y0014120D01*
X0042716Y0014480D02*
Y0014120D01*
X0042725Y0014480D02*
Y0014120D01*
X0042734Y0014480D02*
Y0014120D01*
X0042743Y0014480D02*
Y0014120D01*
X0042752Y0014480D02*
Y0014120D01*
X0042761Y0014480D02*
Y0014120D01*
X0042770Y0014480D02*
Y0014120D01*
X0042779Y0014480D02*
Y0014120D01*
X0042788Y0014480D02*
Y0014120D01*
X0042797Y0014480D02*
Y0014120D01*
X0042806Y0014480D02*
Y0014120D01*
X0042815Y0014480D02*
Y0014120D01*
X0042824Y0014480D02*
Y0014120D01*
X0042833Y0014480D02*
Y0014120D01*
X0042842Y0014480D02*
Y0014120D01*
X0042851Y0014480D02*
Y0014120D01*
X0042860Y0014480D02*
Y0014120D01*
X0042869Y0014480D02*
Y0014120D01*
X0042878Y0014480D02*
Y0014120D01*
X0042887Y0014480D02*
Y0014120D01*
X0042896Y0014480D02*
Y0014120D01*
X0042905Y0014480D02*
Y0014120D01*
X0042914Y0014480D02*
Y0014120D01*
X0042923Y0014480D02*
Y0014120D01*
X0042932Y0014480D02*
Y0014120D01*
X0042941Y0014480D02*
Y0014120D01*
X0042950Y0014480D02*
Y0014120D01*
X0042959Y0014480D02*
Y0014120D01*
X0042968Y0014480D02*
Y0014120D01*
X0042977Y0014480D02*
Y0014120D01*
X0042986Y0014480D02*
Y0014120D01*
X0042995Y0014480D02*
Y0014120D01*
X0043004Y0014480D02*
Y0014120D01*
X0043013Y0014480D02*
Y0014120D01*
X0043022Y0014480D02*
Y0014120D01*
X0043031Y0014480D02*
Y0014120D01*
X0043040Y0014480D02*
Y0014120D01*
X0043049Y0014480D02*
Y0014120D01*
X0043058Y0014480D02*
Y0014120D01*
X0043067Y0014480D02*
Y0014120D01*
X0043076Y0014480D02*
Y0014120D01*
X0043085Y0014480D02*
Y0014120D01*
X0043094Y0014480D02*
Y0014120D01*
X0043103Y0014480D02*
Y0014120D01*
X0043112Y0014480D02*
Y0014120D01*
X0043121Y0014480D02*
Y0014120D01*
X0043130Y0014480D02*
Y0014120D01*
X0043139Y0014480D02*
Y0014120D01*
X0043148Y0014480D02*
Y0014120D01*
X0043157Y0014480D02*
Y0014120D01*
X0043166Y0014480D02*
Y0014120D01*
X0043175Y0014480D02*
Y0014120D01*
X0043184Y0014480D02*
Y0014120D01*
X0043193Y0014480D02*
Y0014120D01*
X0043202Y0014480D02*
Y0014120D01*
X0043211Y0014480D02*
Y0014120D01*
X0043220Y0014480D02*
Y0014120D01*
X0043229Y0014480D02*
Y0014120D01*
X0043238Y0014480D02*
Y0014120D01*
X0043247Y0014480D02*
Y0014120D01*
X0043256Y0014480D02*
Y0014120D01*
X0043265Y0014480D02*
Y0014120D01*
X0043274Y0014480D02*
Y0014120D01*
X0043283Y0014480D02*
Y0014120D01*
X0043292Y0014480D02*
Y0014120D01*
X0041425Y0014466D02*
X0043305D01*
X0041425Y0014457D02*
X0043305D01*
X0041425Y0014448D02*
X0043304D01*
X0041425Y0014439D02*
X0043304D01*
X0041425Y0014430D02*
X0043304D01*
X0041425Y0014421D02*
X0043304D01*
X0041425Y0014412D02*
X0043303D01*
X0041425Y0014403D02*
X0043303D01*
X0041425Y0014394D02*
X0043303D01*
X0041425Y0014385D02*
X0043303D01*
X0041425Y0014376D02*
X0043302D01*
X0041425Y0014367D02*
X0043302D01*
X0041425Y0014358D02*
X0043302D01*
X0041425Y0014349D02*
X0043302D01*
X0041425Y0014340D02*
X0043301D01*
X0041425Y0014331D02*
X0043301D01*
X0041425Y0014322D02*
X0043301D01*
X0041425Y0014313D02*
X0043301D01*
X0041425Y0014304D02*
X0043300D01*
X0041425Y0014295D02*
X0043300D01*
X0041425Y0014286D02*
X0043300D01*
X0041425Y0014277D02*
X0043300D01*
X0041425Y0014268D02*
X0043299D01*
X0041425Y0014259D02*
X0043299D01*
X0041425Y0014250D02*
X0043299D01*
X0041425Y0014241D02*
X0043299D01*
X0041425Y0014232D02*
X0043298D01*
X0041425Y0014223D02*
X0043298D01*
X0041425Y0014214D02*
X0043298D01*
X0041425Y0014205D02*
X0043298D01*
X0041425Y0014196D02*
X0043297D01*
X0041425Y0014187D02*
X0043297D01*
X0041425Y0014178D02*
X0043297D01*
X0041425Y0014169D02*
X0043297D01*
X0041425Y0014160D02*
X0043296D01*
X0041425Y0014151D02*
X0043296D01*
X0041425Y0014142D02*
X0043296D01*
X0041425Y0014133D02*
X0043296D01*
G54D39*
G01X0013010Y0006120D02*
X0013420D01*
X0002935Y0007560D02*
X0012326D01*
X0002935Y0006480D02*
X0011326D01*
X0012235Y0007630D02*
Y0007410D01*
X0011875Y0016667D02*
Y0009342D01*
X0015072Y0008280D02*
X0029292D01*
X0013542Y0013680D02*
X0041630D01*
X0002935Y0006840D02*
X0011385D01*
X0002935Y0009360D02*
X0011921D01*
X0002935Y0009720D02*
X0046435D01*
X0002935Y0009000D02*
X0011466D01*
X0012678Y0005760D02*
X0013752D01*
X0002935Y0007920D02*
X0011558D01*
X0002935Y0008640D02*
X0011333D01*
X0011875Y0018667D02*
Y0018312D01*
X0012955Y0012301D02*
Y0009014D01*
X0029515Y0007521D02*
Y0000000D01*
X0029875Y0026950D02*
Y0015650D01*
X0030595Y0000558D02*
Y0000000D01*
X0031315Y0026950D02*
Y0002159D01*
X0031675Y0026950D02*
Y0002159D01*
X0032035Y0026950D02*
Y0002159D01*
X0032395Y0026950D02*
Y0002159D01*
X0032755Y0026950D02*
Y0002159D01*
X0033115Y0026950D02*
Y0002159D01*
X0029875Y0007343D02*
Y0000000D01*
X0033835Y0026950D02*
Y0002159D01*
X0034195Y0026950D02*
Y0002159D01*
X0034555Y0026950D02*
Y0002159D01*
X0034915Y0026950D02*
Y0002159D01*
X0004838Y0000360D02*
X0044702D01*
X0035635Y0026950D02*
Y0002159D01*
X0035995Y0026950D02*
Y0002159D01*
X0036355Y0026950D02*
Y0002159D01*
X0036715Y0026950D02*
Y0002159D01*
X0037075Y0026950D02*
Y0002159D01*
X0037435Y0026950D02*
Y0002159D01*
X0030738Y0008280D02*
X0037862D01*
X0037795Y0026950D02*
Y0002159D01*
Y0000558D02*
Y0000000D01*
X0038155Y0000558D02*
Y0000000D01*
X0038875Y0000558D02*
Y0000000D01*
X0039595Y0026950D02*
Y0002159D01*
X0039955Y0026950D02*
Y0002159D01*
X0040315Y0026950D02*
Y0002159D01*
X0040675Y0026950D02*
Y0002159D01*
X0041035Y0026950D02*
Y0002159D01*
X0043273Y0012600D02*
X0046435D01*
X0042475Y0010410D02*
Y0000000D01*
X0039308Y0008280D02*
X0046435D01*
X0035275Y0026950D02*
Y0002159D01*
X0030748Y0007920D02*
X0037852D01*
X0042473Y0001080D02*
X0044436D01*
X0005104D02*
X0030544D01*
X0043195Y0014837D02*
Y0014763D01*
X0030235Y0007363D02*
Y0000000D01*
X0014661Y0018720D02*
X0046435D01*
X0002935Y0016920D02*
X0011532D01*
X0014755Y0018782D02*
Y0018197D01*
X0043325Y0010800D02*
X0046435D01*
X0039126Y0007560D02*
X0046435D01*
X0003955Y0000051D02*
Y0000000D01*
X0041035Y0000558D02*
Y0000000D01*
X0002935Y0014040D02*
X0041584D01*
X0043195Y0013837D02*
Y0013763D01*
Y0026950D02*
Y0015763D01*
X0042835Y0026950D02*
Y0016095D01*
X0030955Y0014609D02*
Y0002159D01*
X0042115Y0026950D02*
Y0016130D01*
X0002935Y0011160D02*
X0041545D01*
X0031068Y0014760D02*
X0041673D01*
X0043197D02*
X0046435D01*
X0046075Y0000271D02*
Y0000000D01*
X0042115Y0010410D02*
Y0002159D01*
X0002935Y0013320D02*
X0012535D01*
X0002935Y0011520D02*
X0041545D01*
X0043325Y0012190D02*
Y0010410D01*
X0041545D02*
X0043325D01*
X0041545Y0012190D02*
Y0010410D01*
X0002935Y0017280D02*
X0011350D01*
X0012955Y0016995D02*
Y0013708D01*
X0015092Y0017640D02*
X0046435D01*
X0002935Y0018360D02*
X0012028D01*
X0012955Y0026950D02*
Y0019984D01*
X0012595Y0026950D02*
Y0020295D01*
X0015010Y0006120D02*
X0046435D01*
X0013315Y0017605D02*
Y0013748D01*
X0011875Y0007697D02*
Y0007342D01*
X0015104Y0006480D02*
X0046435D01*
X0035275Y0000558D02*
Y0000000D01*
X0011515Y0016940D02*
Y0009069D01*
X0030544Y0000558D02*
X0042473D01*
X0030544Y0002159D02*
Y0000558D01*
Y0002159D02*
X0042473D01*
Y0000558D01*
X0046435Y0026950D02*
Y0000000D01*
X0002935D02*
X0046435D01*
X0002935Y0026950D02*
Y0000000D01*
Y0026950D02*
X0046435D01*
X0005035Y0025422D02*
Y0001407D01*
X0005022Y0001440D02*
X0030544D01*
X0003235Y0025297D02*
Y0001533D01*
X0003595Y0024930D02*
Y0001900D01*
X0003955Y0024801D02*
Y0002029D01*
X0004315Y0024812D02*
Y0002018D01*
X0005035Y0000672D02*
Y0000000D01*
X0005395Y0026950D02*
Y0000000D01*
X0005755Y0026950D02*
Y0000000D01*
X0006115Y0026950D02*
Y0000000D01*
X0006475Y0026950D02*
Y0000000D01*
X0006835Y0026950D02*
Y0000000D01*
X0007195Y0026950D02*
Y0000000D01*
X0007555Y0026950D02*
Y0000000D01*
X0007915Y0026950D02*
Y0000000D01*
X0008275Y0026950D02*
Y0000000D01*
X0008635Y0026950D02*
Y0000000D01*
X0008995Y0026950D02*
Y0000000D01*
X0009355Y0026950D02*
Y0000000D01*
X0009715Y0026950D02*
Y0000000D01*
X0010075Y0026950D02*
Y0000000D01*
X0010435Y0026950D02*
Y0000000D01*
X0010795Y0026950D02*
Y0000000D01*
X0002935Y0006120D02*
X0011420D01*
X0002935Y0012600D02*
X0012584D01*
X0014873Y0007920D02*
X0029282D01*
X0011515Y0005970D02*
Y0000000D01*
X0011875Y0005697D02*
Y0000000D01*
X0012955Y0006025D02*
Y0000000D01*
X0013675Y0005812D02*
Y0000000D01*
X0014755Y0005812D02*
Y0000000D01*
X0015115Y0026950D02*
Y0000000D01*
X0015475Y0026950D02*
Y0000000D01*
X0015835Y0026950D02*
Y0000000D01*
X0016195Y0026950D02*
Y0000000D01*
X0016555Y0026950D02*
Y0000000D01*
X0016915Y0026950D02*
Y0000000D01*
X0017275Y0026950D02*
Y0000000D01*
X0017635Y0026950D02*
Y0000000D01*
X0017995Y0026950D02*
Y0000000D01*
X0018355Y0026950D02*
Y0000000D01*
X0018715Y0026950D02*
Y0000000D01*
X0019075Y0026950D02*
Y0000000D01*
X0019435Y0026950D02*
Y0000000D01*
X0019795Y0026950D02*
Y0000000D01*
X0020155Y0026950D02*
Y0000000D01*
X0020515Y0026950D02*
Y0000000D01*
X0020875Y0026950D02*
Y0000000D01*
X0021235Y0026950D02*
Y0000000D01*
X0021595Y0026950D02*
Y0000000D01*
X0021955Y0026950D02*
Y0000000D01*
X0022315Y0026950D02*
Y0000000D01*
X0022675Y0026950D02*
Y0000000D01*
X0023035Y0026950D02*
Y0000000D01*
X0023395Y0026950D02*
Y0000000D01*
X0023755Y0026950D02*
Y0000000D01*
X0024115Y0026950D02*
Y0000000D01*
X0015046Y0006840D02*
X0046435D01*
X0013846Y0012600D02*
X0041597D01*
X0024835Y0026950D02*
Y0000000D01*
X0025195Y0014522D02*
Y0000000D01*
X0026275Y0014739D02*
Y0000000D01*
X0026635Y0026950D02*
Y0000000D01*
X0026995Y0026950D02*
Y0000000D01*
X0027355Y0026950D02*
Y0000000D01*
X0027715Y0026950D02*
Y0000000D01*
X0028075Y0026950D02*
Y0000000D01*
X0028435Y0026950D02*
Y0000000D01*
X0028795Y0026950D02*
Y0000000D01*
X0043307Y0015480D02*
X0046435D01*
X0025877Y0015840D02*
X0030174D01*
X0029155Y0026950D02*
Y0000000D01*
X0030595Y0014402D02*
Y0008555D01*
X0030955Y0000558D02*
Y0000000D01*
X0031315Y0000558D02*
Y0000000D01*
X0031675Y0000558D02*
Y0000000D01*
X0032035Y0000558D02*
Y0000000D01*
X0032395Y0000558D02*
Y0000000D01*
X0032755Y0000558D02*
Y0000000D01*
X0033115Y0000558D02*
Y0000000D01*
X0033475Y0000558D02*
Y0000000D01*
X0033835Y0000558D02*
Y0000000D01*
X0034195Y0000558D02*
Y0000000D01*
X0034555Y0000558D02*
Y0000000D01*
X0034915Y0000558D02*
Y0000000D01*
X0002935Y0003600D02*
X0046435D01*
X0035635Y0000558D02*
Y0000000D01*
X0035995Y0000558D02*
Y0000000D01*
X0036355Y0000558D02*
Y0000000D01*
X0036715Y0000558D02*
Y0000000D01*
X0037075Y0000558D02*
Y0000000D01*
X0037435Y0000558D02*
Y0000000D01*
X0014104Y0007560D02*
X0029475D01*
X0038155Y0007465D02*
Y0002159D01*
X0038515Y0007333D02*
Y0002159D01*
X0038875Y0007388D02*
Y0002159D01*
X0039235Y0000558D02*
Y0000000D01*
X0039595Y0000558D02*
Y0000000D01*
X0039955Y0000558D02*
Y0000000D01*
X0040315Y0000558D02*
Y0000000D01*
X0045715Y0000080D02*
Y0000000D01*
X0002935Y0012240D02*
X0041547D01*
X0041395Y0026950D02*
Y0002159D01*
X0041755Y0010410D02*
Y0002159D01*
Y0000558D02*
Y0000000D01*
X0043195Y0010410D02*
Y0000000D01*
X0043555Y0026950D02*
Y0000000D01*
X0043915Y0026950D02*
Y0000000D01*
X0004913Y0025200D02*
X0044628D01*
X0002935D02*
X0003298D01*
X0044635Y0025190D02*
Y0001640D01*
X0044995Y0024892D02*
Y0001938D01*
X0045355Y0024793D02*
Y0002037D01*
Y0000043D02*
Y0000000D01*
X0004315Y0000062D02*
Y0000000D01*
X0004632Y0026640D02*
X0044908D01*
X0004977Y0026280D02*
X0044563D01*
X0005097Y0025920D02*
X0044444D01*
X0005078Y0025560D02*
X0044462D01*
X0045747Y0024840D02*
X0046435D01*
X0002935Y0024480D02*
X0046435D01*
X0002935Y0024120D02*
X0046435D01*
X0002935Y0023760D02*
X0046435D01*
X0002935Y0023400D02*
X0046435D01*
X0002935Y0023040D02*
X0046435D01*
X0002935Y0022680D02*
X0046435D01*
X0002935Y0022320D02*
X0046435D01*
X0002935Y0021960D02*
X0046435D01*
X0002935Y0021600D02*
X0046435D01*
X0002935Y0021240D02*
X0046435D01*
X0002935Y0020880D02*
X0046435D01*
X0011515Y0007970D02*
Y0007069D01*
X0014395Y0026950D02*
Y0020361D01*
Y0007648D02*
Y0007391D01*
X0014801Y0020160D02*
X0046435D01*
X0015049Y0019800D02*
X0046435D01*
X0014755Y0007812D02*
Y0007227D01*
X0014035Y0016618D02*
Y0009391D01*
X0012899Y0016920D02*
X0013532D01*
X0014403Y0018360D02*
X0046435D01*
X0043143Y0015840D02*
X0046435D01*
X0002935Y0016560D02*
X0046435D01*
X0030657Y0015840D02*
X0041728D01*
X0046085Y0001800D02*
X0046435D01*
X0031078Y0015480D02*
X0041564D01*
X0031165Y0015120D02*
X0041564D01*
X0002935Y0016200D02*
X0046435D01*
X0043195Y0012837D02*
Y0012763D01*
X0013097Y0008640D02*
X0013333D01*
X0013896Y0013320D02*
X0041545D01*
X0029515Y0026950D02*
Y0008639D01*
X0043325Y0011880D02*
X0046435D01*
X0043325Y0011520D02*
X0046435D01*
X0043325Y0011160D02*
X0046435D01*
X0039235Y0026950D02*
Y0008454D01*
X0002935Y0010080D02*
X0046435D01*
X0011155Y0026950D02*
Y0000000D01*
X0002935Y0008280D02*
X0011358D01*
X0038515Y0000558D02*
Y0000000D01*
X0039235Y0007706D02*
Y0002159D01*
X0039084Y0008640D02*
X0046435D01*
X0014755Y0016782D02*
Y0009227D01*
X0012235Y0005630D02*
Y0000000D01*
X0014035Y0005648D02*
Y0000000D01*
X0014395Y0005648D02*
Y0000000D01*
X0014678Y0005760D02*
X0046435D01*
X0002935Y0005400D02*
X0046435D01*
X0002935Y0005040D02*
X0046435D01*
X0002935Y0004680D02*
X0046435D01*
X0002935Y0004320D02*
X0046435D01*
X0002935Y0003960D02*
X0046435D01*
X0046352Y0001440D02*
X0046435D01*
X0002935Y0003240D02*
X0046435D01*
X0002935Y0002880D02*
X0046435D01*
X0002935Y0002520D02*
X0046435D01*
X0042835Y0010410D02*
Y0000000D01*
X0045715Y0024830D02*
Y0002000D01*
X0042473Y0001800D02*
X0044785D01*
X0042473Y0001440D02*
X0044519D01*
X0002935Y0002160D02*
X0046435D01*
X0042115Y0000558D02*
Y0000000D01*
X0046383Y0000720D02*
X0046435D01*
X0012235Y0016600D02*
Y0009410D01*
X0013675Y0012412D02*
Y0009227D01*
X0012595Y0016685D02*
Y0013427D01*
X0043320Y0014400D02*
X0046435D01*
X0002935Y0012960D02*
X0012467D01*
X0025807Y0014400D02*
X0030243D01*
X0002935Y0020520D02*
X0046435D01*
X0025195Y0026950D02*
Y0015737D01*
X0025555Y0026950D02*
Y0015876D01*
X0025915Y0026950D02*
Y0015826D01*
X0026385Y0015120D02*
X0029665D01*
X0002935D02*
X0024885D01*
X0026298Y0015480D02*
X0029752D01*
X0026288Y0014760D02*
X0029763D01*
X0026275Y0026950D02*
Y0015521D01*
X0025915Y0014434D02*
Y0000000D01*
X0002935Y0014400D02*
X0025463D01*
X0030235Y0026950D02*
Y0015858D01*
X0025555Y0014384D02*
Y0000000D01*
X0029875Y0014609D02*
Y0008817D01*
X0030587Y0014400D02*
X0041551D01*
X0002935Y0015480D02*
X0024972D01*
X0002935Y0015840D02*
X0025394D01*
X0030556Y0007560D02*
X0038045D01*
X0030595Y0026950D02*
Y0015858D01*
X0024475Y0026950D02*
Y0000000D01*
X0002935Y0014760D02*
X0024983D01*
X0014509Y0009360D02*
X0046435D01*
X0030235Y0014402D02*
Y0008797D01*
X0015097Y0008640D02*
X0029516D01*
X0039318Y0007920D02*
X0046435D01*
X0043325Y0010440D02*
X0046435D01*
X0038155Y0026950D02*
Y0008694D01*
X0038515Y0026950D02*
Y0008827D01*
X0033475Y0026950D02*
Y0002159D01*
X0038875Y0026950D02*
Y0008771D01*
X0030595Y0007604D02*
Y0002159D01*
X0030514Y0008640D02*
X0038086D01*
X0005053Y0000720D02*
X0030544D01*
X0002935Y0005760D02*
X0011752D01*
X0002935Y0001800D02*
X0003455D01*
X0002935Y0001440D02*
X0003189D01*
X0002935Y0001080D02*
X0003106D01*
X0004675Y0000218D02*
Y0000000D01*
X0002935Y0000360D02*
X0003372D01*
X0002935Y0000720D02*
X0003158D01*
X0003235Y0000547D02*
Y0000000D01*
X0003595Y0000180D02*
Y0000000D01*
X0004417Y0024840D02*
X0045123D01*
X0003235Y0026950D02*
Y0026283D01*
X0003595Y0026950D02*
Y0026650D01*
X0003955Y0026950D02*
Y0026779D01*
X0004315Y0026950D02*
Y0026768D01*
X0004675Y0026950D02*
Y0026611D01*
X0005035Y0026950D02*
Y0026157D01*
X0002935Y0026640D02*
X0003578D01*
X0002935Y0026280D02*
X0003233D01*
X0002935Y0025920D02*
X0003114D01*
X0002935Y0025560D02*
X0003132D01*
X0046075Y0025021D02*
Y0001808D01*
X0014755Y0026950D02*
Y0020197D01*
X0044635Y0026950D02*
Y0026390D01*
X0044995Y0026950D02*
Y0026688D01*
X0045355Y0026950D02*
Y0026787D01*
X0004675Y0024968D02*
Y0001861D01*
X0045715Y0026950D02*
Y0026750D01*
X0046075Y0026950D02*
Y0026558D01*
X0045962Y0026640D02*
X0046435D01*
X0046307Y0026280D02*
X0046435D01*
X0046408Y0025560D02*
X0046435D01*
X0046243Y0025200D02*
X0046435D01*
X0040675Y0000558D02*
Y0000000D01*
X0044635Y0000440D02*
Y0000000D01*
X0044995Y0000142D02*
Y0000000D01*
X0041395Y0000558D02*
Y0000000D01*
X0044275Y0026950D02*
Y0000000D01*
X0004755Y0001800D02*
X0030544D01*
X0043240Y0013680D02*
X0046435D01*
X0043286Y0014040D02*
X0046435D01*
X0042475Y0026950D02*
Y0016189D01*
X0043307Y0015120D02*
X0046435D01*
X0014899Y0016920D02*
X0046435D01*
X0043325Y0013320D02*
X0046435D01*
X0013964Y0012960D02*
X0041613D01*
X0013675Y0016782D02*
Y0013597D01*
X0041755Y0026950D02*
Y0015874D01*
X0042473Y0000720D02*
X0044488D01*
X0046168Y0000360D02*
X0046435D01*
X0002935Y0011880D02*
X0041545D01*
X0043258Y0012960D02*
X0046435D01*
X0043323Y0012240D02*
X0046435D01*
X0002935Y0010800D02*
X0041545D01*
X0012235Y0026950D02*
Y0020380D01*
X0014035Y0026950D02*
Y0020361D01*
X0012801Y0020160D02*
X0013629D01*
X0002935Y0010440D02*
X0041545D01*
X0014395Y0018618D02*
Y0018361D01*
X0013104Y0019440D02*
X0013327D01*
X0015104D02*
X0046435D01*
X0015080Y0017280D02*
X0046435D01*
X0002935Y0013680D02*
X0012888D01*
X0013080Y0017280D02*
X0013350D01*
X0013675Y0026950D02*
Y0020197D01*
X0002935Y0018000D02*
X0011486D01*
X0011515Y0018940D02*
Y0018039D01*
X0013049Y0019800D02*
X0013381D01*
X0002935Y0018720D02*
X0011769D01*
X0002935Y0024840D02*
X0003793D01*
X0002935Y0017640D02*
X0011338D01*
X0011515Y0026950D02*
Y0020039D01*
X0002935Y0020160D02*
X0011629D01*
X0013315Y0026950D02*
Y0019374D01*
X0030955Y0026950D02*
Y0015650D01*
X0011875Y0026950D02*
Y0020312D01*
X0002935Y0019080D02*
X0011425D01*
X0015005D02*
X0046435D01*
X0002935Y0019800D02*
X0011381D01*
X0002935Y0019440D02*
X0011327D01*
X0014945Y0018000D02*
X0046435D01*
X0012235Y0018600D02*
Y0018380D01*
X0012509Y0009360D02*
X0013921D01*
X0013315Y0012262D02*
Y0008404D01*
X0014965Y0009000D02*
X0046435D01*
X0014789Y0007200D02*
X0046435D01*
X0012595Y0005715D02*
Y0000000D01*
X0013315Y0006635D02*
Y0000000D01*
X0013104Y0006480D02*
X0013326D01*
X0014395Y0016618D02*
Y0009391D01*
X0012965Y0009000D02*
X0013466D01*
X0002935Y0007200D02*
X0011641D01*
X0012595Y0012583D02*
Y0009325D01*
G01X0012325Y0018490D02*
G03X0012333Y0018372I0000890J0000000D01*
Y0007638D02*
G03X0012325Y0007520I0000882J0000118D01*
G01X0012215Y0007630D02*
G03X0012333Y0007638I0000000J0000890D01*
G01X0043325Y0013300D02*
G03X0043171Y0013800I0000890J0000000D01*
G01X0014097Y0007638D02*
G03X0014215Y0007630I0000118J0000882D01*
G01X0041699Y0013800D02*
G03X0041545Y0013300I0000736J0000500D01*
Y0015300D02*
G03X0041699Y0014800I0000890J0000000D01*
G01X0014105Y0007520D02*
G03X0014097Y0007638I0000890J0000000D01*
Y0007402D02*
G03X0014105Y0007520I0000882J0000118D01*
G01X0013215Y0008410D02*
G03X0013097Y0008402I0000000J0000890D01*
G01X0013215Y0012255D02*
G03X0013965Y0013005I0000000J0000750D01*
G01X0012465D02*
G03X0013215Y0012255I0000750J0000000D01*
Y0013755D02*
G03X0012465Y0013005I0000000J0000750D01*
G01X0013965D02*
G03X0013215Y0013755I0000750J0000000D01*
G01X0025635Y0014380D02*
G03X0026385Y0015130I0000000J0000750D01*
G01X0024885D02*
G03X0025635Y0014380I0000750J0000000D01*
Y0015880D02*
G03X0024885Y0015130I0000000J0000750D01*
G01X0026385D02*
G03X0025635Y0015880I0000750J0000000D01*
G01X0030415Y0014380D02*
G03X0031165Y0015130I0000000J0000750D01*
G01X0029665D02*
G03X0030415Y0014380I0000750J0000000D01*
Y0015880D02*
G03X0029665Y0015130I0000000J0000750D01*
G01X0031165D02*
G03X0030415Y0015880I0000750J0000000D01*
G01X0030015Y0007330D02*
G03X0030765Y0008080I0000000J0000750D01*
G01X0029265D02*
G03X0030015Y0007330I0000750J0000000D01*
Y0008830D02*
G03X0029265Y0008080I0000000J0000750D01*
G01X0030765D02*
G03X0030015Y0008830I0000750J0000000D01*
G01X0038585Y0007330D02*
G03X0039335Y0008080I0000000J0000750D01*
G01X0037835D02*
G03X0038585Y0007330I0000750J0000000D01*
Y0008830D02*
G03X0037835Y0008080I0000000J0000750D01*
G01X0039335D02*
G03X0038585Y0008830I0000750J0000000D01*
G01X0004105Y0000040D02*
G03X0005105Y0001040I0000000J0001000D01*
G01X0003105D02*
G03X0004105Y0000040I0001000J0000000D01*
Y0002040D02*
G03X0003105Y0001040I0000000J0001000D01*
G01X0005105D02*
G03X0004105Y0002040I0001000J0000000D01*
Y0024790D02*
G03X0005105Y0025790I0000000J0001000D01*
G01X0003105D02*
G03X0004105Y0024790I0001000J0000000D01*
Y0026790D02*
G03X0003105Y0025790I0000000J0001000D01*
G01X0005105D02*
G03X0004105Y0026790I0001000J0000000D01*
G01X0044435Y0025790D02*
G03X0045435Y0024790I0001000J0000000D01*
Y0026790D02*
G03X0044435Y0025790I0000000J0001000D01*
G01X0045435Y0024790D02*
G03X0046435Y0025790I0000000J0001000D01*
G01X0044435Y0001040D02*
G03X0045435Y0000040I0001000J0000000D01*
Y0002040D02*
G03X0044435Y0001040I0000000J0001000D01*
G01X0045435Y0000040D02*
G03X0046435Y0001040I0000000J0001000D01*
G01X0042435Y0016190D02*
G03X0041545Y0015300I0000000J0000890D01*
G01X0043325D02*
G03X0042435Y0016190I0000890J0000000D01*
G01X0041545Y0013300D02*
G03X0041699Y0012800I0000890J0000000D01*
G01X0043171D02*
G03X0043325Y0013300I0000736J0000500D01*
G01X0014215Y0018600D02*
G03X0015105Y0019490I0000000J0000890D01*
G01X0014215Y0020380D02*
G03X0013325Y0019490I0000000J0000890D01*
G01X0015105D02*
G03X0014215Y0020380I0000890J0000000D01*
Y0016600D02*
G03X0015105Y0017490I0000000J0000890D01*
G01X0013325D02*
G03X0014215Y0016600I0000890J0000000D01*
G01X0013333Y0017608D02*
G03X0013325Y0017490I0000882J0000118D01*
G01X0015105D02*
G03X0014215Y0018380I0000890J0000000D01*
G01X0012215Y0016600D02*
G03X0013105Y0017490I0000000J0000890D01*
G01X0011325D02*
G03X0012215Y0016600I0000890J0000000D01*
Y0018380D02*
G03X0011325Y0017490I0000000J0000890D01*
G01X0012333Y0018372D02*
G03X0012215Y0018380I0000118J0000882D01*
G01X0011325Y0019490D02*
G03X0012215Y0018600I0000890J0000000D01*
Y0020380D02*
G03X0011325Y0019490I0000000J0000890D01*
G01X0013105D02*
G03X0012215Y0020380I0000890J0000000D01*
G01X0014215Y0007630D02*
G03X0015105Y0008520I0000000J0000890D01*
G01X0014215Y0009410D02*
G03X0013325Y0008520I0000000J0000890D01*
G01X0015105D02*
G03X0014215Y0009410I0000890J0000000D01*
Y0005630D02*
G03X0015105Y0006520I0000000J0000890D01*
G01X0013325D02*
G03X0014215Y0005630I0000890J0000000D01*
G01X0015105Y0006520D02*
G03X0014215Y0007410I0000890J0000000D01*
G01X0012215Y0005630D02*
G03X0013105Y0006520I0000000J0000890D01*
G01X0011325D02*
G03X0012215Y0005630I0000890J0000000D01*
Y0007410D02*
G03X0011325Y0006520I0000000J0000890D01*
G01X0013325Y0019490D02*
G03X0013333Y0019372I0000890J0000000D01*
G01X0011325Y0008520D02*
G03X0012215Y0007630I0000890J0000000D01*
Y0009410D02*
G03X0011325Y0008520I0000000J0000890D01*
G01X0013105D02*
G03X0012215Y0009410I0000890J0000000D01*
G01X0013097Y0019372D02*
G03X0013105Y0019490I0000882J0000118D01*
G01X0012325Y0007520D02*
G03X0012333Y0007402I0000890J0000000D01*
G01X0014215Y0007410D02*
G03X0014097Y0007402I0000000J0000890D01*
G01X0013215Y0006630D02*
G03X0013333Y0006638I0000000J0000890D01*
G01X0041545Y0014300D02*
G03X0041699Y0013800I0000890J0000000D01*
G01X0013105Y0006520D02*
G03X0013097Y0006638I0000890J0000000D01*
G01X0013333D02*
G03X0013325Y0006520I0000882J0000118D01*
G01X0046435Y0001040D02*
G03X0045435Y0002040I0001000J0000000D01*
G01X0046435Y0025790D02*
G03X0045435Y0026790I0001000J0000000D01*
G01X0013333Y0019372D02*
G03X0013215Y0019380I0000118J0000882D01*
G01X0041699Y0014800D02*
G03X0041545Y0014300I0000736J0000500D01*
G01X0043171Y0014800D02*
G03X0043325Y0015300I0000736J0000500D01*
G01X0041699Y0012800D02*
G03X0041545Y0012300I0000736J0000500D01*
G01X0043318Y0012190D02*
G03X0043325Y0012300I0000883J0000110D01*
G01X0013333Y0008402D02*
G03X0013215Y0008410I0000118J0000882D01*
G01X0013097Y0008402D02*
G03X0013105Y0008520I0000882J0000118D01*
G01X0012333Y0018608D02*
G03X0012325Y0018490I0000882J0000118D01*
G01X0013215Y0017600D02*
G03X0013333Y0017608I0000000J0000890D01*
G01X0012333Y0007402D02*
G03X0012215Y0007410I0000118J0000882D01*
G01X0043325Y0014300D02*
G03X0043171Y0014800I0000890J0000000D01*
Y0013800D02*
G03X0043325Y0014300I0000736J0000500D01*
Y0012300D02*
G03X0043171Y0012800I0000890J0000000D01*
G01X0041545Y0012300D02*
G03X0041552Y0012190I0000890J0000000D01*
G01X0014097Y0018372D02*
G03X0014105Y0018490I0000882J0000118D01*
G03X0014097Y0018608I0000890J0000000D01*
G01X0013215Y0019380D02*
G03X0013097Y0019372I0000000J0000890D01*
Y0017608D02*
G03X0013215Y0017600I0000118J0000882D01*
G01X0013105Y0017490D02*
G03X0013097Y0017608I0000890J0000000D01*
G01X0012215Y0018600D02*
G03X0012333Y0018608I0000000J0000890D01*
G01X0014097D02*
G03X0014215Y0018600I0000118J0000882D01*
G01X0013097Y0006638D02*
G03X0013215Y0006630I0000118J0000882D01*
G01X0014215Y0018380D02*
G03X0014097Y0018372I0000000J0000890D01*
G01X0013325Y0008520D02*
G03X0013333Y0008402I0000890J0000000D01*
G54D32*
X0042435Y0012300D03*
Y0013300D03*
Y0014300D03*
Y0015300D03*
X0013215Y0018490D03*
X0012215Y0019490D03*
Y0017490D03*
X0014215D03*
Y0019490D03*
X0013215Y0007520D03*
X0012215Y0008520D03*
Y0006520D03*
X0014215D03*
Y0008520D03*
G54D33*
X0042435Y0011300D03*
G54D41*
X0004105Y0001040D03*
Y0025790D03*
X0045435D03*
Y0001040D03*
G54D44*
X0013215Y0013005D03*
X0025635Y0015130D03*
X0030415D03*
X0030015Y0008080D03*
X0038585D03*
M02*
