*
G04 Mass Parameters ***
*
G04 Image ***
*
%IND:\DATE\GPR\HARDWARE\SECTIUNEA_JF\GPR_JF.SST*%
%ICAS*%
%MOIN*%
%IPPOS*%
%ASAXBY*%
G74*%FSLAN2X34Y34*%
*
G04 Aperture Definitions ***
*
%ADD10C,0.0520*%
%ADD11R,0.0520X0.0520*%
%ADD12C,0.0550*%
%ADD13C,0.0620*%
%ADD14R,0.0620X0.0620*%
%ADD15C,0.0580*%
%ADD16R,0.0580X0.0580*%
%ADD17R,0.0550X0.0550*%
%ADD18C,0.1470*%
%ADD19C,0.0750*%
%ADD20R,0.0750X0.0750*%
%ADD21C,0.0500*%
%ADD22C,0.0010*%
%ADD23C,0.0500*%
%ADD24C,0.0300*%
%ADD25C,0.0200*%
%ADD26O,0.0250X0.0860*%
%ADD27R,0.0250X0.0860*%
%ADD28O,0.0860X0.0250*%
%ADD29R,0.0860X0.0250*%
%ADD30C,0.0100*%
%ADD31C,0.0500*%
%ADD32C,0.0080*%
%ADD33C,0.0250*%
%ADD34C,0.0180*%
%ADD35C,0.0720*%
%ADD36R,0.0720X0.0720*%
%ADD37C,0.0800*%
%ADD38C,0.0820*%
%ADD39R,0.0820X0.0820*%
%ADD40C,0.0780*%
%ADD41R,0.0780X0.0780*%
%ADD42C,0.1750*%
%ADD43C,0.0950*%
%ADD44R,0.0950X0.0950*%
%ADD45C,0.0750*%
%ADD46C,0.0670*%
%ADD47C,0.0550*%
%ADD48O,0.0750X0.0250*%
%ADD49R,0.0750X0.0250*%
%ADD50O,0.0250X0.0750*%
%ADD51R,0.0250X0.0750*%
%ADD52C,0.0400*%
%ADD53C,0.1100*%
%ADD54C,0.1000*%
%ADD55C,0.1400*%
%ADD56C,0.1050*%
*
G04 Plot Data ***
*
G54D30*
G01X0041602Y0022253D02*
Y0022431D01*
Y0022342D02*
X0042135D01*
X0042047Y0022431D01*
X0041780Y0023076D02*
X0041691D01*
X0041602Y0023031D01*
Y0022853D01*
X0041691Y0022809D01*
X0042135D01*
Y0022764D02*
Y0022942D01*
X0040420Y0022230D02*
Y0023030D01*
X0040070D01*
Y0022230D01*
X0040420D01*
G54D32*
G01X0037973Y0021631D02*
Y0021853D01*
X0038195Y0021631D01*
X0038250D01*
X0038306Y0021659D01*
Y0021826D01*
X0038250Y0021853D01*
X0037973Y0022041D02*
Y0022152D01*
Y0022097D02*
X0038306D01*
X0038250Y0022152D01*
X0038028Y0022395D02*
X0037973Y0022423D01*
Y0022590D01*
X0038028Y0022618D01*
X0038250D01*
X0038306Y0022590D01*
Y0022423D01*
X0038250Y0022395D01*
X0040578Y0015308D02*
Y0015531D01*
X0040800Y0015308D01*
X0040855D01*
X0040911Y0015336D01*
Y0015503D01*
X0040855Y0015531D01*
X0040578Y0015718D02*
Y0015913D01*
X0040911D01*
X0035634Y0023157D02*
X0035745D01*
X0035690D02*
Y0022824D01*
X0035745Y0022880D01*
X0031801Y0023102D02*
X0031745Y0023157D01*
X0031634D01*
X0031579Y0023102D01*
Y0023046D01*
X0031690Y0022935D01*
X0031579Y0022824D01*
X0031801D01*
X0033834Y0004127D02*
X0033945D01*
X0033890D02*
Y0003794D01*
X0033945Y0003850D01*
X0012705Y0022812D02*
X0012594D01*
X0012650D02*
Y0023146D01*
X0012594Y0023090D01*
X0014175Y0024068D02*
X0014203Y0024013D01*
X0014370D01*
X0014398Y0024068D01*
Y0024179D01*
X0014342Y0024235D01*
X0014175D01*
Y0024346D01*
X0014398D01*
X0013793Y0024124D02*
Y0024068D01*
X0013821Y0024013D01*
X0013932D01*
X0013960Y0024068D01*
Y0024346D01*
X0013988D02*
X0013876D01*
X0033644Y0023980D02*
X0033700Y0023925D01*
X0033811D01*
X0033867Y0023980D01*
Y0024036D01*
X0033755Y0024147D01*
X0033867Y0024258D01*
X0033644D01*
X0033262Y0024036D02*
Y0023980D01*
X0033290Y0023925D01*
X0033401D01*
X0033429Y0023980D01*
Y0024258D01*
X0033457D02*
X0033345D01*
X0019952Y0022865D02*
X0019980Y0022810D01*
X0020147D01*
X0020175Y0022865D01*
Y0022977D01*
X0020119Y0023032D01*
X0019952D01*
Y0023143D01*
X0020175D01*
X0019765Y0022810D02*
X0019654D01*
X0019709D02*
Y0023143D01*
X0019654Y0023088D01*
X0019327Y0022977D02*
X0019410Y0022810D01*
X0019188Y0022977D02*
X0019355D01*
X0019410Y0023032D01*
Y0023088D01*
X0019355Y0023143D01*
X0019188D01*
Y0022810D01*
X0016513Y0006485D02*
X0016680Y0006818D01*
X0016457D01*
X0016270Y0006485D02*
X0016159D01*
X0016214D02*
Y0006818D01*
X0016159Y0006763D01*
X0015915Y0006540D02*
X0015888Y0006485D01*
X0015721D01*
X0015693Y0006540D01*
Y0006763D01*
X0015721Y0006818D01*
X0015888D01*
X0015915Y0006763D01*
X0022003Y0018781D02*
X0021975Y0018725D01*
Y0018669D01*
X0022003Y0018614D01*
X0022170D01*
X0022198Y0018669D01*
Y0018725D01*
X0022170Y0018781D01*
X0022003D01*
X0021975Y0018836D01*
Y0018892D01*
X0022003Y0018947D01*
X0022170D01*
X0022198Y0018892D01*
Y0018836D01*
X0022170Y0018781D01*
X0022385Y0018892D02*
X0022413Y0018947D01*
X0022580D01*
X0022608Y0018892D01*
Y0018669D01*
X0022580Y0018614D01*
X0022413D01*
X0022385Y0018669D01*
X0007680Y0018619D02*
Y0018452D01*
X0007624Y0018424D01*
X0007569D01*
X0007513Y0018452D01*
Y0018619D01*
X0007569Y0018647D01*
X0007624D01*
X0007847Y0018536D01*
X0007513Y0018834D02*
Y0018945D01*
Y0018890D02*
X0007847D01*
X0007791Y0018945D01*
X0007569Y0019189D02*
X0007513Y0019217D01*
Y0019383D01*
X0007569Y0019411D01*
X0007791D01*
X0007847Y0019383D01*
Y0019217D01*
X0007791Y0019189D01*
X0005600Y0019222D02*
Y0018956D01*
X0005733Y0019089D02*
X0005467D01*
X0011416Y0019230D02*
Y0019452D01*
X0011638Y0019341D01*
Y0019286D01*
X0011305D01*
Y0019640D02*
Y0019751D01*
Y0019696D02*
X0011638D01*
X0011583Y0019751D01*
X0011360Y0019994D02*
X0011305Y0020022D01*
Y0020189D01*
X0011360Y0020217D01*
X0011583D01*
X0011638Y0020189D01*
Y0020022D01*
X0011583Y0019994D01*
X0016680Y0018361D02*
X0016569D01*
X0016625D02*
Y0018695D01*
X0016569Y0018639D01*
X0016326Y0018361D02*
X0016131D01*
Y0018695D01*
X0019010Y0007915D02*
Y0008137D01*
X0019232Y0007915D01*
X0019288D01*
X0019343Y0007943D01*
Y0008110D01*
X0019288Y0008137D01*
X0019010Y0008325D02*
Y0008436D01*
Y0008381D02*
X0019343D01*
X0019288Y0008436D01*
X0019177Y0008763D02*
X0019010Y0008679D01*
X0019177Y0008902D02*
Y0008735D01*
X0019232Y0008679D01*
X0019288D01*
X0019343Y0008735D01*
Y0008902D01*
X0019010D01*
X0016842Y0011295D02*
X0016898Y0011240D01*
X0017009D01*
X0017065Y0011295D01*
Y0011351D01*
X0016954Y0011462D01*
X0017065Y0011573D01*
X0016842D01*
X0016655Y0011240D02*
X0016544D01*
X0016599D02*
Y0011573D01*
X0016544Y0011518D01*
X0016217Y0011407D02*
X0016300Y0011240D01*
X0016078Y0011407D02*
X0016245D01*
X0016300Y0011462D01*
Y0011518D01*
X0016245Y0011573D01*
X0016078D01*
Y0011240D01*
X0007425Y0017568D02*
X0007369Y0017623D01*
X0007341Y0017679D01*
Y0017790D01*
X0007369Y0017845D01*
X0007425Y0017901D01*
X0007480D01*
X0007536Y0017845D01*
X0007564Y0017790D01*
Y0017679D01*
X0007536Y0017623D01*
X0007480Y0017568D01*
X0007425D01*
X0007154D02*
X0007043D01*
X0007098D02*
Y0017901D01*
X0007043Y0017845D01*
X0006716Y0017734D02*
X0006799Y0017568D01*
X0006577Y0017734D02*
X0006744D01*
X0006799Y0017790D01*
Y0017845D01*
X0006744Y0017901D01*
X0006577D01*
Y0017568D01*
X0009710Y0018811D02*
Y0018922D01*
Y0018866D02*
X0010043D01*
X0009988Y0018922D01*
X0009710Y0019165D02*
Y0019276D01*
Y0019221D02*
X0010043D01*
X0009988Y0019276D01*
X0009877Y0019603D02*
X0009710Y0019519D01*
X0009877Y0019742D02*
Y0019575D01*
X0009932Y0019519D01*
X0009988D01*
X0010043Y0019575D01*
Y0019742D01*
X0009710D01*
X0032647Y0004935D02*
X0032424D01*
X0032647Y0005157D01*
Y0005213D01*
X0032619Y0005268D01*
X0032452D01*
X0032424Y0005213D01*
X0032042Y0005046D02*
Y0004990D01*
X0032070Y0004935D01*
X0032181D01*
X0032209Y0004990D01*
Y0005268D01*
X0032237D02*
X0032125D01*
X0022720Y0009247D02*
Y0009514D01*
X0022587Y0009381D02*
X0022853D01*
X0034193Y0018895D02*
X0034527Y0018729D01*
Y0018951D01*
X0034249Y0019139D02*
X0034193Y0019167D01*
Y0019333D01*
X0034249Y0019361D01*
X0034471D01*
X0034527Y0019333D01*
Y0019167D01*
X0034471Y0019139D01*
X0032220Y0018512D02*
Y0018246D01*
X0032353Y0018379D02*
X0032087D01*
X0018422Y0020250D02*
X0018156D01*
X0018289Y0020117D02*
Y0020383D01*
X0019331Y0021130D02*
X0019359Y0021074D01*
X0019525D01*
X0019553Y0021130D01*
Y0021241D01*
X0019497Y0021296D01*
X0019331D01*
Y0021408D01*
X0019553D01*
X0019143Y0021074D02*
X0019032D01*
X0019088D02*
Y0021408D01*
X0019032Y0021352D01*
X0018789Y0021130D02*
X0018761Y0021074D01*
X0018594D01*
X0018566Y0021130D01*
Y0021352D01*
X0018594Y0021408D01*
X0018761D01*
X0018789Y0021352D01*
X0030248Y0011497D02*
Y0011608D01*
Y0011552D02*
X0030581D01*
X0030525Y0011608D01*
X0030248Y0011851D02*
Y0011962D01*
Y0011907D02*
X0030581D01*
X0030525Y0011962D01*
X0030303Y0012205D02*
X0030248Y0012233D01*
Y0012400D01*
X0030303Y0012428D01*
X0030525D01*
X0030581Y0012400D01*
Y0012233D01*
X0030525Y0012205D01*
X0028272Y0013170D02*
X0028006D01*
X0028139Y0013037D02*
Y0013303D01*
X0025873Y0019478D02*
X0026039Y0019811D01*
X0025817D01*
X0025546Y0019644D02*
X0025629Y0019478D01*
X0025407Y0019644D02*
X0025574D01*
X0025629Y0019700D01*
Y0019755D01*
X0025574Y0019811D01*
X0025407D01*
Y0019478D01*
X0040697Y0007377D02*
X0040752Y0007349D01*
X0040808D01*
X0040863Y0007377D01*
Y0007544D01*
X0040808Y0007572D01*
X0040752D01*
X0040697Y0007544D01*
Y0007377D01*
X0040641Y0007349D01*
X0040585D01*
X0040530Y0007377D01*
Y0007544D01*
X0040585Y0007572D01*
X0040641D01*
X0040697Y0007544D01*
Y0007843D02*
X0040530Y0007759D01*
X0040697Y0007982D02*
Y0007815D01*
X0040752Y0007759D01*
X0040808D01*
X0040863Y0007815D01*
Y0007982D01*
X0040530D01*
X0039234Y0007338D02*
Y0007505D01*
X0039290Y0007533D01*
X0039345D01*
X0039401Y0007505D01*
Y0007338D01*
X0039345Y0007310D01*
X0039290D01*
X0039068Y0007422D01*
X0039234Y0007804D02*
X0039068Y0007720D01*
X0039234Y0007943D02*
Y0007776D01*
X0039290Y0007720D01*
X0039345D01*
X0039401Y0007776D01*
Y0007943D01*
X0039068D01*
X0022574Y0010574D02*
X0022352D01*
X0022463Y0010796D01*
X0022519D01*
Y0010463D01*
X0022164Y0010518D02*
X0022137Y0010463D01*
X0021970D01*
X0021942Y0010518D01*
Y0010740D01*
X0021970Y0010796D01*
X0022137D01*
X0022164Y0010740D01*
X0041764Y0019307D02*
Y0019418D01*
Y0019362D02*
X0042098D01*
X0042042Y0019418D01*
X0041820Y0019661D02*
X0041764Y0019689D01*
Y0019856D01*
X0041820Y0019883D01*
X0042042D01*
X0042098Y0019856D01*
Y0019689D01*
X0042042Y0019661D01*
X0040720Y0020247D02*
Y0020514D01*
X0040587Y0020381D02*
X0040853D01*
X0041624Y0011311D02*
Y0011533D01*
X0041846Y0011311D01*
X0041902D01*
X0041958Y0011339D01*
Y0011506D01*
X0041902Y0011533D01*
X0041680Y0011721D02*
X0041624Y0011749D01*
Y0011916D01*
X0041680Y0011943D01*
X0041902D01*
X0041958Y0011916D01*
Y0011749D01*
X0041902Y0011721D01*
X0040720Y0012247D02*
Y0012514D01*
X0040587Y0012381D02*
X0040853D01*
X0023560Y0007793D02*
X0023504Y0007738D01*
Y0007627D01*
X0023560Y0007571D01*
X0023615D01*
X0023726Y0007682D01*
X0023838Y0007571D01*
Y0007793D01*
X0023560Y0007981D02*
X0023504Y0008009D01*
Y0008176D01*
X0023560Y0008203D01*
X0023782D01*
X0023838Y0008176D01*
Y0008009D01*
X0023782Y0007981D01*
X0005024Y0011162D02*
Y0011385D01*
X0005246Y0011273D01*
Y0011218D01*
X0004913D01*
X0005024Y0011767D02*
X0004968D01*
X0004913Y0011739D01*
Y0011628D01*
X0004968Y0011600D01*
X0005246D01*
Y0011572D02*
Y0011683D01*
X0031535Y0007480D02*
X0031424D01*
X0031479D02*
Y0007813D01*
X0031424Y0007758D01*
X0031097Y0007647D02*
X0031180Y0007480D01*
X0030958Y0007647D02*
X0031125D01*
X0031180Y0007702D01*
Y0007758D01*
X0031125Y0007813D01*
X0030958D01*
Y0007480D01*
X0025571Y0017975D02*
X0025515Y0018030D01*
X0025487Y0018086D01*
Y0018197D01*
X0025515Y0018253D01*
X0025571Y0018308D01*
X0025626D01*
X0025682Y0018253D01*
X0025710Y0018197D01*
Y0018086D01*
X0025682Y0018030D01*
X0025626Y0017975D01*
X0025571D01*
X0025300D02*
X0025189D01*
X0025244D02*
Y0018308D01*
X0025189Y0018253D01*
X0024945Y0018030D02*
X0024918Y0017975D01*
X0024751D01*
X0024723Y0018030D01*
Y0018253D01*
X0024751Y0018308D01*
X0024918D01*
X0024945Y0018253D01*
X0031861Y0013152D02*
X0032028D01*
X0032055Y0013096D01*
Y0013040D01*
X0032028Y0012985D01*
X0031861D01*
X0031833Y0013040D01*
Y0013096D01*
X0031944Y0013318D01*
X0031645Y0013040D02*
X0031618Y0012985D01*
X0031451D01*
X0031423Y0013040D01*
Y0013263D01*
X0031451Y0013318D01*
X0031618D01*
X0031645Y0013263D01*
X0031510Y0009000D02*
X0031288D01*
X0031510Y0009222D01*
Y0009278D01*
X0031483Y0009333D01*
X0031316D01*
X0031288Y0009278D01*
X0031017Y0009167D02*
X0031100Y0009000D01*
X0030878Y0009167D02*
X0031045D01*
X0031100Y0009222D01*
Y0009278D01*
X0031045Y0009333D01*
X0030878D01*
Y0009000D01*
X0029377Y0018063D02*
X0029433Y0018008D01*
X0029544D01*
X0029599Y0018063D01*
Y0018119D01*
X0029488Y0018230D01*
X0029599Y0018341D01*
X0029377D01*
X0029106Y0018174D02*
X0029189Y0018008D01*
X0028967Y0018174D02*
X0029134D01*
X0029189Y0018230D01*
Y0018285D01*
X0029134Y0018341D01*
X0028967D01*
Y0018008D01*
X0031589Y0014589D02*
X0031367D01*
X0031478Y0014811D01*
X0031534D01*
Y0014478D01*
X0031096Y0014644D02*
X0031179Y0014478D01*
X0030957Y0014644D02*
X0031124D01*
X0031179Y0014700D01*
Y0014755D01*
X0031124Y0014811D01*
X0030957D01*
Y0014478D01*
X0029803Y0019530D02*
X0029831Y0019475D01*
X0029998D01*
X0030025Y0019530D01*
Y0019642D01*
X0029970Y0019697D01*
X0029803D01*
Y0019808D01*
X0030025D01*
X0029615Y0019530D02*
X0029588Y0019475D01*
X0029421D01*
X0029393Y0019530D01*
Y0019753D01*
X0029421Y0019808D01*
X0029588D01*
X0029615Y0019753D01*
X0024275Y0022941D02*
X0024052D01*
X0024164Y0023163D01*
X0024219D01*
Y0022830D01*
X0023865D02*
X0023754D01*
X0023809D02*
Y0023163D01*
X0023754Y0023108D01*
X0023427Y0022997D02*
X0023510Y0022830D01*
X0023288Y0022997D02*
X0023455D01*
X0023510Y0023052D01*
Y0023108D01*
X0023455Y0023163D01*
X0023288D01*
Y0022830D01*
X0005542Y0013332D02*
Y0013499D01*
X0005597Y0013527D01*
X0005653D01*
X0005708Y0013499D01*
Y0013332D01*
X0005653Y0013304D01*
X0005597D01*
X0005375Y0013416D01*
X0005430Y0013714D02*
X0005375Y0013742D01*
Y0013909D01*
X0005430Y0013937D01*
X0005653D01*
X0005708Y0013909D01*
Y0013742D01*
X0005653Y0013714D01*
X0036005Y0021422D02*
X0035950Y0021394D01*
Y0021227D01*
X0036005Y0021199D01*
X0036117D01*
X0036172Y0021255D01*
Y0021422D01*
X0036283D01*
Y0021199D01*
X0036117Y0021693D02*
X0035950Y0021609D01*
X0036117Y0021832D02*
Y0021665D01*
X0036172Y0021609D01*
X0036228D01*
X0036283Y0021665D01*
Y0021832D01*
X0035950D01*
X0031346Y0016137D02*
X0031513D01*
X0031540Y0016081D01*
Y0016025D01*
X0031513Y0015970D01*
X0031346D01*
X0031318Y0016025D01*
Y0016081D01*
X0031429Y0016303D01*
X0031047Y0016137D02*
X0031130Y0015970D01*
X0030908Y0016137D02*
X0031075D01*
X0031130Y0016192D01*
Y0016248D01*
X0031075Y0016303D01*
X0030908D01*
Y0015970D01*
X0037790Y0021000D02*
Y0023000D01*
X0036790D02*
Y0021000D01*
X0020990Y0019130D02*
X0022990D01*
X0040710Y0016390D02*
Y0016640D01*
X0040210Y0014890D02*
Y0016390D01*
X0041210D01*
Y0014890D01*
X0040210D01*
X0040710D02*
Y0014640D01*
X0031340Y0004460D02*
Y0003460D01*
X0033440D01*
Y0004460D01*
X0032890D01*
X0031890D01*
X0031340D01*
X0024510Y0023030D02*
X0024760D01*
X0023010Y0023530D02*
X0024510D01*
Y0022530D01*
X0023010D01*
Y0023530D01*
X0020390Y0023010D02*
X0020640D01*
X0015200Y0022480D02*
Y0023480D01*
X0013100D01*
Y0022480D01*
X0013650D01*
X0014650D01*
X0015200D01*
X0015160Y0006160D02*
X0017160D01*
Y0007160D02*
X0015160D01*
X0006340Y0017720D02*
X0006090D01*
X0007840Y0017220D02*
X0006340D01*
Y0018220D01*
X0007840D01*
Y0017220D01*
Y0017720D02*
X0008090D01*
X0009850Y0018470D02*
Y0018220D01*
X0010350Y0019970D02*
Y0018470D01*
X0009350D01*
Y0019970D01*
X0010350D01*
X0009850D02*
Y0020220D01*
X0019200Y0007660D02*
Y0007410D01*
X0019700Y0009160D02*
Y0007660D01*
X0018700D01*
Y0009160D01*
X0019700D01*
X0019200D02*
Y0009410D01*
X0017290Y0011380D02*
X0017540D01*
X0015790Y0011880D02*
X0017290D01*
Y0010880D01*
X0015790D01*
Y0011880D01*
X0010930Y0020690D02*
Y0018690D01*
X0011930D02*
Y0020690D01*
X0015525Y0017230D02*
Y0016730D01*
X0017275D01*
Y0019230D01*
Y0019730D02*
Y0020230D01*
X0015525D01*
Y0017730D01*
X0023010Y0023030D02*
X0022760D01*
X0018890Y0023510D02*
X0020390D01*
Y0022510D01*
X0018890D01*
Y0023510D01*
X0030470Y0016630D02*
X0031970D01*
Y0015630D01*
X0030470D01*
Y0016630D01*
Y0016130D02*
X0030220D01*
X0024970Y0019630D02*
X0024720D01*
X0026470Y0019130D02*
X0024970D01*
Y0020130D01*
X0026470D01*
Y0019130D01*
Y0019630D02*
X0026720D01*
X0040720Y0006880D02*
Y0006630D01*
X0041220Y0008380D02*
Y0006880D01*
X0040220D01*
Y0008380D01*
X0041220D01*
X0040720D02*
Y0008630D01*
X0039220Y0008380D02*
Y0008630D01*
X0038720Y0006880D02*
Y0008380D01*
X0039720D01*
Y0006880D01*
X0038720D01*
X0039220D02*
Y0006630D01*
X0022990Y0020130D02*
X0020990D01*
X0015790Y0011380D02*
X0015540D01*
X0018890Y0023010D02*
X0018640D01*
X0032190Y0022490D02*
Y0023490D01*
X0035190D01*
Y0022490D01*
X0032190D01*
X0036120Y0022240D02*
Y0022490D01*
X0031970Y0016130D02*
X0032220D01*
X0023220Y0011130D02*
X0021220D01*
Y0010130D02*
X0023220D01*
X0003500Y0011200D02*
X0004500D01*
Y0016200D01*
X0003500D01*
Y0011200D01*
Y0016200D02*
X0003450Y0016250D01*
X0031970Y0007630D02*
X0032220D01*
X0030470Y0008130D02*
X0031970D01*
Y0007130D01*
X0030470D01*
Y0008130D01*
Y0007630D02*
X0030220D01*
X0036120Y0020740D02*
Y0020490D01*
X0036620Y0022240D02*
Y0020740D01*
X0035620D01*
Y0022240D01*
X0036620D01*
X0024220Y0017630D02*
X0026220D01*
Y0018630D02*
X0024220D01*
X0030720Y0012630D02*
X0032720D01*
Y0013630D02*
X0030720D01*
X0031970Y0009130D02*
X0032220D01*
X0030470Y0009630D02*
X0031970D01*
Y0008630D01*
X0030470D01*
Y0009630D01*
Y0009130D02*
X0030220D01*
X0028470Y0018130D02*
X0028220D01*
X0029970Y0017630D02*
X0028470D01*
Y0018630D01*
X0029970D01*
Y0017630D01*
Y0018130D02*
X0030220D01*
X0028720Y0019160D02*
X0030720D01*
Y0020160D02*
X0028720D01*
X0005050Y0014640D02*
Y0012640D01*
X0006050D02*
Y0014640D01*
X0030470Y0014630D02*
X0030220D01*
X0031970Y0014130D02*
X0030470D01*
Y0015130D01*
X0031970D01*
Y0014130D01*
Y0014630D02*
X0032220D01*
G01X0005100Y0019840D02*
G03X0006225Y0018715I0001125J0000000D01*
G03X0007350Y0019840I0000000J0001125D01*
G03X0006225Y0020965I0001125J0000000D01*
G03X0005100Y0019840I0000000J0001125D01*
G01X0041220Y0019630D02*
G03X0040095Y0020755I0001125J0000000D01*
G03X0038970Y0019630I0000000J0001125D01*
G03X0040095Y0018505I0001125J0000000D01*
G03X0041220Y0019630I0000000J0001125D01*
Y0011630D02*
G03X0040095Y0012755I0001125J0000000D01*
G03X0038970Y0011630I0000000J0001125D01*
G03X0040095Y0010505I0001125J0000000D01*
G03X0041220Y0011630I0000000J0001125D01*
G01X0023220Y0008630D02*
G03X0022095Y0009755I0001125J0000000D01*
G03X0020970Y0008630I0000000J0001125D01*
G03X0022095Y0007505I0001125J0000000D01*
G03X0023220Y0008630I0000000J0001125D01*
G01X0031720Y0019130D02*
G03X0032845Y0018005I0001125J0000000D01*
G03X0033970Y0019130I0000000J0001125D01*
G03X0032845Y0020255I0001125J0000000D01*
G03X0031720Y0019130I0000000J0001125D01*
G01X0019040Y0020750D02*
G03X0017915Y0019625I0000000J0001125D01*
G03X0019040Y0018500I0001125J0000000D01*
G03X0020165Y0019625I0000000J0001125D01*
G03X0019040Y0020750I0001125J0000000D01*
G01X0028890Y0013670D02*
G03X0027765Y0012545I0000000J0001125D01*
G03X0028890Y0011420I0001125J0000000D01*
G03X0030015Y0012545I0000000J0001125D01*
G03X0028890Y0013670I0001125J0000000D01*
M02*
