%
T1C0.028F200S100
X007850Y008080
X016020Y015130
X016420Y008080
X020800Y015130
X033220Y013005
T3C0.054F200S100
X032220Y017490
X032220Y019490
X032290Y006520
X032290Y008520
X033220Y018490
X033290Y007520
X034220Y017490
X034220Y019490
X034290Y006520
X034290Y008520
T2C0.034F200S100
X004000Y011300
X004000Y012300
X004000Y013300
X004000Y014300
X004000Y015300
T4C0.110F200S100
X001000Y001040
X001000Y025790
X042330Y001040
X042330Y025790
M30
