*
G04 Mass Parameters ***
*
G04 Image ***
*
%IND:\DATE\GPR\HARDWARE\SECTIUNEA_RF\GPR_RF.SMT*%
%ICAS*%
%MOIN*%
%IPPOS*%
%ASAXBY*%
G74*%FSLAN2X34Y34*%
*
G04 Aperture Definitions ***
*
%ADD10C,0.0580*%
%ADD11R,0.0580X0.0580*%
%ADD12C,0.0750*%
%ADD13R,0.0220X0.0220*%
%ADD14R,0.0500X0.0500*%
%ADD15C,0.0550*%
%ADD16R,0.0550X0.0550*%
%ADD17R,0.1000X0.0650*%
%ADD18R,0.0600X0.0600*%
%ADD19R,0.0370X0.0200*%
%ADD20R,0.0370X0.0310*%
%ADD21R,0.0310X0.0660*%
%ADD22C,0.0100*%
%ADD23C,0.0080*%
%ADD24C,0.0010*%
%ADD25C,0.0650*%
%ADD26C,0.0220*%
%ADD27C,0.0440*%
%ADD28C,0.0350*%
%ADD29C,0.0260*%
%ADD30C,0.0600*%
%ADD31C,0.0120*%
%ADD32C,0.0780*%
%ADD33R,0.0780X0.0780*%
%ADD34C,0.0950*%
%ADD35R,0.0750X0.0750*%
%ADD36C,0.0060*%
%ADD37C,0.0040*%
%ADD38R,0.0780X0.0600*%
%ADD39C,0.0400*%
%ADD40C,0.1100*%
%ADD41C,0.1000*%
%ADD42C,0.1400*%
%ADD43C,0.1050*%
%ADD44C,0.0500*%
*
G04 Plot Data ***
*
G54D12*
X0033220Y0018490D03*
X0032220Y0017490D03*
X0034220D03*
Y0019490D03*
X0032220D03*
X0033290Y0007520D03*
X0032290Y0006520D03*
X0034290D03*
Y0008520D03*
X0032290D03*
G54D13*
X0029150Y0007520D03*
X0029570D03*
X0016580Y0018290D03*
X0017000D03*
G54D14*
X0020830Y0006220D03*
X0019990D03*
X0023950Y0019670D03*
X0024790D03*
G54D15*
X0033220Y0013005D03*
X0020800Y0015130D03*
X0016020D03*
X0016420Y0008080D03*
X0007850D03*
X0004000Y0012300D03*
Y0013300D03*
Y0014300D03*
Y0015300D03*
G54D16*
Y0011300D03*
G54D17*
X0022850Y0013050D03*
Y0012050D03*
Y0011050D03*
X0024850D03*
Y0012050D03*
Y0013050D03*
X0026310Y0018350D03*
Y0017350D03*
Y0016350D03*
X0028310D03*
Y0017350D03*
Y0018350D03*
X0006840Y0019310D03*
Y0018310D03*
Y0017310D03*
Y0016310D03*
Y0015310D03*
Y0014310D03*
Y0013310D03*
X0011090D03*
Y0014310D03*
Y0015310D03*
Y0016310D03*
Y0017310D03*
X0011080Y0018300D03*
X0011090Y0019310D03*
G54D18*
X0014030Y0017430D03*
X0014880Y0018280D03*
X0014030Y0019130D03*
X0013180Y0018280D03*
G54D19*
X0026180Y0007580D03*
Y0008030D03*
X0027050Y0007520D03*
Y0008030D03*
X0019470Y0018230D03*
Y0017780D03*
X0018600Y0018290D03*
Y0017780D03*
G54D21*
X0023850Y0007500D03*
X0022850D03*
Y0006230D03*
X0023850D03*
X0021140Y0018330D03*
X0022140D03*
Y0019600D03*
X0021140D03*
G54D43*
X0042330Y0001040D03*
Y0025790D03*
X0001000D03*
Y0001040D03*
M02*
