*
G04 Mass Parameters ***
*
G04 Image ***
*
%IND:\DATE\GPR\HARDWARE\SECTIUNEA_LF\GPR_LF.SSB*%
%ICAS*%
%MOIN*%
%IPPOS*%
%ASAXBY*%
G74*%FSLAN2X34Y34*%
*
G04 Aperture Definitions ***
*
%ADD10C,0.0520*%
%ADD11R,0.0520X0.0520*%
%ADD12C,0.0550*%
%ADD13C,0.0620*%
%ADD14R,0.0620X0.0620*%
%ADD15C,0.0580*%
%ADD16R,0.0580X0.0580*%
%ADD17R,0.0550X0.0550*%
%ADD18C,0.1470*%
%ADD19C,0.0750*%
%ADD20R,0.0750X0.0750*%
%ADD21C,0.0500*%
%ADD22C,0.0010*%
%ADD23C,0.0500*%
%ADD24C,0.0300*%
%ADD25C,0.0200*%
%ADD26O,0.0250X0.0860*%
%ADD27R,0.0250X0.0860*%
%ADD28O,0.0860X0.0250*%
%ADD29R,0.0860X0.0250*%
%ADD30C,0.0100*%
%ADD31C,0.0500*%
%ADD32C,0.0080*%
%ADD33C,0.0250*%
%ADD34C,0.0180*%
%ADD35C,0.0720*%
%ADD36R,0.0720X0.0720*%
%ADD37C,0.0800*%
%ADD38C,0.0820*%
%ADD39R,0.0820X0.0820*%
%ADD40C,0.0780*%
%ADD41R,0.0780X0.0780*%
%ADD42C,0.1750*%
%ADD43C,0.0950*%
%ADD44R,0.0950X0.0950*%
%ADD45C,0.0750*%
%ADD46C,0.0670*%
%ADD47C,0.0550*%
%ADD48O,0.0750X0.0250*%
%ADD49R,0.0750X0.0250*%
%ADD50O,0.0250X0.0750*%
%ADD51R,0.0250X0.0750*%
%ADD52C,0.0400*%
%ADD53C,0.1100*%
%ADD54C,0.1000*%
%ADD55C,0.1400*%
%ADD56C,0.1050*%
*
G04 Plot Data ***
*
G54D32*
G01X0013588Y0005102D02*
X0013421D01*
X0013393Y0005046D01*
Y0004990D01*
X0013421Y0004935D01*
X0013588D01*
X0013616Y0004990D01*
Y0005046D01*
X0013504Y0005268D01*
X0013998Y0005046D02*
Y0004990D01*
X0013970Y0004935D01*
X0013859D01*
X0013831Y0004990D01*
Y0005268D01*
X0013803D02*
X0013914D01*
X0012205Y0004127D02*
X0012094D01*
X0012150D02*
Y0003794D01*
X0012094Y0003850D01*
X0035634Y0022822D02*
X0035745D01*
X0035690D02*
Y0023156D01*
X0035745Y0023100D01*
X0031801Y0022878D02*
X0031745Y0022822D01*
X0031634D01*
X0031579Y0022878D01*
Y0022934D01*
X0031690Y0023045D01*
X0031579Y0023156D01*
X0031801D01*
X0033834Y0003792D02*
X0033945D01*
X0033890D02*
Y0004126D01*
X0033945Y0004070D01*
X0012705Y0023147D02*
X0012594D01*
X0012650D02*
Y0022814D01*
X0012594Y0022870D01*
X0014175Y0021892D02*
X0014203Y0021947D01*
X0014370D01*
X0014398Y0021892D01*
Y0021781D01*
X0014342Y0021725D01*
X0014175D01*
Y0021614D01*
X0014398D01*
X0013793Y0021836D02*
Y0021892D01*
X0013821Y0021947D01*
X0013932D01*
X0013960Y0021892D01*
Y0021614D01*
X0013988D02*
X0013876D01*
X0033644Y0021999D02*
X0033700Y0022055D01*
X0033811D01*
X0033867Y0021999D01*
Y0021944D01*
X0033755Y0021833D01*
X0033867Y0021722D01*
X0033644D01*
X0033262Y0021944D02*
Y0021999D01*
X0033290Y0022055D01*
X0033401D01*
X0033429Y0021999D01*
Y0021722D01*
X0033457D02*
X0033345D01*
X0027585Y0014211D02*
X0027530Y0014267D01*
Y0014378D01*
X0027585Y0014433D01*
X0027641D01*
X0027752Y0014322D01*
X0027863Y0014433D01*
Y0014211D01*
Y0014023D02*
X0027585D01*
X0027530Y0013996D01*
Y0013829D01*
X0027585Y0013801D01*
X0027863D01*
X0017985Y0009131D02*
X0017930Y0009159D01*
Y0009326D01*
X0017985Y0009353D01*
X0018097D01*
X0018152Y0009298D01*
Y0009131D01*
X0018263D01*
Y0009353D01*
Y0008943D02*
X0017985D01*
X0017930Y0008916D01*
Y0008749D01*
X0017985Y0008721D01*
X0018263D01*
X0015353Y0019209D02*
Y0018986D01*
X0015576Y0019098D01*
Y0019153D01*
X0015242D01*
X0015576Y0018799D02*
X0015298D01*
X0015242Y0018771D01*
Y0018604D01*
X0015298Y0018576D01*
X0015576D01*
X0027228Y0008866D02*
Y0008644D01*
X0027450Y0008866D01*
X0027505D01*
X0027561Y0008839D01*
Y0008672D01*
X0027505Y0008644D01*
X0027561Y0008456D02*
X0027283D01*
X0027228Y0008429D01*
Y0008262D01*
X0027283Y0008234D01*
X0027561D01*
X0032647Y0002985D02*
X0032424D01*
X0032647Y0002763D01*
Y0002707D01*
X0032619Y0002652D01*
X0032452D01*
X0032424Y0002707D01*
X0032042Y0002874D02*
Y0002929D01*
X0032070Y0002985D01*
X0032181D01*
X0032209Y0002929D01*
Y0002652D01*
X0032237D02*
X0032125D01*
X0014700Y0004460D02*
Y0003460D01*
X0012600D01*
Y0004460D01*
X0013150D01*
X0014150D01*
X0014700D01*
X0026165Y0015350D02*
Y0012850D01*
X0025415D01*
Y0015350D01*
X0026165D01*
X0031340Y0003460D02*
Y0004460D01*
X0033440D01*
Y0003460D01*
X0032890D01*
X0031890D01*
X0031340D01*
X0015200Y0023480D02*
Y0022480D01*
X0013100D01*
Y0023480D01*
X0013650D01*
X0014650D01*
X0015200D01*
X0026165Y0015100D02*
X0025415D01*
X0014730Y0018525D02*
Y0019275D01*
X0014980Y0018525D02*
Y0019275D01*
X0012480D01*
Y0018525D01*
X0014980D01*
X0016525Y0010250D02*
Y0007750D01*
X0015775D01*
Y0010250D01*
X0016525D01*
Y0010000D02*
X0015775D01*
X0025405Y0007380D02*
X0026155D01*
Y0009880D01*
X0025405D01*
Y0007380D01*
Y0007630D02*
X0026155D01*
X0032190Y0023490D02*
Y0022490D01*
X0035190D01*
Y0023490D01*
X0032190D01*
M02*
