G04 Created by reaConverter (www.reaconverter.com)*
%FSLAX44Y44*%
%MOIN*%
%ADD10C,0.001*%
%LNEXPORT*%
D02*
D10*
%LPD*%
G36*
X0Y105347D02*
Y105139D01*
X208D01*
X417D01*
Y105347D01*
Y105556D01*
X208D01*
X0D01*
Y105347D01*
G37*
%LPD*%
G36*
X24028Y105451D02*
Y105347D01*
X24118D01*
X24139D01*
X24167Y105333D01*
X24194Y105326D01*
X24229Y105306D01*
X24257Y105285D01*
X24292Y105264D01*
X24326Y105236D01*
X24361Y105208D01*
X24389Y105181D01*
X24424Y105153D01*
X24458Y105132D01*
X24486Y105111D01*
X24521Y105090D01*
X24549Y105083D01*
X24569Y105069D01*
X24590D01*
X24611D01*
X24632Y105063D01*
X24660Y105056D01*
X24681Y105042D01*
X24708Y105028D01*
X24736Y105007D01*
X24764Y104993D01*
X24785Y104972D01*
X24819Y104951D01*
X24861Y104924D01*
X24910Y104896D01*
X24979Y104861D01*
X25049Y104826D01*
X25118Y104792D01*
X25201Y104757D01*
X25278Y104722D01*
X25368Y104688D01*
X25465Y104639D01*
X25583Y104590D01*
X25701Y104535D01*
X25826Y104479D01*
X25951Y104424D01*
X26069Y104368D01*
X26181Y104312D01*
X26701Y104062D01*
X26986Y103813D01*
X27271Y103556D01*
X27590Y103417D01*
X27722Y103354D01*
X27861Y103278D01*
X28014Y103194D01*
X28160Y103097D01*
X28306Y103007D01*
X28431Y102910D01*
X28542Y102826D01*
X28625Y102757D01*
X28701Y102687D01*
X28819Y102597D01*
X28965Y102493D01*
X29125Y102382D01*
X29292Y102278D01*
X29451Y102174D01*
X29597Y102090D01*
X29715Y102035D01*
X29965Y101917D01*
X30347Y101542D01*
X30431Y101465D01*
X30514Y101389D01*
X30597Y101313D01*
X30681Y101236D01*
X30757Y101167D01*
X30826Y101111D01*
X30889Y101056D01*
X30938Y101021D01*
X31062Y100917D01*
X31222Y100778D01*
X31389Y100618D01*
X31549Y100458D01*
X31701Y100292D01*
X31826Y100153D01*
X31917Y100049D01*
X31944Y99986D01*
X31965Y99924D01*
X32014Y99826D01*
X32097Y99701D01*
X32201Y99556D01*
X32319Y99396D01*
X32451Y99236D01*
X32583Y99083D01*
X32708Y98937D01*
X32833Y98792D01*
X32986Y98604D01*
X33146Y98396D01*
X33306Y98174D01*
X33451Y97965D01*
X33569Y97785D01*
X33653Y97646D01*
X33681Y97576D01*
X33688Y97549D01*
X33708Y97514D01*
X33736Y97458D01*
X33771Y97389D01*
X33819Y97313D01*
X33875Y97229D01*
X33938Y97132D01*
X34000Y97035D01*
X34319Y96562D01*
X34972Y95243D01*
X35104Y94979D01*
X35222Y94722D01*
X35333Y94486D01*
X35431Y94278D01*
X35514Y94097D01*
X35576Y93958D01*
X35611Y93861D01*
X35625Y93813D01*
X35632Y93750D01*
X35660Y93660D01*
X35701Y93542D01*
X35750Y93403D01*
X35806Y93264D01*
X35868Y93125D01*
X35924Y93000D01*
X35979Y92889D01*
X36000Y92854D01*
X36021Y92806D01*
X36049Y92736D01*
X36076Y92653D01*
X36111Y92563D01*
X36146Y92472D01*
X36181Y92368D01*
X36215Y92264D01*
X36250Y92160D01*
X36299Y92035D01*
X36340Y91903D01*
X36396Y91771D01*
X36444Y91632D01*
X36493Y91507D01*
X36549Y91382D01*
X36590Y91271D01*
X36632Y91167D01*
X36674Y91069D01*
X36708Y90972D01*
X36743Y90882D01*
X36771Y90799D01*
X36792Y90729D01*
X36799Y90681D01*
X36806Y90646D01*
Y90618D01*
X36812Y90590D01*
X36819Y90562D01*
X36826Y90535D01*
X36833Y90507D01*
X36847Y90486D01*
X36861Y90465D01*
X36875Y90444D01*
X36889Y90417D01*
X36917Y90354D01*
X36951Y90264D01*
X36993Y90153D01*
X37042Y90021D01*
X37090Y89875D01*
X37139Y89715D01*
X37194Y89549D01*
X37278Y89257D01*
X37361Y88993D01*
X37444Y88757D01*
X37521Y88535D01*
X37597Y88333D01*
X37667Y88153D01*
X37743Y87979D01*
X37819Y87812D01*
X37875Y87674D01*
X37937Y87535D01*
X37986Y87382D01*
X38042Y87229D01*
X38083Y87076D01*
X38125Y86910D01*
X38167Y86750D01*
X38194Y86576D01*
X38229Y86431D01*
X38264Y86285D01*
X38306Y86132D01*
X38354Y85972D01*
X38417Y85806D01*
X38479Y85632D01*
X38556Y85444D01*
X38646Y85243D01*
X38667Y85194D01*
X38687Y85139D01*
X38708Y85076D01*
X38729Y85014D01*
X38750Y84944D01*
X38771Y84882D01*
X38792Y84819D01*
X38806Y84757D01*
X38826Y84688D01*
X38861Y84583D01*
X38903Y84458D01*
X38951Y84312D01*
X39007Y84160D01*
X39069Y83993D01*
X39132Y83819D01*
X39201Y83646D01*
X39528Y82812D01*
X39583Y82361D01*
X39618Y82090D01*
X39660Y81826D01*
X39708Y81562D01*
X39750Y81326D01*
X39799Y81111D01*
X39847Y80938D01*
X39882Y80812D01*
X39917Y80743D01*
X39986Y80660D01*
X39993Y79375D01*
Y78090D01*
X40069Y77396D01*
X40153Y76701D01*
X40181Y75382D01*
X40188Y75104D01*
X40201Y74819D01*
X40208Y74535D01*
X40222Y74257D01*
X40236Y74000D01*
X40250Y73764D01*
X40264Y73563D01*
X40278Y73403D01*
X40292Y73243D01*
X40306Y73049D01*
X40326Y72812D01*
X40347Y72563D01*
X40361Y72292D01*
X40382Y72007D01*
X40396Y71729D01*
X40417Y71458D01*
X40431Y71181D01*
X40451Y70889D01*
X40472Y70583D01*
X40500Y70285D01*
X40521Y69993D01*
X40549Y69722D01*
X40569Y69479D01*
X40590Y69271D01*
X40611Y69076D01*
X40632Y68882D01*
X40653Y68687D01*
X40667Y68500D01*
X40681Y68319D01*
X40688Y68160D01*
X40694Y68021D01*
Y67917D01*
X40701Y67806D01*
X40708Y67674D01*
X40715Y67528D01*
X40729Y67361D01*
X40743Y67188D01*
X40764Y67014D01*
X40778Y66833D01*
X40799Y66667D01*
X40819Y66479D01*
X40847Y66243D01*
X40868Y65979D01*
X40889Y65688D01*
X40917Y65375D01*
X40938Y65063D01*
X40951Y64750D01*
X40965Y64444D01*
X40986Y64146D01*
X41000Y63854D01*
X41014Y63569D01*
X41028Y63306D01*
X41042Y63062D01*
X41056Y62854D01*
X41069Y62688D01*
X41083Y62569D01*
X41090Y62451D01*
X41104Y62278D01*
X41118Y62069D01*
X41132Y61819D01*
X41146Y61549D01*
X41160Y61264D01*
X41167Y60965D01*
X41181Y60660D01*
X41201Y60153D01*
X41229Y59674D01*
X41250Y59229D01*
X41285Y58799D01*
X41319Y58382D01*
X41361Y57958D01*
X41403Y57528D01*
X41458Y57083D01*
X41472Y56938D01*
X41493Y56750D01*
X41514Y56521D01*
X41535Y56271D01*
X41562Y56000D01*
X41583Y55715D01*
X41611Y55431D01*
X41632Y55153D01*
X41736Y53806D01*
X41812Y53667D01*
X41889Y53521D01*
X41931Y52785D01*
X41965Y52049D01*
X42007Y52014D01*
X42028Y51972D01*
X42049Y51882D01*
X42083Y51722D01*
X42118Y51493D01*
X42160Y51194D01*
X42208Y50806D01*
X42264Y50326D01*
X42333Y49757D01*
X42444Y48854D01*
X42646Y48069D01*
X42847Y47285D01*
Y46938D01*
Y46590D01*
X42931Y46438D01*
X43007Y46285D01*
X43139Y45382D01*
X43167Y45194D01*
X43194Y45007D01*
X43229Y44826D01*
X43257Y44653D01*
X43292Y44493D01*
X43319Y44354D01*
X43340Y44243D01*
X43368Y44160D01*
X43465Y43840D01*
X43535Y43118D01*
X43556Y42965D01*
X43569Y42806D01*
X43590Y42639D01*
X43618Y42479D01*
X43639Y42319D01*
X43667Y42174D01*
X43687Y42049D01*
X43708Y41944D01*
X43729Y41840D01*
X43757Y41708D01*
X43792Y41569D01*
X43819Y41410D01*
X43854Y41250D01*
X43889Y41083D01*
X43924Y40917D01*
X43951Y40764D01*
X44014Y40458D01*
X44083Y40111D01*
X44160Y39743D01*
X44236Y39382D01*
X44312Y39028D01*
X44389Y38701D01*
X44451Y38431D01*
X44507Y38222D01*
X44521Y38153D01*
X44535Y38076D01*
X44556Y37993D01*
X44569Y37896D01*
X44583Y37799D01*
X44597Y37694D01*
X44611Y37597D01*
X44618Y37500D01*
X44667Y37049D01*
X44833Y36493D01*
X44972Y36014D01*
X45104Y35576D01*
X45222Y35174D01*
X45326Y34799D01*
X45424Y34458D01*
X45507Y34132D01*
X45583Y33833D01*
X45653Y33542D01*
X45681Y33438D01*
X45715Y33313D01*
X45750Y33174D01*
X45792Y33021D01*
X45840Y32861D01*
X45882Y32701D01*
X45931Y32542D01*
X45972Y32396D01*
X46014Y32250D01*
X46062Y32104D01*
X46104Y31958D01*
X46139Y31826D01*
X46174Y31694D01*
X46208Y31583D01*
X46229Y31493D01*
X46243Y31424D01*
X46292Y31257D01*
X46368Y31000D01*
X46465Y30694D01*
X46576Y30354D01*
X46694Y30021D01*
X46799Y29722D01*
X46889Y29486D01*
X46944Y29340D01*
X46965Y29306D01*
X46986Y29250D01*
X47014Y29181D01*
X47049Y29097D01*
X47083Y29007D01*
X47118Y28917D01*
X47153Y28812D01*
X47194Y28715D01*
X47229Y28618D01*
X47264Y28521D01*
X47306Y28431D01*
X47333Y28354D01*
X47368Y28285D01*
X47389Y28222D01*
X47410Y28181D01*
X47424Y28160D01*
X47437Y28139D01*
X47451Y28104D01*
X47472Y28063D01*
X47500Y28007D01*
X47521Y27951D01*
X47549Y27882D01*
X47576Y27812D01*
X47597Y27743D01*
X47625Y27667D01*
X47667Y27569D01*
X47708Y27472D01*
X47757Y27361D01*
X47806Y27257D01*
X47854Y27146D01*
X47903Y27042D01*
X47958Y26937D01*
X48007Y26840D01*
X48062Y26722D01*
X48118Y26590D01*
X48181Y26458D01*
X48236Y26319D01*
X48299Y26181D01*
X48347Y26056D01*
X48396Y25931D01*
X48479Y25722D01*
X48583Y25465D01*
X48694Y25188D01*
X48819Y24903D01*
X48944Y24625D01*
X49062Y24375D01*
X49160Y24160D01*
X49236Y24014D01*
X49250Y23986D01*
X49264Y23958D01*
X49278Y23924D01*
X49285Y23896D01*
X49292Y23861D01*
X49299Y23833D01*
X49306Y23799D01*
Y23778D01*
Y23660D01*
X49410Y23583D01*
X49438Y23556D01*
X49479Y23500D01*
X49528Y23431D01*
X49583Y23333D01*
X49646Y23229D01*
X49708Y23111D01*
X49778Y22979D01*
X49847Y22847D01*
X50028Y22493D01*
X50222Y22132D01*
X50417Y21771D01*
X50597Y21438D01*
X50771Y21132D01*
X50917Y20882D01*
X51035Y20694D01*
X51111Y20590D01*
X51167Y20514D01*
X51236Y20410D01*
X51306Y20292D01*
X51375Y20160D01*
X51431Y20042D01*
X51479Y19931D01*
X51514Y19840D01*
X51528Y19778D01*
Y19757D01*
X51535Y19736D01*
X51549Y19715D01*
X51556Y19688D01*
X51569Y19660D01*
X51590Y19639D01*
X51611Y19611D01*
X51632Y19583D01*
X51653Y19549D01*
X51694Y19493D01*
X51736Y19417D01*
X51792Y19326D01*
X51847Y19215D01*
X51910Y19104D01*
X51979Y18979D01*
X52042Y18847D01*
X52354Y18222D01*
X52500Y18090D01*
X52535Y18056D01*
X52569Y18021D01*
X52604Y17979D01*
X52639Y17937D01*
X52667Y17896D01*
X52694Y17854D01*
X52722Y17812D01*
X52743Y17778D01*
X52771Y17729D01*
X52806Y17681D01*
X52847Y17618D01*
X52889Y17549D01*
X52944Y17479D01*
X53000Y17403D01*
X53062Y17326D01*
X53118Y17257D01*
X53174Y17188D01*
X53229Y17118D01*
X53278Y17056D01*
X53319Y16993D01*
X53354Y16944D01*
X53382Y16903D01*
X53396Y16875D01*
X53403Y16854D01*
X53417Y16813D01*
X53458Y16736D01*
X53528Y16618D01*
X53618Y16465D01*
X53736Y16278D01*
X53882Y16056D01*
X54042Y15806D01*
X54229Y15521D01*
X54271Y15458D01*
X54312Y15396D01*
X54368Y15326D01*
X54417Y15264D01*
X54472Y15194D01*
X54521Y15139D01*
X54569Y15083D01*
X54618Y15035D01*
X54667Y14979D01*
X54722Y14910D01*
X54785Y14833D01*
X54854Y14743D01*
X54924Y14646D01*
X54993Y14542D01*
X55056Y14437D01*
X55118Y14333D01*
X55417Y13847D01*
X56354Y12882D01*
X56549Y12681D01*
X56743Y12479D01*
X56924Y12285D01*
X57097Y12097D01*
X57250Y11931D01*
X57382Y11785D01*
X57479Y11667D01*
X57556Y11583D01*
X57604Y11514D01*
X57653Y11451D01*
X57701Y11396D01*
X57750Y11347D01*
X57785Y11306D01*
X57819Y11278D01*
X57847Y11257D01*
X57861Y11250D01*
X57875D01*
X57882Y11243D01*
X57889Y11236D01*
X57903Y11222D01*
X57910Y11215D01*
Y11201D01*
X57917Y11181D01*
Y11167D01*
Y11083D01*
X58611Y10410D01*
X58750Y10271D01*
X58882Y10146D01*
X59000Y10028D01*
X59104Y9924D01*
X59187Y9833D01*
X59250Y9764D01*
X59292Y9722D01*
X59306Y9694D01*
X59312Y9681D01*
X59333Y9653D01*
X59368Y9618D01*
X59410Y9569D01*
X59465Y9521D01*
X59528Y9458D01*
X59597Y9396D01*
X59667Y9326D01*
X59750Y9250D01*
X59847Y9167D01*
X59944Y9069D01*
X60049Y8965D01*
X60160Y8868D01*
X60264Y8764D01*
X60361Y8667D01*
X60451Y8576D01*
X60611Y8424D01*
X60764Y8285D01*
X60903Y8160D01*
X61035Y8049D01*
X61153Y7965D01*
X61250Y7903D01*
X61326Y7861D01*
X61375Y7847D01*
X61403Y7840D01*
X61438Y7819D01*
X61486Y7785D01*
X61542Y7736D01*
X61611Y7681D01*
X61687Y7611D01*
X61764Y7542D01*
X61847Y7465D01*
X61938Y7382D01*
X62035Y7292D01*
X62132Y7201D01*
X62229Y7118D01*
X62319Y7028D01*
X62410Y6951D01*
X62493Y6882D01*
X62563Y6819D01*
X62625Y6764D01*
X62688Y6708D01*
X62750Y6660D01*
X62812Y6604D01*
X62861Y6556D01*
X62910Y6514D01*
X62951Y6479D01*
X62979Y6451D01*
X63000Y6431D01*
X63028Y6403D01*
X63062Y6375D01*
X63090Y6354D01*
X63118Y6333D01*
X63153Y6313D01*
X63181Y6292D01*
X63201Y6278D01*
X63236Y6257D01*
X63285Y6222D01*
X63340Y6174D01*
X63410Y6118D01*
X63486Y6049D01*
X63569Y5979D01*
X63660Y5896D01*
X63743Y5812D01*
X63833Y5736D01*
X63924Y5653D01*
X64014Y5569D01*
X64104Y5500D01*
X64181Y5431D01*
X64250Y5375D01*
X64312Y5326D01*
X64361Y5299D01*
X64403Y5271D01*
X64438Y5243D01*
X64479Y5215D01*
X64514Y5187D01*
X64549Y5167D01*
X64576Y5139D01*
X64597Y5118D01*
X64618Y5104D01*
X64639Y5076D01*
X64681Y5049D01*
X64743Y5007D01*
X64812Y4951D01*
X64889Y4896D01*
X64979Y4833D01*
X65076Y4764D01*
X65174Y4701D01*
X65354Y4583D01*
X65507Y4472D01*
X65646Y4375D01*
X65778Y4278D01*
X65924Y4174D01*
X66083Y4056D01*
X66271Y3917D01*
X66493Y3743D01*
X66583Y3674D01*
X66681Y3604D01*
X66785Y3535D01*
X66889Y3458D01*
X66993Y3389D01*
X67090Y3326D01*
X67181Y3271D01*
X67257Y3229D01*
X67451Y3111D01*
X67743Y2924D01*
X68104Y2688D01*
X68500Y2424D01*
X68896Y2153D01*
X69271Y1903D01*
X69576Y1687D01*
X69792Y1528D01*
X69861Y1479D01*
X69958Y1403D01*
X70083Y1312D01*
X70229Y1201D01*
X70396Y1076D01*
X70569Y944D01*
X70757Y812D01*
X70944Y674D01*
X71854Y0D01*
X77250D01*
X82639D01*
Y33597D01*
Y67201D01*
X82222Y67312D01*
X81806Y67431D01*
X80958D01*
X80104D01*
X79653Y67507D01*
X79201Y67576D01*
X78007Y67569D01*
X76806Y67563D01*
Y67618D01*
Y67674D01*
X75854Y67681D01*
X75458Y67688D01*
X75035Y67701D01*
X74583Y67722D01*
X74118Y67750D01*
X73653Y67785D01*
X73194Y67826D01*
X72757Y67868D01*
X72354Y67917D01*
X71993Y67951D01*
X71597Y67993D01*
X71167Y68035D01*
X70708Y68069D01*
X70243Y68104D01*
X69778Y68132D01*
X69326Y68153D01*
X68889Y68167D01*
X67882Y68201D01*
X67812Y68271D01*
X67750Y68333D01*
X66340D01*
X64931D01*
Y68396D01*
Y68458D01*
X63007Y68500D01*
X61076Y68549D01*
X60243Y68681D01*
X60063Y68708D01*
X59868Y68736D01*
X59667Y68757D01*
X59458Y68785D01*
X59257Y68806D01*
X59069Y68826D01*
X58896Y68840D01*
X58743Y68847D01*
X58083Y68889D01*
X57681Y68993D01*
X57597Y69014D01*
X57507Y69035D01*
X57410Y69049D01*
X57319Y69069D01*
X57222Y69083D01*
X57139Y69090D01*
X57063Y69097D01*
X56993D01*
X56931Y69104D01*
X56861D01*
X56785Y69111D01*
X56708Y69118D01*
X56632Y69132D01*
X56556Y69146D01*
X56486Y69160D01*
X56424Y69174D01*
X56292Y69201D01*
X56118Y69236D01*
X55896Y69278D01*
X55618Y69326D01*
X55299Y69375D01*
X54931Y69431D01*
X54507Y69486D01*
X54028Y69556D01*
X53854Y69576D01*
X53674Y69604D01*
X53486Y69639D01*
X53299Y69667D01*
X53118Y69701D01*
X52951Y69736D01*
X52799Y69764D01*
X52674Y69792D01*
X52361Y69861D01*
X52090Y69924D01*
X51854Y69972D01*
X51646Y70007D01*
X51451Y70042D01*
X51257Y70069D01*
X51056Y70090D01*
X50833Y70111D01*
X50243Y70160D01*
X49618Y70368D01*
X48993Y70569D01*
X48438Y70604D01*
X47882Y70646D01*
X47604Y70799D01*
X47542Y70833D01*
X47479Y70868D01*
X47403Y70903D01*
X47333Y70938D01*
X47257Y70965D01*
X47188Y70993D01*
X47125Y71021D01*
X47069Y71042D01*
X47007Y71056D01*
X46938Y71083D01*
X46861Y71118D01*
X46778Y71153D01*
X46694Y71194D01*
X46604Y71236D01*
X46521Y71278D01*
X46444Y71319D01*
X46368Y71361D01*
X46292Y71403D01*
X46215Y71437D01*
X46146Y71465D01*
X46083Y71493D01*
X46035Y71507D01*
X45986Y71521D01*
X45958Y71528D01*
X45924D01*
X45875Y71542D01*
X45813Y71562D01*
X45743Y71590D01*
X45667Y71618D01*
X45576Y71653D01*
X45493Y71688D01*
X45403Y71729D01*
X44965Y71938D01*
X44722Y72188D01*
X44667Y72243D01*
X44604Y72306D01*
X44535Y72375D01*
X44458Y72451D01*
X44375Y72528D01*
X44299Y72604D01*
X44229Y72681D01*
X44160Y72750D01*
X43833Y73062D01*
X43653Y73493D01*
X43611Y73583D01*
X43576Y73667D01*
X43535Y73750D01*
X43500Y73826D01*
X43465Y73896D01*
X43438Y73951D01*
X43417Y74000D01*
X43396Y74028D01*
X43361Y74090D01*
X43319Y74160D01*
X43285Y74236D01*
X43250Y74319D01*
X43215Y74417D01*
X43174Y74521D01*
X43139Y74639D01*
X43097Y74771D01*
X42986Y75132D01*
Y75438D01*
Y75743D01*
X42882Y76083D01*
X42778Y76424D01*
Y76792D01*
Y77153D01*
X42708D01*
X42639D01*
Y78319D01*
Y78590D01*
X42646Y78924D01*
X42653Y79312D01*
X42660Y79729D01*
X42674Y80167D01*
X42681Y80618D01*
X42694Y81063D01*
X42715Y81493D01*
X42785Y83507D01*
X42875Y83715D01*
X42965Y83924D01*
X43049Y84535D01*
X43132Y85139D01*
X43292Y85444D01*
X43451Y85750D01*
X43569Y86264D01*
X43590Y86368D01*
X43618Y86486D01*
X43646Y86604D01*
X43674Y86722D01*
X43694Y86833D01*
X43722Y86944D01*
X43743Y87035D01*
X43757Y87118D01*
X43778Y87188D01*
X43799Y87264D01*
X43819Y87333D01*
X43840Y87403D01*
X43861Y87465D01*
X43882Y87528D01*
X43903Y87569D01*
X43924Y87604D01*
X43944Y87646D01*
X43965Y87694D01*
X43986Y87757D01*
X44014Y87826D01*
X44035Y87910D01*
X44056Y87993D01*
X44076Y88076D01*
X44097Y88160D01*
X44118Y88257D01*
X44146Y88354D01*
X44174Y88465D01*
X44208Y88576D01*
X44243Y88687D01*
X44278Y88799D01*
X44312Y88896D01*
X44347Y88986D01*
X44382Y89076D01*
X44410Y89160D01*
X44438Y89243D01*
X44465Y89326D01*
X44486Y89396D01*
X44500Y89458D01*
X44514Y89514D01*
Y89556D01*
Y89708D01*
X44611Y89743D01*
X44701Y89778D01*
X44743Y89944D01*
X44806Y90201D01*
X44861Y90424D01*
X44917Y90618D01*
X44965Y90792D01*
X45014Y90951D01*
X45069Y91090D01*
X45118Y91222D01*
X45174Y91354D01*
X45215Y91437D01*
X45250Y91528D01*
X45285Y91618D01*
X45319Y91708D01*
X45347Y91799D01*
X45368Y91875D01*
X45389Y91944D01*
X45396Y92007D01*
X45437Y92257D01*
X45521Y92326D01*
X45542Y92347D01*
X45562Y92368D01*
X45576Y92396D01*
X45597Y92431D01*
X45611Y92465D01*
X45625Y92507D01*
X45639Y92542D01*
X45653Y92583D01*
X45667Y92632D01*
X45688Y92694D01*
X45715Y92778D01*
X45750Y92868D01*
X45792Y92965D01*
X45840Y93076D01*
X45889Y93188D01*
X45938Y93292D01*
X45986Y93403D01*
X46035Y93507D01*
X46076Y93597D01*
X46111Y93687D01*
X46139Y93757D01*
X46160Y93819D01*
X46174Y93861D01*
X46181Y93889D01*
X46187Y93924D01*
X46201Y93979D01*
X46229Y94062D01*
X46271Y94167D01*
X46333Y94299D01*
X46403Y94465D01*
X46493Y94660D01*
X46597Y94896D01*
X46764Y95264D01*
X46931Y95646D01*
X47097Y96028D01*
X47243Y96389D01*
X47375Y96708D01*
X47479Y96972D01*
X47549Y97160D01*
X47569Y97257D01*
Y97368D01*
X47743Y97542D01*
X47778Y97576D01*
X47812Y97611D01*
X47840Y97653D01*
X47868Y97687D01*
X47889Y97715D01*
X47903Y97750D01*
X47910Y97771D01*
X47917Y97792D01*
X47937Y97847D01*
X47993Y97938D01*
X48076Y98049D01*
X48167Y98174D01*
X48264Y98299D01*
X48361Y98410D01*
X48438Y98493D01*
X48486Y98528D01*
X48500Y98535D01*
X48507Y98549D01*
X48521Y98563D01*
X48528Y98576D01*
X48535Y98590D01*
Y98611D01*
X48542Y98632D01*
Y98653D01*
Y98750D01*
X48611D01*
X48681D01*
Y98847D01*
Y98937D01*
X48944Y99243D01*
X49042Y99361D01*
X49139Y99486D01*
X49236Y99618D01*
X49340Y99764D01*
X49438Y99924D01*
X49535Y100083D01*
X49632Y100243D01*
X49722Y100417D01*
X49750Y100458D01*
X49785Y100514D01*
X49826Y100569D01*
X49882Y100632D01*
X49937Y100701D01*
X49993Y100764D01*
X50056Y100826D01*
X50111Y100889D01*
X50174Y100944D01*
X50236Y101014D01*
X50292Y101076D01*
X50354Y101146D01*
X50410Y101215D01*
X50458Y101278D01*
X50500Y101333D01*
X50528Y101382D01*
X50660Y101604D01*
X51007Y101819D01*
X51146Y101910D01*
X51257Y101986D01*
X51354Y102049D01*
X51444Y102118D01*
X51528Y102188D01*
X51625Y102271D01*
X51743Y102382D01*
X51889Y102514D01*
X52250Y102847D01*
X52556Y103125D01*
X52806Y103347D01*
X53021Y103521D01*
X53215Y103660D01*
X53382Y103778D01*
X53549Y103868D01*
X53722Y103951D01*
X53792Y103986D01*
X53875Y104028D01*
X53972Y104090D01*
X54083Y104153D01*
X54201Y104222D01*
X54319Y104299D01*
X54444Y104375D01*
X54563Y104451D01*
X54736Y104576D01*
X54896Y104681D01*
X55042Y104771D01*
X55181Y104861D01*
X55333Y104951D01*
X55493Y105049D01*
X55674Y105160D01*
X55889Y105285D01*
X55931Y105312D01*
X55972Y105340D01*
X56014Y105368D01*
X56042Y105396D01*
X56069Y105424D01*
X56090Y105444D01*
X56104Y105465D01*
X56111Y105486D01*
Y105556D01*
X40069D01*
X24028D01*
Y105451D01*
G37*
%LPD*%
G36*
X82153Y105312D02*
Y105069D01*
X82396D01*
X82639D01*
Y105312D01*
Y105556D01*
X82396D01*
X82153D01*
Y105312D01*
G37*
%LPD*%
G36*
X0Y153D02*
Y28D01*
X174Y14D01*
X347Y0D01*
Y139D01*
Y278D01*
X174D01*
X0D01*
Y153D01*
G37*
D02M02*
